%TF.GenerationSoftware,KiCad,Pcbnew,(6.0.2)*%
%TF.CreationDate,2022-03-18T21:37:06+08:00*%
%TF.ProjectId,Morse_code_PCB,4d6f7273-655f-4636-9f64-655f5043422e,rev?*%
%TF.SameCoordinates,Original*%
%TF.FileFunction,Copper,L1,Top*%
%TF.FilePolarity,Positive*%
%FSLAX46Y46*%
G04 Gerber Fmt 4.6, Leading zero omitted, Abs format (unit mm)*
G04 Created by KiCad (PCBNEW (6.0.2)) date 2022-03-18 21:37:06*
%MOMM*%
%LPD*%
G01*
G04 APERTURE LIST*
G04 Aperture macros list*
%AMRoundRect*
0 Rectangle with rounded corners*
0 $1 Rounding radius*
0 $2 $3 $4 $5 $6 $7 $8 $9 X,Y pos of 4 corners*
0 Add a 4 corners polygon primitive as box body*
4,1,4,$2,$3,$4,$5,$6,$7,$8,$9,$2,$3,0*
0 Add four circle primitives for the rounded corners*
1,1,$1+$1,$2,$3*
1,1,$1+$1,$4,$5*
1,1,$1+$1,$6,$7*
1,1,$1+$1,$8,$9*
0 Add four rect primitives between the rounded corners*
20,1,$1+$1,$2,$3,$4,$5,0*
20,1,$1+$1,$4,$5,$6,$7,0*
20,1,$1+$1,$6,$7,$8,$9,0*
20,1,$1+$1,$8,$9,$2,$3,0*%
G04 Aperture macros list end*
%TA.AperFunction,SMDPad,CuDef*%
%ADD10RoundRect,0.225000X0.225000X0.250000X-0.225000X0.250000X-0.225000X-0.250000X0.225000X-0.250000X0*%
%TD*%
%TA.AperFunction,SMDPad,CuDef*%
%ADD11RoundRect,0.200000X-0.275000X0.200000X-0.275000X-0.200000X0.275000X-0.200000X0.275000X0.200000X0*%
%TD*%
%TA.AperFunction,SMDPad,CuDef*%
%ADD12RoundRect,0.200000X0.200000X0.275000X-0.200000X0.275000X-0.200000X-0.275000X0.200000X-0.275000X0*%
%TD*%
%TA.AperFunction,SMDPad,CuDef*%
%ADD13RoundRect,0.250000X-0.475000X0.250000X-0.475000X-0.250000X0.475000X-0.250000X0.475000X0.250000X0*%
%TD*%
%TA.AperFunction,SMDPad,CuDef*%
%ADD14RoundRect,0.150000X0.587500X0.150000X-0.587500X0.150000X-0.587500X-0.150000X0.587500X-0.150000X0*%
%TD*%
%TA.AperFunction,ComponentPad*%
%ADD15R,2.000000X2.000000*%
%TD*%
%TA.AperFunction,ComponentPad*%
%ADD16C,2.000000*%
%TD*%
%TA.AperFunction,SMDPad,CuDef*%
%ADD17RoundRect,0.200000X-0.200000X-0.275000X0.200000X-0.275000X0.200000X0.275000X-0.200000X0.275000X0*%
%TD*%
%TA.AperFunction,ComponentPad*%
%ADD18O,2.000000X1.200000*%
%TD*%
%TA.AperFunction,SMDPad,CuDef*%
%ADD19R,0.700000X0.600000*%
%TD*%
%TA.AperFunction,SMDPad,CuDef*%
%ADD20RoundRect,0.218750X0.218750X0.256250X-0.218750X0.256250X-0.218750X-0.256250X0.218750X-0.256250X0*%
%TD*%
%TA.AperFunction,SMDPad,CuDef*%
%ADD21RoundRect,0.218750X0.381250X-0.218750X0.381250X0.218750X-0.381250X0.218750X-0.381250X-0.218750X0*%
%TD*%
%TA.AperFunction,ComponentPad*%
%ADD22R,1.500000X2.500000*%
%TD*%
%TA.AperFunction,SMDPad,CuDef*%
%ADD23RoundRect,0.250000X0.325000X0.650000X-0.325000X0.650000X-0.325000X-0.650000X0.325000X-0.650000X0*%
%TD*%
%TA.AperFunction,SMDPad,CuDef*%
%ADD24RoundRect,0.250000X-0.650000X0.325000X-0.650000X-0.325000X0.650000X-0.325000X0.650000X0.325000X0*%
%TD*%
%TA.AperFunction,SMDPad,CuDef*%
%ADD25RoundRect,0.250000X-0.325000X-0.650000X0.325000X-0.650000X0.325000X0.650000X-0.325000X0.650000X0*%
%TD*%
%TA.AperFunction,SMDPad,CuDef*%
%ADD26RoundRect,0.150000X-0.512500X-0.150000X0.512500X-0.150000X0.512500X0.150000X-0.512500X0.150000X0*%
%TD*%
%TA.AperFunction,ComponentPad*%
%ADD27R,1.524000X1.524000*%
%TD*%
%TA.AperFunction,ComponentPad*%
%ADD28C,1.524000*%
%TD*%
%TA.AperFunction,SMDPad,CuDef*%
%ADD29RoundRect,0.250000X0.475000X-0.250000X0.475000X0.250000X-0.475000X0.250000X-0.475000X-0.250000X0*%
%TD*%
%TA.AperFunction,SMDPad,CuDef*%
%ADD30R,0.600000X1.450000*%
%TD*%
%TA.AperFunction,SMDPad,CuDef*%
%ADD31R,0.300000X1.450000*%
%TD*%
%TA.AperFunction,ComponentPad*%
%ADD32O,1.000000X2.100000*%
%TD*%
%TA.AperFunction,ComponentPad*%
%ADD33O,1.000000X1.600000*%
%TD*%
%TA.AperFunction,SMDPad,CuDef*%
%ADD34R,1.200000X2.500000*%
%TD*%
%TA.AperFunction,SMDPad,CuDef*%
%ADD35R,1.400000X0.300000*%
%TD*%
%TA.AperFunction,SMDPad,CuDef*%
%ADD36RoundRect,0.200000X0.275000X-0.200000X0.275000X0.200000X-0.275000X0.200000X-0.275000X-0.200000X0*%
%TD*%
%TA.AperFunction,SMDPad,CuDef*%
%ADD37RoundRect,0.100000X0.100000X-0.637500X0.100000X0.637500X-0.100000X0.637500X-0.100000X-0.637500X0*%
%TD*%
%TA.AperFunction,SMDPad,CuDef*%
%ADD38RoundRect,0.150000X0.150000X-0.587500X0.150000X0.587500X-0.150000X0.587500X-0.150000X-0.587500X0*%
%TD*%
%TA.AperFunction,SMDPad,CuDef*%
%ADD39RoundRect,0.150000X-0.587500X-0.150000X0.587500X-0.150000X0.587500X0.150000X-0.587500X0.150000X0*%
%TD*%
%TA.AperFunction,ComponentPad*%
%ADD40O,1.200000X2.000000*%
%TD*%
%TA.AperFunction,ViaPad*%
%ADD41C,3.100000*%
%TD*%
%TA.AperFunction,ViaPad*%
%ADD42C,0.800000*%
%TD*%
%TA.AperFunction,Conductor*%
%ADD43C,0.300000*%
%TD*%
G04 APERTURE END LIST*
D10*
%TO.P,C2,1*%
%TO.N,Net-(C2-Pad1)*%
X104975000Y-146100000D03*
%TO.P,C2,2*%
%TO.N,GND*%
X103425000Y-146100000D03*
%TD*%
D11*
%TO.P,R19,1*%
%TO.N,IIC_SCL*%
X110600000Y-133675000D03*
%TO.P,R19,2*%
%TO.N,VCC*%
X110600000Y-135325000D03*
%TD*%
D12*
%TO.P,R21,1*%
%TO.N,MUTE*%
X86625000Y-139600000D03*
%TO.P,R21,2*%
%TO.N,Net-(Q4-Pad1)*%
X84975000Y-139600000D03*
%TD*%
D13*
%TO.P,C4,1*%
%TO.N,Net-(C4-Pad1)*%
X108820000Y-152750000D03*
%TO.P,C4,2*%
%TO.N,GND*%
X108820000Y-154650000D03*
%TD*%
D14*
%TO.P,Q3,1,G*%
%TO.N,Net-(Q3-Pad1)*%
X87137500Y-143350000D03*
%TO.P,Q3,2,S*%
%TO.N,GND*%
X87137500Y-141450000D03*
%TO.P,Q3,3,D*%
%TO.N,Net-(BZ1-Pad2)*%
X85262500Y-142400000D03*
%TD*%
D15*
%TO.P,BZ1,1,-*%
%TO.N,Net-(BZ1-Pad1)*%
X80070785Y-139800000D03*
D16*
%TO.P,BZ1,2,+*%
%TO.N,Net-(BZ1-Pad2)*%
X75070785Y-139800000D03*
%TD*%
D17*
%TO.P,R20,1*%
%TO.N,Net-(Q4-Pad1)*%
X84875000Y-137900000D03*
%TO.P,R20,2*%
%TO.N,VCC*%
X86525000Y-137900000D03*
%TD*%
D18*
%TO.P,J4,1,Pin_1*%
%TO.N,BAT_IN*%
X127560000Y-156500000D03*
%TO.P,J4,2,Pin_2*%
%TO.N,GND*%
X127560000Y-153960000D03*
%TD*%
D17*
%TO.P,R18,1*%
%TO.N,IIC_SDL*%
X106575000Y-137300000D03*
%TO.P,R18,2*%
%TO.N,VCC*%
X108225000Y-137300000D03*
%TD*%
D19*
%TO.P,D1,1,K*%
%TO.N,Net-(D1-Pad1)*%
X96570000Y-160570000D03*
%TO.P,D1,2,A*%
%TO.N,PWR_EN*%
X96570000Y-159170000D03*
%TD*%
D20*
%TO.P,D2,1,K*%
%TO.N,GND*%
X128487500Y-150300000D03*
%TO.P,D2,2,A*%
%TO.N,Net-(D2-Pad2)*%
X126912500Y-150300000D03*
%TD*%
D12*
%TO.P,R8,1*%
%TO.N,Net-(C8-Pad1)*%
X103615000Y-156920000D03*
%TO.P,R8,2*%
%TO.N,BAT_ADC*%
X101965000Y-156920000D03*
%TD*%
D17*
%TO.P,R17,1*%
%TO.N,GND*%
X84975000Y-145000000D03*
%TO.P,R17,2*%
%TO.N,Net-(Q3-Pad1)*%
X86625000Y-145000000D03*
%TD*%
D10*
%TO.P,C3,1*%
%TO.N,Net-(C3-Pad1)*%
X108075000Y-145600000D03*
%TO.P,C3,2*%
%TO.N,GND*%
X106525000Y-145600000D03*
%TD*%
D11*
%TO.P,R2,1*%
%TO.N,Net-(C1-Pad1)*%
X94250000Y-147475000D03*
%TO.P,R2,2*%
%TO.N,VCC*%
X94250000Y-149125000D03*
%TD*%
D21*
%TO.P,L1,1,1*%
%TO.N,VCC*%
X98050000Y-149212500D03*
%TO.P,L1,2,2*%
%TO.N,Net-(L1-Pad2)*%
X98050000Y-147087500D03*
%TD*%
D22*
%TO.P,SW1,6*%
%TO.N,N/C*%
X115950000Y-141150000D03*
%TO.P,SW1,7*%
X128450000Y-141150000D03*
D16*
%TO.P,SW1,A,A*%
%TO.N,Net-(C2-Pad1)*%
X119700000Y-148650000D03*
%TO.P,SW1,B,B*%
%TO.N,Net-(C3-Pad1)*%
X124700000Y-148650000D03*
%TO.P,SW1,C,C*%
%TO.N,GND*%
X122200000Y-148650000D03*
D15*
%TO.P,SW1,S1,S1*%
%TO.N,K1*%
X119700000Y-134150000D03*
D16*
%TO.P,SW1,S2,S2*%
%TO.N,GND*%
X124700000Y-134150000D03*
%TD*%
D23*
%TO.P,C8,1*%
%TO.N,Net-(C8-Pad1)*%
X104775000Y-154750000D03*
%TO.P,C8,2*%
%TO.N,GND*%
X101825000Y-154750000D03*
%TD*%
D24*
%TO.P,C5,1*%
%TO.N,USB_VCC*%
X114200000Y-153725000D03*
%TO.P,C5,2*%
%TO.N,GND*%
X114200000Y-156675000D03*
%TD*%
D25*
%TO.P,C13,1*%
%TO.N,Net-(C13-Pad1)*%
X85125000Y-151350000D03*
%TO.P,C13,2*%
%TO.N,PWM*%
X88075000Y-151350000D03*
%TD*%
D23*
%TO.P,C6,1*%
%TO.N,BAT_IN*%
X112095000Y-160130000D03*
%TO.P,C6,2*%
%TO.N,GND*%
X109145000Y-160130000D03*
%TD*%
D19*
%TO.P,D5,1,K*%
%TO.N,K1*%
X96600000Y-157500000D03*
%TO.P,D5,2,A*%
%TO.N,K1_DET*%
X96600000Y-156100000D03*
%TD*%
D20*
%TO.P,D3,1,K*%
%TO.N,Net-(D3-Pad1)*%
X128487500Y-151940000D03*
%TO.P,D3,2,A*%
%TO.N,USB_VCC*%
X126912500Y-151940000D03*
%TD*%
D11*
%TO.P,R13,1*%
%TO.N,VCC*%
X115200000Y-145875000D03*
%TO.P,R13,2*%
%TO.N,Net-(R11-Pad1)*%
X115200000Y-147525000D03*
%TD*%
D26*
%TO.P,U3,1,STAT*%
%TO.N,BAT_CHG_DET*%
X109462500Y-156250000D03*
%TO.P,U3,2,VSS*%
%TO.N,GND*%
X109462500Y-157200000D03*
%TO.P,U3,3,VBAT*%
%TO.N,BAT_IN*%
X109462500Y-158150000D03*
%TO.P,U3,4,VDD*%
%TO.N,USB_VCC*%
X111737500Y-158150000D03*
%TO.P,U3,5,PROG*%
%TO.N,Net-(R5-Pad2)*%
X111737500Y-156250000D03*
%TD*%
D27*
%TO.P,U2,1,GND*%
%TO.N,GND*%
X96295000Y-133995000D03*
D28*
%TO.P,U2,2,VCC*%
%TO.N,VCC*%
X98835000Y-133995000D03*
%TO.P,U2,3,SCL*%
%TO.N,IIC_SCL*%
X101375000Y-133995000D03*
%TO.P,U2,4,SDL*%
%TO.N,IIC_SDL*%
X103915000Y-133995000D03*
%TD*%
D29*
%TO.P,C9,1*%
%TO.N,Net-(C8-Pad1)*%
X106700000Y-156050000D03*
%TO.P,C9,2*%
%TO.N,GND*%
X106700000Y-154150000D03*
%TD*%
D17*
%TO.P,R16,1*%
%TO.N,Net-(Q3-Pad1)*%
X84975000Y-146600000D03*
%TO.P,R16,2*%
%TO.N,PWM*%
X86625000Y-146600000D03*
%TD*%
D11*
%TO.P,R7,1*%
%TO.N,Net-(D4-Pad2)*%
X103550000Y-158455000D03*
%TO.P,R7,2*%
%TO.N,BAT_IN*%
X103550000Y-160105000D03*
%TD*%
D30*
%TO.P,J1,A1,GND*%
%TO.N,GND*%
X117550000Y-153315000D03*
%TO.P,J1,A4,VBUS*%
%TO.N,USB_VCC*%
X118350000Y-153315000D03*
D31*
%TO.P,J1,A5,CC1*%
%TO.N,unconnected-(J1-PadA5)*%
X119550000Y-153315000D03*
%TO.P,J1,A6,D+*%
%TO.N,Net-(J1-PadA6)*%
X120550000Y-153315000D03*
%TO.P,J1,A7,D-*%
%TO.N,Net-(J1-PadA7)*%
X121050000Y-153315000D03*
%TO.P,J1,A8,SBU1*%
%TO.N,unconnected-(J1-PadA8)*%
X122050000Y-153315000D03*
D30*
%TO.P,J1,A9,VBUS*%
%TO.N,USB_VCC*%
X123250000Y-153315000D03*
%TO.P,J1,A12,GND*%
%TO.N,GND*%
X124050000Y-153315000D03*
%TO.P,J1,B1,GND*%
X124050000Y-153315000D03*
%TO.P,J1,B4,VBUS*%
%TO.N,USB_VCC*%
X123250000Y-153315000D03*
D31*
%TO.P,J1,B5,CC2*%
%TO.N,unconnected-(J1-PadB5)*%
X122550000Y-153315000D03*
%TO.P,J1,B6,D+*%
%TO.N,Net-(J1-PadA6)*%
X121550000Y-153315000D03*
%TO.P,J1,B7,D-*%
%TO.N,Net-(J1-PadA7)*%
X120050000Y-153315000D03*
%TO.P,J1,B8,SBU2*%
%TO.N,unconnected-(J1-PadB8)*%
X119050000Y-153315000D03*
D30*
%TO.P,J1,B9,VBUS*%
%TO.N,USB_VCC*%
X118350000Y-153315000D03*
%TO.P,J1,B12,GND*%
%TO.N,GND*%
X117550000Y-153315000D03*
D32*
%TO.P,J1,S1,SHIELD*%
X116480000Y-154230000D03*
X125120000Y-154230000D03*
D33*
X125120000Y-158410000D03*
X116480000Y-158410000D03*
%TD*%
D11*
%TO.P,R6,1*%
%TO.N,Net-(D1-Pad1)*%
X98100000Y-158825000D03*
%TO.P,R6,2*%
%TO.N,GND*%
X98100000Y-160475000D03*
%TD*%
%TO.P,R24,1*%
%TO.N,RUN_LED*%
X128850000Y-145375000D03*
%TO.P,R24,2*%
%TO.N,Net-(D6-Pad2)*%
X128850000Y-147025000D03*
%TD*%
D17*
%TO.P,R14,1*%
%TO.N,Net-(R14-Pad1)*%
X108875000Y-147300000D03*
%TO.P,R14,2*%
%TO.N,Net-(D2-Pad2)*%
X110525000Y-147300000D03*
%TD*%
D34*
%TO.P,J3,R1*%
%TO.N,Net-(C12-Pad1)*%
X76755000Y-152050000D03*
%TO.P,J3,R2*%
%TO.N,GND*%
X73755000Y-152050000D03*
%TO.P,J3,S*%
%TO.N,unconnected-(J3-PadS)*%
X81855000Y-158550000D03*
%TO.P,J3,T*%
%TO.N,Net-(C13-Pad1)*%
X80755000Y-152050000D03*
%TD*%
D13*
%TO.P,C1,1*%
%TO.N,Net-(C1-Pad1)*%
X96150000Y-147550000D03*
%TO.P,C1,2*%
%TO.N,GND*%
X96150000Y-149450000D03*
%TD*%
D35*
%TO.P,U4,1,UD+*%
%TO.N,Net-(R11-Pad1)*%
X113200000Y-151000000D03*
%TO.P,U4,2,UD-*%
%TO.N,Net-(R12-Pad1)*%
X113200000Y-150500000D03*
%TO.P,U4,3,GND*%
%TO.N,GND*%
X113200000Y-150000000D03*
%TO.P,U4,4,~{RTS}*%
%TO.N,unconnected-(U4-Pad4)*%
X113200000Y-149500000D03*
%TO.P,U4,5,~{CTS}*%
%TO.N,unconnected-(U4-Pad5)*%
X113200000Y-149000000D03*
%TO.P,U4,6,TNOW*%
%TO.N,Net-(R14-Pad1)*%
X108800000Y-149000000D03*
%TO.P,U4,7,VCC*%
%TO.N,VCC*%
X108800000Y-149500000D03*
%TO.P,U4,8,TXD*%
%TO.N,TXD*%
X108800000Y-150000000D03*
%TO.P,U4,9,RXD*%
%TO.N,RXD*%
X108800000Y-150500000D03*
%TO.P,U4,10,V3*%
%TO.N,Net-(C4-Pad1)*%
X108800000Y-151000000D03*
%TD*%
D11*
%TO.P,R23,1*%
%TO.N,VCC*%
X80950000Y-147575000D03*
%TO.P,R23,2*%
%TO.N,TICK_B*%
X80950000Y-149225000D03*
%TD*%
D17*
%TO.P,R12,1*%
%TO.N,Net-(R12-Pad1)*%
X115275000Y-150900000D03*
%TO.P,R12,2*%
%TO.N,Net-(J1-PadA7)*%
X116925000Y-150900000D03*
%TD*%
%TO.P,R11,1*%
%TO.N,Net-(R11-Pad1)*%
X115275000Y-149300000D03*
%TO.P,R11,2*%
%TO.N,Net-(J1-PadA6)*%
X116925000Y-149300000D03*
%TD*%
D12*
%TO.P,R10,1*%
%TO.N,Net-(D3-Pad1)*%
X112325000Y-152700000D03*
%TO.P,R10,2*%
%TO.N,BAT_CHG_DET*%
X110675000Y-152700000D03*
%TD*%
D36*
%TO.P,R1,1*%
%TO.N,GND*%
X92600000Y-149125000D03*
%TO.P,R1,2*%
%TO.N,Net-(R1-Pad2)*%
X92600000Y-147475000D03*
%TD*%
D37*
%TO.P,U1,1,BOOT0*%
%TO.N,Net-(R1-Pad2)*%
X92425000Y-145312500D03*
%TO.P,U1,2,PF0*%
%TO.N,TICK_A*%
X93075000Y-145312500D03*
%TO.P,U1,3,PF1*%
%TO.N,TICK_B*%
X93725000Y-145312500D03*
%TO.P,U1,4,NRST*%
%TO.N,Net-(C1-Pad1)*%
X94375000Y-145312500D03*
%TO.P,U1,5,VDDA*%
%TO.N,Net-(L1-Pad2)*%
X95025000Y-145312500D03*
%TO.P,U1,6,PA0*%
%TO.N,BAT_ADC*%
X95675000Y-145312500D03*
%TO.P,U1,7,PA1*%
%TO.N,BAT_CHG_DET*%
X96325000Y-145312500D03*
%TO.P,U1,8,PA2*%
%TO.N,RXD*%
X96975000Y-145312500D03*
%TO.P,U1,9,PA3*%
%TO.N,TXD*%
X97625000Y-145312500D03*
%TO.P,U1,10,PA4*%
%TO.N,PWM*%
X98275000Y-145312500D03*
%TO.P,U1,11,PA5*%
%TO.N,MUTE*%
X98275000Y-139587500D03*
%TO.P,U1,12,PA6*%
%TO.N,Net-(C2-Pad1)*%
X97625000Y-139587500D03*
%TO.P,U1,13,PA7*%
%TO.N,Net-(C3-Pad1)*%
X96975000Y-139587500D03*
%TO.P,U1,14,PB1*%
%TO.N,K1_DET*%
X96325000Y-139587500D03*
%TO.P,U1,15,VSS*%
%TO.N,GND*%
X95675000Y-139587500D03*
%TO.P,U1,16,VDD*%
%TO.N,VCC*%
X95025000Y-139587500D03*
%TO.P,U1,17,PA9*%
%TO.N,IIC_SCL*%
X94375000Y-139587500D03*
%TO.P,U1,18,PA10*%
%TO.N,IIC_SDL*%
X93725000Y-139587500D03*
%TO.P,U1,19,PA13*%
%TO.N,PWR_EN*%
X93075000Y-139587500D03*
%TO.P,U1,20,PA14*%
%TO.N,RUN_LED*%
X92425000Y-139587500D03*
%TD*%
D11*
%TO.P,R22,1*%
%TO.N,VCC*%
X76850000Y-147600000D03*
%TO.P,R22,2*%
%TO.N,TICK_A*%
X76850000Y-149250000D03*
%TD*%
D19*
%TO.P,D4,1,K*%
%TO.N,K1*%
X98110000Y-156090000D03*
%TO.P,D4,2,A*%
%TO.N,Net-(D4-Pad2)*%
X98110000Y-157490000D03*
%TD*%
D38*
%TO.P,Q4,1,G*%
%TO.N,Net-(Q4-Pad1)*%
X84550000Y-135937500D03*
%TO.P,Q4,2,S*%
%TO.N,VCC*%
X86450000Y-135937500D03*
%TO.P,Q4,3,D*%
%TO.N,Net-(BZ1-Pad1)*%
X85500000Y-134062500D03*
%TD*%
D26*
%TO.P,U6,1,SCL*%
%TO.N,IIC_SCL*%
X106562500Y-133750000D03*
%TO.P,U6,2,GND*%
%TO.N,GND*%
X106562500Y-134700000D03*
%TO.P,U6,3,SDA*%
%TO.N,IIC_SDL*%
X106562500Y-135650000D03*
%TO.P,U6,4,VCC*%
%TO.N,VCC*%
X108837500Y-135650000D03*
%TO.P,U6,5,NC*%
%TO.N,unconnected-(U6-Pad5)*%
X108837500Y-133750000D03*
%TD*%
D12*
%TO.P,R3,1*%
%TO.N,Net-(C2-Pad1)*%
X105055000Y-147710000D03*
%TO.P,R3,2*%
%TO.N,VCC*%
X103405000Y-147710000D03*
%TD*%
D26*
%TO.P,U5,1,IN*%
%TO.N,Net-(C8-Pad1)*%
X100182500Y-150590000D03*
%TO.P,U5,2,GND*%
%TO.N,GND*%
X100182500Y-151540000D03*
%TO.P,U5,3,EN*%
%TO.N,Net-(C8-Pad1)*%
X100182500Y-152490000D03*
%TO.P,U5,4,NC*%
%TO.N,unconnected-(U5-Pad4)*%
X102457500Y-152490000D03*
%TO.P,U5,5,OUT*%
%TO.N,VCC*%
X102457500Y-150590000D03*
%TD*%
D29*
%TO.P,C7,1*%
%TO.N,BAT_IN*%
X114260000Y-160290000D03*
%TO.P,C7,2*%
%TO.N,GND*%
X114260000Y-158390000D03*
%TD*%
D20*
%TO.P,D6,1,K*%
%TO.N,GND*%
X128487500Y-148650000D03*
%TO.P,D6,2,A*%
%TO.N,Net-(D6-Pad2)*%
X126912500Y-148650000D03*
%TD*%
D36*
%TO.P,R9,1*%
%TO.N,BAT_ADC*%
X100120000Y-155905000D03*
%TO.P,R9,2*%
%TO.N,GND*%
X100120000Y-154255000D03*
%TD*%
D11*
%TO.P,R4,1*%
%TO.N,Net-(C3-Pad1)*%
X106850000Y-147175000D03*
%TO.P,R4,2*%
%TO.N,VCC*%
X106850000Y-148825000D03*
%TD*%
D38*
%TO.P,Q2,1,G*%
%TO.N,Net-(D4-Pad2)*%
X105240000Y-159777500D03*
%TO.P,Q2,2,S*%
%TO.N,BAT_IN*%
X107140000Y-159777500D03*
%TO.P,Q2,3,D*%
%TO.N,Net-(C8-Pad1)*%
X106190000Y-157902500D03*
%TD*%
D25*
%TO.P,C12,1*%
%TO.N,Net-(C12-Pad1)*%
X85125000Y-148800000D03*
%TO.P,C12,2*%
%TO.N,PWM*%
X88075000Y-148800000D03*
%TD*%
D39*
%TO.P,Q1,1,G*%
%TO.N,Net-(D1-Pad1)*%
X99882500Y-158480000D03*
%TO.P,Q1,2,S*%
%TO.N,GND*%
X99882500Y-160380000D03*
%TO.P,Q1,3,D*%
%TO.N,Net-(D4-Pad2)*%
X101757500Y-159430000D03*
%TD*%
D24*
%TO.P,C10,1*%
%TO.N,VCC*%
X104580000Y-149465000D03*
%TO.P,C10,2*%
%TO.N,GND*%
X104580000Y-152415000D03*
%TD*%
D13*
%TO.P,C11,1*%
%TO.N,VCC*%
X106790000Y-150560000D03*
%TO.P,C11,2*%
%TO.N,GND*%
X106790000Y-152460000D03*
%TD*%
D17*
%TO.P,R5,1*%
%TO.N,GND*%
X110675000Y-154400000D03*
%TO.P,R5,2*%
%TO.N,Net-(R5-Pad2)*%
X112325000Y-154400000D03*
%TD*%
D40*
%TO.P,J5,1,Pin_1*%
%TO.N,VCC*%
X118290000Y-137700000D03*
%TO.P,J5,2,Pin_2*%
%TO.N,GND*%
X120830000Y-137700000D03*
%TO.P,J5,3,Pin_3*%
%TO.N,PWR_EN*%
X123370000Y-137700000D03*
%TO.P,J5,4,Pin_4*%
%TO.N,RUN_LED*%
X125910000Y-137700000D03*
%TD*%
D41*
%TO.N,*%
X71700000Y-160300000D03*
X128300000Y-133700000D03*
X128300000Y-160300000D03*
X71700000Y-133700000D03*
D42*
%TO.N,GND*%
X101600000Y-146100000D03*
X103050000Y-142200000D03*
X98400000Y-152500000D03*
%TO.N,VCC*%
X91650000Y-135300000D03*
X101150000Y-149150000D03*
X94000000Y-150550000D03*
%TO.N,PWM*%
X88050000Y-153650000D03*
X93050000Y-151350000D03*
%TO.N,PWR_EN*%
X92900000Y-137450000D03*
%TO.N,Net-(D3-Pad1)*%
X113560000Y-152360000D03*
X125340000Y-151699500D03*
%TO.N,K1*%
X95200000Y-152150000D03*
X107250000Y-141400000D03*
%TO.N,TICK_B*%
X82400000Y-149450000D03*
X94309907Y-143518383D03*
%TO.N,TICK_A*%
X93150000Y-142900000D03*
X78050000Y-149750000D03*
%TO.N,Net-(R1-Pad2)*%
X92094815Y-144199500D03*
%TO.N,BAT_CHG_DET*%
X96004727Y-143155227D03*
X110050000Y-151600000D03*
%TO.N,IIC_SDL*%
X93400000Y-133000000D03*
%TO.N,MUTE*%
X87900000Y-139600000D03*
X99450000Y-139600000D03*
%TO.N,RUN_LED*%
X91550000Y-137500000D03*
%TO.N,RXD*%
X96998789Y-143051080D03*
X110800000Y-150950000D03*
%TO.N,TXD*%
X110800000Y-149750000D03*
X98103832Y-143096169D03*
%TD*%
D43*
%TO.N,Net-(BZ1-Pad1)*%
X80070785Y-138500000D02*
X84508285Y-134062500D01*
X84508285Y-134062500D02*
X85500000Y-134062500D01*
X80070785Y-139800000D02*
X80070785Y-138500000D01*
%TO.N,Net-(BZ1-Pad2)*%
X87631427Y-142400000D02*
X88224520Y-141806907D01*
X84711677Y-140800480D02*
X84311668Y-141200489D01*
X88224520Y-141806907D02*
X88224520Y-141093093D01*
X76471274Y-141200489D02*
X75070785Y-139800000D01*
X84311668Y-141200489D02*
X76471274Y-141200489D01*
X87931907Y-140800480D02*
X84711677Y-140800480D01*
X85262500Y-142400000D02*
X87631427Y-142400000D01*
X88224520Y-141093093D02*
X87931907Y-140800480D01*
%TO.N,Net-(C1-Pad1)*%
X94250000Y-147475000D02*
X96075000Y-147475000D01*
X94375000Y-147350000D02*
X94375000Y-145312500D01*
X96075000Y-147475000D02*
X96150000Y-147550000D01*
X94250000Y-147475000D02*
X94375000Y-147350000D01*
%TO.N,GND*%
X106712500Y-134550000D02*
X115550000Y-134550000D01*
X108500000Y-154950000D02*
X108800000Y-154650000D01*
X86000000Y-147550000D02*
X86500000Y-148050000D01*
X113200000Y-150000000D02*
X111944550Y-150000000D01*
X106700000Y-154150000D02*
X106700000Y-152550000D01*
X124357818Y-161380000D02*
X119260000Y-161380000D01*
X99140960Y-152500000D02*
X99170480Y-152470480D01*
X106790000Y-152460000D02*
X104625000Y-152460000D01*
X114650000Y-158850000D02*
X115840000Y-158850000D01*
X107400000Y-136872862D02*
X107700000Y-136572862D01*
X128500000Y-150673845D02*
X129274520Y-151448365D01*
X97239283Y-137300000D02*
X100800000Y-137300000D01*
X116280000Y-158410000D02*
X124920000Y-158410000D01*
X99170480Y-153305480D02*
X100120000Y-154255000D01*
X124920000Y-154230000D02*
X127290000Y-154230000D01*
X124205000Y-153315000D02*
X125120000Y-154230000D01*
X93425000Y-148300000D02*
X92600000Y-149125000D01*
X99483489Y-132883489D02*
X100100000Y-133500000D01*
X95675000Y-139587500D02*
X95675000Y-138864283D01*
X96150000Y-149450000D02*
X95000000Y-148300000D01*
X103708085Y-137908085D02*
X104400000Y-138600000D01*
X106800000Y-138600000D02*
X107400000Y-138000000D01*
X115550000Y-134550000D02*
X117550000Y-132550000D01*
X117550000Y-132550000D02*
X123100000Y-132550000D01*
X129274520Y-151448365D02*
X129274520Y-152845480D01*
X116280000Y-154230000D02*
X116280000Y-158410000D01*
X127560000Y-153960000D02*
X128909520Y-155309520D01*
X110675000Y-154400000D02*
X110900000Y-154625000D01*
X100322500Y-151560000D02*
X99500000Y-151560000D01*
X128909520Y-155309520D02*
X128909520Y-157100480D01*
X118000000Y-143150000D02*
X120830000Y-140320000D01*
X113800000Y-158850000D02*
X111068573Y-158850000D01*
X90800000Y-142500000D02*
X91600004Y-141699996D01*
X100615000Y-154750000D02*
X100120000Y-154255000D01*
X107700000Y-136572862D02*
X107700000Y-135418573D01*
X110675000Y-154400000D02*
X110600000Y-154475000D01*
X110290713Y-157609287D02*
X109881427Y-157200000D01*
X119259520Y-161379520D02*
X110394520Y-161379520D01*
X90800000Y-147900000D02*
X90800000Y-142500000D01*
X110600000Y-158381427D02*
X110600000Y-157918573D01*
X115840000Y-158850000D02*
X116280000Y-158410000D01*
X123100000Y-132550000D02*
X124700000Y-134150000D01*
X97406511Y-132883489D02*
X99483489Y-132883489D01*
X128270000Y-157740000D02*
X127997818Y-157740000D01*
X110600000Y-157300000D02*
X110290713Y-157609287D01*
X124920000Y-158410000D02*
X124920000Y-154230000D01*
X92600000Y-149125000D02*
X92025000Y-149125000D01*
X84975000Y-145000000D02*
X84175480Y-144200480D01*
X95000000Y-148300000D02*
X93425000Y-148300000D01*
X86450000Y-161350000D02*
X97225000Y-161350000D01*
X106525000Y-145600000D02*
X106450000Y-145600000D01*
X109225000Y-160400000D02*
X108255000Y-161370000D01*
X111500000Y-153575000D02*
X110675000Y-154400000D01*
X114260000Y-158390000D02*
X113800000Y-158850000D01*
X99170480Y-151889520D02*
X99170480Y-152470480D01*
X84718573Y-141500000D02*
X87087500Y-141500000D01*
X84175480Y-142043093D02*
X84718573Y-141500000D01*
X108255000Y-161370000D02*
X100872500Y-161370000D01*
X124050000Y-153315000D02*
X124205000Y-153315000D01*
X106700000Y-152550000D02*
X106790000Y-152460000D01*
X110600000Y-154475000D02*
X110600000Y-157300000D01*
X73755000Y-152050000D02*
X75354511Y-153649511D01*
X127997818Y-157740000D02*
X124357818Y-161380000D01*
X99787500Y-160475000D02*
X99882500Y-160380000D01*
X100100000Y-133500000D02*
X100100000Y-134291915D01*
X117195000Y-153315000D02*
X116280000Y-154230000D01*
X100100000Y-134291915D02*
X103708085Y-137900000D01*
X110394520Y-161379520D02*
X109145000Y-160130000D01*
X127290000Y-154230000D02*
X127560000Y-153960000D01*
X111944550Y-150000000D02*
X111500000Y-150444550D01*
X108300000Y-154150000D02*
X108800000Y-154650000D01*
X108500000Y-156900000D02*
X108800000Y-157200000D01*
X75354511Y-153649511D02*
X75354511Y-156154511D01*
X86500000Y-148050000D02*
X86500000Y-161300000D01*
X114260000Y-158390000D02*
X114260000Y-158460000D01*
X129274520Y-152845480D02*
X128160000Y-153960000D01*
X100872500Y-161370000D02*
X99882500Y-160380000D01*
X84175480Y-144200480D02*
X84175480Y-142043093D01*
X106650000Y-143150000D02*
X118000000Y-143150000D01*
X128160000Y-153960000D02*
X127560000Y-153960000D01*
X107700000Y-135418573D02*
X106981427Y-134700000D01*
X117350000Y-153315000D02*
X117195000Y-153315000D01*
X99170480Y-152470480D02*
X99170480Y-153305480D01*
X119260000Y-161380000D02*
X119259520Y-161379520D01*
X109881427Y-157200000D02*
X109462500Y-157200000D01*
X80550000Y-161350000D02*
X86450000Y-161350000D01*
X106780000Y-154150000D02*
X108300000Y-154150000D01*
X99299996Y-141699996D02*
X103425000Y-145825000D01*
X103425000Y-145825000D02*
X103425000Y-146100000D01*
X87087500Y-141500000D02*
X87137500Y-141450000D01*
X106562500Y-134700000D02*
X106712500Y-134550000D01*
X84250000Y-147550000D02*
X86000000Y-147550000D01*
X91600004Y-141699996D02*
X99299996Y-141699996D01*
X86500000Y-161300000D02*
X86450000Y-161350000D01*
X128337500Y-148650000D02*
X128500000Y-148812500D01*
X101825000Y-154750000D02*
X100615000Y-154750000D01*
X107400000Y-138000000D02*
X107400000Y-136872862D01*
X128500000Y-148812500D02*
X128500000Y-150673845D01*
X97225000Y-161350000D02*
X98100000Y-160475000D01*
X104400000Y-138600000D02*
X106800000Y-138600000D01*
X98400000Y-152500000D02*
X99140960Y-152500000D01*
X84975000Y-145000000D02*
X83900000Y-146075000D01*
X99500000Y-151560000D02*
X99170480Y-151889520D01*
X110600000Y-157918573D02*
X110290713Y-157609287D01*
X106981427Y-134700000D02*
X106562500Y-134700000D01*
X103425000Y-146100000D02*
X101600000Y-146100000D01*
X103708085Y-137900000D02*
X103708085Y-137908085D01*
X111068573Y-158850000D02*
X110600000Y-158381427D01*
X104625000Y-152460000D02*
X104580000Y-152415000D01*
X120830000Y-140320000D02*
X120830000Y-137700000D01*
X83900000Y-147200000D02*
X84250000Y-147550000D01*
X92025000Y-149125000D02*
X90800000Y-147900000D01*
X114300000Y-156675000D02*
X114300000Y-158650000D01*
X106450000Y-145600000D02*
X103050000Y-142200000D01*
X83900000Y-146075000D02*
X83900000Y-147200000D01*
X108800000Y-157200000D02*
X109722500Y-157200000D01*
X95675000Y-138864283D02*
X97239283Y-137300000D01*
X128909520Y-157100480D02*
X128270000Y-157740000D01*
X108475000Y-154975000D02*
X108800000Y-154650000D01*
X75354511Y-156154511D02*
X80550000Y-161350000D01*
X100800000Y-137300000D02*
X106650000Y-143150000D01*
X98060000Y-160475000D02*
X99787500Y-160475000D01*
X111500000Y-150444550D02*
X111500000Y-153575000D01*
X108500000Y-156900000D02*
X108500000Y-154950000D01*
X114260000Y-158460000D02*
X114650000Y-158850000D01*
X96295000Y-133995000D02*
X97406511Y-132883489D01*
%TO.N,Net-(C2-Pad1)*%
X105055000Y-147710000D02*
X105355000Y-148010000D01*
X108125480Y-147674511D02*
X108125480Y-146797382D01*
X116864694Y-144400481D02*
X119700000Y-147235787D01*
X104975000Y-146100000D02*
X100075485Y-141200485D01*
X108125480Y-146797382D02*
X108522862Y-146400000D01*
X105055000Y-147710000D02*
X105055000Y-146180000D01*
X100075485Y-141200485D02*
X98514768Y-141200485D01*
X108522862Y-146400000D02*
X111399988Y-146400000D01*
X97625000Y-140310717D02*
X97625000Y-139587500D01*
X105355000Y-148010000D02*
X107789991Y-148010000D01*
X119700000Y-147235787D02*
X119700000Y-148650000D01*
X98514768Y-141200485D02*
X97625000Y-140310717D01*
X113399507Y-144400481D02*
X116864694Y-144400481D01*
X107789991Y-148010000D02*
X108125480Y-147674511D01*
X111399988Y-146400000D02*
X113399507Y-144400481D01*
X105055000Y-146180000D02*
X104975000Y-146100000D01*
%TO.N,Net-(C3-Pad1)*%
X106850000Y-147175000D02*
X106850000Y-146950000D01*
X119720000Y-143670000D02*
X124700000Y-148650000D01*
X97539283Y-138300000D02*
X100775000Y-138300000D01*
X108075000Y-145600000D02*
X108075000Y-145675000D01*
X100775000Y-138300000D02*
X108075000Y-145600000D01*
X111393572Y-145700000D02*
X113423572Y-143670000D01*
X96975000Y-138864283D02*
X97539283Y-138300000D01*
X113423572Y-143670000D02*
X119720000Y-143670000D01*
X96975000Y-139587500D02*
X96975000Y-138864283D01*
X108075000Y-145675000D02*
X108100000Y-145700000D01*
X106850000Y-146950000D02*
X108100000Y-145700000D01*
X108100000Y-145700000D02*
X111393572Y-145700000D01*
%TO.N,Net-(C4-Pad1)*%
X108800000Y-152750000D02*
X108800000Y-151000000D01*
%TO.N,USB_VCC*%
X118350000Y-152590978D02*
X118350000Y-153315000D01*
X118350000Y-154175371D02*
X119474629Y-155300000D01*
X111737500Y-157862500D02*
X112950480Y-156649520D01*
X111737500Y-158150000D02*
X111737500Y-157862500D01*
X125602011Y-150799511D02*
X124300489Y-150799511D01*
X117859022Y-152100000D02*
X118350000Y-152590978D01*
X119474629Y-155300000D02*
X122125371Y-155300000D01*
X118350000Y-153315000D02*
X118350000Y-154175371D01*
X126742500Y-151940000D02*
X125602011Y-150799511D01*
X115925000Y-152100000D02*
X117859022Y-152100000D01*
X124300489Y-150799511D02*
X123250000Y-151850000D01*
X123250000Y-151850000D02*
X123250000Y-153315000D01*
X112950480Y-156649520D02*
X112950480Y-155074520D01*
X122125371Y-155300000D02*
X123250000Y-154175371D01*
X123250000Y-154175371D02*
X123250000Y-153315000D01*
X112950480Y-155074520D02*
X115925000Y-152100000D01*
%TO.N,BAT_IN*%
X114100000Y-160130000D02*
X114260000Y-160290000D01*
X107140000Y-159777500D02*
X108767500Y-158150000D01*
X103550000Y-160105000D02*
X103550000Y-160280000D01*
X109722500Y-158262500D02*
X111590000Y-160130000D01*
X127560000Y-157471402D02*
X127560000Y-156500000D01*
X111590000Y-160130000D02*
X112095000Y-160130000D01*
X112095000Y-160130000D02*
X114100000Y-160130000D01*
X106052980Y-160864520D02*
X107140000Y-159777500D01*
X104134520Y-160864520D02*
X106052980Y-160864520D01*
X108767500Y-158150000D02*
X109722500Y-158150000D01*
X109722500Y-158150000D02*
X109722500Y-158262500D01*
X124741402Y-160290000D02*
X127560000Y-157471402D01*
X114260000Y-160290000D02*
X124741402Y-160290000D01*
X103550000Y-160280000D02*
X104134520Y-160864520D01*
%TO.N,Net-(C8-Pad1)*%
X106190000Y-157902500D02*
X106190000Y-157580000D01*
X106400000Y-156050000D02*
X106780000Y-156050000D01*
X104775000Y-154750000D02*
X104110000Y-154750000D01*
X101310000Y-153180000D02*
X101360000Y-153230000D01*
X100322500Y-152862500D02*
X100322500Y-152510000D01*
X105530000Y-156920000D02*
X103615000Y-156920000D01*
X106075000Y-156050000D02*
X104775000Y-154750000D01*
X106190000Y-157580000D02*
X105530000Y-156920000D01*
X101620000Y-153230000D02*
X100690000Y-153230000D01*
X106700000Y-156050000D02*
X106075000Y-156050000D01*
X104110000Y-154750000D02*
X102590000Y-153230000D01*
X102590000Y-153230000D02*
X101620000Y-153230000D01*
X101360000Y-153230000D02*
X101620000Y-153230000D01*
X105530000Y-156920000D02*
X106400000Y-156050000D01*
X100741427Y-150610000D02*
X101310000Y-151178573D01*
X101310000Y-151178573D02*
X101310000Y-153180000D01*
X100322500Y-150610000D02*
X100741427Y-150610000D01*
X100690000Y-153230000D02*
X100322500Y-152862500D01*
%TO.N,VCC*%
X97350000Y-150550000D02*
X98050000Y-149850000D01*
X86275480Y-132975480D02*
X86700000Y-133400000D01*
X108800000Y-149500000D02*
X110000000Y-149500000D01*
X110625000Y-135300000D02*
X110600000Y-135325000D01*
X80950000Y-147575000D02*
X76875000Y-147575000D01*
X94400000Y-150150000D02*
X94450000Y-150150000D01*
X95025000Y-139587500D02*
X95025000Y-138175000D01*
X94250000Y-149950000D02*
X94450000Y-150150000D01*
X102457500Y-150590000D02*
X103455000Y-150590000D01*
X94250000Y-149125000D02*
X94250000Y-149950000D01*
X103405000Y-148290000D02*
X104580000Y-149465000D01*
X108837500Y-135650000D02*
X110275000Y-135650000D01*
X73100000Y-143850000D02*
X73100000Y-138750000D01*
X86525000Y-137900000D02*
X89050000Y-137900000D01*
X89050000Y-137900000D02*
X91650000Y-135300000D01*
X108225000Y-137881416D02*
X108225000Y-137300000D01*
X105665000Y-150550000D02*
X106780000Y-150550000D01*
X104580000Y-149465000D02*
X105665000Y-150550000D01*
X86700000Y-133400000D02*
X86700000Y-135687500D01*
X103405000Y-147710000D02*
X103405000Y-148290000D01*
X98835000Y-133995000D02*
X103939511Y-139099511D01*
X76875000Y-147575000D02*
X76850000Y-147600000D01*
X108225000Y-136262500D02*
X108837500Y-135650000D01*
X103455000Y-150590000D02*
X104580000Y-149465000D01*
X110275000Y-135650000D02*
X110600000Y-135325000D01*
X115890000Y-135300000D02*
X110625000Y-135300000D01*
X106780000Y-150550000D02*
X106790000Y-150560000D01*
X95025000Y-138175000D02*
X97100000Y-136100000D01*
X103939511Y-139099511D02*
X107006905Y-139099511D01*
X94850000Y-150550000D02*
X97350000Y-150550000D01*
X118290000Y-137700000D02*
X115890000Y-135300000D01*
X94000000Y-150550000D02*
X94400000Y-150150000D01*
X78874520Y-132975480D02*
X86275480Y-132975480D01*
X106850000Y-148825000D02*
X106850000Y-150500000D01*
X102457500Y-150457500D02*
X101150000Y-149150000D01*
X73100000Y-138750000D02*
X78874520Y-132975480D01*
X94450000Y-150150000D02*
X94850000Y-150550000D01*
X110000000Y-149500000D02*
X113625000Y-145875000D01*
X108800000Y-149500000D02*
X107850000Y-149500000D01*
X108225000Y-137300000D02*
X108225000Y-136262500D01*
X86450000Y-137825000D02*
X86525000Y-137900000D01*
X86700000Y-135687500D02*
X86450000Y-135937500D01*
X102457500Y-150590000D02*
X102457500Y-150457500D01*
X106850000Y-150500000D02*
X106790000Y-150560000D01*
X107850000Y-149500000D02*
X106790000Y-150560000D01*
X97100000Y-136100000D02*
X97100000Y-135730000D01*
X86450000Y-135937500D02*
X86450000Y-137825000D01*
X76850000Y-147600000D02*
X73100000Y-143850000D01*
X98050000Y-149850000D02*
X98050000Y-149212500D01*
X113625000Y-145875000D02*
X115200000Y-145875000D01*
X97100000Y-135730000D02*
X98835000Y-133995000D01*
X107006905Y-139099511D02*
X108225000Y-137881416D01*
%TO.N,Net-(C12-Pad1)*%
X76755000Y-152050000D02*
X78605000Y-150200000D01*
X78605000Y-150200000D02*
X83725000Y-150200000D01*
X83725000Y-150200000D02*
X85125000Y-148800000D01*
%TO.N,PWM*%
X99200000Y-146237500D02*
X99200000Y-149466155D01*
X98275000Y-145312500D02*
X99200000Y-146237500D01*
X99200000Y-149466155D02*
X97316155Y-151350000D01*
X88075000Y-148800000D02*
X88075000Y-148050000D01*
X97316155Y-151350000D02*
X93050000Y-151350000D01*
X88075000Y-153625000D02*
X88050000Y-153650000D01*
X88075000Y-150125000D02*
X88075000Y-148800000D01*
X88075000Y-151350000D02*
X88075000Y-150125000D01*
X88075000Y-151350000D02*
X88075000Y-153625000D01*
X88075000Y-148050000D02*
X86625000Y-146600000D01*
%TO.N,Net-(C13-Pad1)*%
X84425000Y-152050000D02*
X85125000Y-151350000D01*
X80755000Y-152050000D02*
X84425000Y-152050000D01*
%TO.N,PWR_EN*%
X91042610Y-140700974D02*
X89450000Y-142293584D01*
X89450000Y-142293584D02*
X89450000Y-152050000D01*
X89450000Y-152050000D02*
X96570000Y-159170000D01*
X93075000Y-139587500D02*
X93075000Y-137625000D01*
X93075000Y-140310717D02*
X92684743Y-140700974D01*
X92684743Y-140700974D02*
X91042610Y-140700974D01*
X93075000Y-139587500D02*
X93075000Y-140310717D01*
X93075000Y-137625000D02*
X92900000Y-137450000D01*
%TO.N,Net-(D1-Pad1)*%
X98100000Y-158825000D02*
X98100000Y-159040000D01*
X98100000Y-159040000D02*
X96570000Y-160570000D01*
X98060000Y-158825000D02*
X99537500Y-158825000D01*
X99537500Y-158825000D02*
X99882500Y-158480000D01*
%TO.N,Net-(D2-Pad2)*%
X113606416Y-144900000D02*
X115800000Y-144900000D01*
X110525000Y-147300000D02*
X111206416Y-147300000D01*
X111206416Y-147300000D02*
X113606416Y-144900000D01*
X115800000Y-144900000D02*
X116400000Y-145500000D01*
X119441502Y-150300000D02*
X126742500Y-150300000D01*
X116400000Y-145500000D02*
X116400000Y-147258498D01*
X116400000Y-147258498D02*
X119441502Y-150300000D01*
%TO.N,Net-(D3-Pad1)*%
X112325000Y-152700000D02*
X113220000Y-152700000D01*
X113220000Y-152700000D02*
X113560000Y-152360000D01*
X128317500Y-151940000D02*
X127407500Y-152850000D01*
X125340000Y-151816155D02*
X125340000Y-151699500D01*
X126373845Y-152850000D02*
X125340000Y-151816155D01*
X127407500Y-152850000D02*
X126373845Y-152850000D01*
%TO.N,Net-(D4-Pad2)*%
X103550000Y-158455000D02*
X103917500Y-158455000D01*
X101757500Y-159430000D02*
X101757500Y-159242500D01*
X98110000Y-157490000D02*
X100930000Y-157490000D01*
X101757500Y-159242500D02*
X102220000Y-158780000D01*
X102545000Y-158455000D02*
X103550000Y-158455000D01*
X100930000Y-157490000D02*
X102220000Y-158780000D01*
X103917500Y-158455000D02*
X105240000Y-159777500D01*
X102220000Y-158780000D02*
X102545000Y-158455000D01*
%TO.N,K1*%
X109800000Y-138850000D02*
X107250000Y-141400000D01*
X98150000Y-155150000D02*
X95200000Y-152200000D01*
X118850000Y-139650000D02*
X117550000Y-139650000D01*
X95200000Y-152200000D02*
X95200000Y-152150000D01*
X117550000Y-139650000D02*
X116750000Y-138850000D01*
X98010000Y-156090000D02*
X96600000Y-157500000D01*
X119700000Y-134150000D02*
X119700000Y-135450000D01*
X119550000Y-138950000D02*
X118850000Y-139650000D01*
X98110000Y-156090000D02*
X98010000Y-156090000D01*
X116750000Y-138850000D02*
X109800000Y-138850000D01*
X119700000Y-135450000D02*
X119550000Y-135600000D01*
X119550000Y-135600000D02*
X119550000Y-138950000D01*
X98110000Y-156090000D02*
X98150000Y-156050000D01*
X98150000Y-156050000D02*
X98150000Y-155150000D01*
%TO.N,K1_DET*%
X96325000Y-140310717D02*
X95435232Y-141200485D01*
X95435232Y-141200485D02*
X91249515Y-141200485D01*
X91249515Y-141200485D02*
X90000000Y-142450000D01*
X96550000Y-156100000D02*
X96600000Y-156100000D01*
X90000000Y-142450000D02*
X90000000Y-149550000D01*
X90000000Y-149550000D02*
X96550000Y-156100000D01*
X96325000Y-139587500D02*
X96325000Y-140310717D01*
%TO.N,Net-(D6-Pad2)*%
X128387500Y-147025000D02*
X128850000Y-147025000D01*
X126762500Y-148650000D02*
X128387500Y-147025000D01*
%TO.N,Net-(J1-PadA6)*%
X121152606Y-151843584D02*
X120550000Y-151843584D01*
X120249999Y-151843584D02*
X120550000Y-151843584D01*
X116925000Y-149300000D02*
X117706415Y-149300000D01*
X121550000Y-153315000D02*
X121550000Y-152240978D01*
X120550000Y-151843584D02*
X120550000Y-153315000D01*
X117706415Y-149300000D02*
X120249999Y-151843584D01*
X121550000Y-152240978D02*
X121152606Y-151843584D01*
%TO.N,Net-(J1-PadA7)*%
X120050000Y-153315000D02*
X120050000Y-152440978D01*
X120700000Y-154700000D02*
X120300000Y-154700000D01*
X120300000Y-154700000D02*
X120050000Y-154450000D01*
X121050000Y-153315000D02*
X121050000Y-154350000D01*
X121050000Y-154350000D02*
X120700000Y-154700000D01*
X120050000Y-154450000D02*
X120050000Y-153315000D01*
X118509022Y-150900000D02*
X116925000Y-150900000D01*
X120050000Y-152440978D02*
X118509022Y-150900000D01*
%TO.N,TICK_B*%
X80950000Y-149225000D02*
X82175000Y-149225000D01*
X82175000Y-149225000D02*
X82400000Y-149450000D01*
X93725000Y-144103290D02*
X94309907Y-143518383D01*
X93725000Y-145312500D02*
X93725000Y-144103290D01*
%TO.N,TICK_A*%
X76850000Y-149250000D02*
X77550000Y-149250000D01*
X77550000Y-149250000D02*
X78050000Y-149750000D01*
X93075000Y-142975000D02*
X93150000Y-142900000D01*
X93075000Y-145312500D02*
X93075000Y-142975000D01*
%TO.N,Net-(L1-Pad2)*%
X95589283Y-146600000D02*
X95025000Y-146035717D01*
X97250000Y-146600000D02*
X97737500Y-147087500D01*
X97737500Y-147087500D02*
X98050000Y-147087500D01*
X95025000Y-146035717D02*
X95025000Y-145312500D01*
X97250000Y-146600000D02*
X95589283Y-146600000D01*
%TO.N,Net-(Q3-Pad1)*%
X86625000Y-143862500D02*
X87137500Y-143350000D01*
X86625000Y-145000000D02*
X86625000Y-143862500D01*
X85025000Y-146600000D02*
X86625000Y-145000000D01*
X84975000Y-146600000D02*
X85025000Y-146600000D01*
%TO.N,Net-(Q4-Pad1)*%
X84875000Y-139500000D02*
X84975000Y-139600000D01*
X84550000Y-135937500D02*
X84550000Y-137575000D01*
X84875000Y-137900000D02*
X84875000Y-139500000D01*
X84550000Y-137575000D02*
X84875000Y-137900000D01*
%TO.N,Net-(R1-Pad2)*%
X92425000Y-145312500D02*
X92425000Y-144675000D01*
X92425000Y-147300000D02*
X92425000Y-146575000D01*
X92094815Y-144344815D02*
X92094815Y-144199500D01*
X92425000Y-146575000D02*
X92425000Y-145312500D01*
X92600000Y-147475000D02*
X92425000Y-147300000D01*
X92425000Y-144675000D02*
X92094815Y-144344815D01*
%TO.N,Net-(R5-Pad2)*%
X111737500Y-154987500D02*
X112325000Y-154400000D01*
X111737500Y-156250000D02*
X111737500Y-154987500D01*
%TO.N,BAT_ADC*%
X95456904Y-142299511D02*
X95200000Y-142556415D01*
X95675000Y-144075000D02*
X95675000Y-145312500D01*
X100120000Y-156210000D02*
X100830000Y-156920000D01*
X99653573Y-149750000D02*
X99700000Y-149750000D01*
X99700000Y-149750000D02*
X99700000Y-143100000D01*
X98899511Y-142299511D02*
X95456904Y-142299511D01*
X100120000Y-155905000D02*
X97500000Y-153285000D01*
X100830000Y-156920000D02*
X101965000Y-156920000D01*
X97500000Y-153285000D02*
X97500000Y-151903573D01*
X97500000Y-151903573D02*
X99653573Y-149750000D01*
X95200000Y-142556415D02*
X95200000Y-143600000D01*
X99700000Y-143100000D02*
X98899511Y-142299511D01*
X100120000Y-155905000D02*
X100120000Y-156210000D01*
X95200000Y-143600000D02*
X95675000Y-144075000D01*
%TO.N,BAT_CHG_DET*%
X109462500Y-155737500D02*
X109900000Y-155300000D01*
X109900000Y-155300000D02*
X109900000Y-153475000D01*
X96325000Y-145312500D02*
X96325000Y-143475500D01*
X109900000Y-153475000D02*
X110675000Y-152700000D01*
X110675000Y-152225000D02*
X110050000Y-151600000D01*
X96325000Y-143475500D02*
X96004727Y-143155227D01*
X110675000Y-152700000D02*
X110675000Y-152225000D01*
X109462500Y-156250000D02*
X109462500Y-155737500D01*
%TO.N,Net-(R11-Pad1)*%
X114400000Y-150849022D02*
X114400000Y-149500000D01*
X115200000Y-147525000D02*
X115200000Y-149225000D01*
X115200000Y-149225000D02*
X115275000Y-149300000D01*
X114600000Y-149300000D02*
X115275000Y-149300000D01*
X113200000Y-151000000D02*
X114249022Y-151000000D01*
X114249022Y-151000000D02*
X114400000Y-150849022D01*
X114400000Y-149500000D02*
X114600000Y-149300000D01*
%TO.N,Net-(R12-Pad1)*%
X112150978Y-151500000D02*
X112000000Y-151349022D01*
X112000000Y-151349022D02*
X112000000Y-150650978D01*
X112150978Y-150500000D02*
X113200000Y-150500000D01*
X112000000Y-150650978D02*
X112150978Y-150500000D01*
X114600000Y-151500000D02*
X112150978Y-151500000D01*
X115200000Y-150900000D02*
X114600000Y-151500000D01*
X115275000Y-150900000D02*
X115200000Y-150900000D01*
%TO.N,Net-(R14-Pad1)*%
X108800000Y-147375000D02*
X108875000Y-147300000D01*
X108800000Y-149000000D02*
X108800000Y-147375000D01*
%TO.N,IIC_SDL*%
X93725000Y-139587500D02*
X93725000Y-133325000D01*
X106575000Y-137300000D02*
X106575000Y-135662500D01*
X105570000Y-135650000D02*
X106562500Y-135650000D01*
X103915000Y-133995000D02*
X105570000Y-135650000D01*
X93725000Y-133325000D02*
X93400000Y-133000000D01*
X106575000Y-135662500D02*
X106562500Y-135650000D01*
%TO.N,IIC_SCL*%
X109825000Y-132900000D02*
X107412500Y-132900000D01*
X105695989Y-132883489D02*
X102486511Y-132883489D01*
X95716022Y-132383978D02*
X94375000Y-133725000D01*
X107412500Y-132900000D02*
X106562500Y-133750000D01*
X94375000Y-133725000D02*
X94375000Y-139587500D01*
X110600000Y-133675000D02*
X109825000Y-132900000D01*
X102486511Y-132883489D02*
X101375000Y-133995000D01*
X101375000Y-133995000D02*
X99763978Y-132383978D01*
X106562500Y-133750000D02*
X105695989Y-132883489D01*
X99763978Y-132383978D02*
X95716022Y-132383978D01*
%TO.N,MUTE*%
X86625000Y-139600000D02*
X87900000Y-139600000D01*
X99437500Y-139587500D02*
X99450000Y-139600000D01*
X98275000Y-139587500D02*
X99437500Y-139587500D01*
%TO.N,RUN_LED*%
X92425000Y-139587500D02*
X92425000Y-138375000D01*
X92425000Y-138375000D02*
X91550000Y-137500000D01*
X125910000Y-142435000D02*
X125910000Y-137700000D01*
X128850000Y-145375000D02*
X125910000Y-142435000D01*
%TO.N,RXD*%
X108800000Y-150500000D02*
X110350000Y-150500000D01*
X96975000Y-143074869D02*
X96998789Y-143051080D01*
X96975000Y-145312500D02*
X96975000Y-143074869D01*
X110350000Y-150500000D02*
X110800000Y-150950000D01*
%TO.N,TXD*%
X108800000Y-150000000D02*
X110550000Y-150000000D01*
X97625000Y-143575001D02*
X98103832Y-143096169D01*
X110550000Y-150000000D02*
X110800000Y-149750000D01*
X97625000Y-145312500D02*
X97625000Y-143575001D01*
%TD*%
%TA.AperFunction,Conductor*%
%TO.N,GND*%
G36*
X108014923Y-160715583D02*
G01*
X108055496Y-160773844D01*
X108062001Y-160813804D01*
X108062001Y-160827095D01*
X108062338Y-160833614D01*
X108072257Y-160929206D01*
X108075149Y-160942600D01*
X108126588Y-161096784D01*
X108132761Y-161109962D01*
X108218063Y-161247807D01*
X108227099Y-161259208D01*
X108244748Y-161276826D01*
X108278828Y-161339109D01*
X108273825Y-161409929D01*
X108231328Y-161466802D01*
X108164830Y-161491671D01*
X108155731Y-161492000D01*
X106660951Y-161492000D01*
X106592830Y-161471998D01*
X106546337Y-161418342D01*
X106536233Y-161348068D01*
X106565727Y-161283488D01*
X106571855Y-161276905D01*
X106678876Y-161169884D01*
X106791352Y-161057407D01*
X106853664Y-161023382D01*
X106890334Y-161020890D01*
X106921041Y-161023307D01*
X106921051Y-161023307D01*
X106923498Y-161023500D01*
X107356502Y-161023500D01*
X107358950Y-161023307D01*
X107358958Y-161023307D01*
X107387421Y-161021067D01*
X107387426Y-161021066D01*
X107393831Y-161020562D01*
X107506892Y-160987715D01*
X107545988Y-160976357D01*
X107545990Y-160976356D01*
X107553601Y-160974145D01*
X107591829Y-160951537D01*
X107689980Y-160893491D01*
X107689983Y-160893489D01*
X107696807Y-160889453D01*
X107814453Y-160771807D01*
X107827549Y-160749663D01*
X107879441Y-160701212D01*
X107949292Y-160688507D01*
X108014923Y-160715583D01*
G37*
%TD.AperFunction*%
%TA.AperFunction,Conductor*%
G36*
X110402126Y-159873386D02*
G01*
X110974595Y-160445855D01*
X111008621Y-160508167D01*
X111011500Y-160534950D01*
X111011500Y-160830400D01*
X111011837Y-160833646D01*
X111011837Y-160833650D01*
X111021752Y-160929206D01*
X111022474Y-160936166D01*
X111024655Y-160942702D01*
X111024655Y-160942704D01*
X111039672Y-160987715D01*
X111078450Y-161103946D01*
X111171522Y-161254348D01*
X111176704Y-161259521D01*
X111194040Y-161276827D01*
X111228119Y-161339110D01*
X111223116Y-161409930D01*
X111180618Y-161466803D01*
X111114120Y-161491671D01*
X111105022Y-161492000D01*
X110134134Y-161492000D01*
X110066013Y-161471998D01*
X110019520Y-161418342D01*
X110009416Y-161348068D01*
X110038910Y-161283488D01*
X110044961Y-161276983D01*
X110063735Y-161258176D01*
X110072751Y-161246760D01*
X110157816Y-161108757D01*
X110163963Y-161095576D01*
X110215138Y-160941290D01*
X110218005Y-160927914D01*
X110227672Y-160833562D01*
X110228000Y-160827146D01*
X110228000Y-160402115D01*
X110223525Y-160386876D01*
X110222135Y-160385671D01*
X110214452Y-160384000D01*
X109017000Y-160384000D01*
X108948879Y-160363998D01*
X108902386Y-160310342D01*
X108891000Y-160258000D01*
X108891000Y-160002000D01*
X108911002Y-159933879D01*
X108964658Y-159887386D01*
X109017000Y-159876000D01*
X110209884Y-159876000D01*
X110235842Y-159868378D01*
X110277531Y-159841585D01*
X110348527Y-159841584D01*
X110402126Y-159873386D01*
G37*
%TD.AperFunction*%
%TA.AperFunction,Conductor*%
G36*
X97399262Y-161244923D02*
G01*
X97421225Y-161258224D01*
X97469132Y-161310621D01*
X97481106Y-161380600D01*
X97453346Y-161445944D01*
X97394664Y-161485907D01*
X97355955Y-161492000D01*
X97316245Y-161492000D01*
X97248124Y-161471998D01*
X97201631Y-161418342D01*
X97191527Y-161348068D01*
X97221021Y-161283488D01*
X97240679Y-161265175D01*
X97258426Y-161251874D01*
X97324932Y-161227025D01*
X97399262Y-161244923D01*
G37*
%TD.AperFunction*%
%TA.AperFunction,Conductor*%
G36*
X78174671Y-132528002D02*
G01*
X78221164Y-132581658D01*
X78231268Y-132651932D01*
X78201774Y-132716512D01*
X78195645Y-132723095D01*
X72692395Y-138226345D01*
X72683615Y-138234335D01*
X72683613Y-138234337D01*
X72676920Y-138238584D01*
X72671494Y-138244362D01*
X72671493Y-138244363D01*
X72628396Y-138290257D01*
X72625641Y-138293099D01*
X72605073Y-138313667D01*
X72602356Y-138317170D01*
X72594648Y-138326195D01*
X72563028Y-138359867D01*
X72559207Y-138366818D01*
X72559206Y-138366819D01*
X72552697Y-138378658D01*
X72541843Y-138395182D01*
X72536342Y-138402275D01*
X72528696Y-138412132D01*
X72525549Y-138419404D01*
X72525548Y-138419406D01*
X72510346Y-138454535D01*
X72505124Y-138465195D01*
X72486964Y-138498228D01*
X72482876Y-138505663D01*
X72477541Y-138526441D01*
X72471142Y-138545131D01*
X72462620Y-138564824D01*
X72461380Y-138572655D01*
X72455394Y-138610448D01*
X72452987Y-138622071D01*
X72447582Y-138643125D01*
X72441500Y-138666812D01*
X72441500Y-138688259D01*
X72439949Y-138707969D01*
X72436594Y-138729152D01*
X72437340Y-138737043D01*
X72440941Y-138775138D01*
X72441500Y-138786996D01*
X72441500Y-143767944D01*
X72440941Y-143779800D01*
X72439212Y-143787537D01*
X72439461Y-143795459D01*
X72441438Y-143858369D01*
X72441500Y-143862327D01*
X72441500Y-143891432D01*
X72442056Y-143895832D01*
X72442988Y-143907664D01*
X72444438Y-143953831D01*
X72446650Y-143961444D01*
X72446650Y-143961445D01*
X72450419Y-143974416D01*
X72454430Y-143993782D01*
X72457118Y-144015064D01*
X72460034Y-144022429D01*
X72460035Y-144022433D01*
X72474126Y-144058021D01*
X72477965Y-144069231D01*
X72490855Y-144113600D01*
X72501775Y-144132065D01*
X72510466Y-144149805D01*
X72518365Y-144169756D01*
X72539975Y-144199500D01*
X72545516Y-144207126D01*
X72552033Y-144217048D01*
X72571507Y-144249977D01*
X72571510Y-144249981D01*
X72575547Y-144256807D01*
X72590711Y-144271971D01*
X72603551Y-144287004D01*
X72616159Y-144304357D01*
X72645343Y-144328500D01*
X72651752Y-144333802D01*
X72660532Y-144341792D01*
X75829595Y-147510855D01*
X75863621Y-147573167D01*
X75866500Y-147599950D01*
X75866501Y-147728376D01*
X75866501Y-147856634D01*
X75866764Y-147859492D01*
X75866764Y-147859501D01*
X75868273Y-147875919D01*
X75873247Y-147930062D01*
X75875246Y-147936440D01*
X75875246Y-147936441D01*
X75916324Y-148067519D01*
X75924528Y-148093699D01*
X76013361Y-148240381D01*
X76108885Y-148335905D01*
X76142911Y-148398217D01*
X76137846Y-148469032D01*
X76108885Y-148514095D01*
X76013361Y-148609619D01*
X75924528Y-148756301D01*
X75922257Y-148763548D01*
X75922256Y-148763550D01*
X75910249Y-148801866D01*
X75873247Y-148919938D01*
X75866500Y-148993365D01*
X75866500Y-148996263D01*
X75866501Y-149250665D01*
X75866501Y-149506634D01*
X75873247Y-149580062D01*
X75875246Y-149586440D01*
X75875246Y-149586441D01*
X75918347Y-149723974D01*
X75924528Y-149743699D01*
X76013361Y-149890381D01*
X76134619Y-150011639D01*
X76147520Y-150019452D01*
X76210715Y-150057724D01*
X76258622Y-150110121D01*
X76270595Y-150180101D01*
X76242834Y-150245445D01*
X76184152Y-150285407D01*
X76145444Y-150291500D01*
X76106866Y-150291500D01*
X76044684Y-150298255D01*
X75908295Y-150349385D01*
X75791739Y-150436739D01*
X75704385Y-150553295D01*
X75653255Y-150689684D01*
X75646500Y-150751866D01*
X75646500Y-153348134D01*
X75653255Y-153410316D01*
X75704385Y-153546705D01*
X75791739Y-153663261D01*
X75908295Y-153750615D01*
X76044684Y-153801745D01*
X76106866Y-153808500D01*
X77403134Y-153808500D01*
X77465316Y-153801745D01*
X77601705Y-153750615D01*
X77718261Y-153663261D01*
X77805615Y-153546705D01*
X77856745Y-153410316D01*
X77863500Y-153348134D01*
X77863500Y-151924950D01*
X77883502Y-151856829D01*
X77900405Y-151835855D01*
X78840855Y-150895405D01*
X78903167Y-150861379D01*
X78929950Y-150858500D01*
X79520500Y-150858500D01*
X79588621Y-150878502D01*
X79635114Y-150932158D01*
X79646500Y-150984500D01*
X79646500Y-153348134D01*
X79653255Y-153410316D01*
X79704385Y-153546705D01*
X79791739Y-153663261D01*
X79908295Y-153750615D01*
X80044684Y-153801745D01*
X80106866Y-153808500D01*
X81403134Y-153808500D01*
X81465316Y-153801745D01*
X81601705Y-153750615D01*
X81718261Y-153663261D01*
X81805615Y-153546705D01*
X81856745Y-153410316D01*
X81863500Y-153348134D01*
X81863500Y-152834500D01*
X81883502Y-152766379D01*
X81937158Y-152719886D01*
X81989500Y-152708500D01*
X84342944Y-152708500D01*
X84354800Y-152709059D01*
X84354803Y-152709059D01*
X84362537Y-152710788D01*
X84433369Y-152708562D01*
X84437327Y-152708500D01*
X84466432Y-152708500D01*
X84470832Y-152707944D01*
X84482674Y-152707012D01*
X84485533Y-152706922D01*
X84496390Y-152706582D01*
X84540005Y-152712927D01*
X84638608Y-152745631D01*
X84638610Y-152745631D01*
X84645139Y-152747797D01*
X84651975Y-152748497D01*
X84651978Y-152748498D01*
X84695031Y-152752909D01*
X84749600Y-152758500D01*
X85500400Y-152758500D01*
X85503646Y-152758163D01*
X85503650Y-152758163D01*
X85599308Y-152748238D01*
X85599312Y-152748237D01*
X85606166Y-152747526D01*
X85612702Y-152745345D01*
X85612704Y-152745345D01*
X85744806Y-152701272D01*
X85773946Y-152691550D01*
X85924348Y-152598478D01*
X86049305Y-152473303D01*
X86068157Y-152442719D01*
X86138275Y-152328968D01*
X86138276Y-152328966D01*
X86142115Y-152322738D01*
X86170737Y-152236444D01*
X86195632Y-152161389D01*
X86195632Y-152161387D01*
X86197797Y-152154861D01*
X86199025Y-152142882D01*
X86205300Y-152081635D01*
X86208500Y-152050400D01*
X86208500Y-150649600D01*
X86203828Y-150604572D01*
X86198238Y-150550692D01*
X86198237Y-150550688D01*
X86197526Y-150543834D01*
X86194245Y-150533998D01*
X86143868Y-150383002D01*
X86141550Y-150376054D01*
X86048478Y-150225652D01*
X86043296Y-150220479D01*
X85986891Y-150164172D01*
X85952812Y-150101889D01*
X85957815Y-150031069D01*
X85986736Y-149985981D01*
X86044134Y-149928483D01*
X86049305Y-149923303D01*
X86069306Y-149890855D01*
X86138275Y-149778968D01*
X86138276Y-149778966D01*
X86142115Y-149772738D01*
X86182544Y-149650847D01*
X86195632Y-149611389D01*
X86195632Y-149611387D01*
X86197797Y-149604861D01*
X86199685Y-149586441D01*
X86204502Y-149539416D01*
X86208500Y-149500400D01*
X86208500Y-148099600D01*
X86207888Y-148093699D01*
X86198238Y-148000692D01*
X86198237Y-148000688D01*
X86197526Y-147993834D01*
X86185844Y-147958817D01*
X86143868Y-147833002D01*
X86141550Y-147826054D01*
X86091304Y-147744858D01*
X86072467Y-147676409D01*
X86093628Y-147608639D01*
X86148069Y-147563068D01*
X86218505Y-147554163D01*
X86236128Y-147558323D01*
X86294938Y-147576753D01*
X86368365Y-147583500D01*
X86384614Y-147583500D01*
X86625050Y-147583499D01*
X86693169Y-147603501D01*
X86714144Y-147620404D01*
X86969659Y-147875919D01*
X87003685Y-147938231D01*
X87003764Y-147990434D01*
X87002203Y-147995139D01*
X86991500Y-148099600D01*
X86991500Y-149500400D01*
X86991837Y-149503646D01*
X86991837Y-149503650D01*
X87001428Y-149596081D01*
X87002474Y-149606166D01*
X87004655Y-149612702D01*
X87004655Y-149612704D01*
X87014262Y-149641500D01*
X87058450Y-149773946D01*
X87151522Y-149924348D01*
X87156704Y-149929521D01*
X87213109Y-149985828D01*
X87247188Y-150048111D01*
X87242185Y-150118931D01*
X87213264Y-150164019D01*
X87150695Y-150226697D01*
X87146855Y-150232927D01*
X87146854Y-150232928D01*
X87071476Y-150355214D01*
X87057885Y-150377262D01*
X87036851Y-150440679D01*
X87023409Y-150481206D01*
X87002203Y-150545139D01*
X86991500Y-150649600D01*
X86991500Y-152050400D01*
X86991837Y-152053646D01*
X86991837Y-152053650D01*
X87001504Y-152146813D01*
X87002474Y-152156166D01*
X87004655Y-152162702D01*
X87004655Y-152162704D01*
X87027104Y-152229992D01*
X87058450Y-152323946D01*
X87151522Y-152474348D01*
X87276697Y-152599305D01*
X87282927Y-152603145D01*
X87282928Y-152603146D01*
X87356616Y-152648568D01*
X87404109Y-152701340D01*
X87416500Y-152755828D01*
X87416500Y-152947476D01*
X87396498Y-153015597D01*
X87384142Y-153031779D01*
X87310960Y-153113056D01*
X87284524Y-153158844D01*
X87230085Y-153253136D01*
X87215473Y-153278444D01*
X87156458Y-153460072D01*
X87155768Y-153466633D01*
X87155768Y-153466635D01*
X87147006Y-153550000D01*
X87136496Y-153650000D01*
X87137186Y-153656565D01*
X87152927Y-153806328D01*
X87156458Y-153839928D01*
X87215473Y-154021556D01*
X87310960Y-154186944D01*
X87315378Y-154191851D01*
X87315379Y-154191852D01*
X87404234Y-154290535D01*
X87438747Y-154328866D01*
X87593248Y-154441118D01*
X87599276Y-154443802D01*
X87599278Y-154443803D01*
X87761441Y-154516002D01*
X87767712Y-154518794D01*
X87861112Y-154538647D01*
X87948056Y-154557128D01*
X87948061Y-154557128D01*
X87954513Y-154558500D01*
X88145487Y-154558500D01*
X88151939Y-154557128D01*
X88151944Y-154557128D01*
X88238888Y-154538647D01*
X88332288Y-154518794D01*
X88338559Y-154516002D01*
X88500722Y-154443803D01*
X88500724Y-154443802D01*
X88506752Y-154441118D01*
X88661253Y-154328866D01*
X88695766Y-154290535D01*
X88784621Y-154191852D01*
X88784622Y-154191851D01*
X88789040Y-154186944D01*
X88884527Y-154021556D01*
X88943542Y-153839928D01*
X88947074Y-153806328D01*
X88962814Y-153656565D01*
X88963504Y-153650000D01*
X88952994Y-153550000D01*
X88944232Y-153466635D01*
X88944232Y-153466633D01*
X88943542Y-153460072D01*
X88884527Y-153278444D01*
X88869916Y-153253136D01*
X88792343Y-153118777D01*
X88792341Y-153118774D01*
X88789040Y-153113056D01*
X88784620Y-153108147D01*
X88784617Y-153108143D01*
X88765865Y-153087317D01*
X88735147Y-153023310D01*
X88733500Y-153003006D01*
X88733500Y-152755840D01*
X88753502Y-152687719D01*
X88793197Y-152648696D01*
X88868122Y-152602331D01*
X88868123Y-152602330D01*
X88874348Y-152598478D01*
X88881609Y-152591205D01*
X88883387Y-152590232D01*
X88885255Y-152588751D01*
X88885509Y-152589071D01*
X88943892Y-152557129D01*
X89014712Y-152562135D01*
X89059872Y-152591132D01*
X95674595Y-159205855D01*
X95708621Y-159268167D01*
X95711500Y-159294950D01*
X95711500Y-159518134D01*
X95718255Y-159580316D01*
X95769385Y-159716705D01*
X95774770Y-159723890D01*
X95774771Y-159723892D01*
X95827640Y-159794435D01*
X95852488Y-159860942D01*
X95837435Y-159930324D01*
X95827640Y-159945565D01*
X95775017Y-160015780D01*
X95769385Y-160023295D01*
X95718255Y-160159684D01*
X95711500Y-160221866D01*
X95711500Y-160918134D01*
X95718255Y-160980316D01*
X95769385Y-161116705D01*
X95856739Y-161233261D01*
X95899322Y-161265175D01*
X95941835Y-161322034D01*
X95946860Y-161392852D01*
X95912800Y-161455145D01*
X95850469Y-161489136D01*
X95823755Y-161492000D01*
X73606973Y-161492000D01*
X73538852Y-161471998D01*
X73492359Y-161418342D01*
X73482255Y-161348068D01*
X73496242Y-161305878D01*
X73512016Y-161276827D01*
X73560245Y-161187999D01*
X73573986Y-161162692D01*
X73573987Y-161162690D01*
X73576036Y-161158916D01*
X73625641Y-161027639D01*
X73673729Y-160900380D01*
X73673730Y-160900376D01*
X73675247Y-160896362D01*
X73732233Y-160647548D01*
X73736949Y-160626957D01*
X73736950Y-160626953D01*
X73737907Y-160622773D01*
X73740703Y-160591450D01*
X73762637Y-160345677D01*
X73762637Y-160345675D01*
X73762857Y-160343211D01*
X73763160Y-160314360D01*
X73763284Y-160302484D01*
X73763284Y-160302483D01*
X73763310Y-160300000D01*
X73759576Y-160245229D01*
X73744512Y-160024254D01*
X73744511Y-160024248D01*
X73744220Y-160019977D01*
X73740139Y-160000268D01*
X73711285Y-159860942D01*
X73708633Y-159848134D01*
X80746500Y-159848134D01*
X80753255Y-159910316D01*
X80804385Y-160046705D01*
X80891739Y-160163261D01*
X81008295Y-160250615D01*
X81144684Y-160301745D01*
X81206866Y-160308500D01*
X82503134Y-160308500D01*
X82565316Y-160301745D01*
X82701705Y-160250615D01*
X82818261Y-160163261D01*
X82905615Y-160046705D01*
X82956745Y-159910316D01*
X82963500Y-159848134D01*
X82963500Y-157251866D01*
X82956745Y-157189684D01*
X82905615Y-157053295D01*
X82818261Y-156936739D01*
X82701705Y-156849385D01*
X82565316Y-156798255D01*
X82503134Y-156791500D01*
X81206866Y-156791500D01*
X81144684Y-156798255D01*
X81008295Y-156849385D01*
X80891739Y-156936739D01*
X80804385Y-157053295D01*
X80753255Y-157189684D01*
X80746500Y-157251866D01*
X80746500Y-159848134D01*
X73708633Y-159848134D01*
X73687303Y-159745135D01*
X73593612Y-159480561D01*
X73588936Y-159471500D01*
X73466847Y-159234957D01*
X73466847Y-159234956D01*
X73464882Y-159231150D01*
X73458563Y-159222158D01*
X73305956Y-159005022D01*
X73303493Y-159001517D01*
X73112433Y-158795912D01*
X72895237Y-158618139D01*
X72655923Y-158471487D01*
X72633348Y-158461577D01*
X72402853Y-158360397D01*
X72398921Y-158358671D01*
X72379519Y-158353144D01*
X72133114Y-158282954D01*
X72133115Y-158282954D01*
X72128986Y-158281778D01*
X71923217Y-158252493D01*
X71855365Y-158242836D01*
X71855363Y-158242836D01*
X71851113Y-158242231D01*
X71846824Y-158242209D01*
X71846817Y-158242208D01*
X71574730Y-158240783D01*
X71574723Y-158240783D01*
X71570444Y-158240761D01*
X71566199Y-158241320D01*
X71566197Y-158241320D01*
X71504993Y-158249378D01*
X71292172Y-158277397D01*
X71021446Y-158351459D01*
X70763277Y-158461577D01*
X70709107Y-158493997D01*
X70698706Y-158500222D01*
X70629982Y-158518042D01*
X70562534Y-158495878D01*
X70517776Y-158440767D01*
X70508000Y-158392106D01*
X70508000Y-155339690D01*
X70892037Y-155339690D01*
X70919025Y-155562715D01*
X70985082Y-155777435D01*
X70987652Y-155782415D01*
X70987654Y-155782419D01*
X71085546Y-155972081D01*
X71088118Y-155977064D01*
X71224877Y-156155292D01*
X71391036Y-156306485D01*
X71395783Y-156309463D01*
X71395786Y-156309465D01*
X71564240Y-156415135D01*
X71581344Y-156425864D01*
X71789783Y-156509656D01*
X72009767Y-156555213D01*
X72014378Y-156555479D01*
X72014379Y-156555479D01*
X72064952Y-156558395D01*
X72064956Y-156558395D01*
X72066775Y-156558500D01*
X72211999Y-156558500D01*
X72214786Y-156558251D01*
X72214792Y-156558251D01*
X72284929Y-156551991D01*
X72378762Y-156543617D01*
X72384176Y-156542136D01*
X72384181Y-156542135D01*
X72511912Y-156507191D01*
X72595451Y-156484337D01*
X72600509Y-156481925D01*
X72600513Y-156481923D01*
X72718042Y-156425864D01*
X72798218Y-156387622D01*
X72980654Y-156256529D01*
X73094439Y-156139112D01*
X73133089Y-156099229D01*
X73133091Y-156099226D01*
X73136992Y-156095201D01*
X73262290Y-155908738D01*
X73352588Y-155703033D01*
X73354951Y-155693193D01*
X73403722Y-155490046D01*
X73403722Y-155490045D01*
X73405032Y-155484589D01*
X73412391Y-155356961D01*
X73413387Y-155339690D01*
X77892037Y-155339690D01*
X77919025Y-155562715D01*
X77985082Y-155777435D01*
X77987652Y-155782415D01*
X77987654Y-155782419D01*
X78085546Y-155972081D01*
X78088118Y-155977064D01*
X78224877Y-156155292D01*
X78391036Y-156306485D01*
X78395783Y-156309463D01*
X78395786Y-156309465D01*
X78564240Y-156415135D01*
X78581344Y-156425864D01*
X78789783Y-156509656D01*
X79009767Y-156555213D01*
X79014378Y-156555479D01*
X79014379Y-156555479D01*
X79064952Y-156558395D01*
X79064956Y-156558395D01*
X79066775Y-156558500D01*
X79211999Y-156558500D01*
X79214786Y-156558251D01*
X79214792Y-156558251D01*
X79284929Y-156551991D01*
X79378762Y-156543617D01*
X79384176Y-156542136D01*
X79384181Y-156542135D01*
X79511912Y-156507191D01*
X79595451Y-156484337D01*
X79600509Y-156481925D01*
X79600513Y-156481923D01*
X79718042Y-156425864D01*
X79798218Y-156387622D01*
X79980654Y-156256529D01*
X80094439Y-156139112D01*
X80133089Y-156099229D01*
X80133091Y-156099226D01*
X80136992Y-156095201D01*
X80262290Y-155908738D01*
X80352588Y-155703033D01*
X80354951Y-155693193D01*
X80403722Y-155490046D01*
X80403722Y-155490045D01*
X80405032Y-155484589D01*
X80412391Y-155356961D01*
X80417640Y-155265917D01*
X80417640Y-155265914D01*
X80417963Y-155260310D01*
X80390975Y-155037285D01*
X80324918Y-154822565D01*
X80319145Y-154811379D01*
X80224454Y-154627919D01*
X80224454Y-154627918D01*
X80221882Y-154622936D01*
X80085123Y-154444708D01*
X79918964Y-154293515D01*
X79914217Y-154290537D01*
X79914214Y-154290535D01*
X79733405Y-154177115D01*
X79728656Y-154174136D01*
X79520217Y-154090344D01*
X79300233Y-154044787D01*
X79295622Y-154044521D01*
X79295621Y-154044521D01*
X79245048Y-154041605D01*
X79245044Y-154041605D01*
X79243225Y-154041500D01*
X79098001Y-154041500D01*
X79095214Y-154041749D01*
X79095208Y-154041749D01*
X79025071Y-154048009D01*
X78931238Y-154056383D01*
X78925824Y-154057864D01*
X78925819Y-154057865D01*
X78811262Y-154089205D01*
X78714549Y-154115663D01*
X78709491Y-154118075D01*
X78709487Y-154118077D01*
X78627075Y-154157386D01*
X78511782Y-154212378D01*
X78329346Y-154343471D01*
X78307138Y-154366388D01*
X78180035Y-154497548D01*
X78173008Y-154504799D01*
X78047710Y-154691262D01*
X77957412Y-154896967D01*
X77956103Y-154902418D01*
X77956102Y-154902422D01*
X77906775Y-155107885D01*
X77904968Y-155115411D01*
X77901330Y-155178507D01*
X77895008Y-155288167D01*
X77892037Y-155339690D01*
X73413387Y-155339690D01*
X73417640Y-155265917D01*
X73417640Y-155265914D01*
X73417963Y-155260310D01*
X73390975Y-155037285D01*
X73324918Y-154822565D01*
X73319145Y-154811379D01*
X73224454Y-154627919D01*
X73224454Y-154627918D01*
X73221882Y-154622936D01*
X73085123Y-154444708D01*
X72918964Y-154293515D01*
X72914217Y-154290537D01*
X72914214Y-154290535D01*
X72733405Y-154177115D01*
X72728656Y-154174136D01*
X72520217Y-154090344D01*
X72300233Y-154044787D01*
X72295622Y-154044521D01*
X72295621Y-154044521D01*
X72245048Y-154041605D01*
X72245044Y-154041605D01*
X72243225Y-154041500D01*
X72098001Y-154041500D01*
X72095214Y-154041749D01*
X72095208Y-154041749D01*
X72025071Y-154048009D01*
X71931238Y-154056383D01*
X71925824Y-154057864D01*
X71925819Y-154057865D01*
X71811262Y-154089205D01*
X71714549Y-154115663D01*
X71709491Y-154118075D01*
X71709487Y-154118077D01*
X71627075Y-154157386D01*
X71511782Y-154212378D01*
X71329346Y-154343471D01*
X71307138Y-154366388D01*
X71180035Y-154497548D01*
X71173008Y-154504799D01*
X71047710Y-154691262D01*
X70957412Y-154896967D01*
X70956103Y-154902418D01*
X70956102Y-154902422D01*
X70906775Y-155107885D01*
X70904968Y-155115411D01*
X70901330Y-155178507D01*
X70895008Y-155288167D01*
X70892037Y-155339690D01*
X70508000Y-155339690D01*
X70508000Y-153344669D01*
X72647001Y-153344669D01*
X72647371Y-153351490D01*
X72652895Y-153402352D01*
X72656521Y-153417604D01*
X72701676Y-153538054D01*
X72710214Y-153553649D01*
X72786715Y-153655724D01*
X72799276Y-153668285D01*
X72901351Y-153744786D01*
X72916946Y-153753324D01*
X73037394Y-153798478D01*
X73052649Y-153802105D01*
X73103514Y-153807631D01*
X73110328Y-153808000D01*
X73482885Y-153808000D01*
X73498124Y-153803525D01*
X73499329Y-153802135D01*
X73501000Y-153794452D01*
X73501000Y-153789884D01*
X74009000Y-153789884D01*
X74013475Y-153805123D01*
X74014865Y-153806328D01*
X74022548Y-153807999D01*
X74399669Y-153807999D01*
X74406490Y-153807629D01*
X74457352Y-153802105D01*
X74472604Y-153798479D01*
X74593054Y-153753324D01*
X74608649Y-153744786D01*
X74710724Y-153668285D01*
X74723285Y-153655724D01*
X74799786Y-153553649D01*
X74808324Y-153538054D01*
X74853478Y-153417606D01*
X74857105Y-153402351D01*
X74862631Y-153351486D01*
X74863000Y-153344672D01*
X74863000Y-152322115D01*
X74858525Y-152306876D01*
X74857135Y-152305671D01*
X74849452Y-152304000D01*
X74027115Y-152304000D01*
X74011876Y-152308475D01*
X74010671Y-152309865D01*
X74009000Y-152317548D01*
X74009000Y-153789884D01*
X73501000Y-153789884D01*
X73501000Y-152322115D01*
X73496525Y-152306876D01*
X73495135Y-152305671D01*
X73487452Y-152304000D01*
X72665116Y-152304000D01*
X72649877Y-152308475D01*
X72648672Y-152309865D01*
X72647001Y-152317548D01*
X72647001Y-153344669D01*
X70508000Y-153344669D01*
X70508000Y-151777885D01*
X72647000Y-151777885D01*
X72651475Y-151793124D01*
X72652865Y-151794329D01*
X72660548Y-151796000D01*
X73482885Y-151796000D01*
X73498124Y-151791525D01*
X73499329Y-151790135D01*
X73501000Y-151782452D01*
X73501000Y-151777885D01*
X74009000Y-151777885D01*
X74013475Y-151793124D01*
X74014865Y-151794329D01*
X74022548Y-151796000D01*
X74844884Y-151796000D01*
X74860123Y-151791525D01*
X74861328Y-151790135D01*
X74862999Y-151782452D01*
X74862999Y-150755331D01*
X74862629Y-150748510D01*
X74857105Y-150697648D01*
X74853479Y-150682396D01*
X74808324Y-150561946D01*
X74799786Y-150546351D01*
X74723285Y-150444276D01*
X74710724Y-150431715D01*
X74608649Y-150355214D01*
X74593054Y-150346676D01*
X74472606Y-150301522D01*
X74457351Y-150297895D01*
X74406486Y-150292369D01*
X74399672Y-150292000D01*
X74027115Y-150292000D01*
X74011876Y-150296475D01*
X74010671Y-150297865D01*
X74009000Y-150305548D01*
X74009000Y-151777885D01*
X73501000Y-151777885D01*
X73501000Y-150310116D01*
X73496525Y-150294877D01*
X73495135Y-150293672D01*
X73487452Y-150292001D01*
X73110331Y-150292001D01*
X73103510Y-150292371D01*
X73052648Y-150297895D01*
X73037396Y-150301521D01*
X72916946Y-150346676D01*
X72901351Y-150355214D01*
X72799276Y-150431715D01*
X72786715Y-150444276D01*
X72710214Y-150546351D01*
X72701676Y-150561946D01*
X72656522Y-150682394D01*
X72652895Y-150697649D01*
X72647369Y-150748514D01*
X72647000Y-150755328D01*
X72647000Y-151777885D01*
X70508000Y-151777885D01*
X70508000Y-148839690D01*
X70892037Y-148839690D01*
X70919025Y-149062715D01*
X70985082Y-149277435D01*
X70987652Y-149282415D01*
X70987654Y-149282419D01*
X71074149Y-149450000D01*
X71088118Y-149477064D01*
X71224877Y-149655292D01*
X71391036Y-149806485D01*
X71395783Y-149809463D01*
X71395786Y-149809465D01*
X71527191Y-149891894D01*
X71581344Y-149925864D01*
X71789783Y-150009656D01*
X72009767Y-150055213D01*
X72014378Y-150055479D01*
X72014379Y-150055479D01*
X72064952Y-150058395D01*
X72064956Y-150058395D01*
X72066775Y-150058500D01*
X72211999Y-150058500D01*
X72214786Y-150058251D01*
X72214792Y-150058251D01*
X72284929Y-150051991D01*
X72378762Y-150043617D01*
X72384176Y-150042136D01*
X72384181Y-150042135D01*
X72546513Y-149997725D01*
X72595451Y-149984337D01*
X72600509Y-149981925D01*
X72600513Y-149981923D01*
X72723411Y-149923303D01*
X72798218Y-149887622D01*
X72980654Y-149756529D01*
X73092125Y-149641500D01*
X73133089Y-149599229D01*
X73133091Y-149599226D01*
X73136992Y-149595201D01*
X73262290Y-149408738D01*
X73352588Y-149203033D01*
X73380589Y-149086404D01*
X73403722Y-148990046D01*
X73403722Y-148990045D01*
X73405032Y-148984589D01*
X73415763Y-148798469D01*
X73417640Y-148765917D01*
X73417640Y-148765914D01*
X73417963Y-148760310D01*
X73390975Y-148537285D01*
X73324918Y-148322565D01*
X73313272Y-148300000D01*
X73224454Y-148127919D01*
X73224454Y-148127918D01*
X73221882Y-148122936D01*
X73085123Y-147944708D01*
X72918964Y-147793515D01*
X72914217Y-147790537D01*
X72914214Y-147790535D01*
X72733405Y-147677115D01*
X72728656Y-147674136D01*
X72520217Y-147590344D01*
X72300233Y-147544787D01*
X72295622Y-147544521D01*
X72295621Y-147544521D01*
X72245048Y-147541605D01*
X72245044Y-147541605D01*
X72243225Y-147541500D01*
X72098001Y-147541500D01*
X72095214Y-147541749D01*
X72095208Y-147541749D01*
X72027858Y-147547760D01*
X71931238Y-147556383D01*
X71925824Y-147557864D01*
X71925819Y-147557865D01*
X71811262Y-147589205D01*
X71714549Y-147615663D01*
X71709491Y-147618075D01*
X71709487Y-147618077D01*
X71614003Y-147663621D01*
X71511782Y-147712378D01*
X71329346Y-147843471D01*
X71325439Y-147847503D01*
X71183634Y-147993834D01*
X71173008Y-148004799D01*
X71047710Y-148191262D01*
X70957412Y-148396967D01*
X70956103Y-148402418D01*
X70956102Y-148402422D01*
X70906326Y-148609756D01*
X70904968Y-148615411D01*
X70902567Y-148657048D01*
X70894228Y-148801694D01*
X70892037Y-148839690D01*
X70508000Y-148839690D01*
X70508000Y-135610068D01*
X70528002Y-135541947D01*
X70581658Y-135495454D01*
X70651932Y-135485350D01*
X70700954Y-135503330D01*
X70724981Y-135518402D01*
X70980788Y-135633903D01*
X71041021Y-135651745D01*
X71245790Y-135712401D01*
X71245795Y-135712402D01*
X71249903Y-135713619D01*
X71254137Y-135714267D01*
X71254142Y-135714268D01*
X71458017Y-135745465D01*
X71527347Y-135756074D01*
X71670292Y-135758319D01*
X71803694Y-135760415D01*
X71803700Y-135760415D01*
X71807985Y-135760482D01*
X72086626Y-135726763D01*
X72358112Y-135655540D01*
X72362072Y-135653900D01*
X72362077Y-135653898D01*
X72524224Y-135586734D01*
X72617420Y-135548131D01*
X72623080Y-135544824D01*
X72856054Y-135408685D01*
X72856055Y-135408685D01*
X72859752Y-135406524D01*
X72984767Y-135308500D01*
X73077252Y-135235982D01*
X73080624Y-135233338D01*
X73275948Y-135031779D01*
X73278481Y-135028331D01*
X73278485Y-135028326D01*
X73435349Y-134814781D01*
X73442110Y-134805577D01*
X73448045Y-134794647D01*
X73573986Y-134562692D01*
X73573987Y-134562690D01*
X73576036Y-134558916D01*
X73633568Y-134406662D01*
X73673729Y-134300380D01*
X73673730Y-134300376D01*
X73675247Y-134296362D01*
X73737907Y-134022773D01*
X73740083Y-133998399D01*
X73762637Y-133745677D01*
X73762637Y-133745675D01*
X73762857Y-133743211D01*
X73763310Y-133700000D01*
X73761809Y-133677988D01*
X73744512Y-133424254D01*
X73744511Y-133424248D01*
X73744220Y-133419977D01*
X73716866Y-133287887D01*
X73696248Y-133188331D01*
X73687303Y-133145135D01*
X73593612Y-132880561D01*
X73496180Y-132691788D01*
X73482711Y-132622083D01*
X73509066Y-132556159D01*
X73566879Y-132514950D01*
X73608146Y-132508000D01*
X78106550Y-132508000D01*
X78174671Y-132528002D01*
G37*
%TD.AperFunction*%
%TA.AperFunction,Conductor*%
G36*
X126175627Y-159891201D02*
G01*
X126232463Y-159933748D01*
X126257274Y-160000268D01*
X126257207Y-160019143D01*
X126242865Y-160201376D01*
X126236803Y-160278393D01*
X126252960Y-160558601D01*
X126253785Y-160562806D01*
X126253786Y-160562814D01*
X126271307Y-160652115D01*
X126306996Y-160834024D01*
X126308383Y-160838074D01*
X126308384Y-160838079D01*
X126394675Y-161090114D01*
X126397911Y-161099565D01*
X126399837Y-161103394D01*
X126399838Y-161103397D01*
X126503439Y-161309386D01*
X126516177Y-161379231D01*
X126489133Y-161444875D01*
X126430892Y-161485476D01*
X126390874Y-161492000D01*
X115054083Y-161492000D01*
X114985962Y-161471998D01*
X114939469Y-161418342D01*
X114929365Y-161348068D01*
X114958859Y-161283488D01*
X115014207Y-161246476D01*
X115037695Y-161238640D01*
X115058946Y-161231550D01*
X115209348Y-161138478D01*
X115334305Y-161013303D01*
X115338146Y-161007072D01*
X115342683Y-161001327D01*
X115344013Y-161002377D01*
X115390107Y-160960892D01*
X115444597Y-160948500D01*
X124659346Y-160948500D01*
X124671202Y-160949059D01*
X124671205Y-160949059D01*
X124678939Y-160950788D01*
X124749771Y-160948562D01*
X124753729Y-160948500D01*
X124782834Y-160948500D01*
X124787234Y-160947944D01*
X124799066Y-160947012D01*
X124845233Y-160945562D01*
X124865823Y-160939580D01*
X124885184Y-160935570D01*
X124892172Y-160934688D01*
X124898606Y-160933875D01*
X124898607Y-160933875D01*
X124906466Y-160932882D01*
X124913831Y-160929966D01*
X124913835Y-160929965D01*
X124949423Y-160915874D01*
X124960633Y-160912035D01*
X125005002Y-160899145D01*
X125023467Y-160888225D01*
X125041207Y-160879534D01*
X125061158Y-160871635D01*
X125098531Y-160844482D01*
X125108450Y-160837967D01*
X125141379Y-160818493D01*
X125141383Y-160818490D01*
X125148209Y-160814453D01*
X125163373Y-160799289D01*
X125178407Y-160786448D01*
X125189345Y-160778501D01*
X125195759Y-160773841D01*
X125225205Y-160738247D01*
X125233194Y-160729468D01*
X126042500Y-159920162D01*
X126104812Y-159886136D01*
X126175627Y-159891201D01*
G37*
%TD.AperFunction*%
%TA.AperFunction,Conductor*%
G36*
X100829297Y-160143547D02*
G01*
X100906399Y-160189145D01*
X100914010Y-160191356D01*
X100914012Y-160191357D01*
X100948499Y-160201376D01*
X101066169Y-160235562D01*
X101072574Y-160236066D01*
X101072579Y-160236067D01*
X101101042Y-160238307D01*
X101101050Y-160238307D01*
X101103498Y-160238500D01*
X102411502Y-160238500D01*
X102413955Y-160238307D01*
X102413979Y-160238306D01*
X102430657Y-160236993D01*
X102500137Y-160251587D01*
X102550698Y-160301429D01*
X102566413Y-160356833D01*
X102566501Y-160358751D01*
X102566501Y-160361634D01*
X102573247Y-160435062D01*
X102575246Y-160441440D01*
X102575246Y-160441441D01*
X102610619Y-160554314D01*
X102624528Y-160598699D01*
X102713361Y-160745381D01*
X102834619Y-160866639D01*
X102981301Y-160955472D01*
X102988548Y-160957743D01*
X102988550Y-160957744D01*
X103028004Y-160970108D01*
X103144938Y-161006753D01*
X103218365Y-161013500D01*
X103300050Y-161013500D01*
X103368171Y-161033502D01*
X103389145Y-161050405D01*
X103610865Y-161272125D01*
X103618858Y-161280909D01*
X103623104Y-161287600D01*
X103623989Y-161288431D01*
X103650819Y-161350928D01*
X103639109Y-161420952D01*
X103591401Y-161473529D01*
X103525724Y-161492000D01*
X98844045Y-161492000D01*
X98775924Y-161471998D01*
X98729431Y-161418342D01*
X98719327Y-161348068D01*
X98748821Y-161283488D01*
X98778774Y-161258224D01*
X98808571Y-161240178D01*
X98820443Y-161230869D01*
X98888769Y-161162543D01*
X98951081Y-161128517D01*
X99027904Y-161136001D01*
X99039207Y-161140892D01*
X99185065Y-161183269D01*
X99197667Y-161185570D01*
X99226084Y-161187807D01*
X99231014Y-161188000D01*
X99610385Y-161188000D01*
X99625624Y-161183525D01*
X99626829Y-161182135D01*
X99628500Y-161174452D01*
X99628500Y-161169884D01*
X100136500Y-161169884D01*
X100140975Y-161185123D01*
X100142365Y-161186328D01*
X100150048Y-161187999D01*
X100533984Y-161187999D01*
X100538920Y-161187805D01*
X100567336Y-161185570D01*
X100579931Y-161183270D01*
X100725790Y-161140893D01*
X100740221Y-161134648D01*
X100869678Y-161058089D01*
X100882104Y-161048449D01*
X100988449Y-160942104D01*
X100998089Y-160929678D01*
X101074648Y-160800221D01*
X101080893Y-160785790D01*
X101119939Y-160651395D01*
X101119899Y-160637294D01*
X101112630Y-160634000D01*
X100154615Y-160634000D01*
X100139376Y-160638475D01*
X100138171Y-160639865D01*
X100136500Y-160647548D01*
X100136500Y-161169884D01*
X99628500Y-161169884D01*
X99628500Y-160652115D01*
X99624025Y-160636876D01*
X99622635Y-160635671D01*
X99614952Y-160634000D01*
X99141115Y-160634000D01*
X99125876Y-160638475D01*
X99115714Y-160650203D01*
X99092837Y-160692097D01*
X99030524Y-160726121D01*
X99003743Y-160729000D01*
X97972000Y-160729000D01*
X97903879Y-160708998D01*
X97857386Y-160655342D01*
X97846000Y-160603000D01*
X97846000Y-160347000D01*
X97866002Y-160278879D01*
X97919658Y-160232386D01*
X97972000Y-160221000D01*
X98578885Y-160221000D01*
X98594124Y-160216525D01*
X98604286Y-160204797D01*
X98627163Y-160162903D01*
X98689476Y-160128879D01*
X98716257Y-160126000D01*
X100765158Y-160126000D01*
X100829297Y-160143547D01*
G37*
%TD.AperFunction*%
%TA.AperFunction,Conductor*%
G36*
X129409930Y-152625021D02*
G01*
X129466802Y-152667518D01*
X129491671Y-152734017D01*
X129492000Y-152743115D01*
X129492000Y-158391166D01*
X129471998Y-158459287D01*
X129418342Y-158505780D01*
X129348068Y-158515884D01*
X129300164Y-158498598D01*
X129295726Y-158495878D01*
X129292204Y-158493720D01*
X129259584Y-158473730D01*
X129259579Y-158473727D01*
X129255923Y-158471487D01*
X129233348Y-158461577D01*
X129002853Y-158360397D01*
X128998921Y-158358671D01*
X128979519Y-158353144D01*
X128733114Y-158282954D01*
X128733115Y-158282954D01*
X128728986Y-158281778D01*
X128523217Y-158252493D01*
X128455365Y-158242836D01*
X128455363Y-158242836D01*
X128451113Y-158242231D01*
X128446824Y-158242209D01*
X128446817Y-158242208D01*
X128174730Y-158240783D01*
X128174723Y-158240783D01*
X128170444Y-158240761D01*
X128166199Y-158241320D01*
X128166197Y-158241320D01*
X128021904Y-158260317D01*
X127951755Y-158249378D01*
X127898656Y-158202250D01*
X127879466Y-158133896D01*
X127900277Y-158066018D01*
X127916362Y-158046300D01*
X127967605Y-157995057D01*
X127976385Y-157987067D01*
X127976387Y-157987065D01*
X127983080Y-157982818D01*
X128031605Y-157931144D01*
X128034359Y-157928303D01*
X128054927Y-157907735D01*
X128057647Y-157904228D01*
X128065353Y-157895206D01*
X128091544Y-157867315D01*
X128096972Y-157861535D01*
X128103504Y-157849653D01*
X128107303Y-157842744D01*
X128118157Y-157826220D01*
X128126445Y-157815534D01*
X128131304Y-157809270D01*
X128134452Y-157801996D01*
X128149654Y-157766867D01*
X128154876Y-157756207D01*
X128173305Y-157722686D01*
X128173306Y-157722684D01*
X128177124Y-157715739D01*
X128182459Y-157694961D01*
X128188858Y-157676271D01*
X128197380Y-157656578D01*
X128198620Y-157648750D01*
X128199532Y-157645611D01*
X128237748Y-157585777D01*
X128285058Y-157559865D01*
X128367779Y-157535597D01*
X128367785Y-157535594D01*
X128373534Y-157533908D01*
X128417341Y-157511346D01*
X128556249Y-157439804D01*
X128556252Y-157439802D01*
X128561580Y-157437058D01*
X128727920Y-157306396D01*
X128731852Y-157301865D01*
X128731855Y-157301862D01*
X128862621Y-157151167D01*
X128866552Y-157146637D01*
X128869552Y-157141451D01*
X128869555Y-157141447D01*
X128969467Y-156968742D01*
X128972473Y-156963546D01*
X129041861Y-156763729D01*
X129043379Y-156753261D01*
X129071352Y-156560336D01*
X129071352Y-156560333D01*
X129072213Y-156554396D01*
X129062433Y-156343101D01*
X129018700Y-156161635D01*
X129014281Y-156143299D01*
X129014280Y-156143297D01*
X129012875Y-156137466D01*
X128969525Y-156042122D01*
X128939944Y-155977064D01*
X128925326Y-155944913D01*
X128818933Y-155794927D01*
X128806412Y-155777275D01*
X128806411Y-155777274D01*
X128802946Y-155772389D01*
X128673390Y-155648366D01*
X128654480Y-155630264D01*
X128650150Y-155626119D01*
X128472452Y-155511380D01*
X128387516Y-155477150D01*
X128281832Y-155434558D01*
X128281829Y-155434557D01*
X128276263Y-155432314D01*
X128068663Y-155391772D01*
X128063101Y-155391500D01*
X127107154Y-155391500D01*
X126949434Y-155406548D01*
X126746466Y-155466092D01*
X126741139Y-155468836D01*
X126741138Y-155468836D01*
X126563751Y-155560196D01*
X126563748Y-155560198D01*
X126558420Y-155562942D01*
X126392080Y-155693604D01*
X126388148Y-155698135D01*
X126388145Y-155698138D01*
X126288779Y-155812648D01*
X126253448Y-155853363D01*
X126250448Y-155858549D01*
X126250445Y-155858553D01*
X126169505Y-155998463D01*
X126147527Y-156036454D01*
X126078139Y-156236271D01*
X126077278Y-156242206D01*
X126077278Y-156242208D01*
X126050346Y-156427957D01*
X126047787Y-156445604D01*
X126057567Y-156656899D01*
X126058971Y-156662724D01*
X126058971Y-156662725D01*
X126088006Y-156783200D01*
X126107125Y-156862534D01*
X126109607Y-156867992D01*
X126109608Y-156867996D01*
X126152215Y-156961703D01*
X126194674Y-157055087D01*
X126317054Y-157227611D01*
X126469850Y-157373881D01*
X126474884Y-157377131D01*
X126474891Y-157377137D01*
X126494589Y-157389855D01*
X126540968Y-157443609D01*
X126550923Y-157513904D01*
X126521293Y-157578422D01*
X126515339Y-157584803D01*
X126279450Y-157820692D01*
X126217138Y-157854718D01*
X126146323Y-157849653D01*
X126089487Y-157807106D01*
X126069733Y-157768015D01*
X126058232Y-157729923D01*
X126053559Y-157718584D01*
X125966540Y-157554923D01*
X125959751Y-157544706D01*
X125842603Y-157401067D01*
X125833959Y-157392363D01*
X125691144Y-157274216D01*
X125680973Y-157267356D01*
X125517924Y-157179196D01*
X125506619Y-157174444D01*
X125391308Y-157138750D01*
X125377205Y-157138544D01*
X125374000Y-157145299D01*
X125374000Y-158538000D01*
X125353998Y-158606121D01*
X125300342Y-158652614D01*
X125248000Y-158664000D01*
X124130115Y-158664000D01*
X124114876Y-158668475D01*
X124113671Y-158669865D01*
X124112000Y-158677548D01*
X124112000Y-158756657D01*
X124112301Y-158762805D01*
X124125812Y-158900603D01*
X124128195Y-158912638D01*
X124181767Y-159090076D01*
X124186441Y-159101416D01*
X124273460Y-159265077D01*
X124280249Y-159275294D01*
X124401292Y-159423708D01*
X124399690Y-159425015D01*
X124429003Y-159479147D01*
X124423691Y-159549944D01*
X124380946Y-159606631D01*
X124314340Y-159631210D01*
X124305790Y-159631500D01*
X117292884Y-159631500D01*
X117224763Y-159611498D01*
X117178270Y-159557842D01*
X117168166Y-159487568D01*
X117196362Y-159424509D01*
X117311778Y-159286961D01*
X117318708Y-159276841D01*
X117408002Y-159114415D01*
X117412834Y-159103142D01*
X117468880Y-158926462D01*
X117471430Y-158914468D01*
X117487607Y-158770239D01*
X117488000Y-158763215D01*
X117488000Y-158682115D01*
X117483525Y-158666876D01*
X117482135Y-158665671D01*
X117474452Y-158664000D01*
X115494283Y-158664000D01*
X115448229Y-158650478D01*
X115418452Y-158644000D01*
X114132000Y-158644000D01*
X114063879Y-158623998D01*
X114017386Y-158570342D01*
X114006000Y-158518000D01*
X114006000Y-157816115D01*
X114001526Y-157800876D01*
X113989488Y-157790446D01*
X113951104Y-157730720D01*
X113946000Y-157695221D01*
X113946000Y-157323885D01*
X114454000Y-157323885D01*
X114458474Y-157339124D01*
X114470512Y-157349554D01*
X114508896Y-157409280D01*
X114514000Y-157444779D01*
X114514000Y-158117885D01*
X114518475Y-158133124D01*
X114519865Y-158134329D01*
X114527548Y-158136000D01*
X115470717Y-158136000D01*
X115516771Y-158149522D01*
X115546548Y-158156000D01*
X116207885Y-158156000D01*
X116223124Y-158151525D01*
X116224329Y-158150135D01*
X116226000Y-158142452D01*
X116226000Y-158137885D01*
X116734000Y-158137885D01*
X116738475Y-158153124D01*
X116739865Y-158154329D01*
X116747548Y-158156000D01*
X117469885Y-158156000D01*
X117485124Y-158151525D01*
X117486329Y-158150135D01*
X117488000Y-158142452D01*
X117488000Y-158137885D01*
X124112000Y-158137885D01*
X124116475Y-158153124D01*
X124117865Y-158154329D01*
X124125548Y-158156000D01*
X124847885Y-158156000D01*
X124863124Y-158151525D01*
X124864329Y-158150135D01*
X124866000Y-158142452D01*
X124866000Y-157152076D01*
X124862027Y-157138545D01*
X124854232Y-157137425D01*
X124746479Y-157169138D01*
X124735111Y-157173731D01*
X124570846Y-157259607D01*
X124560585Y-157266321D01*
X124416127Y-157382468D01*
X124407368Y-157391046D01*
X124288222Y-157533039D01*
X124281292Y-157543159D01*
X124191998Y-157705585D01*
X124187166Y-157716858D01*
X124131120Y-157893538D01*
X124128570Y-157905532D01*
X124112393Y-158049761D01*
X124112000Y-158056785D01*
X124112000Y-158137885D01*
X117488000Y-158137885D01*
X117488000Y-158063343D01*
X117487699Y-158057195D01*
X117474188Y-157919397D01*
X117471805Y-157907362D01*
X117418233Y-157729924D01*
X117413559Y-157718584D01*
X117326540Y-157554923D01*
X117319751Y-157544706D01*
X117202603Y-157401067D01*
X117193959Y-157392363D01*
X117051144Y-157274216D01*
X117040973Y-157267356D01*
X116877924Y-157179196D01*
X116866619Y-157174444D01*
X116751308Y-157138750D01*
X116737205Y-157138544D01*
X116734000Y-157145299D01*
X116734000Y-158137885D01*
X116226000Y-158137885D01*
X116226000Y-157152076D01*
X116222027Y-157138545D01*
X116214232Y-157137425D01*
X116106479Y-157169138D01*
X116095111Y-157173731D01*
X115930846Y-157259607D01*
X115920585Y-157266321D01*
X115776127Y-157382467D01*
X115770821Y-157387664D01*
X115708157Y-157421036D01*
X115637398Y-157415231D01*
X115581010Y-157372092D01*
X115556896Y-157305316D01*
X115563069Y-157257975D01*
X115595137Y-157161293D01*
X115598005Y-157147914D01*
X115607672Y-157053562D01*
X115608000Y-157047146D01*
X115608000Y-156947115D01*
X115603525Y-156931876D01*
X115602135Y-156930671D01*
X115594452Y-156929000D01*
X114472115Y-156929000D01*
X114456876Y-156933475D01*
X114455671Y-156934865D01*
X114454000Y-156942548D01*
X114454000Y-157323885D01*
X113946000Y-157323885D01*
X113946000Y-156402885D01*
X114454000Y-156402885D01*
X114458475Y-156418124D01*
X114459865Y-156419329D01*
X114467548Y-156421000D01*
X115589884Y-156421000D01*
X115605123Y-156416525D01*
X115606328Y-156415135D01*
X115607999Y-156407452D01*
X115607999Y-156302905D01*
X115607662Y-156296386D01*
X115597743Y-156200794D01*
X115594851Y-156187400D01*
X115543412Y-156033216D01*
X115537239Y-156020038D01*
X115451937Y-155882193D01*
X115442901Y-155870792D01*
X115328171Y-155756261D01*
X115316760Y-155747249D01*
X115178757Y-155662184D01*
X115165576Y-155656037D01*
X115011290Y-155604862D01*
X114997914Y-155601995D01*
X114903562Y-155592328D01*
X114897145Y-155592000D01*
X114472115Y-155592000D01*
X114456876Y-155596475D01*
X114455671Y-155597865D01*
X114454000Y-155605548D01*
X114454000Y-156402885D01*
X113946000Y-156402885D01*
X113946000Y-155610116D01*
X113941525Y-155594877D01*
X113940135Y-155593672D01*
X113932452Y-155592001D01*
X113734980Y-155592001D01*
X113666859Y-155571999D01*
X113620366Y-155518343D01*
X113608980Y-155466001D01*
X113608980Y-155399470D01*
X113628982Y-155331349D01*
X113645885Y-155310375D01*
X114110855Y-154845405D01*
X114173167Y-154811379D01*
X114199950Y-154808500D01*
X114900400Y-154808500D01*
X114903646Y-154808163D01*
X114903650Y-154808163D01*
X114999308Y-154798238D01*
X114999312Y-154798237D01*
X115006166Y-154797526D01*
X115012702Y-154795345D01*
X115012704Y-154795345D01*
X115166998Y-154743868D01*
X115173946Y-154741550D01*
X115279697Y-154676109D01*
X115348149Y-154657271D01*
X115415919Y-154678432D01*
X115461490Y-154732873D01*
X115472000Y-154783253D01*
X115472000Y-154826657D01*
X115472301Y-154832805D01*
X115485812Y-154970603D01*
X115488195Y-154982638D01*
X115541767Y-155160076D01*
X115546441Y-155171416D01*
X115633460Y-155335077D01*
X115640249Y-155345294D01*
X115757397Y-155488933D01*
X115766041Y-155497637D01*
X115908856Y-155615784D01*
X115919027Y-155622644D01*
X116082076Y-155710804D01*
X116093381Y-155715556D01*
X116208692Y-155751250D01*
X116222795Y-155751456D01*
X116226000Y-155744701D01*
X116226000Y-154102000D01*
X116246002Y-154033879D01*
X116299658Y-153987386D01*
X116352000Y-153976000D01*
X117209326Y-153976000D01*
X117277447Y-153996002D01*
X117323940Y-154049658D01*
X117334044Y-154119932D01*
X117304550Y-154184512D01*
X117295899Y-154193548D01*
X117278540Y-154209964D01*
X117271515Y-154216607D01*
X117267683Y-154222245D01*
X117267680Y-154222249D01*
X117182557Y-154347503D01*
X117169723Y-154366388D01*
X117154362Y-154404794D01*
X117110495Y-154460613D01*
X117037374Y-154484000D01*
X116752115Y-154484000D01*
X116736876Y-154488475D01*
X116735671Y-154489865D01*
X116734000Y-154497548D01*
X116734000Y-155737924D01*
X116737973Y-155751455D01*
X116745768Y-155752575D01*
X116853521Y-155720862D01*
X116864889Y-155716269D01*
X117029154Y-155630393D01*
X117039415Y-155623679D01*
X117183873Y-155507532D01*
X117192632Y-155498954D01*
X117237000Y-155446079D01*
X117296110Y-155406752D01*
X117367098Y-155405626D01*
X117410048Y-155426972D01*
X117475678Y-155477150D01*
X117549085Y-155511380D01*
X117633631Y-155550805D01*
X117633634Y-155550806D01*
X117639808Y-155553685D01*
X117646456Y-155555171D01*
X117646459Y-155555172D01*
X117752421Y-155578857D01*
X117816543Y-155593190D01*
X117822088Y-155593500D01*
X117955244Y-155593500D01*
X118090037Y-155578857D01*
X118254330Y-155523566D01*
X118255204Y-155523272D01*
X118255206Y-155523271D01*
X118261675Y-155521094D01*
X118416905Y-155427823D01*
X118421861Y-155423136D01*
X118421864Y-155423134D01*
X118441108Y-155404935D01*
X118458573Y-155388419D01*
X118521809Y-155356147D01*
X118592455Y-155363186D01*
X118634241Y-155390872D01*
X118950974Y-155707605D01*
X118958964Y-155716385D01*
X118963213Y-155723080D01*
X118968991Y-155728506D01*
X118968992Y-155728507D01*
X119014886Y-155771604D01*
X119017728Y-155774359D01*
X119038296Y-155794927D01*
X119041799Y-155797644D01*
X119050824Y-155805352D01*
X119084496Y-155836972D01*
X119091447Y-155840793D01*
X119091448Y-155840794D01*
X119103287Y-155847303D01*
X119119811Y-155858157D01*
X119129900Y-155865982D01*
X119136761Y-155871304D01*
X119144033Y-155874451D01*
X119144035Y-155874452D01*
X119179164Y-155889654D01*
X119189824Y-155894876D01*
X119219797Y-155911354D01*
X119230292Y-155917124D01*
X119251070Y-155922459D01*
X119269760Y-155928858D01*
X119289453Y-155937380D01*
X119322639Y-155942636D01*
X119335077Y-155944606D01*
X119346700Y-155947013D01*
X119371383Y-155953350D01*
X119391441Y-155958500D01*
X119412888Y-155958500D01*
X119432598Y-155960051D01*
X119453781Y-155963406D01*
X119499770Y-155959059D01*
X119511625Y-155958500D01*
X122043315Y-155958500D01*
X122055171Y-155959059D01*
X122055174Y-155959059D01*
X122062908Y-155960788D01*
X122133740Y-155958562D01*
X122137698Y-155958500D01*
X122166803Y-155958500D01*
X122171203Y-155957944D01*
X122183035Y-155957012D01*
X122229202Y-155955562D01*
X122249792Y-155949580D01*
X122269153Y-155945570D01*
X122276787Y-155944606D01*
X122282575Y-155943875D01*
X122282576Y-155943875D01*
X122290435Y-155942882D01*
X122297800Y-155939966D01*
X122297804Y-155939965D01*
X122333392Y-155925874D01*
X122344602Y-155922035D01*
X122388971Y-155909145D01*
X122407436Y-155898225D01*
X122425176Y-155889534D01*
X122445127Y-155881635D01*
X122482500Y-155854482D01*
X122492419Y-155847967D01*
X122525348Y-155828493D01*
X122525352Y-155828490D01*
X122532178Y-155824453D01*
X122547342Y-155809289D01*
X122562376Y-155796448D01*
X122579728Y-155783841D01*
X122609174Y-155748247D01*
X122617163Y-155739468D01*
X122964485Y-155392146D01*
X123026797Y-155358120D01*
X123097612Y-155363185D01*
X123130107Y-155381144D01*
X123169551Y-155411301D01*
X123250257Y-155473006D01*
X123250261Y-155473009D01*
X123255678Y-155477150D01*
X123329085Y-155511380D01*
X123413631Y-155550805D01*
X123413634Y-155550806D01*
X123419808Y-155553685D01*
X123426456Y-155555171D01*
X123426459Y-155555172D01*
X123532421Y-155578857D01*
X123596543Y-155593190D01*
X123602088Y-155593500D01*
X123735244Y-155593500D01*
X123870037Y-155578857D01*
X124034330Y-155523566D01*
X124035204Y-155523272D01*
X124035206Y-155523271D01*
X124041675Y-155521094D01*
X124193651Y-155429778D01*
X124193654Y-155429777D01*
X124196905Y-155427823D01*
X124197255Y-155428406D01*
X124258917Y-155404935D01*
X124328391Y-155419561D01*
X124366391Y-155450915D01*
X124397397Y-155488933D01*
X124406041Y-155497637D01*
X124548856Y-155615784D01*
X124559027Y-155622644D01*
X124722076Y-155710804D01*
X124733381Y-155715556D01*
X124848692Y-155751250D01*
X124862795Y-155751456D01*
X124866000Y-155744701D01*
X124866000Y-154502115D01*
X124861525Y-154486876D01*
X124860135Y-154485671D01*
X124852452Y-154484000D01*
X124562757Y-154484000D01*
X124494636Y-154463998D01*
X124451300Y-154416765D01*
X124404956Y-154328866D01*
X124385078Y-154291164D01*
X124380673Y-154285951D01*
X124380670Y-154285947D01*
X124293949Y-154183328D01*
X124265257Y-154118387D01*
X124276230Y-154048244D01*
X124323383Y-153995167D01*
X124390187Y-153976000D01*
X125248000Y-153976000D01*
X125316121Y-153996002D01*
X125362614Y-154049658D01*
X125374000Y-154102000D01*
X125374000Y-155737924D01*
X125377973Y-155751455D01*
X125385768Y-155752575D01*
X125493521Y-155720862D01*
X125504889Y-155716269D01*
X125669154Y-155630393D01*
X125679415Y-155623679D01*
X125823873Y-155507532D01*
X125832632Y-155498954D01*
X125951778Y-155356961D01*
X125958708Y-155346841D01*
X126048002Y-155184415D01*
X126052834Y-155173142D01*
X126108880Y-154996462D01*
X126111430Y-154984468D01*
X126127607Y-154840239D01*
X126128000Y-154833215D01*
X126128000Y-154800986D01*
X126148002Y-154732865D01*
X126201658Y-154686372D01*
X126271932Y-154676268D01*
X126341131Y-154709968D01*
X126465831Y-154829342D01*
X126475196Y-154836738D01*
X126642741Y-154944921D01*
X126653345Y-154950417D01*
X126838312Y-155024961D01*
X126849770Y-155028355D01*
X127046928Y-155066857D01*
X127055791Y-155067934D01*
X127058500Y-155068000D01*
X127287885Y-155068000D01*
X127303124Y-155063525D01*
X127304329Y-155062135D01*
X127306000Y-155054452D01*
X127306000Y-155049885D01*
X127814000Y-155049885D01*
X127818475Y-155065124D01*
X127819865Y-155066329D01*
X127827548Y-155068000D01*
X128009832Y-155068000D01*
X128015808Y-155067715D01*
X128164494Y-155053529D01*
X128176228Y-155051270D01*
X128367599Y-154995128D01*
X128378675Y-154990698D01*
X128555978Y-154899381D01*
X128566024Y-154892931D01*
X128722857Y-154769738D01*
X128731506Y-154761501D01*
X128862212Y-154610877D01*
X128869147Y-154601153D01*
X128969010Y-154428533D01*
X128973984Y-154417669D01*
X129039407Y-154229273D01*
X129039648Y-154228284D01*
X129038180Y-154217992D01*
X129024615Y-154214000D01*
X127832115Y-154214000D01*
X127816876Y-154218475D01*
X127815671Y-154219865D01*
X127814000Y-154227548D01*
X127814000Y-155049885D01*
X127306000Y-155049885D01*
X127306000Y-153832000D01*
X127326002Y-153763879D01*
X127379658Y-153717386D01*
X127432000Y-153706000D01*
X129020402Y-153706000D01*
X129033933Y-153702027D01*
X129035288Y-153692601D01*
X129013806Y-153603463D01*
X129009917Y-153592168D01*
X128927371Y-153410618D01*
X128921424Y-153400276D01*
X128806032Y-153237603D01*
X128798234Y-153228569D01*
X128703096Y-153137495D01*
X128667719Y-153075940D01*
X128671238Y-153005031D01*
X128712534Y-152947280D01*
X128777222Y-152921150D01*
X128789662Y-152919859D01*
X128855982Y-152912978D01*
X129016849Y-152859308D01*
X129161055Y-152770071D01*
X129276827Y-152654097D01*
X129339109Y-152620018D01*
X129409930Y-152625021D01*
G37*
%TD.AperFunction*%
%TA.AperFunction,Conductor*%
G36*
X108098481Y-155616868D02*
G01*
X108183710Y-155645138D01*
X108197086Y-155648005D01*
X108242749Y-155652684D01*
X108308476Y-155679526D01*
X108349258Y-155737641D01*
X108352146Y-155808579D01*
X108345542Y-155828071D01*
X108344892Y-155829573D01*
X108340855Y-155836399D01*
X108338644Y-155844010D01*
X108338643Y-155844012D01*
X108335601Y-155854484D01*
X108294438Y-155996169D01*
X108291500Y-156033498D01*
X108291500Y-156466502D01*
X108291693Y-156468950D01*
X108291693Y-156468958D01*
X108292904Y-156484337D01*
X108294438Y-156503831D01*
X108310290Y-156558395D01*
X108337168Y-156650909D01*
X108340855Y-156663601D01*
X108344889Y-156670423D01*
X108347128Y-156675596D01*
X108355824Y-156746058D01*
X108347128Y-156775674D01*
X108339107Y-156794210D01*
X108300061Y-156928605D01*
X108300101Y-156942706D01*
X108307370Y-156946000D01*
X108545158Y-156946000D01*
X108609297Y-156963547D01*
X108686399Y-157009145D01*
X108694010Y-157011356D01*
X108694012Y-157011357D01*
X108746231Y-157026528D01*
X108846169Y-157055562D01*
X108852574Y-157056066D01*
X108852579Y-157056067D01*
X108881042Y-157058307D01*
X108881050Y-157058307D01*
X108883498Y-157058500D01*
X110041502Y-157058500D01*
X110043950Y-157058307D01*
X110043958Y-157058307D01*
X110072421Y-157056067D01*
X110072426Y-157056066D01*
X110078831Y-157055562D01*
X110178769Y-157026528D01*
X110230988Y-157011357D01*
X110230990Y-157011356D01*
X110238601Y-157009145D01*
X110315703Y-156963547D01*
X110379842Y-156946000D01*
X110611878Y-156946000D01*
X110627116Y-156941526D01*
X110635268Y-156932118D01*
X110694994Y-156893734D01*
X110765990Y-156893734D01*
X110807720Y-156915071D01*
X110812585Y-156918845D01*
X110818193Y-156924453D01*
X110825017Y-156928489D01*
X110825020Y-156928491D01*
X110856512Y-156947115D01*
X110961399Y-157009145D01*
X110969010Y-157011356D01*
X110969012Y-157011357D01*
X111021231Y-157026528D01*
X111121169Y-157055562D01*
X111127574Y-157056066D01*
X111127579Y-157056067D01*
X111156042Y-157058307D01*
X111156050Y-157058307D01*
X111158498Y-157058500D01*
X111306050Y-157058500D01*
X111374171Y-157078502D01*
X111420664Y-157132158D01*
X111430768Y-157202432D01*
X111401274Y-157267012D01*
X111395145Y-157273595D01*
X111364145Y-157304595D01*
X111301833Y-157338621D01*
X111275050Y-157341500D01*
X111158498Y-157341500D01*
X111156050Y-157341693D01*
X111156042Y-157341693D01*
X111127579Y-157343933D01*
X111127574Y-157343934D01*
X111121169Y-157344438D01*
X111034092Y-157369736D01*
X110969012Y-157388643D01*
X110969010Y-157388644D01*
X110961399Y-157390855D01*
X110818193Y-157475547D01*
X110812584Y-157481156D01*
X110807114Y-157485399D01*
X110741029Y-157511346D01*
X110671406Y-157497445D01*
X110629884Y-157459554D01*
X110617630Y-157454000D01*
X110379842Y-157454000D01*
X110315703Y-157436453D01*
X110269756Y-157409280D01*
X110238601Y-157390855D01*
X110230990Y-157388644D01*
X110230988Y-157388643D01*
X110165908Y-157369736D01*
X110078831Y-157344438D01*
X110072426Y-157343934D01*
X110072421Y-157343933D01*
X110043958Y-157341693D01*
X110043950Y-157341693D01*
X110041502Y-157341500D01*
X108883498Y-157341500D01*
X108881050Y-157341693D01*
X108881042Y-157341693D01*
X108852579Y-157343933D01*
X108852574Y-157343934D01*
X108846169Y-157344438D01*
X108759092Y-157369736D01*
X108694012Y-157388643D01*
X108694010Y-157388644D01*
X108686399Y-157390855D01*
X108655244Y-157409280D01*
X108609297Y-157436453D01*
X108545158Y-157454000D01*
X108313122Y-157454000D01*
X108299591Y-157457973D01*
X108298456Y-157465871D01*
X108326726Y-157563175D01*
X108326523Y-157634172D01*
X108302815Y-157678643D01*
X108289309Y-157694970D01*
X108283699Y-157701751D01*
X108275708Y-157710532D01*
X107488647Y-158497593D01*
X107426335Y-158531619D01*
X107389666Y-158534110D01*
X107358959Y-158531693D01*
X107358949Y-158531693D01*
X107356502Y-158531500D01*
X107124500Y-158531500D01*
X107056379Y-158511498D01*
X107009886Y-158457842D01*
X106998500Y-158405500D01*
X106998500Y-157248498D01*
X106997196Y-157231923D01*
X106996067Y-157217582D01*
X106996067Y-157217579D01*
X106995562Y-157211169D01*
X106994221Y-157206552D01*
X107001597Y-157136531D01*
X107046028Y-157081155D01*
X107118109Y-157058500D01*
X107225400Y-157058500D01*
X107228646Y-157058163D01*
X107228650Y-157058163D01*
X107324308Y-157048238D01*
X107324312Y-157048237D01*
X107331166Y-157047526D01*
X107337702Y-157045345D01*
X107337704Y-157045345D01*
X107491998Y-156993868D01*
X107498946Y-156991550D01*
X107649348Y-156898478D01*
X107774305Y-156773303D01*
X107804428Y-156724435D01*
X107863275Y-156628968D01*
X107863276Y-156628966D01*
X107867115Y-156622738D01*
X107904506Y-156510008D01*
X107920632Y-156461389D01*
X107920632Y-156461387D01*
X107922797Y-156454861D01*
X107923746Y-156445604D01*
X107929835Y-156386169D01*
X107933500Y-156350400D01*
X107933500Y-155749600D01*
X107933163Y-155746350D01*
X107932995Y-155743108D01*
X107934671Y-155743021D01*
X107946354Y-155679637D01*
X107994927Y-155627858D01*
X108063784Y-155610559D01*
X108098481Y-155616868D01*
G37*
%TD.AperFunction*%
%TA.AperFunction,Conductor*%
G36*
X102940671Y-154516002D02*
G01*
X102961645Y-154532905D01*
X103586345Y-155157605D01*
X103594335Y-155166385D01*
X103598584Y-155173080D01*
X103604362Y-155178506D01*
X103604363Y-155178507D01*
X103650257Y-155221604D01*
X103653099Y-155224359D01*
X103654595Y-155225855D01*
X103688621Y-155288167D01*
X103691500Y-155314950D01*
X103691500Y-155450400D01*
X103691837Y-155453646D01*
X103691837Y-155453650D01*
X103701618Y-155547914D01*
X103702474Y-155556166D01*
X103704655Y-155562702D01*
X103704655Y-155562704D01*
X103739100Y-155665946D01*
X103758450Y-155723946D01*
X103770983Y-155744199D01*
X103789820Y-155812648D01*
X103768659Y-155880418D01*
X103714219Y-155925989D01*
X103663838Y-155936500D01*
X103365390Y-155936501D01*
X103358366Y-155936501D01*
X103355508Y-155936764D01*
X103355499Y-155936764D01*
X103320661Y-155939965D01*
X103284938Y-155943247D01*
X103278560Y-155945246D01*
X103278559Y-155945246D01*
X103128550Y-155992256D01*
X103128548Y-155992257D01*
X103121301Y-155994528D01*
X102974619Y-156083361D01*
X102879095Y-156178885D01*
X102816783Y-156212911D01*
X102745968Y-156207846D01*
X102700905Y-156178885D01*
X102661132Y-156139112D01*
X102627106Y-156076800D01*
X102632171Y-156005985D01*
X102661055Y-155960999D01*
X102743735Y-155878176D01*
X102752751Y-155866760D01*
X102837816Y-155728757D01*
X102843963Y-155715576D01*
X102895138Y-155561290D01*
X102898005Y-155547914D01*
X102907672Y-155453562D01*
X102908000Y-155447146D01*
X102908000Y-155022115D01*
X102903525Y-155006876D01*
X102902135Y-155005671D01*
X102894452Y-155004000D01*
X101697000Y-155004000D01*
X101628879Y-154983998D01*
X101582386Y-154930342D01*
X101571000Y-154878000D01*
X101571000Y-154622000D01*
X101591002Y-154553879D01*
X101644658Y-154507386D01*
X101697000Y-154496000D01*
X102872550Y-154496000D01*
X102940671Y-154516002D01*
G37*
%TD.AperFunction*%
%TA.AperFunction,Conductor*%
G36*
X110871121Y-154166002D02*
G01*
X110917614Y-154219658D01*
X110929000Y-154272000D01*
X110929000Y-155364884D01*
X110937693Y-155394490D01*
X110937693Y-155465487D01*
X110899309Y-155525213D01*
X110880945Y-155538435D01*
X110818193Y-155575547D01*
X110727794Y-155665946D01*
X110665482Y-155699972D01*
X110594667Y-155694907D01*
X110537831Y-155652360D01*
X110513020Y-155585840D01*
X110519322Y-155544902D01*
X110517124Y-155544338D01*
X110522457Y-155523566D01*
X110528859Y-155504864D01*
X110537379Y-155485177D01*
X110540498Y-155465487D01*
X110544605Y-155439552D01*
X110547013Y-155427926D01*
X110556529Y-155390865D01*
X110556529Y-155390864D01*
X110558500Y-155383188D01*
X110558500Y-155361742D01*
X110560051Y-155342031D01*
X110562166Y-155328678D01*
X110563406Y-155320849D01*
X110559059Y-155274864D01*
X110558500Y-155263006D01*
X110558500Y-154272000D01*
X110578502Y-154203879D01*
X110632158Y-154157386D01*
X110684500Y-154146000D01*
X110803000Y-154146000D01*
X110871121Y-154166002D01*
G37*
%TD.AperFunction*%
%TA.AperFunction,Conductor*%
G36*
X109183621Y-154416002D02*
G01*
X109230114Y-154469658D01*
X109241500Y-154522000D01*
X109241500Y-154778000D01*
X109221498Y-154846121D01*
X109167842Y-154892614D01*
X109115500Y-154904000D01*
X108692000Y-154904000D01*
X108623879Y-154883998D01*
X108577386Y-154830342D01*
X108566000Y-154778000D01*
X108566000Y-154522000D01*
X108586002Y-154453879D01*
X108639658Y-154407386D01*
X108692000Y-154396000D01*
X109115500Y-154396000D01*
X109183621Y-154416002D01*
G37*
%TD.AperFunction*%
%TA.AperFunction,Conductor*%
G36*
X104748171Y-150568502D02*
G01*
X104769145Y-150585405D01*
X105141345Y-150957605D01*
X105149335Y-150966385D01*
X105153584Y-150973080D01*
X105159362Y-150978506D01*
X105159363Y-150978507D01*
X105205257Y-151021604D01*
X105208099Y-151024359D01*
X105228667Y-151044927D01*
X105232170Y-151047644D01*
X105241195Y-151055352D01*
X105274867Y-151086972D01*
X105290536Y-151095586D01*
X105340594Y-151145931D01*
X105355487Y-151215348D01*
X105330486Y-151281797D01*
X105273529Y-151324181D01*
X105229834Y-151332000D01*
X104852115Y-151332000D01*
X104836876Y-151336475D01*
X104835671Y-151337865D01*
X104834000Y-151345548D01*
X104834000Y-152142885D01*
X104838475Y-152158124D01*
X104839865Y-152159329D01*
X104847548Y-152161000D01*
X105936865Y-152161000D01*
X106004986Y-152181002D01*
X106019377Y-152191775D01*
X106033865Y-152204329D01*
X106041548Y-152206000D01*
X106918000Y-152206000D01*
X106986121Y-152226002D01*
X107032614Y-152279658D01*
X107044000Y-152332000D01*
X107044000Y-153392570D01*
X107023998Y-153460691D01*
X106970342Y-153507184D01*
X106957219Y-153512079D01*
X106955671Y-153513865D01*
X106954000Y-153521548D01*
X106954000Y-154278000D01*
X106933998Y-154346121D01*
X106880342Y-154392614D01*
X106828000Y-154404000D01*
X106572000Y-154404000D01*
X106503879Y-154383998D01*
X106457386Y-154330342D01*
X106446000Y-154278000D01*
X106446000Y-153217430D01*
X106466002Y-153149309D01*
X106519658Y-153102816D01*
X106532781Y-153097921D01*
X106534329Y-153096135D01*
X106536000Y-153088452D01*
X106536000Y-152732115D01*
X106531525Y-152716876D01*
X106530135Y-152715671D01*
X106522452Y-152714000D01*
X105608135Y-152714000D01*
X105540014Y-152693998D01*
X105525623Y-152683225D01*
X105511135Y-152670671D01*
X105503452Y-152669000D01*
X104452000Y-152669000D01*
X104383879Y-152648998D01*
X104337386Y-152595342D01*
X104326000Y-152543000D01*
X104326000Y-151350116D01*
X104321525Y-151334877D01*
X104320135Y-151333672D01*
X104312452Y-151332001D01*
X103947740Y-151332001D01*
X103879619Y-151311999D01*
X103833126Y-151258343D01*
X103823022Y-151188069D01*
X103852516Y-151123489D01*
X103861928Y-151114574D01*
X103861807Y-151114453D01*
X103876971Y-151099289D01*
X103892005Y-151086448D01*
X103902943Y-151078501D01*
X103909357Y-151073841D01*
X103938803Y-151038247D01*
X103946792Y-151029468D01*
X104390855Y-150585405D01*
X104453167Y-150551379D01*
X104479950Y-150548500D01*
X104680050Y-150548500D01*
X104748171Y-150568502D01*
G37*
%TD.AperFunction*%
%TA.AperFunction,Conductor*%
G36*
X99329297Y-151303547D02*
G01*
X99406399Y-151349145D01*
X99414010Y-151351356D01*
X99414012Y-151351357D01*
X99466231Y-151366528D01*
X99566169Y-151395562D01*
X99572574Y-151396066D01*
X99572579Y-151396067D01*
X99601042Y-151398307D01*
X99601050Y-151398307D01*
X99603498Y-151398500D01*
X100310500Y-151398500D01*
X100378621Y-151418502D01*
X100425114Y-151472158D01*
X100436500Y-151524500D01*
X100436500Y-151555500D01*
X100416498Y-151623621D01*
X100362842Y-151670114D01*
X100310500Y-151681500D01*
X99603498Y-151681500D01*
X99601050Y-151681693D01*
X99601042Y-151681693D01*
X99572579Y-151683933D01*
X99572574Y-151683934D01*
X99566169Y-151684438D01*
X99476641Y-151710448D01*
X99414012Y-151728643D01*
X99414010Y-151728644D01*
X99406399Y-151730855D01*
X99399572Y-151734892D01*
X99399573Y-151734892D01*
X99329297Y-151776453D01*
X99265158Y-151794000D01*
X99033122Y-151794000D01*
X99019591Y-151797973D01*
X99018456Y-151805871D01*
X99059107Y-151945790D01*
X99067128Y-151964326D01*
X99075824Y-152034788D01*
X99067128Y-152064404D01*
X99064889Y-152069577D01*
X99060855Y-152076399D01*
X99058644Y-152084010D01*
X99058643Y-152084012D01*
X99047386Y-152122760D01*
X99014438Y-152236169D01*
X99013934Y-152242574D01*
X99013933Y-152242579D01*
X99013036Y-152253976D01*
X99011500Y-152273498D01*
X99011500Y-152706502D01*
X99011693Y-152708950D01*
X99011693Y-152708958D01*
X99013666Y-152734017D01*
X99014438Y-152743831D01*
X99060855Y-152903601D01*
X99072623Y-152923500D01*
X99141509Y-153039980D01*
X99141511Y-153039983D01*
X99145547Y-153046807D01*
X99263193Y-153164453D01*
X99270017Y-153168489D01*
X99270020Y-153168491D01*
X99352772Y-153217430D01*
X99406399Y-153249145D01*
X99414005Y-153251355D01*
X99418121Y-153253136D01*
X99472694Y-153298548D01*
X99494052Y-153366256D01*
X99475413Y-153434763D01*
X99433348Y-153476547D01*
X99411429Y-153489822D01*
X99399557Y-153499131D01*
X99289131Y-153609557D01*
X99279824Y-153621426D01*
X99198921Y-153755012D01*
X99192716Y-153768755D01*
X99188670Y-153781666D01*
X99149212Y-153840688D01*
X99084108Y-153869008D01*
X99014028Y-153857634D01*
X98979341Y-153833081D01*
X98195405Y-153049145D01*
X98161379Y-152986833D01*
X98158500Y-152960050D01*
X98158500Y-152228524D01*
X98178502Y-152160403D01*
X98195405Y-152139428D01*
X99011930Y-151322904D01*
X99074242Y-151288879D01*
X99101025Y-151286000D01*
X99265158Y-151286000D01*
X99329297Y-151303547D01*
G37*
%TD.AperFunction*%
%TA.AperFunction,Conductor*%
G36*
X111544032Y-153412154D02*
G01*
X111589095Y-153441115D01*
X111608885Y-153460905D01*
X111642911Y-153523217D01*
X111637846Y-153594032D01*
X111608885Y-153639095D01*
X111588741Y-153659239D01*
X111526429Y-153693265D01*
X111455614Y-153688200D01*
X111410551Y-153659239D01*
X111390761Y-153639449D01*
X111356735Y-153577137D01*
X111361800Y-153506322D01*
X111390761Y-153461259D01*
X111410905Y-153441115D01*
X111473217Y-153407089D01*
X111544032Y-153412154D01*
G37*
%TD.AperFunction*%
%TA.AperFunction,Conductor*%
G36*
X124267012Y-152987913D02*
G01*
X124305396Y-153047639D01*
X124308475Y-153058124D01*
X124309865Y-153059329D01*
X124317548Y-153061000D01*
X124772000Y-153061000D01*
X124840121Y-153081002D01*
X124886614Y-153134658D01*
X124898000Y-153187000D01*
X124898000Y-153443000D01*
X124877998Y-153511121D01*
X124824342Y-153557614D01*
X124772000Y-153569000D01*
X124184500Y-153569000D01*
X124116379Y-153548998D01*
X124069886Y-153495342D01*
X124058500Y-153443000D01*
X124058500Y-153083137D01*
X124078502Y-153015016D01*
X124132158Y-152968523D01*
X124202432Y-152958419D01*
X124267012Y-152987913D01*
G37*
%TD.AperFunction*%
%TA.AperFunction,Conductor*%
G36*
X117459532Y-152972825D02*
G01*
X117516368Y-153015372D01*
X117541179Y-153081892D01*
X117541500Y-153090881D01*
X117541500Y-153443000D01*
X117521498Y-153511121D01*
X117467842Y-153557614D01*
X117415500Y-153569000D01*
X116828000Y-153569000D01*
X116759879Y-153548998D01*
X116713386Y-153495342D01*
X116702000Y-153443000D01*
X116702000Y-153187000D01*
X116722002Y-153118879D01*
X116775658Y-153072386D01*
X116828000Y-153061000D01*
X117277885Y-153061000D01*
X117293124Y-153056525D01*
X117302290Y-153045947D01*
X117326404Y-153001786D01*
X117388716Y-152967761D01*
X117459532Y-152972825D01*
G37*
%TD.AperFunction*%
%TA.AperFunction,Conductor*%
G36*
X92729863Y-141878987D02*
G01*
X92776356Y-141932643D01*
X92786460Y-142002917D01*
X92756966Y-142067497D01*
X92712990Y-142100092D01*
X92699281Y-142106195D01*
X92699274Y-142106199D01*
X92693248Y-142108882D01*
X92687907Y-142112762D01*
X92687906Y-142112763D01*
X92673522Y-142123214D01*
X92538747Y-142221134D01*
X92534326Y-142226044D01*
X92534325Y-142226045D01*
X92445553Y-142324637D01*
X92410960Y-142363056D01*
X92376504Y-142422735D01*
X92329245Y-142504591D01*
X92315473Y-142528444D01*
X92256458Y-142710072D01*
X92255768Y-142716633D01*
X92255768Y-142716635D01*
X92241018Y-142856971D01*
X92236496Y-142900000D01*
X92237186Y-142906565D01*
X92254832Y-143074453D01*
X92256458Y-143089928D01*
X92258496Y-143096202D01*
X92258498Y-143096209D01*
X92268199Y-143126065D01*
X92270226Y-143197032D01*
X92233563Y-143257830D01*
X92169851Y-143289155D01*
X92148366Y-143291000D01*
X91999328Y-143291000D01*
X91992876Y-143292372D01*
X91992871Y-143292372D01*
X91905927Y-143310853D01*
X91812527Y-143330706D01*
X91806497Y-143333391D01*
X91806496Y-143333391D01*
X91644093Y-143405697D01*
X91644091Y-143405698D01*
X91638063Y-143408382D01*
X91483562Y-143520634D01*
X91479141Y-143525544D01*
X91479140Y-143525545D01*
X91382286Y-143633113D01*
X91355775Y-143662556D01*
X91260288Y-143827944D01*
X91201273Y-144009572D01*
X91200583Y-144016133D01*
X91200583Y-144016135D01*
X91183763Y-144176172D01*
X91181311Y-144199500D01*
X91182001Y-144206065D01*
X91199859Y-144375971D01*
X91201273Y-144389428D01*
X91260288Y-144571056D01*
X91263591Y-144576778D01*
X91263592Y-144576779D01*
X91292097Y-144626150D01*
X91355775Y-144736444D01*
X91483562Y-144878366D01*
X91638063Y-144990618D01*
X91644095Y-144993303D01*
X91649815Y-144996606D01*
X91648844Y-144998288D01*
X91695850Y-145038247D01*
X91716500Y-145107366D01*
X91716501Y-145561243D01*
X91716501Y-145989884D01*
X91717039Y-145993969D01*
X91717039Y-145993973D01*
X91727411Y-146072760D01*
X91732162Y-146108850D01*
X91756909Y-146168595D01*
X91766500Y-146216813D01*
X91766500Y-146794257D01*
X91748276Y-146859527D01*
X91674528Y-146981301D01*
X91672257Y-146988548D01*
X91672256Y-146988550D01*
X91663487Y-147016532D01*
X91623247Y-147144938D01*
X91616500Y-147218365D01*
X91616501Y-147731634D01*
X91616764Y-147734492D01*
X91616764Y-147734501D01*
X91617716Y-147744861D01*
X91623247Y-147805062D01*
X91625246Y-147811440D01*
X91625246Y-147811441D01*
X91668403Y-147949153D01*
X91674528Y-147968699D01*
X91763361Y-148115381D01*
X91859239Y-148211259D01*
X91893265Y-148273571D01*
X91888200Y-148344386D01*
X91859239Y-148389449D01*
X91769131Y-148479557D01*
X91759824Y-148491426D01*
X91678921Y-148625012D01*
X91672715Y-148638757D01*
X91625744Y-148788644D01*
X91623131Y-148801694D01*
X91618087Y-148856586D01*
X91621475Y-148868124D01*
X91622865Y-148869329D01*
X91630548Y-148871000D01*
X92728000Y-148871000D01*
X92796121Y-148891002D01*
X92842614Y-148944658D01*
X92854000Y-148997000D01*
X92854000Y-150014884D01*
X92858475Y-150030123D01*
X92859865Y-150031328D01*
X92867548Y-150032999D01*
X92928705Y-150032999D01*
X92934454Y-150032736D01*
X92998315Y-150026868D01*
X93017903Y-150022945D01*
X93018470Y-150025776D01*
X93076753Y-150024719D01*
X93137165Y-150062013D01*
X93167825Y-150126049D01*
X93163286Y-150185174D01*
X93108289Y-150354437D01*
X93068215Y-150413042D01*
X93002818Y-150440679D01*
X92988456Y-150441500D01*
X92954513Y-150441500D01*
X92948061Y-150442872D01*
X92948056Y-150442872D01*
X92861113Y-150461353D01*
X92767712Y-150481206D01*
X92761682Y-150483891D01*
X92761681Y-150483891D01*
X92599278Y-150556197D01*
X92599276Y-150556198D01*
X92593248Y-150558882D01*
X92438747Y-150671134D01*
X92434326Y-150676044D01*
X92434325Y-150676045D01*
X92414971Y-150697540D01*
X92350420Y-150769232D01*
X92344539Y-150775763D01*
X92284093Y-150813003D01*
X92213110Y-150811651D01*
X92161808Y-150780548D01*
X90770554Y-149389294D01*
X91617709Y-149389294D01*
X91623132Y-149448315D01*
X91625743Y-149461351D01*
X91672715Y-149611243D01*
X91678921Y-149624988D01*
X91759824Y-149758574D01*
X91769131Y-149770443D01*
X91879557Y-149880869D01*
X91891426Y-149890176D01*
X92025012Y-149971079D01*
X92038757Y-149977285D01*
X92188644Y-150024256D01*
X92201694Y-150026869D01*
X92265521Y-150032734D01*
X92271309Y-150033000D01*
X92327885Y-150033000D01*
X92343124Y-150028525D01*
X92344329Y-150027135D01*
X92346000Y-150019452D01*
X92346000Y-149397115D01*
X92341525Y-149381876D01*
X92340135Y-149380671D01*
X92332452Y-149379000D01*
X91635116Y-149379000D01*
X91619877Y-149383475D01*
X91618672Y-149384865D01*
X91617709Y-149389294D01*
X90770554Y-149389294D01*
X90695405Y-149314145D01*
X90661379Y-149251833D01*
X90658500Y-149225050D01*
X90658500Y-142774950D01*
X90678502Y-142706829D01*
X90695405Y-142685855D01*
X91485370Y-141895890D01*
X91547682Y-141861864D01*
X91574465Y-141858985D01*
X92661742Y-141858985D01*
X92729863Y-141878987D01*
G37*
%TD.AperFunction*%
%TA.AperFunction,Conductor*%
G36*
X128683621Y-148416002D02*
G01*
X128730114Y-148469658D01*
X128741500Y-148522000D01*
X128741500Y-150428000D01*
X128721498Y-150496121D01*
X128667842Y-150542614D01*
X128615500Y-150554000D01*
X128359500Y-150554000D01*
X128291379Y-150533998D01*
X128244886Y-150480342D01*
X128233500Y-150428000D01*
X128233500Y-148522000D01*
X128253502Y-148453879D01*
X128307158Y-148407386D01*
X128359500Y-148396000D01*
X128615500Y-148396000D01*
X128683621Y-148416002D01*
G37*
%TD.AperFunction*%
%TA.AperFunction,Conductor*%
G36*
X111915759Y-148619667D02*
G01*
X111972595Y-148662214D01*
X111997406Y-148728734D01*
X111996990Y-148751328D01*
X111991500Y-148801866D01*
X111991500Y-149198134D01*
X111991869Y-149201529D01*
X111991869Y-149201533D01*
X111995656Y-149236393D01*
X111995656Y-149263606D01*
X111991500Y-149301866D01*
X111991500Y-149698134D01*
X111995909Y-149738720D01*
X111995909Y-149765936D01*
X111994542Y-149778516D01*
X111967298Y-149844077D01*
X111904433Y-149885900D01*
X111887378Y-149890855D01*
X111885131Y-149892184D01*
X111817018Y-149900591D01*
X111753040Y-149869813D01*
X111715858Y-149809332D01*
X111712129Y-149763091D01*
X111712814Y-149756571D01*
X111712814Y-149756565D01*
X111713504Y-149750000D01*
X111698387Y-149606166D01*
X111694232Y-149566635D01*
X111694232Y-149566633D01*
X111693542Y-149560072D01*
X111634527Y-149378444D01*
X111624488Y-149361055D01*
X111576097Y-149277240D01*
X111539040Y-149213056D01*
X111467034Y-149133086D01*
X111436319Y-149069081D01*
X111445082Y-148998628D01*
X111471577Y-148959683D01*
X111782632Y-148648628D01*
X111844944Y-148614602D01*
X111915759Y-148619667D01*
G37*
%TD.AperFunction*%
%TA.AperFunction,Conductor*%
G36*
X99818656Y-141878987D02*
G01*
X99839630Y-141895890D01*
X102922991Y-144979251D01*
X102957017Y-145041563D01*
X102951952Y-145112378D01*
X102909405Y-145169214D01*
X102887348Y-145182446D01*
X102880721Y-145185550D01*
X102747827Y-145267788D01*
X102736426Y-145276824D01*
X102626014Y-145387429D01*
X102617002Y-145398840D01*
X102534996Y-145531880D01*
X102528849Y-145545061D01*
X102479509Y-145693814D01*
X102476642Y-145707190D01*
X102467328Y-145798097D01*
X102467000Y-145804514D01*
X102467000Y-145827885D01*
X102471475Y-145843124D01*
X102472865Y-145844329D01*
X102480548Y-145846000D01*
X103553000Y-145846000D01*
X103621121Y-145866002D01*
X103667614Y-145919658D01*
X103679000Y-145972000D01*
X103679000Y-146228000D01*
X103658998Y-146296121D01*
X103605342Y-146342614D01*
X103553000Y-146354000D01*
X102485115Y-146354000D01*
X102469876Y-146358475D01*
X102468671Y-146359865D01*
X102467000Y-146367548D01*
X102467000Y-146395438D01*
X102467337Y-146401953D01*
X102476894Y-146494057D01*
X102479788Y-146507456D01*
X102529381Y-146656107D01*
X102535555Y-146669286D01*
X102617788Y-146802173D01*
X102626828Y-146813579D01*
X102637278Y-146824011D01*
X102671357Y-146886293D01*
X102666354Y-146957113D01*
X102647877Y-146990103D01*
X102643361Y-146994619D01*
X102639424Y-147001119D01*
X102639423Y-147001121D01*
X102621146Y-147031301D01*
X102554528Y-147141301D01*
X102552257Y-147148548D01*
X102552256Y-147148550D01*
X102539128Y-147190441D01*
X102503247Y-147304938D01*
X102496500Y-147378365D01*
X102496501Y-148041634D01*
X102496764Y-148044492D01*
X102496764Y-148044501D01*
X102499326Y-148072381D01*
X102503247Y-148115062D01*
X102505246Y-148121440D01*
X102505246Y-148121441D01*
X102548986Y-148261013D01*
X102554528Y-148278699D01*
X102643361Y-148425381D01*
X102764619Y-148546639D01*
X102771115Y-148550573D01*
X102771120Y-148550577D01*
X102773494Y-148552015D01*
X102775132Y-148553723D01*
X102777097Y-148555264D01*
X102776878Y-148555544D01*
X102818636Y-148599090D01*
X102820445Y-148602380D01*
X102823365Y-148609756D01*
X102850516Y-148647126D01*
X102857033Y-148657048D01*
X102876507Y-148689977D01*
X102876510Y-148689981D01*
X102880547Y-148696807D01*
X102895711Y-148711971D01*
X102908551Y-148727004D01*
X102921159Y-148744357D01*
X102947221Y-148765917D01*
X102956752Y-148773802D01*
X102965532Y-148781792D01*
X103138611Y-148954871D01*
X103172637Y-149017183D01*
X103174860Y-149056808D01*
X103171500Y-149089600D01*
X103171500Y-149655853D01*
X103151498Y-149723974D01*
X103097842Y-149770467D01*
X103040561Y-149781756D01*
X103038953Y-149781693D01*
X103036502Y-149781500D01*
X102764950Y-149781500D01*
X102696829Y-149761498D01*
X102675854Y-149744595D01*
X102386322Y-149455062D01*
X102092969Y-149161709D01*
X102058944Y-149099397D01*
X102056755Y-149085785D01*
X102044232Y-148966636D01*
X102044232Y-148966635D01*
X102043542Y-148960072D01*
X102028266Y-148913056D01*
X102002605Y-148834083D01*
X101984527Y-148778444D01*
X101889040Y-148613056D01*
X101870902Y-148592911D01*
X101765675Y-148476045D01*
X101765674Y-148476044D01*
X101761253Y-148471134D01*
X101606752Y-148358882D01*
X101600724Y-148356198D01*
X101600722Y-148356197D01*
X101438319Y-148283891D01*
X101438318Y-148283891D01*
X101432288Y-148281206D01*
X101337288Y-148261013D01*
X101251944Y-148242872D01*
X101251939Y-148242872D01*
X101245487Y-148241500D01*
X101054513Y-148241500D01*
X101048061Y-148242872D01*
X101048056Y-148242872D01*
X100962712Y-148261013D01*
X100867712Y-148281206D01*
X100861682Y-148283891D01*
X100861681Y-148283891D01*
X100699278Y-148356197D01*
X100699276Y-148356198D01*
X100693248Y-148358882D01*
X100687907Y-148362762D01*
X100687906Y-148362763D01*
X100558561Y-148456738D01*
X100491693Y-148480597D01*
X100422542Y-148464516D01*
X100373061Y-148413602D01*
X100358500Y-148354802D01*
X100358500Y-143182056D01*
X100359059Y-143170200D01*
X100359059Y-143170197D01*
X100360788Y-143162463D01*
X100358562Y-143091631D01*
X100358500Y-143087673D01*
X100358500Y-143058568D01*
X100357944Y-143054168D01*
X100357012Y-143042330D01*
X100356405Y-143022987D01*
X100355562Y-142996169D01*
X100349580Y-142975579D01*
X100345570Y-142956216D01*
X100343875Y-142942796D01*
X100343875Y-142942795D01*
X100342882Y-142934936D01*
X100339966Y-142927571D01*
X100339965Y-142927567D01*
X100325874Y-142891979D01*
X100322035Y-142880769D01*
X100309145Y-142836400D01*
X100298229Y-142817943D01*
X100289534Y-142800193D01*
X100281635Y-142780244D01*
X100269296Y-142763261D01*
X100254477Y-142742864D01*
X100247960Y-142732943D01*
X100241938Y-142722760D01*
X100224452Y-142693193D01*
X100209291Y-142678032D01*
X100196449Y-142662997D01*
X100183841Y-142645643D01*
X100148248Y-142616198D01*
X100139467Y-142608208D01*
X99605340Y-142074080D01*
X99571315Y-142011768D01*
X99576380Y-141940952D01*
X99618927Y-141884117D01*
X99685447Y-141859306D01*
X99694436Y-141858985D01*
X99750535Y-141858985D01*
X99818656Y-141878987D01*
G37*
%TD.AperFunction*%
%TA.AperFunction,Conductor*%
G36*
X73967012Y-140832568D02*
G01*
X73980311Y-140845961D01*
X74000816Y-140869969D01*
X74181369Y-141024176D01*
X74185577Y-141026755D01*
X74185583Y-141026759D01*
X74379602Y-141145654D01*
X74383822Y-141148240D01*
X74388392Y-141150133D01*
X74388396Y-141150135D01*
X74598618Y-141237211D01*
X74603191Y-141239105D01*
X74683394Y-141258360D01*
X74829261Y-141293380D01*
X74829267Y-141293381D01*
X74834074Y-141294535D01*
X75070785Y-141313165D01*
X75307496Y-141294535D01*
X75312303Y-141293381D01*
X75312309Y-141293380D01*
X75502225Y-141247785D01*
X75573133Y-141251332D01*
X75620734Y-141281209D01*
X75947619Y-141608094D01*
X75955609Y-141616874D01*
X75959858Y-141623569D01*
X75965636Y-141628995D01*
X75965637Y-141628996D01*
X76011531Y-141672093D01*
X76014373Y-141674848D01*
X76034941Y-141695416D01*
X76038444Y-141698133D01*
X76047469Y-141705841D01*
X76081141Y-141737461D01*
X76088092Y-141741282D01*
X76088093Y-141741283D01*
X76099932Y-141747792D01*
X76116456Y-141758646D01*
X76124998Y-141765271D01*
X76133406Y-141771793D01*
X76140678Y-141774940D01*
X76140680Y-141774941D01*
X76175809Y-141790143D01*
X76186470Y-141795365D01*
X76226937Y-141817613D01*
X76247715Y-141822948D01*
X76266405Y-141829347D01*
X76286098Y-141837869D01*
X76329870Y-141844802D01*
X76331722Y-141845095D01*
X76343345Y-141847502D01*
X76371346Y-141854691D01*
X76388086Y-141858989D01*
X76409533Y-141858989D01*
X76429243Y-141860540D01*
X76450426Y-141863895D01*
X76496415Y-141859548D01*
X76508270Y-141858989D01*
X83935055Y-141858989D01*
X84003176Y-141878991D01*
X84049669Y-141932647D01*
X84059773Y-142002921D01*
X84056052Y-142020140D01*
X84019438Y-142146169D01*
X84018934Y-142152574D01*
X84018933Y-142152579D01*
X84016693Y-142181042D01*
X84016500Y-142183498D01*
X84016500Y-142616502D01*
X84016693Y-142618950D01*
X84016693Y-142618958D01*
X84018794Y-142645643D01*
X84019438Y-142653831D01*
X84037684Y-142716635D01*
X84062772Y-142802988D01*
X84065855Y-142813601D01*
X84069892Y-142820427D01*
X84146509Y-142949980D01*
X84146511Y-142949983D01*
X84150547Y-142956807D01*
X84268193Y-143074453D01*
X84275017Y-143078489D01*
X84275020Y-143078491D01*
X84367238Y-143133028D01*
X84411399Y-143159145D01*
X84419010Y-143161356D01*
X84419012Y-143161357D01*
X84460989Y-143173552D01*
X84571169Y-143205562D01*
X84577574Y-143206066D01*
X84577579Y-143206067D01*
X84606042Y-143208307D01*
X84606050Y-143208307D01*
X84608498Y-143208500D01*
X85765500Y-143208500D01*
X85833621Y-143228502D01*
X85880114Y-143282158D01*
X85891500Y-143334500D01*
X85891500Y-143566502D01*
X85894438Y-143603831D01*
X85940855Y-143763601D01*
X85944892Y-143770427D01*
X85945185Y-143770923D01*
X85945300Y-143771370D01*
X85948039Y-143777700D01*
X85947036Y-143778134D01*
X85962262Y-143837432D01*
X85961594Y-143841652D01*
X85962340Y-143849544D01*
X85962340Y-143849545D01*
X85965941Y-143887638D01*
X85966500Y-143899496D01*
X85966500Y-144129290D01*
X85946498Y-144197411D01*
X85929595Y-144218385D01*
X85888741Y-144259239D01*
X85826429Y-144293265D01*
X85755614Y-144288200D01*
X85710551Y-144259239D01*
X85620443Y-144169131D01*
X85608574Y-144159824D01*
X85474988Y-144078921D01*
X85461243Y-144072715D01*
X85311356Y-144025744D01*
X85298306Y-144023131D01*
X85243414Y-144018087D01*
X85231876Y-144021475D01*
X85230671Y-144022865D01*
X85229000Y-144030548D01*
X85229000Y-145128000D01*
X85208998Y-145196121D01*
X85155342Y-145242614D01*
X85103000Y-145254000D01*
X84085116Y-145254000D01*
X84069877Y-145258475D01*
X84068672Y-145259865D01*
X84067001Y-145267548D01*
X84067001Y-145328705D01*
X84067264Y-145334454D01*
X84073132Y-145398315D01*
X84075743Y-145411351D01*
X84122715Y-145561243D01*
X84128921Y-145574988D01*
X84209825Y-145708575D01*
X84220226Y-145721839D01*
X84246523Y-145787786D01*
X84232991Y-145857481D01*
X84220230Y-145877339D01*
X84218737Y-145879243D01*
X84213361Y-145884619D01*
X84124528Y-146031301D01*
X84073247Y-146194938D01*
X84066500Y-146268365D01*
X84066501Y-146931634D01*
X84066764Y-146934492D01*
X84066764Y-146934501D01*
X84068842Y-146957113D01*
X84073247Y-147005062D01*
X84075246Y-147011440D01*
X84075246Y-147011441D01*
X84120898Y-147157115D01*
X84124528Y-147168699D01*
X84213361Y-147315381D01*
X84298505Y-147400525D01*
X84332531Y-147462837D01*
X84327466Y-147533652D01*
X84298583Y-147578638D01*
X84268634Y-147608639D01*
X84200695Y-147676697D01*
X84196855Y-147682927D01*
X84196854Y-147682928D01*
X84114778Y-147816080D01*
X84107885Y-147827262D01*
X84052203Y-147995139D01*
X84051503Y-148001975D01*
X84051502Y-148001978D01*
X84048259Y-148033629D01*
X84041500Y-148099600D01*
X84041500Y-148900050D01*
X84021498Y-148968171D01*
X84004595Y-148989145D01*
X83522194Y-149471546D01*
X83459882Y-149505572D01*
X83389067Y-149500507D01*
X83332231Y-149457960D01*
X83307789Y-149395622D01*
X83294232Y-149266635D01*
X83294232Y-149266633D01*
X83293542Y-149260072D01*
X83234527Y-149078444D01*
X83139040Y-148913056D01*
X83127330Y-148900050D01*
X83015675Y-148776045D01*
X83015674Y-148776044D01*
X83011253Y-148771134D01*
X82884024Y-148678696D01*
X82862094Y-148662763D01*
X82862093Y-148662762D01*
X82856752Y-148658882D01*
X82850724Y-148656198D01*
X82850722Y-148656197D01*
X82688319Y-148583891D01*
X82688318Y-148583891D01*
X82682288Y-148581206D01*
X82577277Y-148558885D01*
X82501944Y-148542872D01*
X82501939Y-148542872D01*
X82495487Y-148541500D01*
X82304513Y-148541500D01*
X82298059Y-148542872D01*
X82298057Y-148542872D01*
X82280999Y-148546498D01*
X82218993Y-148559677D01*
X82196449Y-148561689D01*
X82195848Y-148561594D01*
X82187956Y-148562340D01*
X82187955Y-148562340D01*
X82171312Y-148563913D01*
X82149859Y-148565941D01*
X82138004Y-148566500D01*
X81820710Y-148566500D01*
X81752589Y-148546498D01*
X81731615Y-148529595D01*
X81691115Y-148489095D01*
X81657089Y-148426783D01*
X81662154Y-148355968D01*
X81691115Y-148310905D01*
X81786639Y-148215381D01*
X81875472Y-148068699D01*
X81883275Y-148043802D01*
X81907152Y-147967607D01*
X81926753Y-147905062D01*
X81933500Y-147831635D01*
X81933499Y-147318366D01*
X81932878Y-147311601D01*
X81929974Y-147279996D01*
X81926753Y-147244938D01*
X81919334Y-147221263D01*
X81877744Y-147088550D01*
X81877743Y-147088548D01*
X81875472Y-147081301D01*
X81786639Y-146934619D01*
X81665381Y-146813361D01*
X81518699Y-146724528D01*
X81511452Y-146722257D01*
X81511450Y-146722256D01*
X81432884Y-146697635D01*
X81355062Y-146673247D01*
X81281635Y-146666500D01*
X81278737Y-146666500D01*
X80949140Y-146666501D01*
X80618366Y-146666501D01*
X80615508Y-146666764D01*
X80615499Y-146666764D01*
X80579996Y-146670026D01*
X80544938Y-146673247D01*
X80538560Y-146675246D01*
X80538559Y-146675246D01*
X80388550Y-146722256D01*
X80388548Y-146722257D01*
X80381301Y-146724528D01*
X80234619Y-146813361D01*
X80168385Y-146879595D01*
X80106073Y-146913621D01*
X80079290Y-146916500D01*
X77695710Y-146916500D01*
X77627589Y-146896498D01*
X77606615Y-146879595D01*
X77565381Y-146838361D01*
X77418699Y-146749528D01*
X77411452Y-146747257D01*
X77411450Y-146747256D01*
X77331674Y-146722256D01*
X77255062Y-146698247D01*
X77181635Y-146691500D01*
X76924950Y-146691500D01*
X76856829Y-146671498D01*
X76835855Y-146654595D01*
X74909145Y-144727885D01*
X84067000Y-144727885D01*
X84071475Y-144743124D01*
X84072865Y-144744329D01*
X84080548Y-144746000D01*
X84702885Y-144746000D01*
X84718124Y-144741525D01*
X84719329Y-144740135D01*
X84721000Y-144732452D01*
X84721000Y-144035116D01*
X84716525Y-144019877D01*
X84715135Y-144018672D01*
X84710706Y-144017709D01*
X84651685Y-144023132D01*
X84638649Y-144025743D01*
X84488757Y-144072715D01*
X84475012Y-144078921D01*
X84341426Y-144159824D01*
X84329557Y-144169131D01*
X84219131Y-144279557D01*
X84209824Y-144291426D01*
X84128921Y-144425012D01*
X84122715Y-144438757D01*
X84075744Y-144588644D01*
X84073131Y-144601694D01*
X84067266Y-144665521D01*
X84067000Y-144671309D01*
X84067000Y-144727885D01*
X74909145Y-144727885D01*
X73795405Y-143614145D01*
X73761379Y-143551833D01*
X73758500Y-143525050D01*
X73758500Y-140927792D01*
X73778502Y-140859671D01*
X73832158Y-140813178D01*
X73902432Y-140803074D01*
X73967012Y-140832568D01*
G37*
%TD.AperFunction*%
%TA.AperFunction,Conductor*%
G36*
X119463171Y-144348502D02*
G01*
X119484145Y-144365405D01*
X122058722Y-146939982D01*
X122092748Y-147002294D01*
X122087683Y-147073109D01*
X122045136Y-147129945D01*
X121979515Y-147154688D01*
X121968313Y-147155570D01*
X121958554Y-147157115D01*
X121737373Y-147210217D01*
X121727988Y-147213266D01*
X121517837Y-147300313D01*
X121509042Y-147304795D01*
X121341555Y-147407432D01*
X121332093Y-147417890D01*
X121335876Y-147426666D01*
X122470115Y-148560905D01*
X122504141Y-148623217D01*
X122499076Y-148694032D01*
X122470115Y-148739095D01*
X122289095Y-148920115D01*
X122226783Y-148954141D01*
X122155968Y-148949076D01*
X122110905Y-148920115D01*
X120979710Y-147788920D01*
X120941352Y-147767974D01*
X120905928Y-147739218D01*
X120773177Y-147583787D01*
X120769969Y-147580031D01*
X120589416Y-147425824D01*
X120585201Y-147423241D01*
X120585193Y-147423235D01*
X120418665Y-147321186D01*
X120371034Y-147268539D01*
X120358500Y-147213754D01*
X120358500Y-147194355D01*
X120357944Y-147189955D01*
X120357012Y-147178117D01*
X120356921Y-147175196D01*
X120355562Y-147131956D01*
X120349580Y-147111366D01*
X120345570Y-147092003D01*
X120343875Y-147078583D01*
X120343875Y-147078582D01*
X120342882Y-147070723D01*
X120339966Y-147063358D01*
X120339965Y-147063354D01*
X120325874Y-147027766D01*
X120322035Y-147016556D01*
X120309145Y-146972187D01*
X120298229Y-146953730D01*
X120289534Y-146935980D01*
X120281635Y-146916031D01*
X120276976Y-146909618D01*
X120254477Y-146878651D01*
X120247960Y-146868730D01*
X120242518Y-146859528D01*
X120224452Y-146828980D01*
X120209291Y-146813819D01*
X120196449Y-146798784D01*
X120193160Y-146794257D01*
X120183841Y-146781430D01*
X120148241Y-146751979D01*
X120139462Y-146743990D01*
X117939068Y-144543595D01*
X117905042Y-144481283D01*
X117910107Y-144410467D01*
X117952654Y-144353632D01*
X118019174Y-144328821D01*
X118028163Y-144328500D01*
X119395050Y-144328500D01*
X119463171Y-144348502D01*
G37*
%TD.AperFunction*%
%TA.AperFunction,Conductor*%
G36*
X124158220Y-132528002D02*
G01*
X124204713Y-132581658D01*
X124214817Y-132651932D01*
X124185323Y-132716512D01*
X124138317Y-132750409D01*
X124017837Y-132800313D01*
X124009042Y-132804795D01*
X123841555Y-132907432D01*
X123832093Y-132917890D01*
X123835876Y-132926666D01*
X124687188Y-133777978D01*
X124701132Y-133785592D01*
X124702965Y-133785461D01*
X124709580Y-133781210D01*
X125561080Y-132929710D01*
X125567840Y-132917330D01*
X125562113Y-132909680D01*
X125390958Y-132804795D01*
X125382163Y-132800313D01*
X125261683Y-132750409D01*
X125206402Y-132705861D01*
X125183981Y-132638497D01*
X125201539Y-132569706D01*
X125253501Y-132521328D01*
X125309901Y-132508000D01*
X126392572Y-132508000D01*
X126460693Y-132528002D01*
X126507186Y-132581658D01*
X126517290Y-132651932D01*
X126503927Y-132692959D01*
X126450472Y-132793919D01*
X126415073Y-132860776D01*
X126413601Y-132864799D01*
X126413599Y-132864803D01*
X126385865Y-132940590D01*
X126318616Y-133124355D01*
X126260772Y-133389658D01*
X126259814Y-133394050D01*
X126225759Y-133456347D01*
X126163431Y-133490342D01*
X126092618Y-133485244D01*
X126035802Y-133442670D01*
X126029274Y-133433045D01*
X125942567Y-133291554D01*
X125932110Y-133282093D01*
X125923334Y-133285876D01*
X125072022Y-134137188D01*
X125064408Y-134151132D01*
X125064539Y-134152965D01*
X125068790Y-134159580D01*
X125920290Y-135011080D01*
X125932670Y-135017840D01*
X125940320Y-135012113D01*
X126045205Y-134840958D01*
X126049687Y-134832163D01*
X126136734Y-134622012D01*
X126139783Y-134612627D01*
X126161280Y-134523086D01*
X126196632Y-134461517D01*
X126259659Y-134428834D01*
X126330350Y-134435414D01*
X126386261Y-134479169D01*
X126397715Y-134499664D01*
X126397911Y-134499565D01*
X126519764Y-134741843D01*
X126524022Y-134750310D01*
X126526448Y-134753839D01*
X126526451Y-134753845D01*
X126635012Y-134911801D01*
X126682997Y-134981620D01*
X126685884Y-134984793D01*
X126685885Y-134984794D01*
X126712573Y-135014124D01*
X126871894Y-135189215D01*
X126875183Y-135191965D01*
X127083925Y-135366501D01*
X127083930Y-135366505D01*
X127087217Y-135369253D01*
X127199969Y-135439982D01*
X127321341Y-135516119D01*
X127321345Y-135516121D01*
X127324981Y-135518402D01*
X127580788Y-135633903D01*
X127641021Y-135651745D01*
X127845790Y-135712401D01*
X127845795Y-135712402D01*
X127849903Y-135713619D01*
X127854137Y-135714267D01*
X127854142Y-135714268D01*
X128058017Y-135745465D01*
X128127347Y-135756074D01*
X128270292Y-135758319D01*
X128403694Y-135760415D01*
X128403700Y-135760415D01*
X128407985Y-135760482D01*
X128686626Y-135726763D01*
X128958112Y-135655540D01*
X128962072Y-135653900D01*
X128962077Y-135653898D01*
X129124224Y-135586734D01*
X129217420Y-135548131D01*
X129302432Y-135498454D01*
X129371336Y-135481356D01*
X129438549Y-135504225D01*
X129482727Y-135559802D01*
X129492000Y-135607243D01*
X129492000Y-139284567D01*
X129471998Y-139352688D01*
X129418342Y-139399181D01*
X129348068Y-139409285D01*
X129321770Y-139402549D01*
X129310316Y-139398255D01*
X129248134Y-139391500D01*
X127651866Y-139391500D01*
X127589684Y-139398255D01*
X127453295Y-139449385D01*
X127336739Y-139536739D01*
X127249385Y-139653295D01*
X127198255Y-139789684D01*
X127191500Y-139851866D01*
X127191500Y-142448134D01*
X127191869Y-142451531D01*
X127193943Y-142470622D01*
X127181415Y-142540504D01*
X127133094Y-142592520D01*
X127064323Y-142610155D01*
X126996934Y-142587809D01*
X126979585Y-142573325D01*
X126605405Y-142199145D01*
X126571379Y-142136833D01*
X126568500Y-142110050D01*
X126568500Y-139057073D01*
X126588502Y-138988952D01*
X126621602Y-138954302D01*
X126632723Y-138946414D01*
X126632727Y-138946410D01*
X126637611Y-138942946D01*
X126783881Y-138790150D01*
X126898620Y-138612452D01*
X126938563Y-138513340D01*
X126975442Y-138421832D01*
X126975443Y-138421829D01*
X126977686Y-138416263D01*
X127018228Y-138208663D01*
X127018500Y-138203101D01*
X127018500Y-137247154D01*
X127003452Y-137089434D01*
X126943908Y-136886466D01*
X126903979Y-136808939D01*
X126849804Y-136703751D01*
X126849802Y-136703748D01*
X126847058Y-136698420D01*
X126716396Y-136532080D01*
X126711865Y-136528148D01*
X126711862Y-136528145D01*
X126561167Y-136397379D01*
X126556637Y-136393448D01*
X126551451Y-136390448D01*
X126551447Y-136390445D01*
X126378742Y-136290533D01*
X126373546Y-136287527D01*
X126173729Y-136218139D01*
X126167794Y-136217278D01*
X126167792Y-136217278D01*
X125970336Y-136188648D01*
X125970333Y-136188648D01*
X125964396Y-136187787D01*
X125753101Y-136197567D01*
X125621923Y-136229181D01*
X125553299Y-136245719D01*
X125553297Y-136245720D01*
X125547466Y-136247125D01*
X125542008Y-136249607D01*
X125542004Y-136249608D01*
X125437744Y-136297013D01*
X125354913Y-136334674D01*
X125182389Y-136457054D01*
X125036119Y-136609850D01*
X124921380Y-136787548D01*
X124919137Y-136793114D01*
X124846721Y-136972803D01*
X124842314Y-136983737D01*
X124801772Y-137191337D01*
X124801500Y-137196899D01*
X124801500Y-138152846D01*
X124816548Y-138310566D01*
X124876092Y-138513534D01*
X124878836Y-138518861D01*
X124878836Y-138518862D01*
X124955780Y-138668257D01*
X124972942Y-138701580D01*
X124992314Y-138726241D01*
X125099898Y-138863203D01*
X125099902Y-138863207D01*
X125103604Y-138867920D01*
X125108134Y-138871851D01*
X125108135Y-138871852D01*
X125208081Y-138958581D01*
X125246422Y-139018334D01*
X125251500Y-139053746D01*
X125251500Y-142352944D01*
X125250941Y-142364800D01*
X125249212Y-142372537D01*
X125249461Y-142380459D01*
X125251438Y-142443369D01*
X125251500Y-142447327D01*
X125251500Y-142476432D01*
X125252056Y-142480832D01*
X125252988Y-142492664D01*
X125254438Y-142538831D01*
X125256650Y-142546444D01*
X125256650Y-142546445D01*
X125260419Y-142559416D01*
X125264430Y-142578782D01*
X125267118Y-142600064D01*
X125270034Y-142607429D01*
X125270035Y-142607433D01*
X125284126Y-142643021D01*
X125287965Y-142654231D01*
X125300855Y-142698600D01*
X125311775Y-142717065D01*
X125320466Y-142734805D01*
X125328365Y-142754756D01*
X125342224Y-142773831D01*
X125355516Y-142792126D01*
X125362033Y-142802048D01*
X125381507Y-142834977D01*
X125381510Y-142834981D01*
X125385547Y-142841807D01*
X125400711Y-142856971D01*
X125413551Y-142872004D01*
X125426159Y-142889357D01*
X125461752Y-142918802D01*
X125470532Y-142926792D01*
X127829595Y-145285855D01*
X127863621Y-145348167D01*
X127866500Y-145374950D01*
X127866501Y-145631634D01*
X127873247Y-145705062D01*
X127875246Y-145711440D01*
X127875246Y-145711441D01*
X127917415Y-145846000D01*
X127924528Y-145868699D01*
X128013361Y-146015381D01*
X128108885Y-146110905D01*
X128142911Y-146173217D01*
X128137846Y-146244032D01*
X128108885Y-146289095D01*
X128013361Y-146384619D01*
X128009424Y-146391120D01*
X127928464Y-146524801D01*
X127928463Y-146524804D01*
X127924528Y-146531301D01*
X127922256Y-146538550D01*
X127922254Y-146538555D01*
X127922183Y-146538782D01*
X127922060Y-146538985D01*
X127919131Y-146545472D01*
X127918346Y-146545118D01*
X127891045Y-146590195D01*
X126851645Y-147629595D01*
X126789333Y-147663621D01*
X126762550Y-147666500D01*
X126645428Y-147666500D01*
X126642182Y-147666837D01*
X126642178Y-147666837D01*
X126608397Y-147670342D01*
X126544018Y-147677022D01*
X126383151Y-147730692D01*
X126238945Y-147819929D01*
X126192857Y-147866098D01*
X126179459Y-147879519D01*
X126117177Y-147913598D01*
X126046357Y-147908595D01*
X125989484Y-147866098D01*
X125982853Y-147856336D01*
X125969488Y-147834526D01*
X125924176Y-147760584D01*
X125769969Y-147580031D01*
X125589416Y-147425824D01*
X125585208Y-147423245D01*
X125585202Y-147423241D01*
X125391183Y-147304346D01*
X125386963Y-147301760D01*
X125382393Y-147299867D01*
X125382389Y-147299865D01*
X125172167Y-147212789D01*
X125172165Y-147212788D01*
X125167594Y-147210895D01*
X125031064Y-147178117D01*
X124941524Y-147156620D01*
X124941518Y-147156619D01*
X124936711Y-147155465D01*
X124700000Y-147136835D01*
X124463289Y-147155465D01*
X124458482Y-147156619D01*
X124458476Y-147156620D01*
X124268560Y-147202215D01*
X124197652Y-147198668D01*
X124150051Y-147168791D01*
X120243655Y-143262395D01*
X120235665Y-143253615D01*
X120235663Y-143253613D01*
X120231416Y-143246920D01*
X120213965Y-143230532D01*
X120179743Y-143198396D01*
X120176901Y-143195641D01*
X120156333Y-143175073D01*
X120152826Y-143172353D01*
X120143804Y-143164647D01*
X120141478Y-143162463D01*
X120110133Y-143133028D01*
X120103181Y-143129206D01*
X120091342Y-143122697D01*
X120074818Y-143111843D01*
X120064132Y-143103555D01*
X120057868Y-143098696D01*
X120050596Y-143095549D01*
X120050594Y-143095548D01*
X120015465Y-143080346D01*
X120004805Y-143075124D01*
X119971284Y-143056695D01*
X119971282Y-143056694D01*
X119964337Y-143052876D01*
X119943559Y-143047541D01*
X119924869Y-143041142D01*
X119905176Y-143032620D01*
X119859552Y-143025394D01*
X119847929Y-143022987D01*
X119813657Y-143014188D01*
X119803188Y-143011500D01*
X119781741Y-143011500D01*
X119762031Y-143009949D01*
X119740848Y-143006594D01*
X119694859Y-143010941D01*
X119683004Y-143011500D01*
X117110255Y-143011500D01*
X117042134Y-142991498D01*
X116995641Y-142937842D01*
X116985537Y-142867568D01*
X117015031Y-142802988D01*
X117034686Y-142784677D01*
X117063261Y-142763261D01*
X117150615Y-142646705D01*
X117201745Y-142510316D01*
X117208500Y-142448134D01*
X117208500Y-140408745D01*
X117228502Y-140340624D01*
X117282158Y-140294131D01*
X117352432Y-140284027D01*
X117361707Y-140286031D01*
X117364824Y-140287380D01*
X117399563Y-140292882D01*
X117410448Y-140294606D01*
X117422071Y-140297013D01*
X117446754Y-140303350D01*
X117466812Y-140308500D01*
X117488259Y-140308500D01*
X117507969Y-140310051D01*
X117529152Y-140313406D01*
X117575141Y-140309059D01*
X117586996Y-140308500D01*
X118767944Y-140308500D01*
X118779800Y-140309059D01*
X118779803Y-140309059D01*
X118787537Y-140310788D01*
X118858369Y-140308562D01*
X118862327Y-140308500D01*
X118891432Y-140308500D01*
X118895832Y-140307944D01*
X118907664Y-140307012D01*
X118953831Y-140305562D01*
X118974421Y-140299580D01*
X118993782Y-140295570D01*
X119005177Y-140294131D01*
X119007204Y-140293875D01*
X119007205Y-140293875D01*
X119015064Y-140292882D01*
X119022429Y-140289966D01*
X119022433Y-140289965D01*
X119058021Y-140275874D01*
X119069231Y-140272035D01*
X119113600Y-140259145D01*
X119132065Y-140248225D01*
X119149805Y-140239534D01*
X119169756Y-140231635D01*
X119207129Y-140204482D01*
X119217048Y-140197967D01*
X119249977Y-140178493D01*
X119249981Y-140178490D01*
X119256807Y-140174453D01*
X119271971Y-140159289D01*
X119287005Y-140146448D01*
X119297943Y-140138501D01*
X119304357Y-140133841D01*
X119333803Y-140098246D01*
X119341794Y-140089465D01*
X119957600Y-139473659D01*
X119966381Y-139465669D01*
X119966390Y-139465661D01*
X119973080Y-139461416D01*
X120021620Y-139409726D01*
X120024374Y-139406885D01*
X120044926Y-139386333D01*
X120047638Y-139382837D01*
X120055349Y-139373808D01*
X120081544Y-139345913D01*
X120086972Y-139340133D01*
X120097301Y-139321345D01*
X120108158Y-139304816D01*
X120116447Y-139294131D01*
X120116448Y-139294129D01*
X120121304Y-139287869D01*
X120139657Y-139245456D01*
X120144868Y-139234819D01*
X120167124Y-139194337D01*
X120170013Y-139183083D01*
X120171500Y-139180587D01*
X120172015Y-139179285D01*
X120172225Y-139179368D01*
X120206328Y-139122078D01*
X120269860Y-139090389D01*
X120340439Y-139098079D01*
X120355154Y-139105357D01*
X120361472Y-139109012D01*
X120372331Y-139113984D01*
X120560727Y-139179407D01*
X120561716Y-139179648D01*
X120572008Y-139178180D01*
X120576000Y-139164615D01*
X120576000Y-139160402D01*
X121084000Y-139160402D01*
X121087973Y-139173933D01*
X121097399Y-139175288D01*
X121186537Y-139153806D01*
X121197832Y-139149917D01*
X121379382Y-139067371D01*
X121389724Y-139061424D01*
X121552397Y-138946032D01*
X121561425Y-138938239D01*
X121699342Y-138794169D01*
X121706738Y-138784804D01*
X121814921Y-138617259D01*
X121820417Y-138606655D01*
X121894961Y-138421688D01*
X121898355Y-138410230D01*
X121936857Y-138213072D01*
X121937934Y-138204209D01*
X121938000Y-138201500D01*
X121938000Y-138152846D01*
X122261500Y-138152846D01*
X122276548Y-138310566D01*
X122336092Y-138513534D01*
X122338836Y-138518861D01*
X122338836Y-138518862D01*
X122415780Y-138668257D01*
X122432942Y-138701580D01*
X122563604Y-138867920D01*
X122568135Y-138871852D01*
X122568138Y-138871855D01*
X122682219Y-138970849D01*
X122723363Y-139006552D01*
X122728549Y-139009552D01*
X122728553Y-139009555D01*
X122847738Y-139078505D01*
X122906454Y-139112473D01*
X123106271Y-139181861D01*
X123112206Y-139182722D01*
X123112208Y-139182722D01*
X123309664Y-139211352D01*
X123309667Y-139211352D01*
X123315604Y-139212213D01*
X123526899Y-139202433D01*
X123658077Y-139170819D01*
X123726701Y-139154281D01*
X123726703Y-139154280D01*
X123732534Y-139152875D01*
X123737992Y-139150393D01*
X123737996Y-139150392D01*
X123896101Y-139078505D01*
X123925087Y-139065326D01*
X124097611Y-138942946D01*
X124243881Y-138790150D01*
X124358620Y-138612452D01*
X124398563Y-138513340D01*
X124435442Y-138421832D01*
X124435443Y-138421829D01*
X124437686Y-138416263D01*
X124478228Y-138208663D01*
X124478500Y-138203101D01*
X124478500Y-137247154D01*
X124463452Y-137089434D01*
X124403908Y-136886466D01*
X124363979Y-136808939D01*
X124309804Y-136703751D01*
X124309802Y-136703748D01*
X124307058Y-136698420D01*
X124176396Y-136532080D01*
X124171865Y-136528148D01*
X124171862Y-136528145D01*
X124021167Y-136397379D01*
X124016637Y-136393448D01*
X124011451Y-136390448D01*
X124011447Y-136390445D01*
X123838742Y-136290533D01*
X123833546Y-136287527D01*
X123633729Y-136218139D01*
X123627794Y-136217278D01*
X123627792Y-136217278D01*
X123430336Y-136188648D01*
X123430333Y-136188648D01*
X123424396Y-136187787D01*
X123213101Y-136197567D01*
X123081923Y-136229181D01*
X123013299Y-136245719D01*
X123013297Y-136245720D01*
X123007466Y-136247125D01*
X123002008Y-136249607D01*
X123002004Y-136249608D01*
X122897744Y-136297013D01*
X122814913Y-136334674D01*
X122642389Y-136457054D01*
X122496119Y-136609850D01*
X122381380Y-136787548D01*
X122379137Y-136793114D01*
X122306721Y-136972803D01*
X122302314Y-136983737D01*
X122261772Y-137191337D01*
X122261500Y-137196899D01*
X122261500Y-138152846D01*
X121938000Y-138152846D01*
X121938000Y-137972115D01*
X121933525Y-137956876D01*
X121932135Y-137955671D01*
X121924452Y-137954000D01*
X121102115Y-137954000D01*
X121086876Y-137958475D01*
X121085671Y-137959865D01*
X121084000Y-137967548D01*
X121084000Y-139160402D01*
X120576000Y-139160402D01*
X120576000Y-137427885D01*
X121084000Y-137427885D01*
X121088475Y-137443124D01*
X121089865Y-137444329D01*
X121097548Y-137446000D01*
X121919885Y-137446000D01*
X121935124Y-137441525D01*
X121936329Y-137440135D01*
X121938000Y-137432452D01*
X121938000Y-137250168D01*
X121937715Y-137244192D01*
X121923529Y-137095506D01*
X121921270Y-137083772D01*
X121865128Y-136892401D01*
X121860698Y-136881325D01*
X121769381Y-136704022D01*
X121762931Y-136693976D01*
X121639738Y-136537143D01*
X121631501Y-136528494D01*
X121480877Y-136397788D01*
X121471153Y-136390853D01*
X121298533Y-136290990D01*
X121287669Y-136286016D01*
X121099273Y-136220593D01*
X121098284Y-136220352D01*
X121087992Y-136221820D01*
X121084000Y-136235385D01*
X121084000Y-137427885D01*
X120576000Y-137427885D01*
X120576000Y-136239598D01*
X120572027Y-136226067D01*
X120562601Y-136224712D01*
X120473463Y-136246194D01*
X120462168Y-136250083D01*
X120386651Y-136284419D01*
X120316361Y-136294405D01*
X120251829Y-136264805D01*
X120213545Y-136205015D01*
X120208500Y-136169718D01*
X120208500Y-135918571D01*
X120232406Y-135844995D01*
X120236972Y-135840133D01*
X120240788Y-135833191D01*
X120240792Y-135833186D01*
X120247303Y-135821342D01*
X120258157Y-135804818D01*
X120266445Y-135794132D01*
X120271304Y-135787868D01*
X120274452Y-135780594D01*
X120289654Y-135745465D01*
X120294874Y-135734810D01*
X120300924Y-135723804D01*
X120351267Y-135673743D01*
X120411341Y-135658500D01*
X120748134Y-135658500D01*
X120810316Y-135651745D01*
X120946705Y-135600615D01*
X121063261Y-135513261D01*
X121150615Y-135396705D01*
X121155876Y-135382670D01*
X123832160Y-135382670D01*
X123837887Y-135390320D01*
X124009042Y-135495205D01*
X124017837Y-135499687D01*
X124227988Y-135586734D01*
X124237373Y-135589783D01*
X124458554Y-135642885D01*
X124468301Y-135644428D01*
X124695070Y-135662275D01*
X124704930Y-135662275D01*
X124931699Y-135644428D01*
X124941446Y-135642885D01*
X125162627Y-135589783D01*
X125172012Y-135586734D01*
X125382163Y-135499687D01*
X125390958Y-135495205D01*
X125558445Y-135392568D01*
X125567907Y-135382110D01*
X125564124Y-135373334D01*
X124712812Y-134522022D01*
X124698868Y-134514408D01*
X124697035Y-134514539D01*
X124690420Y-134518790D01*
X123838920Y-135370290D01*
X123832160Y-135382670D01*
X121155876Y-135382670D01*
X121201745Y-135260316D01*
X121208500Y-135198134D01*
X121208500Y-134154930D01*
X123187725Y-134154930D01*
X123205572Y-134381699D01*
X123207115Y-134391446D01*
X123260217Y-134612627D01*
X123263266Y-134622012D01*
X123350313Y-134832163D01*
X123354795Y-134840958D01*
X123457432Y-135008445D01*
X123467890Y-135017907D01*
X123476666Y-135014124D01*
X124327978Y-134162812D01*
X124335592Y-134148868D01*
X124335461Y-134147035D01*
X124331210Y-134140420D01*
X123479710Y-133288920D01*
X123467330Y-133282160D01*
X123459680Y-133287887D01*
X123354795Y-133459042D01*
X123350313Y-133467837D01*
X123263266Y-133677988D01*
X123260217Y-133687373D01*
X123207115Y-133908554D01*
X123205572Y-133918301D01*
X123187725Y-134145070D01*
X123187725Y-134154930D01*
X121208500Y-134154930D01*
X121208500Y-133101866D01*
X121201745Y-133039684D01*
X121150615Y-132903295D01*
X121063261Y-132786739D01*
X121036256Y-132766500D01*
X120993994Y-132734826D01*
X120951479Y-132677967D01*
X120946453Y-132607148D01*
X120980513Y-132544855D01*
X121042845Y-132510865D01*
X121069559Y-132508000D01*
X124090099Y-132508000D01*
X124158220Y-132528002D01*
G37*
%TD.AperFunction*%
%TA.AperFunction,Conductor*%
G36*
X100518171Y-138978502D02*
G01*
X100539145Y-138995405D01*
X106022991Y-144479251D01*
X106057017Y-144541563D01*
X106051952Y-144612378D01*
X106009405Y-144669214D01*
X105987348Y-144682446D01*
X105980721Y-144685550D01*
X105847827Y-144767788D01*
X105836426Y-144776824D01*
X105726014Y-144887429D01*
X105717002Y-144898840D01*
X105634996Y-145031880D01*
X105628849Y-145045061D01*
X105616415Y-145082548D01*
X105575984Y-145140908D01*
X105510420Y-145168144D01*
X105457155Y-145162473D01*
X105356285Y-145129016D01*
X105356283Y-145129016D01*
X105349757Y-145126851D01*
X105342920Y-145126151D01*
X105342918Y-145126150D01*
X105301599Y-145121917D01*
X105248732Y-145116500D01*
X104974950Y-145116500D01*
X104906829Y-145096498D01*
X104885855Y-145079595D01*
X100599140Y-140792880D01*
X100591150Y-140784100D01*
X100591148Y-140784098D01*
X100586901Y-140777405D01*
X100535227Y-140728880D01*
X100532386Y-140726126D01*
X100511818Y-140705558D01*
X100508311Y-140702838D01*
X100499289Y-140695132D01*
X100471398Y-140668941D01*
X100465618Y-140663513D01*
X100458666Y-140659691D01*
X100446827Y-140653182D01*
X100430303Y-140642328D01*
X100419617Y-140634040D01*
X100413353Y-140629181D01*
X100406081Y-140626034D01*
X100406079Y-140626033D01*
X100370950Y-140610831D01*
X100360290Y-140605609D01*
X100326769Y-140587180D01*
X100326767Y-140587179D01*
X100319822Y-140583361D01*
X100299044Y-140578026D01*
X100280354Y-140571627D01*
X100260661Y-140563105D01*
X100215037Y-140555879D01*
X100203414Y-140553472D01*
X100172893Y-140545636D01*
X100158673Y-140541985D01*
X100137226Y-140541985D01*
X100117516Y-140540434D01*
X100096333Y-140537079D01*
X100088529Y-140537817D01*
X100021108Y-140515697D01*
X99976323Y-140460608D01*
X99968431Y-140390051D01*
X99999938Y-140326429D01*
X100018463Y-140309955D01*
X100039589Y-140294606D01*
X100061253Y-140278866D01*
X100113082Y-140221304D01*
X100184621Y-140141852D01*
X100184622Y-140141851D01*
X100189040Y-140136944D01*
X100284527Y-139971556D01*
X100343542Y-139789928D01*
X100344346Y-139782285D01*
X100362814Y-139606565D01*
X100363504Y-139600000D01*
X100355989Y-139528502D01*
X100344232Y-139416635D01*
X100344232Y-139416633D01*
X100343542Y-139410072D01*
X100284527Y-139228444D01*
X100269670Y-139202710D01*
X100237794Y-139147500D01*
X100221056Y-139078505D01*
X100244276Y-139011413D01*
X100300084Y-138967526D01*
X100346913Y-138958500D01*
X100450050Y-138958500D01*
X100518171Y-138978502D01*
G37*
%TD.AperFunction*%
%TA.AperFunction,Conductor*%
G36*
X98602374Y-135247987D02*
G01*
X98613537Y-135250978D01*
X98835000Y-135270353D01*
X99056463Y-135250978D01*
X99067626Y-135247987D01*
X99138602Y-135249673D01*
X99189337Y-135280597D01*
X103415856Y-139507116D01*
X103423846Y-139515896D01*
X103428095Y-139522591D01*
X103433873Y-139528017D01*
X103433874Y-139528018D01*
X103479768Y-139571115D01*
X103482610Y-139573870D01*
X103503178Y-139594438D01*
X103506681Y-139597155D01*
X103515706Y-139604863D01*
X103549378Y-139636483D01*
X103556329Y-139640304D01*
X103556330Y-139640305D01*
X103568169Y-139646814D01*
X103584693Y-139657668D01*
X103594782Y-139665493D01*
X103601643Y-139670815D01*
X103608915Y-139673962D01*
X103608917Y-139673963D01*
X103644046Y-139689165D01*
X103654706Y-139694387D01*
X103684679Y-139710865D01*
X103695174Y-139716635D01*
X103715952Y-139721970D01*
X103734642Y-139728369D01*
X103754335Y-139736891D01*
X103789074Y-139742393D01*
X103799959Y-139744117D01*
X103811582Y-139746524D01*
X103836265Y-139752861D01*
X103856323Y-139758011D01*
X103877770Y-139758011D01*
X103897480Y-139759562D01*
X103918663Y-139762917D01*
X103964652Y-139758570D01*
X103976507Y-139758011D01*
X106924849Y-139758011D01*
X106936705Y-139758570D01*
X106936708Y-139758570D01*
X106944442Y-139760299D01*
X107015274Y-139758073D01*
X107019232Y-139758011D01*
X107048337Y-139758011D01*
X107052737Y-139757455D01*
X107064569Y-139756523D01*
X107110736Y-139755073D01*
X107131326Y-139749091D01*
X107150687Y-139745081D01*
X107158321Y-139744117D01*
X107164109Y-139743386D01*
X107164110Y-139743386D01*
X107171969Y-139742393D01*
X107179334Y-139739477D01*
X107179338Y-139739476D01*
X107214926Y-139725385D01*
X107226136Y-139721546D01*
X107270505Y-139708656D01*
X107288970Y-139697736D01*
X107306710Y-139689045D01*
X107326661Y-139681146D01*
X107364034Y-139653993D01*
X107373953Y-139647478D01*
X107406882Y-139628004D01*
X107406886Y-139628001D01*
X107413712Y-139623964D01*
X107428876Y-139608800D01*
X107443910Y-139595959D01*
X107461262Y-139583352D01*
X107490708Y-139547758D01*
X107498697Y-139538979D01*
X108064935Y-138972741D01*
X108632600Y-138405075D01*
X108641381Y-138397085D01*
X108641390Y-138397077D01*
X108648080Y-138392832D01*
X108696620Y-138341142D01*
X108699374Y-138338301D01*
X108719926Y-138317749D01*
X108722638Y-138314253D01*
X108730349Y-138305224D01*
X108750750Y-138283499D01*
X108761972Y-138271549D01*
X108768062Y-138260472D01*
X108772301Y-138252761D01*
X108783158Y-138236232D01*
X108791447Y-138225547D01*
X108791448Y-138225545D01*
X108796304Y-138219285D01*
X108804267Y-138200884D01*
X108854633Y-138143148D01*
X108858882Y-138140575D01*
X108858883Y-138140574D01*
X108865381Y-138136639D01*
X108986639Y-138015381D01*
X109075472Y-137868699D01*
X109078032Y-137860532D01*
X109113322Y-137747920D01*
X109126753Y-137705062D01*
X109133500Y-137631635D01*
X109133499Y-136968366D01*
X109133234Y-136965474D01*
X109129656Y-136926541D01*
X109126753Y-136894938D01*
X109122428Y-136881138D01*
X109077744Y-136738550D01*
X109077743Y-136738548D01*
X109075472Y-136731301D01*
X109026096Y-136649771D01*
X109007917Y-136581141D01*
X109029728Y-136513578D01*
X109084603Y-136468532D01*
X109133872Y-136458500D01*
X109416502Y-136458500D01*
X109418950Y-136458307D01*
X109418958Y-136458307D01*
X109447421Y-136456067D01*
X109447426Y-136456066D01*
X109453831Y-136455562D01*
X109591727Y-136415500D01*
X109605988Y-136411357D01*
X109605990Y-136411356D01*
X109613601Y-136409145D01*
X109736173Y-136336656D01*
X109754112Y-136326047D01*
X109818251Y-136308500D01*
X110192944Y-136308500D01*
X110204800Y-136309059D01*
X110204803Y-136309059D01*
X110212537Y-136310788D01*
X110283369Y-136308562D01*
X110287327Y-136308500D01*
X110316432Y-136308500D01*
X110320832Y-136307944D01*
X110332664Y-136307012D01*
X110378831Y-136305562D01*
X110399421Y-136299580D01*
X110418782Y-136295570D01*
X110426424Y-136294605D01*
X110432204Y-136293875D01*
X110432205Y-136293875D01*
X110440064Y-136292882D01*
X110447429Y-136289966D01*
X110447433Y-136289965D01*
X110483021Y-136275874D01*
X110494231Y-136272035D01*
X110538600Y-136259145D01*
X110552295Y-136251046D01*
X110616433Y-136233500D01*
X110897988Y-136233499D01*
X110931634Y-136233499D01*
X110934492Y-136233236D01*
X110934501Y-136233236D01*
X110970004Y-136229974D01*
X111005062Y-136226753D01*
X111022450Y-136221304D01*
X111161450Y-136177744D01*
X111161452Y-136177743D01*
X111168699Y-136175472D01*
X111315381Y-136086639D01*
X111406615Y-135995405D01*
X111468927Y-135961379D01*
X111495710Y-135958500D01*
X115565050Y-135958500D01*
X115633171Y-135978502D01*
X115654145Y-135995405D01*
X117144595Y-137485855D01*
X117178621Y-137548167D01*
X117181500Y-137574950D01*
X117181500Y-138122715D01*
X117161498Y-138190836D01*
X117107842Y-138237329D01*
X117037568Y-138247433D01*
X117009298Y-138237990D01*
X117008655Y-138239614D01*
X117001285Y-138236696D01*
X116994337Y-138232876D01*
X116973559Y-138227541D01*
X116954869Y-138221142D01*
X116935176Y-138212620D01*
X116889552Y-138205394D01*
X116877929Y-138202987D01*
X116843657Y-138194188D01*
X116833188Y-138191500D01*
X116811741Y-138191500D01*
X116792031Y-138189949D01*
X116770848Y-138186594D01*
X116724859Y-138190941D01*
X116713004Y-138191500D01*
X109882060Y-138191500D01*
X109870203Y-138190941D01*
X109862463Y-138189211D01*
X109854538Y-138189460D01*
X109854537Y-138189460D01*
X109791599Y-138191438D01*
X109787641Y-138191500D01*
X109758568Y-138191500D01*
X109754634Y-138191997D01*
X109754632Y-138191997D01*
X109754189Y-138192053D01*
X109742354Y-138192985D01*
X109709564Y-138194016D01*
X109704089Y-138194188D01*
X109704088Y-138194188D01*
X109696169Y-138194437D01*
X109676444Y-138200167D01*
X109675571Y-138200421D01*
X109656218Y-138204429D01*
X109652743Y-138204868D01*
X109634936Y-138207118D01*
X109627568Y-138210035D01*
X109627565Y-138210036D01*
X109591982Y-138224125D01*
X109580747Y-138227971D01*
X109544016Y-138238642D01*
X109544013Y-138238643D01*
X109536400Y-138240855D01*
X109517935Y-138251775D01*
X109500195Y-138260466D01*
X109480244Y-138268365D01*
X109443690Y-138294923D01*
X109442874Y-138295516D01*
X109432952Y-138302033D01*
X109400023Y-138321507D01*
X109400019Y-138321510D01*
X109393193Y-138325547D01*
X109378029Y-138340711D01*
X109362996Y-138353551D01*
X109345643Y-138366159D01*
X109323577Y-138392832D01*
X109316198Y-138401752D01*
X109308208Y-138410532D01*
X107264145Y-140454595D01*
X107201833Y-140488621D01*
X107175050Y-140491500D01*
X107154513Y-140491500D01*
X107148061Y-140492872D01*
X107148056Y-140492872D01*
X107061113Y-140511353D01*
X106967712Y-140531206D01*
X106961682Y-140533891D01*
X106961681Y-140533891D01*
X106799278Y-140606197D01*
X106799276Y-140606198D01*
X106793248Y-140608882D01*
X106638747Y-140721134D01*
X106634326Y-140726044D01*
X106634325Y-140726045D01*
X106538058Y-140832961D01*
X106510960Y-140863056D01*
X106415473Y-141028444D01*
X106356458Y-141210072D01*
X106355768Y-141216633D01*
X106355768Y-141216635D01*
X106353285Y-141240260D01*
X106336496Y-141400000D01*
X106356458Y-141589928D01*
X106415473Y-141771556D01*
X106418776Y-141777278D01*
X106418777Y-141777279D01*
X106446567Y-141825412D01*
X106510960Y-141936944D01*
X106515378Y-141941851D01*
X106515379Y-141941852D01*
X106578332Y-142011768D01*
X106638747Y-142078866D01*
X106722879Y-142139992D01*
X106786160Y-142185968D01*
X106793248Y-142191118D01*
X106799276Y-142193802D01*
X106799278Y-142193803D01*
X106891901Y-142235041D01*
X106967712Y-142268794D01*
X107061112Y-142288647D01*
X107148056Y-142307128D01*
X107148061Y-142307128D01*
X107154513Y-142308500D01*
X107345487Y-142308500D01*
X107351939Y-142307128D01*
X107351944Y-142307128D01*
X107438888Y-142288647D01*
X107532288Y-142268794D01*
X107608099Y-142235041D01*
X107700722Y-142193803D01*
X107700724Y-142193802D01*
X107706752Y-142191118D01*
X107713841Y-142185968D01*
X107777121Y-142139992D01*
X107861253Y-142078866D01*
X107921668Y-142011768D01*
X107984621Y-141941852D01*
X107984622Y-141941851D01*
X107989040Y-141936944D01*
X108053433Y-141825412D01*
X108081223Y-141777279D01*
X108081224Y-141777278D01*
X108084527Y-141771556D01*
X108135490Y-141614709D01*
X108141502Y-141596207D01*
X108141502Y-141596205D01*
X108143542Y-141589928D01*
X108156755Y-141464213D01*
X108183768Y-141398558D01*
X108192970Y-141388290D01*
X110035855Y-139545405D01*
X110098167Y-139511379D01*
X110124950Y-139508500D01*
X114621868Y-139508500D01*
X114689989Y-139528502D01*
X114736482Y-139582158D01*
X114746586Y-139652432D01*
X114739850Y-139678729D01*
X114698255Y-139789684D01*
X114691500Y-139851866D01*
X114691500Y-142448134D01*
X114698255Y-142510316D01*
X114749385Y-142646705D01*
X114836739Y-142763261D01*
X114865312Y-142784675D01*
X114907825Y-142841534D01*
X114912850Y-142912352D01*
X114878790Y-142974645D01*
X114816459Y-143008636D01*
X114789745Y-143011500D01*
X113505632Y-143011500D01*
X113493775Y-143010941D01*
X113486035Y-143009211D01*
X113478110Y-143009460D01*
X113478109Y-143009460D01*
X113415171Y-143011438D01*
X113411213Y-143011500D01*
X113382140Y-143011500D01*
X113378206Y-143011997D01*
X113378204Y-143011997D01*
X113377761Y-143012053D01*
X113365926Y-143012985D01*
X113333136Y-143014016D01*
X113327661Y-143014188D01*
X113327660Y-143014188D01*
X113319741Y-143014437D01*
X113300016Y-143020168D01*
X113299143Y-143020421D01*
X113279790Y-143024429D01*
X113276315Y-143024868D01*
X113258508Y-143027118D01*
X113251140Y-143030035D01*
X113251137Y-143030036D01*
X113215554Y-143044125D01*
X113204319Y-143047971D01*
X113167588Y-143058642D01*
X113167585Y-143058643D01*
X113159972Y-143060855D01*
X113141507Y-143071775D01*
X113123767Y-143080466D01*
X113103816Y-143088365D01*
X113066446Y-143115516D01*
X113056524Y-143122033D01*
X113023595Y-143141507D01*
X113023591Y-143141510D01*
X113016765Y-143145547D01*
X113001601Y-143160711D01*
X112986568Y-143173551D01*
X112969215Y-143186159D01*
X112952746Y-143206067D01*
X112939770Y-143221752D01*
X112931780Y-143230532D01*
X111157717Y-145004595D01*
X111095405Y-145038621D01*
X111068622Y-145041500D01*
X109041909Y-145041500D01*
X108973788Y-145021498D01*
X108934765Y-144981803D01*
X108882606Y-144897515D01*
X108878752Y-144891287D01*
X108757702Y-144770448D01*
X108718040Y-144746000D01*
X108618331Y-144684538D01*
X108618329Y-144684537D01*
X108612101Y-144680698D01*
X108449757Y-144626851D01*
X108442920Y-144626151D01*
X108442918Y-144626150D01*
X108401599Y-144621917D01*
X108348732Y-144616500D01*
X108074950Y-144616500D01*
X108006829Y-144596498D01*
X107985855Y-144579595D01*
X101298655Y-137892395D01*
X101290665Y-137883615D01*
X101290663Y-137883613D01*
X101286416Y-137876920D01*
X101277662Y-137868699D01*
X101234743Y-137828396D01*
X101231901Y-137825641D01*
X101211333Y-137805073D01*
X101207826Y-137802353D01*
X101198804Y-137794647D01*
X101192303Y-137788542D01*
X101165133Y-137763028D01*
X101158181Y-137759206D01*
X101146342Y-137752697D01*
X101129818Y-137741843D01*
X101119132Y-137733555D01*
X101112868Y-137728696D01*
X101105596Y-137725549D01*
X101105594Y-137725548D01*
X101070465Y-137710346D01*
X101059805Y-137705124D01*
X101026284Y-137686695D01*
X101026282Y-137686694D01*
X101019337Y-137682876D01*
X100998559Y-137677541D01*
X100979869Y-137671142D01*
X100960176Y-137662620D01*
X100914552Y-137655394D01*
X100902929Y-137652987D01*
X100868661Y-137644189D01*
X100858188Y-137641500D01*
X100836741Y-137641500D01*
X100817031Y-137639949D01*
X100795848Y-137636594D01*
X100749859Y-137640941D01*
X100738004Y-137641500D01*
X97621342Y-137641500D01*
X97609486Y-137640941D01*
X97601746Y-137639211D01*
X97593820Y-137639460D01*
X97593819Y-137639460D01*
X97530894Y-137641438D01*
X97526936Y-137641500D01*
X97497851Y-137641500D01*
X97493920Y-137641997D01*
X97493913Y-137641997D01*
X97493462Y-137642054D01*
X97481626Y-137642986D01*
X97435452Y-137644438D01*
X97414862Y-137650420D01*
X97395501Y-137654430D01*
X97388513Y-137655312D01*
X97382079Y-137656125D01*
X97382078Y-137656125D01*
X97374219Y-137657118D01*
X97366854Y-137660034D01*
X97366850Y-137660035D01*
X97331262Y-137674126D01*
X97320052Y-137677965D01*
X97275683Y-137690855D01*
X97257218Y-137701775D01*
X97239478Y-137710466D01*
X97219527Y-137718365D01*
X97182157Y-137745516D01*
X97172235Y-137752033D01*
X97139306Y-137771507D01*
X97139302Y-137771510D01*
X97132476Y-137775547D01*
X97117312Y-137790711D01*
X97102279Y-137803551D01*
X97084926Y-137816159D01*
X97060719Y-137845420D01*
X97055481Y-137851752D01*
X97047491Y-137860532D01*
X96598636Y-138309387D01*
X96536324Y-138343413D01*
X96493096Y-138345214D01*
X96464885Y-138341500D01*
X96325017Y-138341500D01*
X96185116Y-138341501D01*
X96181032Y-138342039D01*
X96181026Y-138342039D01*
X96097825Y-138352992D01*
X96027676Y-138342052D01*
X95974578Y-138294923D01*
X95955389Y-138226569D01*
X95976201Y-138158691D01*
X95992285Y-138138975D01*
X97507605Y-136623655D01*
X97516385Y-136615665D01*
X97516387Y-136615663D01*
X97523080Y-136611416D01*
X97541781Y-136591502D01*
X97571604Y-136559743D01*
X97574359Y-136556901D01*
X97594927Y-136536333D01*
X97597647Y-136532826D01*
X97605353Y-136523804D01*
X97631544Y-136495913D01*
X97636972Y-136490133D01*
X97641729Y-136481480D01*
X97647303Y-136471342D01*
X97658157Y-136454818D01*
X97666443Y-136444135D01*
X97666444Y-136444134D01*
X97671304Y-136437868D01*
X97689654Y-136395464D01*
X97694869Y-136384819D01*
X97717124Y-136344337D01*
X97719094Y-136336663D01*
X97719097Y-136336656D01*
X97722455Y-136323574D01*
X97728861Y-136304862D01*
X97737380Y-136285177D01*
X97738854Y-136275874D01*
X97744216Y-136242011D01*
X97744608Y-136239541D01*
X97747012Y-136227930D01*
X97758500Y-136183188D01*
X97758500Y-136161742D01*
X97760051Y-136142032D01*
X97762166Y-136128678D01*
X97762166Y-136128677D01*
X97763406Y-136120848D01*
X97759059Y-136074859D01*
X97758500Y-136063004D01*
X97758500Y-136054950D01*
X97778502Y-135986829D01*
X97795405Y-135965855D01*
X98480663Y-135280597D01*
X98542975Y-135246571D01*
X98602374Y-135247987D01*
G37*
%TD.AperFunction*%
%TA.AperFunction,Conductor*%
G36*
X102713960Y-134470423D02*
G01*
X102759195Y-134522627D01*
X102808186Y-134627689D01*
X102808189Y-134627694D01*
X102810512Y-134632676D01*
X102813668Y-134637183D01*
X102813669Y-134637185D01*
X102933998Y-134809032D01*
X102938023Y-134814781D01*
X103095219Y-134971977D01*
X103099727Y-134975134D01*
X103099730Y-134975136D01*
X103152539Y-135012113D01*
X103277323Y-135099488D01*
X103282305Y-135101811D01*
X103282310Y-135101814D01*
X103462939Y-135186042D01*
X103478804Y-135193440D01*
X103484112Y-135194862D01*
X103484114Y-135194863D01*
X103541815Y-135210324D01*
X103693537Y-135250978D01*
X103915000Y-135270353D01*
X104136463Y-135250978D01*
X104147636Y-135247984D01*
X104218613Y-135249676D01*
X104269338Y-135280597D01*
X105046341Y-136057600D01*
X105054331Y-136066381D01*
X105054339Y-136066390D01*
X105058584Y-136073080D01*
X105064359Y-136078503D01*
X105110274Y-136121620D01*
X105113116Y-136124375D01*
X105133667Y-136144926D01*
X105136801Y-136147357D01*
X105137163Y-136147638D01*
X105146191Y-136155348D01*
X105179867Y-136186972D01*
X105186818Y-136190793D01*
X105186819Y-136190794D01*
X105198655Y-136197301D01*
X105215184Y-136208158D01*
X105225869Y-136216447D01*
X105225871Y-136216448D01*
X105232131Y-136221304D01*
X105274544Y-136239657D01*
X105285181Y-136244868D01*
X105325663Y-136267124D01*
X105333342Y-136269096D01*
X105333343Y-136269096D01*
X105346434Y-136272457D01*
X105365136Y-136278859D01*
X105384823Y-136287379D01*
X105392652Y-136288619D01*
X105430448Y-136294605D01*
X105442074Y-136297013D01*
X105479135Y-136306529D01*
X105479136Y-136306529D01*
X105486812Y-136308500D01*
X105508258Y-136308500D01*
X105527968Y-136310051D01*
X105549151Y-136313406D01*
X105557043Y-136312660D01*
X105557045Y-136312660D01*
X105573372Y-136311117D01*
X105649366Y-136328104D01*
X105775946Y-136402963D01*
X105824397Y-136454854D01*
X105837102Y-136524705D01*
X105812912Y-136584347D01*
X105813361Y-136584619D01*
X105724528Y-136731301D01*
X105722257Y-136738548D01*
X105722256Y-136738550D01*
X105712045Y-136771134D01*
X105673247Y-136894938D01*
X105666500Y-136968365D01*
X105666501Y-137631634D01*
X105666764Y-137634492D01*
X105666764Y-137634501D01*
X105668227Y-137650419D01*
X105673247Y-137705062D01*
X105675246Y-137711440D01*
X105675246Y-137711441D01*
X105721969Y-137860532D01*
X105724528Y-137868699D01*
X105813361Y-138015381D01*
X105934619Y-138136639D01*
X106021838Y-138189460D01*
X106051188Y-138207235D01*
X106099095Y-138259632D01*
X106111068Y-138329612D01*
X106083307Y-138394956D01*
X106024625Y-138434918D01*
X105985917Y-138441011D01*
X104264461Y-138441011D01*
X104196340Y-138421009D01*
X104175366Y-138404106D01*
X101254437Y-135483177D01*
X101220411Y-135420865D01*
X101225476Y-135350050D01*
X101268023Y-135293214D01*
X101334543Y-135268403D01*
X101354511Y-135268561D01*
X101369522Y-135269874D01*
X101369525Y-135269874D01*
X101375000Y-135270353D01*
X101596463Y-135250978D01*
X101748185Y-135210324D01*
X101805886Y-135194863D01*
X101805888Y-135194862D01*
X101811196Y-135193440D01*
X101827061Y-135186042D01*
X102007690Y-135101814D01*
X102007695Y-135101811D01*
X102012677Y-135099488D01*
X102137461Y-135012113D01*
X102190270Y-134975136D01*
X102190273Y-134975134D01*
X102194781Y-134971977D01*
X102351977Y-134814781D01*
X102356003Y-134809032D01*
X102476331Y-134637185D01*
X102476332Y-134637183D01*
X102479488Y-134632676D01*
X102481811Y-134627694D01*
X102481814Y-134627689D01*
X102530805Y-134522627D01*
X102577723Y-134469342D01*
X102646000Y-134449881D01*
X102713960Y-134470423D01*
G37*
%TD.AperFunction*%
%TA.AperFunction,Conductor*%
G36*
X96491121Y-133761002D02*
G01*
X96537614Y-133814658D01*
X96549000Y-133867000D01*
X96549000Y-135246884D01*
X96556211Y-135271442D01*
X96556211Y-135342438D01*
X96537515Y-135379002D01*
X96537589Y-135379046D01*
X96536879Y-135380246D01*
X96534876Y-135384164D01*
X96533554Y-135385868D01*
X96533551Y-135385873D01*
X96528696Y-135392132D01*
X96525549Y-135399404D01*
X96525548Y-135399406D01*
X96510346Y-135434535D01*
X96505124Y-135445195D01*
X96482876Y-135485663D01*
X96477541Y-135506441D01*
X96471142Y-135525131D01*
X96462620Y-135544824D01*
X96461380Y-135552655D01*
X96455394Y-135590448D01*
X96452987Y-135602071D01*
X96441500Y-135646812D01*
X96441500Y-135668259D01*
X96439949Y-135687969D01*
X96436594Y-135709152D01*
X96438308Y-135727279D01*
X96440941Y-135755138D01*
X96441500Y-135766996D01*
X96441500Y-135775050D01*
X96421498Y-135843171D01*
X96404595Y-135864145D01*
X95248595Y-137020145D01*
X95186283Y-137054171D01*
X95115468Y-137049106D01*
X95058632Y-137006559D01*
X95033821Y-136940039D01*
X95033500Y-136931050D01*
X95033500Y-135269421D01*
X95053502Y-135201300D01*
X95107158Y-135154807D01*
X95177432Y-135144703D01*
X95235065Y-135168595D01*
X95279352Y-135201786D01*
X95294946Y-135210324D01*
X95415394Y-135255478D01*
X95430649Y-135259105D01*
X95481514Y-135264631D01*
X95488328Y-135265000D01*
X96022885Y-135265000D01*
X96038124Y-135260525D01*
X96039329Y-135259135D01*
X96041000Y-135251452D01*
X96041000Y-133867000D01*
X96061002Y-133798879D01*
X96114658Y-133752386D01*
X96167000Y-133741000D01*
X96423000Y-133741000D01*
X96491121Y-133761002D01*
G37*
%TD.AperFunction*%
%TA.AperFunction,Conductor*%
G36*
X118398562Y-132528002D02*
G01*
X118445055Y-132581658D01*
X118455159Y-132651932D01*
X118425665Y-132716512D01*
X118406006Y-132734826D01*
X118363744Y-132766500D01*
X118336739Y-132786739D01*
X118249385Y-132903295D01*
X118198255Y-133039684D01*
X118191500Y-133101866D01*
X118191500Y-135198134D01*
X118198255Y-135260316D01*
X118249385Y-135396705D01*
X118336739Y-135513261D01*
X118453295Y-135600615D01*
X118589684Y-135651745D01*
X118651866Y-135658500D01*
X118765500Y-135658500D01*
X118833621Y-135678502D01*
X118880114Y-135732158D01*
X118891500Y-135784500D01*
X118891500Y-136158297D01*
X118871498Y-136226418D01*
X118817842Y-136272911D01*
X118747568Y-136283015D01*
X118724167Y-136277325D01*
X118710149Y-136272457D01*
X118553729Y-136218139D01*
X118547794Y-136217278D01*
X118547792Y-136217278D01*
X118350336Y-136188648D01*
X118350333Y-136188648D01*
X118344396Y-136187787D01*
X118133101Y-136197567D01*
X117987568Y-136232640D01*
X117933291Y-136245721D01*
X117933289Y-136245722D01*
X117927466Y-136247125D01*
X117922011Y-136249605D01*
X117922009Y-136249606D01*
X117897602Y-136260703D01*
X117827311Y-136270689D01*
X117762780Y-136241088D01*
X117756357Y-136235097D01*
X116413655Y-134892395D01*
X116405665Y-134883615D01*
X116405663Y-134883613D01*
X116401416Y-134876920D01*
X116394072Y-134870023D01*
X116349743Y-134828396D01*
X116346901Y-134825641D01*
X116326333Y-134805073D01*
X116322826Y-134802353D01*
X116313804Y-134794647D01*
X116285913Y-134768456D01*
X116280133Y-134763028D01*
X116273181Y-134759206D01*
X116261342Y-134752697D01*
X116244818Y-134741843D01*
X116234132Y-134733555D01*
X116227868Y-134728696D01*
X116220596Y-134725549D01*
X116220594Y-134725548D01*
X116185465Y-134710346D01*
X116174805Y-134705124D01*
X116141284Y-134686695D01*
X116141282Y-134686694D01*
X116134337Y-134682876D01*
X116113559Y-134677541D01*
X116094869Y-134671142D01*
X116075176Y-134662620D01*
X116029552Y-134655394D01*
X116017929Y-134652987D01*
X115989928Y-134645798D01*
X115973188Y-134641500D01*
X115951741Y-134641500D01*
X115932031Y-134639949D01*
X115918677Y-134637834D01*
X115910848Y-134636594D01*
X115864859Y-134640941D01*
X115853004Y-134641500D01*
X111445710Y-134641500D01*
X111377589Y-134621498D01*
X111356615Y-134604595D01*
X111341115Y-134589095D01*
X111307089Y-134526783D01*
X111312154Y-134455968D01*
X111341115Y-134410905D01*
X111436639Y-134315381D01*
X111525472Y-134168699D01*
X111529456Y-134155988D01*
X111569891Y-134026957D01*
X111576753Y-134005062D01*
X111583500Y-133931635D01*
X111583499Y-133418366D01*
X111576753Y-133344938D01*
X111561470Y-133296169D01*
X111527744Y-133188550D01*
X111527743Y-133188548D01*
X111525472Y-133181301D01*
X111436639Y-133034619D01*
X111315381Y-132913361D01*
X111168699Y-132824528D01*
X111161452Y-132822257D01*
X111161450Y-132822256D01*
X111071026Y-132793919D01*
X111005062Y-132773247D01*
X110931635Y-132766500D01*
X110674950Y-132766500D01*
X110606829Y-132746498D01*
X110585855Y-132729595D01*
X110579355Y-132723095D01*
X110545329Y-132660783D01*
X110550394Y-132589968D01*
X110592941Y-132533132D01*
X110659461Y-132508321D01*
X110668450Y-132508000D01*
X118330441Y-132508000D01*
X118398562Y-132528002D01*
G37*
%TD.AperFunction*%
%TA.AperFunction,Conductor*%
G36*
X107907720Y-134415071D02*
G01*
X107912585Y-134418845D01*
X107918193Y-134424453D01*
X107925017Y-134428489D01*
X107925020Y-134428491D01*
X107984297Y-134463547D01*
X108061399Y-134509145D01*
X108069010Y-134511356D01*
X108069012Y-134511357D01*
X108105722Y-134522022D01*
X108221169Y-134555562D01*
X108227574Y-134556066D01*
X108227579Y-134556067D01*
X108256042Y-134558307D01*
X108256050Y-134558307D01*
X108258498Y-134558500D01*
X109416502Y-134558500D01*
X109418950Y-134558307D01*
X109418958Y-134558307D01*
X109447421Y-134556067D01*
X109447426Y-134556066D01*
X109453831Y-134555562D01*
X109613601Y-134509145D01*
X109614552Y-134512418D01*
X109669634Y-134505646D01*
X109733597Y-134536455D01*
X109770750Y-134596955D01*
X109769296Y-134667936D01*
X109756928Y-134695241D01*
X109728705Y-134741843D01*
X109688015Y-134809032D01*
X109684826Y-134814297D01*
X109632429Y-134862204D01*
X109562449Y-134874177D01*
X109541898Y-134870023D01*
X109460011Y-134846233D01*
X109460007Y-134846232D01*
X109453831Y-134844438D01*
X109447426Y-134843934D01*
X109447421Y-134843933D01*
X109418958Y-134841693D01*
X109418950Y-134841693D01*
X109416502Y-134841500D01*
X108258498Y-134841500D01*
X108256050Y-134841693D01*
X108256042Y-134841693D01*
X108227579Y-134843933D01*
X108227574Y-134843934D01*
X108221169Y-134844438D01*
X108133104Y-134870023D01*
X108069012Y-134888643D01*
X108069010Y-134888644D01*
X108061399Y-134890855D01*
X107918193Y-134975547D01*
X107912584Y-134981156D01*
X107907114Y-134985399D01*
X107841029Y-135011346D01*
X107771406Y-134997445D01*
X107729884Y-134959554D01*
X107717630Y-134954000D01*
X107479842Y-134954000D01*
X107415703Y-134936453D01*
X107345427Y-134894892D01*
X107345428Y-134894892D01*
X107338601Y-134890855D01*
X107330990Y-134888644D01*
X107330988Y-134888643D01*
X107266896Y-134870023D01*
X107178831Y-134844438D01*
X107172426Y-134843934D01*
X107172421Y-134843933D01*
X107143958Y-134841693D01*
X107143950Y-134841693D01*
X107141502Y-134841500D01*
X106434500Y-134841500D01*
X106366379Y-134821498D01*
X106319886Y-134767842D01*
X106308500Y-134715500D01*
X106308500Y-134684500D01*
X106328502Y-134616379D01*
X106382158Y-134569886D01*
X106434500Y-134558500D01*
X107141502Y-134558500D01*
X107143950Y-134558307D01*
X107143958Y-134558307D01*
X107172421Y-134556067D01*
X107172426Y-134556066D01*
X107178831Y-134555562D01*
X107294278Y-134522022D01*
X107330988Y-134511357D01*
X107330990Y-134511356D01*
X107338601Y-134509145D01*
X107415703Y-134463547D01*
X107479842Y-134446000D01*
X107711878Y-134446000D01*
X107727116Y-134441526D01*
X107735268Y-134432118D01*
X107794994Y-134393734D01*
X107865990Y-134393734D01*
X107907720Y-134415071D01*
G37*
%TD.AperFunction*%
%TD*%
M02*
