M48
; DRILL file {KiCad (6.0.2)} date Fri Mar 18 21:37:13 2022
; FORMAT={-:-/ absolute / metric / decimal}
; #@! TF.CreationDate,2022-03-18T21:37:13+08:00
; #@! TF.GenerationSoftware,Kicad,Pcbnew,(6.0.2)
; #@! TF.FileFunction,Plated,1,2,PTH
FMAT,2
METRIC
; #@! TA.AperFunction,Plated,PTH,ViaDrill
T1C0.400
; #@! TA.AperFunction,Plated,PTH,ComponentDrill
T2C0.600
; #@! TA.AperFunction,Plated,PTH,ComponentDrill
T3C0.800
; #@! TA.AperFunction,Plated,PTH,ComponentDrill
T4C1.000
; #@! TA.AperFunction,Plated,PTH,ComponentDrill
T5C1.200
; #@! TA.AperFunction,Plated,PTH,ViaDrill
T6C3.000
%
G90
G05
T1
X78.05Y-149.75
X82.4Y-149.45
X87.9Y-139.6
X88.05Y-153.65
X91.55Y-137.5
X91.65Y-135.3
X92.095Y-144.2
X92.9Y-137.45
X93.05Y-151.35
X93.15Y-142.9
X93.4Y-133.0
X94.0Y-150.55
X94.31Y-143.518
X95.2Y-152.15
X96.005Y-143.155
X96.999Y-143.051
X98.104Y-143.096
X98.4Y-152.5
X99.45Y-139.6
X101.15Y-149.15
X101.6Y-146.1
X103.05Y-142.2
X107.25Y-141.4
X110.05Y-151.6
X110.8Y-149.75
X110.8Y-150.95
X113.56Y-152.36
X125.34Y-151.7
T3
X118.29Y-137.7
X120.83Y-137.7
X123.37Y-137.7
X125.91Y-137.7
X127.56Y-153.96
X127.56Y-156.5
T4
X75.071Y-139.8
X80.071Y-139.8
X96.295Y-133.995
X98.835Y-133.995
X101.375Y-133.995
X103.915Y-133.995
T5
X119.7Y-134.15
X119.7Y-148.65
X122.2Y-148.65
X124.7Y-134.15
X124.7Y-148.65
T6
X71.7Y-133.7
X71.7Y-160.3
X128.3Y-133.7
X128.3Y-160.3
T2
G00X116.48Y-153.68
M15
G01X116.48Y-154.78
M16
G05
G00X116.48Y-158.11
M15
G01X116.48Y-158.71
M16
G05
G00X125.12Y-153.68
M15
G01X125.12Y-154.78
M16
G05
G00X125.12Y-158.11
M15
G01X125.12Y-158.71
M16
G05
T4
G00X115.95Y-140.55
M15
G01X115.95Y-141.75
M16
G05
G00X128.45Y-140.55
M15
G01X128.45Y-141.75
M16
G05
T0
M30
