%TF.GenerationSoftware,KiCad,Pcbnew,(6.0.2)*%
%TF.CreationDate,2022-03-18T21:37:06+08:00*%
%TF.ProjectId,Morse_code_PCB,4d6f7273-655f-4636-9f64-655f5043422e,rev?*%
%TF.SameCoordinates,Original*%
%TF.FileFunction,Legend,Top*%
%TF.FilePolarity,Positive*%
%FSLAX46Y46*%
G04 Gerber Fmt 4.6, Leading zero omitted, Abs format (unit mm)*
G04 Created by KiCad (PCBNEW (6.0.2)) date 2022-03-18 21:37:06*
%MOMM*%
%LPD*%
G01*
G04 APERTURE LIST*
%ADD10C,0.150000*%
%ADD11C,0.125000*%
%ADD12C,0.120000*%
G04 APERTURE END LIST*
D10*
%TO.C,C2*%
X104033333Y-145057142D02*
X103985714Y-145104761D01*
X103842857Y-145152380D01*
X103747619Y-145152380D01*
X103604761Y-145104761D01*
X103509523Y-145009523D01*
X103461904Y-144914285D01*
X103414285Y-144723809D01*
X103414285Y-144580952D01*
X103461904Y-144390476D01*
X103509523Y-144295238D01*
X103604761Y-144200000D01*
X103747619Y-144152380D01*
X103842857Y-144152380D01*
X103985714Y-144200000D01*
X104033333Y-144247619D01*
X104414285Y-144247619D02*
X104461904Y-144200000D01*
X104557142Y-144152380D01*
X104795238Y-144152380D01*
X104890476Y-144200000D01*
X104938095Y-144247619D01*
X104985714Y-144342857D01*
X104985714Y-144438095D01*
X104938095Y-144580952D01*
X104366666Y-145152380D01*
X104985714Y-145152380D01*
%TO.C,R19*%
X112482380Y-135142857D02*
X112006190Y-135476190D01*
X112482380Y-135714285D02*
X111482380Y-135714285D01*
X111482380Y-135333333D01*
X111530000Y-135238095D01*
X111577619Y-135190476D01*
X111672857Y-135142857D01*
X111815714Y-135142857D01*
X111910952Y-135190476D01*
X111958571Y-135238095D01*
X112006190Y-135333333D01*
X112006190Y-135714285D01*
X112482380Y-134190476D02*
X112482380Y-134761904D01*
X112482380Y-134476190D02*
X111482380Y-134476190D01*
X111625238Y-134571428D01*
X111720476Y-134666666D01*
X111768095Y-134761904D01*
X112482380Y-133714285D02*
X112482380Y-133523809D01*
X112434761Y-133428571D01*
X112387142Y-133380952D01*
X112244285Y-133285714D01*
X112053809Y-133238095D01*
X111672857Y-133238095D01*
X111577619Y-133285714D01*
X111530000Y-133333333D01*
X111482380Y-133428571D01*
X111482380Y-133619047D01*
X111530000Y-133714285D01*
X111577619Y-133761904D01*
X111672857Y-133809523D01*
X111910952Y-133809523D01*
X112006190Y-133761904D01*
X112053809Y-133714285D01*
X112101428Y-133619047D01*
X112101428Y-133428571D01*
X112053809Y-133333333D01*
X112006190Y-133285714D01*
X111910952Y-133238095D01*
%TO.C,R21*%
X89057142Y-140152380D02*
X88723809Y-139676190D01*
X88485714Y-140152380D02*
X88485714Y-139152380D01*
X88866666Y-139152380D01*
X88961904Y-139200000D01*
X89009523Y-139247619D01*
X89057142Y-139342857D01*
X89057142Y-139485714D01*
X89009523Y-139580952D01*
X88961904Y-139628571D01*
X88866666Y-139676190D01*
X88485714Y-139676190D01*
X89438095Y-139247619D02*
X89485714Y-139200000D01*
X89580952Y-139152380D01*
X89819047Y-139152380D01*
X89914285Y-139200000D01*
X89961904Y-139247619D01*
X90009523Y-139342857D01*
X90009523Y-139438095D01*
X89961904Y-139580952D01*
X89390476Y-140152380D01*
X90009523Y-140152380D01*
X90961904Y-140152380D02*
X90390476Y-140152380D01*
X90676190Y-140152380D02*
X90676190Y-139152380D01*
X90580952Y-139295238D01*
X90485714Y-139390476D01*
X90390476Y-139438095D01*
D11*
%TO.C,C4*%
X108816666Y-153878571D02*
X108792857Y-153902380D01*
X108721428Y-153926190D01*
X108673809Y-153926190D01*
X108602380Y-153902380D01*
X108554761Y-153854761D01*
X108530952Y-153807142D01*
X108507142Y-153711904D01*
X108507142Y-153640476D01*
X108530952Y-153545238D01*
X108554761Y-153497619D01*
X108602380Y-153450000D01*
X108673809Y-153426190D01*
X108721428Y-153426190D01*
X108792857Y-153450000D01*
X108816666Y-153473809D01*
X109245238Y-153592857D02*
X109245238Y-153926190D01*
X109126190Y-153402380D02*
X109007142Y-153759523D01*
X109316666Y-153759523D01*
D10*
%TO.C,Q3*%
X89204761Y-142947619D02*
X89109523Y-142900000D01*
X89014285Y-142804761D01*
X88871428Y-142661904D01*
X88776190Y-142614285D01*
X88680952Y-142614285D01*
X88728571Y-142852380D02*
X88633333Y-142804761D01*
X88538095Y-142709523D01*
X88490476Y-142519047D01*
X88490476Y-142185714D01*
X88538095Y-141995238D01*
X88633333Y-141900000D01*
X88728571Y-141852380D01*
X88919047Y-141852380D01*
X89014285Y-141900000D01*
X89109523Y-141995238D01*
X89157142Y-142185714D01*
X89157142Y-142519047D01*
X89109523Y-142709523D01*
X89014285Y-142804761D01*
X88919047Y-142852380D01*
X88728571Y-142852380D01*
X89490476Y-141852380D02*
X90109523Y-141852380D01*
X89776190Y-142233333D01*
X89919047Y-142233333D01*
X90014285Y-142280952D01*
X90061904Y-142328571D01*
X90109523Y-142423809D01*
X90109523Y-142661904D01*
X90061904Y-142757142D01*
X90014285Y-142804761D01*
X89919047Y-142852380D01*
X89633333Y-142852380D01*
X89538095Y-142804761D01*
X89490476Y-142757142D01*
%TO.C,BZ1*%
X76689832Y-144028571D02*
X76832689Y-144076190D01*
X76880308Y-144123809D01*
X76927927Y-144219047D01*
X76927927Y-144361904D01*
X76880308Y-144457142D01*
X76832689Y-144504761D01*
X76737451Y-144552380D01*
X76356499Y-144552380D01*
X76356499Y-143552380D01*
X76689832Y-143552380D01*
X76785070Y-143600000D01*
X76832689Y-143647619D01*
X76880308Y-143742857D01*
X76880308Y-143838095D01*
X76832689Y-143933333D01*
X76785070Y-143980952D01*
X76689832Y-144028571D01*
X76356499Y-144028571D01*
X77261261Y-143552380D02*
X77927927Y-143552380D01*
X77261261Y-144552380D01*
X77927927Y-144552380D01*
X78832689Y-144552380D02*
X78261261Y-144552380D01*
X78546975Y-144552380D02*
X78546975Y-143552380D01*
X78451737Y-143695238D01*
X78356499Y-143790476D01*
X78261261Y-143838095D01*
%TO.C,R20*%
X88857142Y-138452380D02*
X88523809Y-137976190D01*
X88285714Y-138452380D02*
X88285714Y-137452380D01*
X88666666Y-137452380D01*
X88761904Y-137500000D01*
X88809523Y-137547619D01*
X88857142Y-137642857D01*
X88857142Y-137785714D01*
X88809523Y-137880952D01*
X88761904Y-137928571D01*
X88666666Y-137976190D01*
X88285714Y-137976190D01*
X89238095Y-137547619D02*
X89285714Y-137500000D01*
X89380952Y-137452380D01*
X89619047Y-137452380D01*
X89714285Y-137500000D01*
X89761904Y-137547619D01*
X89809523Y-137642857D01*
X89809523Y-137738095D01*
X89761904Y-137880952D01*
X89190476Y-138452380D01*
X89809523Y-138452380D01*
X90428571Y-137452380D02*
X90523809Y-137452380D01*
X90619047Y-137500000D01*
X90666666Y-137547619D01*
X90714285Y-137642857D01*
X90761904Y-137833333D01*
X90761904Y-138071428D01*
X90714285Y-138261904D01*
X90666666Y-138357142D01*
X90619047Y-138404761D01*
X90523809Y-138452380D01*
X90428571Y-138452380D01*
X90333333Y-138404761D01*
X90285714Y-138357142D01*
X90238095Y-138261904D01*
X90190476Y-138071428D01*
X90190476Y-137833333D01*
X90238095Y-137642857D01*
X90285714Y-137547619D01*
X90333333Y-137500000D01*
X90428571Y-137452380D01*
%TO.C,J4*%
X126366666Y-157952380D02*
X126366666Y-158666666D01*
X126319047Y-158809523D01*
X126223809Y-158904761D01*
X126080952Y-158952380D01*
X125985714Y-158952380D01*
X127271428Y-158285714D02*
X127271428Y-158952380D01*
X127033333Y-157904761D02*
X126795238Y-158619047D01*
X127414285Y-158619047D01*
%TO.C,R18*%
X106557142Y-139352380D02*
X106223809Y-138876190D01*
X105985714Y-139352380D02*
X105985714Y-138352380D01*
X106366666Y-138352380D01*
X106461904Y-138400000D01*
X106509523Y-138447619D01*
X106557142Y-138542857D01*
X106557142Y-138685714D01*
X106509523Y-138780952D01*
X106461904Y-138828571D01*
X106366666Y-138876190D01*
X105985714Y-138876190D01*
X107509523Y-139352380D02*
X106938095Y-139352380D01*
X107223809Y-139352380D02*
X107223809Y-138352380D01*
X107128571Y-138495238D01*
X107033333Y-138590476D01*
X106938095Y-138638095D01*
X108080952Y-138780952D02*
X107985714Y-138733333D01*
X107938095Y-138685714D01*
X107890476Y-138590476D01*
X107890476Y-138542857D01*
X107938095Y-138447619D01*
X107985714Y-138400000D01*
X108080952Y-138352380D01*
X108271428Y-138352380D01*
X108366666Y-138400000D01*
X108414285Y-138447619D01*
X108461904Y-138542857D01*
X108461904Y-138590476D01*
X108414285Y-138685714D01*
X108366666Y-138733333D01*
X108271428Y-138780952D01*
X108080952Y-138780952D01*
X107985714Y-138828571D01*
X107938095Y-138876190D01*
X107890476Y-138971428D01*
X107890476Y-139161904D01*
X107938095Y-139257142D01*
X107985714Y-139304761D01*
X108080952Y-139352380D01*
X108271428Y-139352380D01*
X108366666Y-139304761D01*
X108414285Y-139257142D01*
X108461904Y-139161904D01*
X108461904Y-138971428D01*
X108414285Y-138876190D01*
X108366666Y-138828571D01*
X108271428Y-138780952D01*
%TO.C,D1*%
X95722380Y-160608095D02*
X94722380Y-160608095D01*
X94722380Y-160370000D01*
X94770000Y-160227142D01*
X94865238Y-160131904D01*
X94960476Y-160084285D01*
X95150952Y-160036666D01*
X95293809Y-160036666D01*
X95484285Y-160084285D01*
X95579523Y-160131904D01*
X95674761Y-160227142D01*
X95722380Y-160370000D01*
X95722380Y-160608095D01*
X95722380Y-159084285D02*
X95722380Y-159655714D01*
X95722380Y-159370000D02*
X94722380Y-159370000D01*
X94865238Y-159465238D01*
X94960476Y-159560476D01*
X95008095Y-159655714D01*
%TO.C,D2*%
X122761904Y-150752380D02*
X122761904Y-149752380D01*
X123000000Y-149752380D01*
X123142857Y-149800000D01*
X123238095Y-149895238D01*
X123285714Y-149990476D01*
X123333333Y-150180952D01*
X123333333Y-150323809D01*
X123285714Y-150514285D01*
X123238095Y-150609523D01*
X123142857Y-150704761D01*
X123000000Y-150752380D01*
X122761904Y-150752380D01*
X123714285Y-149847619D02*
X123761904Y-149800000D01*
X123857142Y-149752380D01*
X124095238Y-149752380D01*
X124190476Y-149800000D01*
X124238095Y-149847619D01*
X124285714Y-149942857D01*
X124285714Y-150038095D01*
X124238095Y-150180952D01*
X123666666Y-150752380D01*
X124285714Y-150752380D01*
D11*
%TO.C,R8*%
X102716666Y-157126190D02*
X102550000Y-156888095D01*
X102430952Y-157126190D02*
X102430952Y-156626190D01*
X102621428Y-156626190D01*
X102669047Y-156650000D01*
X102692857Y-156673809D01*
X102716666Y-156721428D01*
X102716666Y-156792857D01*
X102692857Y-156840476D01*
X102669047Y-156864285D01*
X102621428Y-156888095D01*
X102430952Y-156888095D01*
X103002380Y-156840476D02*
X102954761Y-156816666D01*
X102930952Y-156792857D01*
X102907142Y-156745238D01*
X102907142Y-156721428D01*
X102930952Y-156673809D01*
X102954761Y-156650000D01*
X103002380Y-156626190D01*
X103097619Y-156626190D01*
X103145238Y-156650000D01*
X103169047Y-156673809D01*
X103192857Y-156721428D01*
X103192857Y-156745238D01*
X103169047Y-156792857D01*
X103145238Y-156816666D01*
X103097619Y-156840476D01*
X103002380Y-156840476D01*
X102954761Y-156864285D01*
X102930952Y-156888095D01*
X102907142Y-156935714D01*
X102907142Y-157030952D01*
X102930952Y-157078571D01*
X102954761Y-157102380D01*
X103002380Y-157126190D01*
X103097619Y-157126190D01*
X103145238Y-157102380D01*
X103169047Y-157078571D01*
X103192857Y-157030952D01*
X103192857Y-156935714D01*
X103169047Y-156888095D01*
X103145238Y-156864285D01*
X103097619Y-156840476D01*
D10*
%TO.C,R17*%
X88857142Y-145552380D02*
X88523809Y-145076190D01*
X88285714Y-145552380D02*
X88285714Y-144552380D01*
X88666666Y-144552380D01*
X88761904Y-144600000D01*
X88809523Y-144647619D01*
X88857142Y-144742857D01*
X88857142Y-144885714D01*
X88809523Y-144980952D01*
X88761904Y-145028571D01*
X88666666Y-145076190D01*
X88285714Y-145076190D01*
X89809523Y-145552380D02*
X89238095Y-145552380D01*
X89523809Y-145552380D02*
X89523809Y-144552380D01*
X89428571Y-144695238D01*
X89333333Y-144790476D01*
X89238095Y-144838095D01*
X90142857Y-144552380D02*
X90809523Y-144552380D01*
X90380952Y-145552380D01*
%TO.C,C3*%
X107233333Y-144557142D02*
X107185714Y-144604761D01*
X107042857Y-144652380D01*
X106947619Y-144652380D01*
X106804761Y-144604761D01*
X106709523Y-144509523D01*
X106661904Y-144414285D01*
X106614285Y-144223809D01*
X106614285Y-144080952D01*
X106661904Y-143890476D01*
X106709523Y-143795238D01*
X106804761Y-143700000D01*
X106947619Y-143652380D01*
X107042857Y-143652380D01*
X107185714Y-143700000D01*
X107233333Y-143747619D01*
X107566666Y-143652380D02*
X108185714Y-143652380D01*
X107852380Y-144033333D01*
X107995238Y-144033333D01*
X108090476Y-144080952D01*
X108138095Y-144128571D01*
X108185714Y-144223809D01*
X108185714Y-144461904D01*
X108138095Y-144557142D01*
X108090476Y-144604761D01*
X107995238Y-144652380D01*
X107709523Y-144652380D01*
X107614285Y-144604761D01*
X107566666Y-144557142D01*
%TO.C,R2*%
X91233333Y-151152380D02*
X90900000Y-150676190D01*
X90661904Y-151152380D02*
X90661904Y-150152380D01*
X91042857Y-150152380D01*
X91138095Y-150200000D01*
X91185714Y-150247619D01*
X91233333Y-150342857D01*
X91233333Y-150485714D01*
X91185714Y-150580952D01*
X91138095Y-150628571D01*
X91042857Y-150676190D01*
X90661904Y-150676190D01*
X91614285Y-150247619D02*
X91661904Y-150200000D01*
X91757142Y-150152380D01*
X91995238Y-150152380D01*
X92090476Y-150200000D01*
X92138095Y-150247619D01*
X92185714Y-150342857D01*
X92185714Y-150438095D01*
X92138095Y-150580952D01*
X91566666Y-151152380D01*
X92185714Y-151152380D01*
%TO.C,L1*%
X95933333Y-151352380D02*
X95457142Y-151352380D01*
X95457142Y-150352380D01*
X96790476Y-151352380D02*
X96219047Y-151352380D01*
X96504761Y-151352380D02*
X96504761Y-150352380D01*
X96409523Y-150495238D01*
X96314285Y-150590476D01*
X96219047Y-150638095D01*
%TO.C,SW1*%
X120966666Y-141804761D02*
X121109523Y-141852380D01*
X121347619Y-141852380D01*
X121442857Y-141804761D01*
X121490476Y-141757142D01*
X121538095Y-141661904D01*
X121538095Y-141566666D01*
X121490476Y-141471428D01*
X121442857Y-141423809D01*
X121347619Y-141376190D01*
X121157142Y-141328571D01*
X121061904Y-141280952D01*
X121014285Y-141233333D01*
X120966666Y-141138095D01*
X120966666Y-141042857D01*
X121014285Y-140947619D01*
X121061904Y-140900000D01*
X121157142Y-140852380D01*
X121395238Y-140852380D01*
X121538095Y-140900000D01*
X121871428Y-140852380D02*
X122109523Y-141852380D01*
X122300000Y-141138095D01*
X122490476Y-141852380D01*
X122728571Y-140852380D01*
X123633333Y-141852380D02*
X123061904Y-141852380D01*
X123347619Y-141852380D02*
X123347619Y-140852380D01*
X123252380Y-140995238D01*
X123157142Y-141090476D01*
X123061904Y-141138095D01*
D11*
%TO.C,C8*%
X103216666Y-154978571D02*
X103192857Y-155002380D01*
X103121428Y-155026190D01*
X103073809Y-155026190D01*
X103002380Y-155002380D01*
X102954761Y-154954761D01*
X102930952Y-154907142D01*
X102907142Y-154811904D01*
X102907142Y-154740476D01*
X102930952Y-154645238D01*
X102954761Y-154597619D01*
X103002380Y-154550000D01*
X103073809Y-154526190D01*
X103121428Y-154526190D01*
X103192857Y-154550000D01*
X103216666Y-154573809D01*
X103502380Y-154740476D02*
X103454761Y-154716666D01*
X103430952Y-154692857D01*
X103407142Y-154645238D01*
X103407142Y-154621428D01*
X103430952Y-154573809D01*
X103454761Y-154550000D01*
X103502380Y-154526190D01*
X103597619Y-154526190D01*
X103645238Y-154550000D01*
X103669047Y-154573809D01*
X103692857Y-154621428D01*
X103692857Y-154645238D01*
X103669047Y-154692857D01*
X103645238Y-154716666D01*
X103597619Y-154740476D01*
X103502380Y-154740476D01*
X103454761Y-154764285D01*
X103430952Y-154788095D01*
X103407142Y-154835714D01*
X103407142Y-154930952D01*
X103430952Y-154978571D01*
X103454761Y-155002380D01*
X103502380Y-155026190D01*
X103597619Y-155026190D01*
X103645238Y-155002380D01*
X103669047Y-154978571D01*
X103692857Y-154930952D01*
X103692857Y-154835714D01*
X103669047Y-154788095D01*
X103645238Y-154764285D01*
X103597619Y-154740476D01*
%TO.C,C5*%
X114116666Y-155378571D02*
X114092857Y-155402380D01*
X114021428Y-155426190D01*
X113973809Y-155426190D01*
X113902380Y-155402380D01*
X113854761Y-155354761D01*
X113830952Y-155307142D01*
X113807142Y-155211904D01*
X113807142Y-155140476D01*
X113830952Y-155045238D01*
X113854761Y-154997619D01*
X113902380Y-154950000D01*
X113973809Y-154926190D01*
X114021428Y-154926190D01*
X114092857Y-154950000D01*
X114116666Y-154973809D01*
X114569047Y-154926190D02*
X114330952Y-154926190D01*
X114307142Y-155164285D01*
X114330952Y-155140476D01*
X114378571Y-155116666D01*
X114497619Y-155116666D01*
X114545238Y-155140476D01*
X114569047Y-155164285D01*
X114592857Y-155211904D01*
X114592857Y-155330952D01*
X114569047Y-155378571D01*
X114545238Y-155402380D01*
X114497619Y-155426190D01*
X114378571Y-155426190D01*
X114330952Y-155402380D01*
X114307142Y-155378571D01*
D10*
%TO.C,C13*%
X90057142Y-152142857D02*
X90104761Y-152190476D01*
X90152380Y-152333333D01*
X90152380Y-152428571D01*
X90104761Y-152571428D01*
X90009523Y-152666666D01*
X89914285Y-152714285D01*
X89723809Y-152761904D01*
X89580952Y-152761904D01*
X89390476Y-152714285D01*
X89295238Y-152666666D01*
X89200000Y-152571428D01*
X89152380Y-152428571D01*
X89152380Y-152333333D01*
X89200000Y-152190476D01*
X89247619Y-152142857D01*
X90152380Y-151190476D02*
X90152380Y-151761904D01*
X90152380Y-151476190D02*
X89152380Y-151476190D01*
X89295238Y-151571428D01*
X89390476Y-151666666D01*
X89438095Y-151761904D01*
X89152380Y-150857142D02*
X89152380Y-150238095D01*
X89533333Y-150571428D01*
X89533333Y-150428571D01*
X89580952Y-150333333D01*
X89628571Y-150285714D01*
X89723809Y-150238095D01*
X89961904Y-150238095D01*
X90057142Y-150285714D01*
X90104761Y-150333333D01*
X90152380Y-150428571D01*
X90152380Y-150714285D01*
X90104761Y-150809523D01*
X90057142Y-150857142D01*
%TO.C,C6*%
X110533333Y-160557142D02*
X110485714Y-160604761D01*
X110342857Y-160652380D01*
X110247619Y-160652380D01*
X110104761Y-160604761D01*
X110009523Y-160509523D01*
X109961904Y-160414285D01*
X109914285Y-160223809D01*
X109914285Y-160080952D01*
X109961904Y-159890476D01*
X110009523Y-159795238D01*
X110104761Y-159700000D01*
X110247619Y-159652380D01*
X110342857Y-159652380D01*
X110485714Y-159700000D01*
X110533333Y-159747619D01*
X111390476Y-159652380D02*
X111200000Y-159652380D01*
X111104761Y-159700000D01*
X111057142Y-159747619D01*
X110961904Y-159890476D01*
X110914285Y-160080952D01*
X110914285Y-160461904D01*
X110961904Y-160557142D01*
X111009523Y-160604761D01*
X111104761Y-160652380D01*
X111295238Y-160652380D01*
X111390476Y-160604761D01*
X111438095Y-160557142D01*
X111485714Y-160461904D01*
X111485714Y-160223809D01*
X111438095Y-160128571D01*
X111390476Y-160080952D01*
X111295238Y-160033333D01*
X111104761Y-160033333D01*
X111009523Y-160080952D01*
X110961904Y-160128571D01*
X110914285Y-160223809D01*
%TO.C,D5*%
X95752380Y-157538095D02*
X94752380Y-157538095D01*
X94752380Y-157300000D01*
X94800000Y-157157142D01*
X94895238Y-157061904D01*
X94990476Y-157014285D01*
X95180952Y-156966666D01*
X95323809Y-156966666D01*
X95514285Y-157014285D01*
X95609523Y-157061904D01*
X95704761Y-157157142D01*
X95752380Y-157300000D01*
X95752380Y-157538095D01*
X94752380Y-156061904D02*
X94752380Y-156538095D01*
X95228571Y-156585714D01*
X95180952Y-156538095D01*
X95133333Y-156442857D01*
X95133333Y-156204761D01*
X95180952Y-156109523D01*
X95228571Y-156061904D01*
X95323809Y-156014285D01*
X95561904Y-156014285D01*
X95657142Y-156061904D01*
X95704761Y-156109523D01*
X95752380Y-156204761D01*
X95752380Y-156442857D01*
X95704761Y-156538095D01*
X95657142Y-156585714D01*
%TO.C,D3*%
X122761904Y-151952380D02*
X122761904Y-150952380D01*
X123000000Y-150952380D01*
X123142857Y-151000000D01*
X123238095Y-151095238D01*
X123285714Y-151190476D01*
X123333333Y-151380952D01*
X123333333Y-151523809D01*
X123285714Y-151714285D01*
X123238095Y-151809523D01*
X123142857Y-151904761D01*
X123000000Y-151952380D01*
X122761904Y-151952380D01*
X123666666Y-150952380D02*
X124285714Y-150952380D01*
X123952380Y-151333333D01*
X124095238Y-151333333D01*
X124190476Y-151380952D01*
X124238095Y-151428571D01*
X124285714Y-151523809D01*
X124285714Y-151761904D01*
X124238095Y-151857142D01*
X124190476Y-151904761D01*
X124095238Y-151952380D01*
X123809523Y-151952380D01*
X123714285Y-151904761D01*
X123666666Y-151857142D01*
D11*
%TO.C,R13*%
X114878571Y-145026190D02*
X114711904Y-144788095D01*
X114592857Y-145026190D02*
X114592857Y-144526190D01*
X114783333Y-144526190D01*
X114830952Y-144550000D01*
X114854761Y-144573809D01*
X114878571Y-144621428D01*
X114878571Y-144692857D01*
X114854761Y-144740476D01*
X114830952Y-144764285D01*
X114783333Y-144788095D01*
X114592857Y-144788095D01*
X115354761Y-145026190D02*
X115069047Y-145026190D01*
X115211904Y-145026190D02*
X115211904Y-144526190D01*
X115164285Y-144597619D01*
X115116666Y-144645238D01*
X115069047Y-144669047D01*
X115521428Y-144526190D02*
X115830952Y-144526190D01*
X115664285Y-144716666D01*
X115735714Y-144716666D01*
X115783333Y-144740476D01*
X115807142Y-144764285D01*
X115830952Y-144811904D01*
X115830952Y-144930952D01*
X115807142Y-144978571D01*
X115783333Y-145002380D01*
X115735714Y-145026190D01*
X115592857Y-145026190D01*
X115545238Y-145002380D01*
X115521428Y-144978571D01*
%TO.C,U3*%
X111619047Y-157026190D02*
X111619047Y-157430952D01*
X111642857Y-157478571D01*
X111666666Y-157502380D01*
X111714285Y-157526190D01*
X111809523Y-157526190D01*
X111857142Y-157502380D01*
X111880952Y-157478571D01*
X111904761Y-157430952D01*
X111904761Y-157026190D01*
X112095238Y-157026190D02*
X112404761Y-157026190D01*
X112238095Y-157216666D01*
X112309523Y-157216666D01*
X112357142Y-157240476D01*
X112380952Y-157264285D01*
X112404761Y-157311904D01*
X112404761Y-157430952D01*
X112380952Y-157478571D01*
X112357142Y-157502380D01*
X112309523Y-157526190D01*
X112166666Y-157526190D01*
X112119047Y-157502380D01*
X112095238Y-157478571D01*
D10*
%TO.C,U2*%
X87838095Y-133552380D02*
X87838095Y-134361904D01*
X87885714Y-134457142D01*
X87933333Y-134504761D01*
X88028571Y-134552380D01*
X88219047Y-134552380D01*
X88314285Y-134504761D01*
X88361904Y-134457142D01*
X88409523Y-134361904D01*
X88409523Y-133552380D01*
X88838095Y-133647619D02*
X88885714Y-133600000D01*
X88980952Y-133552380D01*
X89219047Y-133552380D01*
X89314285Y-133600000D01*
X89361904Y-133647619D01*
X89409523Y-133742857D01*
X89409523Y-133838095D01*
X89361904Y-133980952D01*
X88790476Y-134552380D01*
X89409523Y-134552380D01*
D11*
%TO.C,C9*%
X106616666Y-155278571D02*
X106592857Y-155302380D01*
X106521428Y-155326190D01*
X106473809Y-155326190D01*
X106402380Y-155302380D01*
X106354761Y-155254761D01*
X106330952Y-155207142D01*
X106307142Y-155111904D01*
X106307142Y-155040476D01*
X106330952Y-154945238D01*
X106354761Y-154897619D01*
X106402380Y-154850000D01*
X106473809Y-154826190D01*
X106521428Y-154826190D01*
X106592857Y-154850000D01*
X106616666Y-154873809D01*
X106854761Y-155326190D02*
X106950000Y-155326190D01*
X106997619Y-155302380D01*
X107021428Y-155278571D01*
X107069047Y-155207142D01*
X107092857Y-155111904D01*
X107092857Y-154921428D01*
X107069047Y-154873809D01*
X107045238Y-154850000D01*
X106997619Y-154826190D01*
X106902380Y-154826190D01*
X106854761Y-154850000D01*
X106830952Y-154873809D01*
X106807142Y-154921428D01*
X106807142Y-155040476D01*
X106830952Y-155088095D01*
X106854761Y-155111904D01*
X106902380Y-155135714D01*
X106997619Y-155135714D01*
X107045238Y-155111904D01*
X107069047Y-155088095D01*
X107092857Y-155040476D01*
D10*
%TO.C,R16*%
X88957142Y-147352380D02*
X88623809Y-146876190D01*
X88385714Y-147352380D02*
X88385714Y-146352380D01*
X88766666Y-146352380D01*
X88861904Y-146400000D01*
X88909523Y-146447619D01*
X88957142Y-146542857D01*
X88957142Y-146685714D01*
X88909523Y-146780952D01*
X88861904Y-146828571D01*
X88766666Y-146876190D01*
X88385714Y-146876190D01*
X89909523Y-147352380D02*
X89338095Y-147352380D01*
X89623809Y-147352380D02*
X89623809Y-146352380D01*
X89528571Y-146495238D01*
X89433333Y-146590476D01*
X89338095Y-146638095D01*
X90766666Y-146352380D02*
X90576190Y-146352380D01*
X90480952Y-146400000D01*
X90433333Y-146447619D01*
X90338095Y-146590476D01*
X90290476Y-146780952D01*
X90290476Y-147161904D01*
X90338095Y-147257142D01*
X90385714Y-147304761D01*
X90480952Y-147352380D01*
X90671428Y-147352380D01*
X90766666Y-147304761D01*
X90814285Y-147257142D01*
X90861904Y-147161904D01*
X90861904Y-146923809D01*
X90814285Y-146828571D01*
X90766666Y-146780952D01*
X90671428Y-146733333D01*
X90480952Y-146733333D01*
X90385714Y-146780952D01*
X90338095Y-146828571D01*
X90290476Y-146923809D01*
D11*
%TO.C,R7*%
X103416666Y-159526190D02*
X103250000Y-159288095D01*
X103130952Y-159526190D02*
X103130952Y-159026190D01*
X103321428Y-159026190D01*
X103369047Y-159050000D01*
X103392857Y-159073809D01*
X103416666Y-159121428D01*
X103416666Y-159192857D01*
X103392857Y-159240476D01*
X103369047Y-159264285D01*
X103321428Y-159288095D01*
X103130952Y-159288095D01*
X103583333Y-159026190D02*
X103916666Y-159026190D01*
X103702380Y-159526190D01*
D10*
%TO.C,J1*%
X120466666Y-154852380D02*
X120466666Y-155566666D01*
X120419047Y-155709523D01*
X120323809Y-155804761D01*
X120180952Y-155852380D01*
X120085714Y-155852380D01*
X121466666Y-155852380D02*
X120895238Y-155852380D01*
X121180952Y-155852380D02*
X121180952Y-154852380D01*
X121085714Y-154995238D01*
X120990476Y-155090476D01*
X120895238Y-155138095D01*
D11*
%TO.C,R6*%
X98016666Y-159876190D02*
X97850000Y-159638095D01*
X97730952Y-159876190D02*
X97730952Y-159376190D01*
X97921428Y-159376190D01*
X97969047Y-159400000D01*
X97992857Y-159423809D01*
X98016666Y-159471428D01*
X98016666Y-159542857D01*
X97992857Y-159590476D01*
X97969047Y-159614285D01*
X97921428Y-159638095D01*
X97730952Y-159638095D01*
X98445238Y-159376190D02*
X98350000Y-159376190D01*
X98302380Y-159400000D01*
X98278571Y-159423809D01*
X98230952Y-159495238D01*
X98207142Y-159590476D01*
X98207142Y-159780952D01*
X98230952Y-159828571D01*
X98254761Y-159852380D01*
X98302380Y-159876190D01*
X98397619Y-159876190D01*
X98445238Y-159852380D01*
X98469047Y-159828571D01*
X98492857Y-159780952D01*
X98492857Y-159661904D01*
X98469047Y-159614285D01*
X98445238Y-159590476D01*
X98397619Y-159566666D01*
X98302380Y-159566666D01*
X98254761Y-159590476D01*
X98230952Y-159614285D01*
X98207142Y-159661904D01*
D10*
%TO.C,R24*%
X127552380Y-146542857D02*
X127076190Y-146876190D01*
X127552380Y-147114285D02*
X126552380Y-147114285D01*
X126552380Y-146733333D01*
X126600000Y-146638095D01*
X126647619Y-146590476D01*
X126742857Y-146542857D01*
X126885714Y-146542857D01*
X126980952Y-146590476D01*
X127028571Y-146638095D01*
X127076190Y-146733333D01*
X127076190Y-147114285D01*
X126647619Y-146161904D02*
X126600000Y-146114285D01*
X126552380Y-146019047D01*
X126552380Y-145780952D01*
X126600000Y-145685714D01*
X126647619Y-145638095D01*
X126742857Y-145590476D01*
X126838095Y-145590476D01*
X126980952Y-145638095D01*
X127552380Y-146209523D01*
X127552380Y-145590476D01*
X126885714Y-144733333D02*
X127552380Y-144733333D01*
X126504761Y-144971428D02*
X127219047Y-145209523D01*
X127219047Y-144590476D01*
%TO.C,R14*%
X109557142Y-146252380D02*
X109223809Y-145776190D01*
X108985714Y-146252380D02*
X108985714Y-145252380D01*
X109366666Y-145252380D01*
X109461904Y-145300000D01*
X109509523Y-145347619D01*
X109557142Y-145442857D01*
X109557142Y-145585714D01*
X109509523Y-145680952D01*
X109461904Y-145728571D01*
X109366666Y-145776190D01*
X108985714Y-145776190D01*
X110509523Y-146252380D02*
X109938095Y-146252380D01*
X110223809Y-146252380D02*
X110223809Y-145252380D01*
X110128571Y-145395238D01*
X110033333Y-145490476D01*
X109938095Y-145538095D01*
X111366666Y-145585714D02*
X111366666Y-146252380D01*
X111128571Y-145204761D02*
X110890476Y-145919047D01*
X111509523Y-145919047D01*
%TO.C,J3*%
X75366666Y-154752380D02*
X75366666Y-155466666D01*
X75319047Y-155609523D01*
X75223809Y-155704761D01*
X75080952Y-155752380D01*
X74985714Y-155752380D01*
X75747619Y-154752380D02*
X76366666Y-154752380D01*
X76033333Y-155133333D01*
X76176190Y-155133333D01*
X76271428Y-155180952D01*
X76319047Y-155228571D01*
X76366666Y-155323809D01*
X76366666Y-155561904D01*
X76319047Y-155657142D01*
X76271428Y-155704761D01*
X76176190Y-155752380D01*
X75890476Y-155752380D01*
X75795238Y-155704761D01*
X75747619Y-155657142D01*
%TO.C,C1*%
X97933333Y-151057142D02*
X97885714Y-151104761D01*
X97742857Y-151152380D01*
X97647619Y-151152380D01*
X97504761Y-151104761D01*
X97409523Y-151009523D01*
X97361904Y-150914285D01*
X97314285Y-150723809D01*
X97314285Y-150580952D01*
X97361904Y-150390476D01*
X97409523Y-150295238D01*
X97504761Y-150200000D01*
X97647619Y-150152380D01*
X97742857Y-150152380D01*
X97885714Y-150200000D01*
X97933333Y-150247619D01*
X98885714Y-151152380D02*
X98314285Y-151152380D01*
X98600000Y-151152380D02*
X98600000Y-150152380D01*
X98504761Y-150295238D01*
X98409523Y-150390476D01*
X98314285Y-150438095D01*
%TO.C,U4*%
X112338095Y-146952380D02*
X112338095Y-147761904D01*
X112385714Y-147857142D01*
X112433333Y-147904761D01*
X112528571Y-147952380D01*
X112719047Y-147952380D01*
X112814285Y-147904761D01*
X112861904Y-147857142D01*
X112909523Y-147761904D01*
X112909523Y-146952380D01*
X113814285Y-147285714D02*
X113814285Y-147952380D01*
X113576190Y-146904761D02*
X113338095Y-147619047D01*
X113957142Y-147619047D01*
%TO.C,R23*%
X79952380Y-149042857D02*
X79476190Y-149376190D01*
X79952380Y-149614285D02*
X78952380Y-149614285D01*
X78952380Y-149233333D01*
X79000000Y-149138095D01*
X79047619Y-149090476D01*
X79142857Y-149042857D01*
X79285714Y-149042857D01*
X79380952Y-149090476D01*
X79428571Y-149138095D01*
X79476190Y-149233333D01*
X79476190Y-149614285D01*
X79047619Y-148661904D02*
X79000000Y-148614285D01*
X78952380Y-148519047D01*
X78952380Y-148280952D01*
X79000000Y-148185714D01*
X79047619Y-148138095D01*
X79142857Y-148090476D01*
X79238095Y-148090476D01*
X79380952Y-148138095D01*
X79952380Y-148709523D01*
X79952380Y-148090476D01*
X78952380Y-147757142D02*
X78952380Y-147138095D01*
X79333333Y-147471428D01*
X79333333Y-147328571D01*
X79380952Y-147233333D01*
X79428571Y-147185714D01*
X79523809Y-147138095D01*
X79761904Y-147138095D01*
X79857142Y-147185714D01*
X79904761Y-147233333D01*
X79952380Y-147328571D01*
X79952380Y-147614285D01*
X79904761Y-147709523D01*
X79857142Y-147757142D01*
D11*
%TO.C,R12*%
X118078571Y-151526190D02*
X117911904Y-151288095D01*
X117792857Y-151526190D02*
X117792857Y-151026190D01*
X117983333Y-151026190D01*
X118030952Y-151050000D01*
X118054761Y-151073809D01*
X118078571Y-151121428D01*
X118078571Y-151192857D01*
X118054761Y-151240476D01*
X118030952Y-151264285D01*
X117983333Y-151288095D01*
X117792857Y-151288095D01*
X118554761Y-151526190D02*
X118269047Y-151526190D01*
X118411904Y-151526190D02*
X118411904Y-151026190D01*
X118364285Y-151097619D01*
X118316666Y-151145238D01*
X118269047Y-151169047D01*
X118745238Y-151073809D02*
X118769047Y-151050000D01*
X118816666Y-151026190D01*
X118935714Y-151026190D01*
X118983333Y-151050000D01*
X119007142Y-151073809D01*
X119030952Y-151121428D01*
X119030952Y-151169047D01*
X119007142Y-151240476D01*
X118721428Y-151526190D01*
X119030952Y-151526190D01*
%TO.C,R11*%
X118078571Y-150126190D02*
X117911904Y-149888095D01*
X117792857Y-150126190D02*
X117792857Y-149626190D01*
X117983333Y-149626190D01*
X118030952Y-149650000D01*
X118054761Y-149673809D01*
X118078571Y-149721428D01*
X118078571Y-149792857D01*
X118054761Y-149840476D01*
X118030952Y-149864285D01*
X117983333Y-149888095D01*
X117792857Y-149888095D01*
X118554761Y-150126190D02*
X118269047Y-150126190D01*
X118411904Y-150126190D02*
X118411904Y-149626190D01*
X118364285Y-149697619D01*
X118316666Y-149745238D01*
X118269047Y-149769047D01*
X119030952Y-150126190D02*
X118745238Y-150126190D01*
X118888095Y-150126190D02*
X118888095Y-149626190D01*
X118840476Y-149697619D01*
X118792857Y-149745238D01*
X118745238Y-149769047D01*
%TO.C,R10*%
X111726190Y-153021428D02*
X111488095Y-153188095D01*
X111726190Y-153307142D02*
X111226190Y-153307142D01*
X111226190Y-153116666D01*
X111250000Y-153069047D01*
X111273809Y-153045238D01*
X111321428Y-153021428D01*
X111392857Y-153021428D01*
X111440476Y-153045238D01*
X111464285Y-153069047D01*
X111488095Y-153116666D01*
X111488095Y-153307142D01*
X111726190Y-152545238D02*
X111726190Y-152830952D01*
X111726190Y-152688095D02*
X111226190Y-152688095D01*
X111297619Y-152735714D01*
X111345238Y-152783333D01*
X111369047Y-152830952D01*
X111226190Y-152235714D02*
X111226190Y-152188095D01*
X111250000Y-152140476D01*
X111273809Y-152116666D01*
X111321428Y-152092857D01*
X111416666Y-152069047D01*
X111535714Y-152069047D01*
X111630952Y-152092857D01*
X111678571Y-152116666D01*
X111702380Y-152140476D01*
X111726190Y-152188095D01*
X111726190Y-152235714D01*
X111702380Y-152283333D01*
X111678571Y-152307142D01*
X111630952Y-152330952D01*
X111535714Y-152354761D01*
X111416666Y-152354761D01*
X111321428Y-152330952D01*
X111273809Y-152307142D01*
X111250000Y-152283333D01*
X111226190Y-152235714D01*
D10*
%TO.C,R1*%
X91652380Y-149066666D02*
X91176190Y-149400000D01*
X91652380Y-149638095D02*
X90652380Y-149638095D01*
X90652380Y-149257142D01*
X90700000Y-149161904D01*
X90747619Y-149114285D01*
X90842857Y-149066666D01*
X90985714Y-149066666D01*
X91080952Y-149114285D01*
X91128571Y-149161904D01*
X91176190Y-149257142D01*
X91176190Y-149638095D01*
X91652380Y-148114285D02*
X91652380Y-148685714D01*
X91652380Y-148400000D02*
X90652380Y-148400000D01*
X90795238Y-148495238D01*
X90890476Y-148590476D01*
X90938095Y-148685714D01*
%TO.C,U1*%
X90602380Y-143211904D02*
X91411904Y-143211904D01*
X91507142Y-143164285D01*
X91554761Y-143116666D01*
X91602380Y-143021428D01*
X91602380Y-142830952D01*
X91554761Y-142735714D01*
X91507142Y-142688095D01*
X91411904Y-142640476D01*
X90602380Y-142640476D01*
X91602380Y-141640476D02*
X91602380Y-142211904D01*
X91602380Y-141926190D02*
X90602380Y-141926190D01*
X90745238Y-142021428D01*
X90840476Y-142116666D01*
X90888095Y-142211904D01*
%TO.C,R22*%
X75752380Y-149067857D02*
X75276190Y-149401190D01*
X75752380Y-149639285D02*
X74752380Y-149639285D01*
X74752380Y-149258333D01*
X74800000Y-149163095D01*
X74847619Y-149115476D01*
X74942857Y-149067857D01*
X75085714Y-149067857D01*
X75180952Y-149115476D01*
X75228571Y-149163095D01*
X75276190Y-149258333D01*
X75276190Y-149639285D01*
X74847619Y-148686904D02*
X74800000Y-148639285D01*
X74752380Y-148544047D01*
X74752380Y-148305952D01*
X74800000Y-148210714D01*
X74847619Y-148163095D01*
X74942857Y-148115476D01*
X75038095Y-148115476D01*
X75180952Y-148163095D01*
X75752380Y-148734523D01*
X75752380Y-148115476D01*
X74847619Y-147734523D02*
X74800000Y-147686904D01*
X74752380Y-147591666D01*
X74752380Y-147353571D01*
X74800000Y-147258333D01*
X74847619Y-147210714D01*
X74942857Y-147163095D01*
X75038095Y-147163095D01*
X75180952Y-147210714D01*
X75752380Y-147782142D01*
X75752380Y-147163095D01*
%TO.C,D4*%
X97361904Y-155352380D02*
X97361904Y-154352380D01*
X97600000Y-154352380D01*
X97742857Y-154400000D01*
X97838095Y-154495238D01*
X97885714Y-154590476D01*
X97933333Y-154780952D01*
X97933333Y-154923809D01*
X97885714Y-155114285D01*
X97838095Y-155209523D01*
X97742857Y-155304761D01*
X97600000Y-155352380D01*
X97361904Y-155352380D01*
X98790476Y-154685714D02*
X98790476Y-155352380D01*
X98552380Y-154304761D02*
X98314285Y-155019047D01*
X98933333Y-155019047D01*
%TO.C,Q4*%
X82504761Y-134247619D02*
X82409523Y-134200000D01*
X82314285Y-134104761D01*
X82171428Y-133961904D01*
X82076190Y-133914285D01*
X81980952Y-133914285D01*
X82028571Y-134152380D02*
X81933333Y-134104761D01*
X81838095Y-134009523D01*
X81790476Y-133819047D01*
X81790476Y-133485714D01*
X81838095Y-133295238D01*
X81933333Y-133200000D01*
X82028571Y-133152380D01*
X82219047Y-133152380D01*
X82314285Y-133200000D01*
X82409523Y-133295238D01*
X82457142Y-133485714D01*
X82457142Y-133819047D01*
X82409523Y-134009523D01*
X82314285Y-134104761D01*
X82219047Y-134152380D01*
X82028571Y-134152380D01*
X83314285Y-133485714D02*
X83314285Y-134152380D01*
X83076190Y-133104761D02*
X82838095Y-133819047D01*
X83457142Y-133819047D01*
%TO.C,U6*%
X103838095Y-134952380D02*
X103838095Y-135761904D01*
X103885714Y-135857142D01*
X103933333Y-135904761D01*
X104028571Y-135952380D01*
X104219047Y-135952380D01*
X104314285Y-135904761D01*
X104361904Y-135857142D01*
X104409523Y-135761904D01*
X104409523Y-134952380D01*
X105314285Y-134952380D02*
X105123809Y-134952380D01*
X105028571Y-135000000D01*
X104980952Y-135047619D01*
X104885714Y-135190476D01*
X104838095Y-135380952D01*
X104838095Y-135761904D01*
X104885714Y-135857142D01*
X104933333Y-135904761D01*
X105028571Y-135952380D01*
X105219047Y-135952380D01*
X105314285Y-135904761D01*
X105361904Y-135857142D01*
X105409523Y-135761904D01*
X105409523Y-135523809D01*
X105361904Y-135428571D01*
X105314285Y-135380952D01*
X105219047Y-135333333D01*
X105028571Y-135333333D01*
X104933333Y-135380952D01*
X104885714Y-135428571D01*
X104838095Y-135523809D01*
%TO.C,R3*%
X101533333Y-148252380D02*
X101200000Y-147776190D01*
X100961904Y-148252380D02*
X100961904Y-147252380D01*
X101342857Y-147252380D01*
X101438095Y-147300000D01*
X101485714Y-147347619D01*
X101533333Y-147442857D01*
X101533333Y-147585714D01*
X101485714Y-147680952D01*
X101438095Y-147728571D01*
X101342857Y-147776190D01*
X100961904Y-147776190D01*
X101866666Y-147252380D02*
X102485714Y-147252380D01*
X102152380Y-147633333D01*
X102295238Y-147633333D01*
X102390476Y-147680952D01*
X102438095Y-147728571D01*
X102485714Y-147823809D01*
X102485714Y-148061904D01*
X102438095Y-148157142D01*
X102390476Y-148204761D01*
X102295238Y-148252380D01*
X102009523Y-148252380D01*
X101914285Y-148204761D01*
X101866666Y-148157142D01*
%TO.C,U5*%
X99038095Y-148652380D02*
X99038095Y-149461904D01*
X99085714Y-149557142D01*
X99133333Y-149604761D01*
X99228571Y-149652380D01*
X99419047Y-149652380D01*
X99514285Y-149604761D01*
X99561904Y-149557142D01*
X99609523Y-149461904D01*
X99609523Y-148652380D01*
X100561904Y-148652380D02*
X100085714Y-148652380D01*
X100038095Y-149128571D01*
X100085714Y-149080952D01*
X100180952Y-149033333D01*
X100419047Y-149033333D01*
X100514285Y-149080952D01*
X100561904Y-149128571D01*
X100609523Y-149223809D01*
X100609523Y-149461904D01*
X100561904Y-149557142D01*
X100514285Y-149604761D01*
X100419047Y-149652380D01*
X100180952Y-149652380D01*
X100085714Y-149604761D01*
X100038095Y-149557142D01*
D11*
%TO.C,C7*%
X114216666Y-159518571D02*
X114192857Y-159542380D01*
X114121428Y-159566190D01*
X114073809Y-159566190D01*
X114002380Y-159542380D01*
X113954761Y-159494761D01*
X113930952Y-159447142D01*
X113907142Y-159351904D01*
X113907142Y-159280476D01*
X113930952Y-159185238D01*
X113954761Y-159137619D01*
X114002380Y-159090000D01*
X114073809Y-159066190D01*
X114121428Y-159066190D01*
X114192857Y-159090000D01*
X114216666Y-159113809D01*
X114383333Y-159066190D02*
X114716666Y-159066190D01*
X114502380Y-159566190D01*
D10*
%TO.C,D6*%
X124461904Y-150952380D02*
X124461904Y-149952380D01*
X124700000Y-149952380D01*
X124842857Y-150000000D01*
X124938095Y-150095238D01*
X124985714Y-150190476D01*
X125033333Y-150380952D01*
X125033333Y-150523809D01*
X124985714Y-150714285D01*
X124938095Y-150809523D01*
X124842857Y-150904761D01*
X124700000Y-150952380D01*
X124461904Y-150952380D01*
X125890476Y-149952380D02*
X125700000Y-149952380D01*
X125604761Y-150000000D01*
X125557142Y-150047619D01*
X125461904Y-150190476D01*
X125414285Y-150380952D01*
X125414285Y-150761904D01*
X125461904Y-150857142D01*
X125509523Y-150904761D01*
X125604761Y-150952380D01*
X125795238Y-150952380D01*
X125890476Y-150904761D01*
X125938095Y-150857142D01*
X125985714Y-150761904D01*
X125985714Y-150523809D01*
X125938095Y-150428571D01*
X125890476Y-150380952D01*
X125795238Y-150333333D01*
X125604761Y-150333333D01*
X125509523Y-150380952D01*
X125461904Y-150428571D01*
X125414285Y-150523809D01*
%TO.C,R9*%
X97933333Y-154152380D02*
X97600000Y-153676190D01*
X97361904Y-154152380D02*
X97361904Y-153152380D01*
X97742857Y-153152380D01*
X97838095Y-153200000D01*
X97885714Y-153247619D01*
X97933333Y-153342857D01*
X97933333Y-153485714D01*
X97885714Y-153580952D01*
X97838095Y-153628571D01*
X97742857Y-153676190D01*
X97361904Y-153676190D01*
X98409523Y-154152380D02*
X98600000Y-154152380D01*
X98695238Y-154104761D01*
X98742857Y-154057142D01*
X98838095Y-153914285D01*
X98885714Y-153723809D01*
X98885714Y-153342857D01*
X98838095Y-153247619D01*
X98790476Y-153200000D01*
X98695238Y-153152380D01*
X98504761Y-153152380D01*
X98409523Y-153200000D01*
X98361904Y-153247619D01*
X98314285Y-153342857D01*
X98314285Y-153580952D01*
X98361904Y-153676190D01*
X98409523Y-153723809D01*
X98504761Y-153771428D01*
X98695238Y-153771428D01*
X98790476Y-153723809D01*
X98838095Y-153676190D01*
X98885714Y-153580952D01*
D11*
%TO.C,R4*%
X106816666Y-148226190D02*
X106650000Y-147988095D01*
X106530952Y-148226190D02*
X106530952Y-147726190D01*
X106721428Y-147726190D01*
X106769047Y-147750000D01*
X106792857Y-147773809D01*
X106816666Y-147821428D01*
X106816666Y-147892857D01*
X106792857Y-147940476D01*
X106769047Y-147964285D01*
X106721428Y-147988095D01*
X106530952Y-147988095D01*
X107245238Y-147892857D02*
X107245238Y-148226190D01*
X107126190Y-147702380D02*
X107007142Y-148059523D01*
X107316666Y-148059523D01*
%TO.C,Q2*%
X105052380Y-157873809D02*
X105004761Y-157850000D01*
X104957142Y-157802380D01*
X104885714Y-157730952D01*
X104838095Y-157707142D01*
X104790476Y-157707142D01*
X104814285Y-157826190D02*
X104766666Y-157802380D01*
X104719047Y-157754761D01*
X104695238Y-157659523D01*
X104695238Y-157492857D01*
X104719047Y-157397619D01*
X104766666Y-157350000D01*
X104814285Y-157326190D01*
X104909523Y-157326190D01*
X104957142Y-157350000D01*
X105004761Y-157397619D01*
X105028571Y-157492857D01*
X105028571Y-157659523D01*
X105004761Y-157754761D01*
X104957142Y-157802380D01*
X104909523Y-157826190D01*
X104814285Y-157826190D01*
X105219047Y-157373809D02*
X105242857Y-157350000D01*
X105290476Y-157326190D01*
X105409523Y-157326190D01*
X105457142Y-157350000D01*
X105480952Y-157373809D01*
X105504761Y-157421428D01*
X105504761Y-157469047D01*
X105480952Y-157540476D01*
X105195238Y-157826190D01*
X105504761Y-157826190D01*
D10*
%TO.C,C12*%
X90057142Y-149442857D02*
X90104761Y-149490476D01*
X90152380Y-149633333D01*
X90152380Y-149728571D01*
X90104761Y-149871428D01*
X90009523Y-149966666D01*
X89914285Y-150014285D01*
X89723809Y-150061904D01*
X89580952Y-150061904D01*
X89390476Y-150014285D01*
X89295238Y-149966666D01*
X89200000Y-149871428D01*
X89152380Y-149728571D01*
X89152380Y-149633333D01*
X89200000Y-149490476D01*
X89247619Y-149442857D01*
X90152380Y-148490476D02*
X90152380Y-149061904D01*
X90152380Y-148776190D02*
X89152380Y-148776190D01*
X89295238Y-148871428D01*
X89390476Y-148966666D01*
X89438095Y-149061904D01*
X89247619Y-148109523D02*
X89200000Y-148061904D01*
X89152380Y-147966666D01*
X89152380Y-147728571D01*
X89200000Y-147633333D01*
X89247619Y-147585714D01*
X89342857Y-147538095D01*
X89438095Y-147538095D01*
X89580952Y-147585714D01*
X90152380Y-148157142D01*
X90152380Y-147538095D01*
%TO.C,Q1*%
X100004761Y-157647619D02*
X99909523Y-157600000D01*
X99814285Y-157504761D01*
X99671428Y-157361904D01*
X99576190Y-157314285D01*
X99480952Y-157314285D01*
X99528571Y-157552380D02*
X99433333Y-157504761D01*
X99338095Y-157409523D01*
X99290476Y-157219047D01*
X99290476Y-156885714D01*
X99338095Y-156695238D01*
X99433333Y-156600000D01*
X99528571Y-156552380D01*
X99719047Y-156552380D01*
X99814285Y-156600000D01*
X99909523Y-156695238D01*
X99957142Y-156885714D01*
X99957142Y-157219047D01*
X99909523Y-157409523D01*
X99814285Y-157504761D01*
X99719047Y-157552380D01*
X99528571Y-157552380D01*
X100909523Y-157552380D02*
X100338095Y-157552380D01*
X100623809Y-157552380D02*
X100623809Y-156552380D01*
X100528571Y-156695238D01*
X100433333Y-156790476D01*
X100338095Y-156838095D01*
D11*
%TO.C,C10*%
X104178571Y-151118571D02*
X104154761Y-151142380D01*
X104083333Y-151166190D01*
X104035714Y-151166190D01*
X103964285Y-151142380D01*
X103916666Y-151094761D01*
X103892857Y-151047142D01*
X103869047Y-150951904D01*
X103869047Y-150880476D01*
X103892857Y-150785238D01*
X103916666Y-150737619D01*
X103964285Y-150690000D01*
X104035714Y-150666190D01*
X104083333Y-150666190D01*
X104154761Y-150690000D01*
X104178571Y-150713809D01*
X104654761Y-151166190D02*
X104369047Y-151166190D01*
X104511904Y-151166190D02*
X104511904Y-150666190D01*
X104464285Y-150737619D01*
X104416666Y-150785238D01*
X104369047Y-150809047D01*
X104964285Y-150666190D02*
X105011904Y-150666190D01*
X105059523Y-150690000D01*
X105083333Y-150713809D01*
X105107142Y-150761428D01*
X105130952Y-150856666D01*
X105130952Y-150975714D01*
X105107142Y-151070952D01*
X105083333Y-151118571D01*
X105059523Y-151142380D01*
X105011904Y-151166190D01*
X104964285Y-151166190D01*
X104916666Y-151142380D01*
X104892857Y-151118571D01*
X104869047Y-151070952D01*
X104845238Y-150975714D01*
X104845238Y-150856666D01*
X104869047Y-150761428D01*
X104892857Y-150713809D01*
X104916666Y-150690000D01*
X104964285Y-150666190D01*
%TO.C,C11*%
X106478571Y-151688571D02*
X106454761Y-151712380D01*
X106383333Y-151736190D01*
X106335714Y-151736190D01*
X106264285Y-151712380D01*
X106216666Y-151664761D01*
X106192857Y-151617142D01*
X106169047Y-151521904D01*
X106169047Y-151450476D01*
X106192857Y-151355238D01*
X106216666Y-151307619D01*
X106264285Y-151260000D01*
X106335714Y-151236190D01*
X106383333Y-151236190D01*
X106454761Y-151260000D01*
X106478571Y-151283809D01*
X106954761Y-151736190D02*
X106669047Y-151736190D01*
X106811904Y-151736190D02*
X106811904Y-151236190D01*
X106764285Y-151307619D01*
X106716666Y-151355238D01*
X106669047Y-151379047D01*
X107430952Y-151736190D02*
X107145238Y-151736190D01*
X107288095Y-151736190D02*
X107288095Y-151236190D01*
X107240476Y-151307619D01*
X107192857Y-151355238D01*
X107145238Y-151379047D01*
%TO.C,R5*%
X111726190Y-154483333D02*
X111488095Y-154650000D01*
X111726190Y-154769047D02*
X111226190Y-154769047D01*
X111226190Y-154578571D01*
X111250000Y-154530952D01*
X111273809Y-154507142D01*
X111321428Y-154483333D01*
X111392857Y-154483333D01*
X111440476Y-154507142D01*
X111464285Y-154530952D01*
X111488095Y-154578571D01*
X111488095Y-154769047D01*
X111226190Y-154030952D02*
X111226190Y-154269047D01*
X111464285Y-154292857D01*
X111440476Y-154269047D01*
X111416666Y-154221428D01*
X111416666Y-154102380D01*
X111440476Y-154054761D01*
X111464285Y-154030952D01*
X111511904Y-154007142D01*
X111630952Y-154007142D01*
X111678571Y-154030952D01*
X111702380Y-154054761D01*
X111726190Y-154102380D01*
X111726190Y-154221428D01*
X111702380Y-154269047D01*
X111678571Y-154292857D01*
D12*
%TO.C,C2*%
X104340580Y-146610000D02*
X104059420Y-146610000D01*
X104340580Y-145590000D02*
X104059420Y-145590000D01*
%TO.C,R19*%
X111122500Y-134262742D02*
X111122500Y-134737258D01*
X110077500Y-134262742D02*
X110077500Y-134737258D01*
%TO.C,R21*%
X86037258Y-139077500D02*
X85562742Y-139077500D01*
X86037258Y-140122500D02*
X85562742Y-140122500D01*
%TO.C,C4*%
X109555000Y-153438748D02*
X109555000Y-153961252D01*
X108085000Y-153438748D02*
X108085000Y-153961252D01*
%TO.C,Q3*%
X86200000Y-143960000D02*
X87875000Y-143960000D01*
X86200000Y-140840000D02*
X85550000Y-140840000D01*
X86200000Y-140840000D02*
X86850000Y-140840000D01*
X86200000Y-143960000D02*
X85550000Y-143960000D01*
%TO.C,BZ1*%
X83970785Y-141300000D02*
G75*
G03*
X83970785Y-138300001I-6400010J1499999D01*
G01*
X83800785Y-139800000D02*
G75*
G03*
X83800785Y-139800000I-6230000J0D01*
G01*
%TO.C,R20*%
X85462742Y-138422500D02*
X85937258Y-138422500D01*
X85462742Y-137377500D02*
X85937258Y-137377500D01*
%TO.C,J4*%
X126060000Y-152860000D02*
X129060000Y-152860000D01*
X129060000Y-152860000D02*
X129060000Y-157600000D01*
X126060000Y-157600000D02*
X126060000Y-152860000D01*
X129060000Y-157600000D02*
X126060000Y-157600000D01*
X126060000Y-155230000D02*
X129060000Y-155230000D01*
%TO.C,R18*%
X107162742Y-137822500D02*
X107637258Y-137822500D01*
X107162742Y-136777500D02*
X107637258Y-136777500D01*
%TO.C,D1*%
X97170000Y-159170000D02*
X97170000Y-161020000D01*
X95970000Y-159170000D02*
X95970000Y-161020000D01*
X95970000Y-161020000D02*
X97170000Y-161020000D01*
%TO.C,D2*%
X129185000Y-149565000D02*
X126900000Y-149565000D01*
X129185000Y-151035000D02*
X129185000Y-149565000D01*
X126900000Y-151035000D02*
X129185000Y-151035000D01*
%TO.C,R8*%
X103027258Y-156397500D02*
X102552742Y-156397500D01*
X103027258Y-157442500D02*
X102552742Y-157442500D01*
%TO.C,R17*%
X85562742Y-145522500D02*
X86037258Y-145522500D01*
X85562742Y-144477500D02*
X86037258Y-144477500D01*
%TO.C,C3*%
X107440580Y-146110000D02*
X107159420Y-146110000D01*
X107440580Y-145090000D02*
X107159420Y-145090000D01*
%TO.C,R2*%
X93727500Y-148062742D02*
X93727500Y-148537258D01*
X94772500Y-148062742D02*
X94772500Y-148537258D01*
%TO.C,L1*%
X97490000Y-148549622D02*
X97490000Y-147750378D01*
X98610000Y-148549622D02*
X98610000Y-147750378D01*
%TO.C,SW1*%
X128000000Y-135450000D02*
X128000000Y-147450000D01*
X116300000Y-135450000D02*
X128000000Y-135450000D01*
X116300000Y-147450000D02*
X116300000Y-135450000D01*
X128000000Y-147450000D02*
X116300000Y-147450000D01*
%TO.C,C8*%
X104011252Y-155660000D02*
X102588748Y-155660000D01*
X104011252Y-153840000D02*
X102588748Y-153840000D01*
%TO.C,C5*%
X113290000Y-154488748D02*
X113290000Y-155911252D01*
X115110000Y-154488748D02*
X115110000Y-155911252D01*
%TO.C,C13*%
X85888748Y-150440000D02*
X87311252Y-150440000D01*
X85888748Y-152260000D02*
X87311252Y-152260000D01*
%TO.C,C6*%
X111331252Y-161040000D02*
X109908748Y-161040000D01*
X111331252Y-159220000D02*
X109908748Y-159220000D01*
%TO.C,D5*%
X96000000Y-157950000D02*
X97200000Y-157950000D01*
X96000000Y-156100000D02*
X96000000Y-157950000D01*
X97200000Y-156100000D02*
X97200000Y-157950000D01*
%TO.C,D3*%
X129185000Y-151205000D02*
X126900000Y-151205000D01*
X129185000Y-152675000D02*
X129185000Y-151205000D01*
X126900000Y-152675000D02*
X129185000Y-152675000D01*
%TO.C,R13*%
X114677500Y-146462742D02*
X114677500Y-146937258D01*
X115722500Y-146462742D02*
X115722500Y-146937258D01*
%TO.C,U3*%
X110600000Y-158760000D02*
X109800000Y-158760000D01*
X110600000Y-155640000D02*
X111400000Y-155640000D01*
X110600000Y-155640000D02*
X108800000Y-155640000D01*
X110600000Y-158760000D02*
X111400000Y-158760000D01*
%TO.C,U2*%
X112095000Y-136095000D02*
X112095000Y-153095000D01*
X114095000Y-161095000D02*
X114095000Y-133095000D01*
X114095000Y-133095000D02*
X86095000Y-133095000D01*
X89095000Y-153095000D02*
X88095000Y-153095000D01*
X112095000Y-153095000D02*
X89095000Y-153095000D01*
X88095000Y-136095000D02*
X112095000Y-136095000D01*
X86095000Y-161095000D02*
X114095000Y-161095000D01*
X86095000Y-133095000D02*
X86095000Y-161095000D01*
X88095000Y-153095000D02*
X88095000Y-136095000D01*
%TO.C,C9*%
X107435000Y-155361252D02*
X107435000Y-154838748D01*
X105965000Y-155361252D02*
X105965000Y-154838748D01*
%TO.C,R16*%
X85562742Y-146077500D02*
X86037258Y-146077500D01*
X85562742Y-147122500D02*
X86037258Y-147122500D01*
%TO.C,R7*%
X103027500Y-159042742D02*
X103027500Y-159517258D01*
X104072500Y-159042742D02*
X104072500Y-159517258D01*
%TO.C,J1*%
X116100000Y-155460000D02*
X116100000Y-157460000D01*
X125500000Y-159360000D02*
X125500000Y-161260000D01*
X125500000Y-155460000D02*
X125500000Y-157460000D01*
X116100000Y-161260000D02*
X125500000Y-161260000D01*
X116100000Y-159360000D02*
X116100000Y-161260000D01*
%TO.C,R6*%
X97577500Y-159412742D02*
X97577500Y-159887258D01*
X98622500Y-159412742D02*
X98622500Y-159887258D01*
%TO.C,R24*%
X128327500Y-145962742D02*
X128327500Y-146437258D01*
X129372500Y-145962742D02*
X129372500Y-146437258D01*
%TO.C,R14*%
X109462742Y-147822500D02*
X109937258Y-147822500D01*
X109462742Y-146777500D02*
X109937258Y-146777500D01*
%TO.C,J3*%
X70555000Y-157800000D02*
X68555000Y-157800000D01*
X70555000Y-152200000D02*
X72930000Y-152200000D01*
X70555000Y-152200000D02*
X70555000Y-152800000D01*
X82655000Y-158400000D02*
X82655000Y-152200000D01*
X68555000Y-152800000D02*
X68555000Y-157800000D01*
X70555000Y-152800000D02*
X68555000Y-152800000D01*
X79980000Y-152200000D02*
X79980000Y-150800000D01*
X77580000Y-152200000D02*
X79980000Y-152200000D01*
X81530000Y-152200000D02*
X82655000Y-152200000D01*
X81080000Y-158400000D02*
X70555000Y-158400000D01*
X81530000Y-152200000D02*
X81530000Y-150800000D01*
X70555000Y-157800000D02*
X70555000Y-158400000D01*
X74580000Y-152200000D02*
X75930000Y-152200000D01*
%TO.C,C1*%
X96885000Y-148238748D02*
X96885000Y-148761252D01*
X95415000Y-148238748D02*
X95415000Y-148761252D01*
D10*
%TO.C,U4*%
X112675000Y-148325000D02*
X112675000Y-148625000D01*
X112675000Y-151675000D02*
X112675000Y-151450000D01*
X109325000Y-148325000D02*
X109325000Y-148625000D01*
X109325000Y-151675000D02*
X109325000Y-151375000D01*
X112675000Y-151675000D02*
X109325000Y-151675000D01*
X112675000Y-151450000D02*
X113900000Y-151450000D01*
X112675000Y-148325000D02*
X109325000Y-148325000D01*
D12*
%TO.C,R23*%
X80427500Y-148162742D02*
X80427500Y-148637258D01*
X81472500Y-148162742D02*
X81472500Y-148637258D01*
%TO.C,R12*%
X115862742Y-151422500D02*
X116337258Y-151422500D01*
X115862742Y-150377500D02*
X116337258Y-150377500D01*
%TO.C,R11*%
X115862742Y-149822500D02*
X116337258Y-149822500D01*
X115862742Y-148777500D02*
X116337258Y-148777500D01*
%TO.C,R10*%
X111737258Y-152177500D02*
X111262742Y-152177500D01*
X111737258Y-153222500D02*
X111262742Y-153222500D01*
%TO.C,R1*%
X93122500Y-148537258D02*
X93122500Y-148062742D01*
X92077500Y-148537258D02*
X92077500Y-148062742D01*
%TO.C,U1*%
X91965000Y-142450000D02*
X91965000Y-140250000D01*
X98735000Y-142450000D02*
X98735000Y-140250000D01*
X98735000Y-142450000D02*
X98735000Y-144650000D01*
X91965000Y-142450000D02*
X91965000Y-146050000D01*
%TO.C,R22*%
X77372500Y-148187742D02*
X77372500Y-148662258D01*
X76327500Y-148187742D02*
X76327500Y-148662258D01*
%TO.C,D4*%
X98710000Y-157490000D02*
X98710000Y-155640000D01*
X97510000Y-157490000D02*
X97510000Y-155640000D01*
X98710000Y-155640000D02*
X97510000Y-155640000D01*
%TO.C,Q4*%
X83940000Y-135000000D02*
X83940000Y-136675000D01*
X87060000Y-135000000D02*
X87060000Y-135650000D01*
X87060000Y-135000000D02*
X87060000Y-134350000D01*
X83940000Y-135000000D02*
X83940000Y-134350000D01*
%TO.C,U6*%
X107700000Y-136260000D02*
X108500000Y-136260000D01*
X107700000Y-133140000D02*
X105900000Y-133140000D01*
X107700000Y-136260000D02*
X106900000Y-136260000D01*
X107700000Y-133140000D02*
X108500000Y-133140000D01*
%TO.C,R3*%
X104467258Y-147187500D02*
X103992742Y-147187500D01*
X104467258Y-148232500D02*
X103992742Y-148232500D01*
%TO.C,U5*%
X101320000Y-149980000D02*
X99520000Y-149980000D01*
X101320000Y-153100000D02*
X100520000Y-153100000D01*
X101320000Y-153100000D02*
X102120000Y-153100000D01*
X101320000Y-149980000D02*
X102120000Y-149980000D01*
%TO.C,C7*%
X113525000Y-159601252D02*
X113525000Y-159078748D01*
X114995000Y-159601252D02*
X114995000Y-159078748D01*
%TO.C,D6*%
X129185000Y-147915000D02*
X126900000Y-147915000D01*
X129185000Y-149385000D02*
X129185000Y-147915000D01*
X126900000Y-149385000D02*
X129185000Y-149385000D01*
%TO.C,R9*%
X100642500Y-155317258D02*
X100642500Y-154842742D01*
X99597500Y-155317258D02*
X99597500Y-154842742D01*
%TO.C,R4*%
X107372500Y-147762742D02*
X107372500Y-148237258D01*
X106327500Y-147762742D02*
X106327500Y-148237258D01*
%TO.C,Q2*%
X107750000Y-158840000D02*
X107750000Y-159490000D01*
X104630000Y-158840000D02*
X104630000Y-158190000D01*
X107750000Y-158840000D02*
X107750000Y-158190000D01*
X104630000Y-158840000D02*
X104630000Y-160515000D01*
%TO.C,C12*%
X85888748Y-147890000D02*
X87311252Y-147890000D01*
X85888748Y-149710000D02*
X87311252Y-149710000D01*
%TO.C,Q1*%
X100820000Y-160990000D02*
X100170000Y-160990000D01*
X100820000Y-157870000D02*
X101470000Y-157870000D01*
X100820000Y-157870000D02*
X99145000Y-157870000D01*
X100820000Y-160990000D02*
X101470000Y-160990000D01*
%TO.C,C10*%
X103670000Y-150228748D02*
X103670000Y-151651252D01*
X105490000Y-150228748D02*
X105490000Y-151651252D01*
%TO.C,C11*%
X106055000Y-151248748D02*
X106055000Y-151771252D01*
X107525000Y-151248748D02*
X107525000Y-151771252D01*
%TO.C,R5*%
X111262742Y-153877500D02*
X111737258Y-153877500D01*
X111262742Y-154922500D02*
X111737258Y-154922500D01*
%TD*%
M02*
