%TF.GenerationSoftware,KiCad,Pcbnew,(6.0.2)*%
%TF.CreationDate,2022-03-18T21:37:06+08:00*%
%TF.ProjectId,Morse_code_PCB,4d6f7273-655f-4636-9f64-655f5043422e,rev?*%
%TF.SameCoordinates,Original*%
%TF.FileFunction,Soldermask,Top*%
%TF.FilePolarity,Negative*%
%FSLAX46Y46*%
G04 Gerber Fmt 4.6, Leading zero omitted, Abs format (unit mm)*
G04 Created by KiCad (PCBNEW (6.0.2)) date 2022-03-18 21:37:06*
%MOMM*%
%LPD*%
G01*
G04 APERTURE LIST*
G04 Aperture macros list*
%AMRoundRect*
0 Rectangle with rounded corners*
0 $1 Rounding radius*
0 $2 $3 $4 $5 $6 $7 $8 $9 X,Y pos of 4 corners*
0 Add a 4 corners polygon primitive as box body*
4,1,4,$2,$3,$4,$5,$6,$7,$8,$9,$2,$3,0*
0 Add four circle primitives for the rounded corners*
1,1,$1+$1,$2,$3*
1,1,$1+$1,$4,$5*
1,1,$1+$1,$6,$7*
1,1,$1+$1,$8,$9*
0 Add four rect primitives between the rounded corners*
20,1,$1+$1,$2,$3,$4,$5,0*
20,1,$1+$1,$4,$5,$6,$7,0*
20,1,$1+$1,$6,$7,$8,$9,0*
20,1,$1+$1,$8,$9,$2,$3,0*%
G04 Aperture macros list end*
%ADD10RoundRect,0.225000X0.225000X0.250000X-0.225000X0.250000X-0.225000X-0.250000X0.225000X-0.250000X0*%
%ADD11RoundRect,0.200000X-0.275000X0.200000X-0.275000X-0.200000X0.275000X-0.200000X0.275000X0.200000X0*%
%ADD12RoundRect,0.200000X0.200000X0.275000X-0.200000X0.275000X-0.200000X-0.275000X0.200000X-0.275000X0*%
%ADD13RoundRect,0.250000X-0.475000X0.250000X-0.475000X-0.250000X0.475000X-0.250000X0.475000X0.250000X0*%
%ADD14RoundRect,0.150000X0.587500X0.150000X-0.587500X0.150000X-0.587500X-0.150000X0.587500X-0.150000X0*%
%ADD15R,2.000000X2.000000*%
%ADD16C,2.000000*%
%ADD17RoundRect,0.200000X-0.200000X-0.275000X0.200000X-0.275000X0.200000X0.275000X-0.200000X0.275000X0*%
%ADD18O,2.000000X1.200000*%
%ADD19R,0.700000X0.600000*%
%ADD20RoundRect,0.218750X0.218750X0.256250X-0.218750X0.256250X-0.218750X-0.256250X0.218750X-0.256250X0*%
%ADD21RoundRect,0.218750X0.381250X-0.218750X0.381250X0.218750X-0.381250X0.218750X-0.381250X-0.218750X0*%
%ADD22R,1.500000X2.500000*%
%ADD23RoundRect,0.250000X0.325000X0.650000X-0.325000X0.650000X-0.325000X-0.650000X0.325000X-0.650000X0*%
%ADD24RoundRect,0.250000X-0.650000X0.325000X-0.650000X-0.325000X0.650000X-0.325000X0.650000X0.325000X0*%
%ADD25RoundRect,0.250000X-0.325000X-0.650000X0.325000X-0.650000X0.325000X0.650000X-0.325000X0.650000X0*%
%ADD26RoundRect,0.150000X-0.512500X-0.150000X0.512500X-0.150000X0.512500X0.150000X-0.512500X0.150000X0*%
%ADD27R,1.524000X1.524000*%
%ADD28C,1.524000*%
%ADD29RoundRect,0.250000X0.475000X-0.250000X0.475000X0.250000X-0.475000X0.250000X-0.475000X-0.250000X0*%
%ADD30C,0.650000*%
%ADD31R,0.600000X1.450000*%
%ADD32R,0.300000X1.450000*%
%ADD33O,1.000000X2.100000*%
%ADD34O,1.000000X1.600000*%
%ADD35C,1.500000*%
%ADD36R,1.200000X2.500000*%
%ADD37R,1.400000X0.300000*%
%ADD38RoundRect,0.200000X0.275000X-0.200000X0.275000X0.200000X-0.275000X0.200000X-0.275000X-0.200000X0*%
%ADD39RoundRect,0.100000X0.100000X-0.637500X0.100000X0.637500X-0.100000X0.637500X-0.100000X-0.637500X0*%
%ADD40RoundRect,0.150000X0.150000X-0.587500X0.150000X0.587500X-0.150000X0.587500X-0.150000X-0.587500X0*%
%ADD41RoundRect,0.150000X-0.587500X-0.150000X0.587500X-0.150000X0.587500X0.150000X-0.587500X0.150000X0*%
%ADD42O,1.200000X2.000000*%
G04 APERTURE END LIST*
D10*
%TO.C,C2*%
X104975000Y-146100000D03*
X103425000Y-146100000D03*
%TD*%
D11*
%TO.C,R19*%
X110600000Y-133675000D03*
X110600000Y-135325000D03*
%TD*%
D12*
%TO.C,R21*%
X86625000Y-139600000D03*
X84975000Y-139600000D03*
%TD*%
D13*
%TO.C,C4*%
X108820000Y-152750000D03*
X108820000Y-154650000D03*
%TD*%
D14*
%TO.C,Q3*%
X87137500Y-143350000D03*
X87137500Y-141450000D03*
X85262500Y-142400000D03*
%TD*%
D15*
%TO.C,BZ1*%
X80070785Y-139800000D03*
D16*
X75070785Y-139800000D03*
%TD*%
D17*
%TO.C,R20*%
X84875000Y-137900000D03*
X86525000Y-137900000D03*
%TD*%
D18*
%TO.C,J4*%
X127560000Y-156500000D03*
X127560000Y-153960000D03*
%TD*%
D17*
%TO.C,R18*%
X106575000Y-137300000D03*
X108225000Y-137300000D03*
%TD*%
D19*
%TO.C,D1*%
X96570000Y-160570000D03*
X96570000Y-159170000D03*
%TD*%
D20*
%TO.C,D2*%
X128487500Y-150300000D03*
X126912500Y-150300000D03*
%TD*%
D12*
%TO.C,R8*%
X103615000Y-156920000D03*
X101965000Y-156920000D03*
%TD*%
D17*
%TO.C,R17*%
X84975000Y-145000000D03*
X86625000Y-145000000D03*
%TD*%
D10*
%TO.C,C3*%
X108075000Y-145600000D03*
X106525000Y-145600000D03*
%TD*%
D11*
%TO.C,R2*%
X94250000Y-147475000D03*
X94250000Y-149125000D03*
%TD*%
D21*
%TO.C,L1*%
X98050000Y-149212500D03*
X98050000Y-147087500D03*
%TD*%
D22*
%TO.C,SW1*%
X115950000Y-141150000D03*
X128450000Y-141150000D03*
D16*
X119700000Y-148650000D03*
X124700000Y-148650000D03*
X122200000Y-148650000D03*
D15*
X119700000Y-134150000D03*
D16*
X124700000Y-134150000D03*
%TD*%
D23*
%TO.C,C8*%
X104775000Y-154750000D03*
X101825000Y-154750000D03*
%TD*%
D24*
%TO.C,C5*%
X114200000Y-153725000D03*
X114200000Y-156675000D03*
%TD*%
D25*
%TO.C,C13*%
X85125000Y-151350000D03*
X88075000Y-151350000D03*
%TD*%
D23*
%TO.C,C6*%
X112095000Y-160130000D03*
X109145000Y-160130000D03*
%TD*%
D19*
%TO.C,D5*%
X96600000Y-157500000D03*
X96600000Y-156100000D03*
%TD*%
D20*
%TO.C,D3*%
X128487500Y-151940000D03*
X126912500Y-151940000D03*
%TD*%
D11*
%TO.C,R13*%
X115200000Y-145875000D03*
X115200000Y-147525000D03*
%TD*%
D26*
%TO.C,U3*%
X109462500Y-156250000D03*
X109462500Y-157200000D03*
X109462500Y-158150000D03*
X111737500Y-158150000D03*
X111737500Y-156250000D03*
%TD*%
D27*
%TO.C,U2*%
X96295000Y-133995000D03*
D28*
X98835000Y-133995000D03*
X101375000Y-133995000D03*
X103915000Y-133995000D03*
%TD*%
D29*
%TO.C,C9*%
X106700000Y-156050000D03*
X106700000Y-154150000D03*
%TD*%
D17*
%TO.C,R16*%
X84975000Y-146600000D03*
X86625000Y-146600000D03*
%TD*%
D11*
%TO.C,R7*%
X103550000Y-158455000D03*
X103550000Y-160105000D03*
%TD*%
D30*
%TO.C,J1*%
X123690000Y-154760000D03*
X117910000Y-154760000D03*
D31*
X117550000Y-153315000D03*
X118350000Y-153315000D03*
D32*
X119550000Y-153315000D03*
X120550000Y-153315000D03*
X121050000Y-153315000D03*
X122050000Y-153315000D03*
D31*
X123250000Y-153315000D03*
X124050000Y-153315000D03*
X124050000Y-153315000D03*
X123250000Y-153315000D03*
D32*
X122550000Y-153315000D03*
X121550000Y-153315000D03*
X120050000Y-153315000D03*
X119050000Y-153315000D03*
D31*
X118350000Y-153315000D03*
X117550000Y-153315000D03*
D33*
X116480000Y-154230000D03*
X125120000Y-154230000D03*
D34*
X125120000Y-158410000D03*
X116480000Y-158410000D03*
%TD*%
D11*
%TO.C,R6*%
X98100000Y-158825000D03*
X98100000Y-160475000D03*
%TD*%
%TO.C,R24*%
X128850000Y-145375000D03*
X128850000Y-147025000D03*
%TD*%
D17*
%TO.C,R14*%
X108875000Y-147300000D03*
X110525000Y-147300000D03*
%TD*%
D35*
%TO.C,J3*%
X72155000Y-155300000D03*
X79155000Y-155300000D03*
D36*
X76755000Y-152050000D03*
X73755000Y-152050000D03*
X81855000Y-158550000D03*
X80755000Y-152050000D03*
%TD*%
D13*
%TO.C,C1*%
X96150000Y-147550000D03*
X96150000Y-149450000D03*
%TD*%
D37*
%TO.C,U4*%
X113200000Y-151000000D03*
X113200000Y-150500000D03*
X113200000Y-150000000D03*
X113200000Y-149500000D03*
X113200000Y-149000000D03*
X108800000Y-149000000D03*
X108800000Y-149500000D03*
X108800000Y-150000000D03*
X108800000Y-150500000D03*
X108800000Y-151000000D03*
%TD*%
D11*
%TO.C,R23*%
X80950000Y-147575000D03*
X80950000Y-149225000D03*
%TD*%
D17*
%TO.C,R12*%
X115275000Y-150900000D03*
X116925000Y-150900000D03*
%TD*%
%TO.C,R11*%
X115275000Y-149300000D03*
X116925000Y-149300000D03*
%TD*%
D12*
%TO.C,R10*%
X112325000Y-152700000D03*
X110675000Y-152700000D03*
%TD*%
D38*
%TO.C,R1*%
X92600000Y-149125000D03*
X92600000Y-147475000D03*
%TD*%
D39*
%TO.C,U1*%
X92425000Y-145312500D03*
X93075000Y-145312500D03*
X93725000Y-145312500D03*
X94375000Y-145312500D03*
X95025000Y-145312500D03*
X95675000Y-145312500D03*
X96325000Y-145312500D03*
X96975000Y-145312500D03*
X97625000Y-145312500D03*
X98275000Y-145312500D03*
X98275000Y-139587500D03*
X97625000Y-139587500D03*
X96975000Y-139587500D03*
X96325000Y-139587500D03*
X95675000Y-139587500D03*
X95025000Y-139587500D03*
X94375000Y-139587500D03*
X93725000Y-139587500D03*
X93075000Y-139587500D03*
X92425000Y-139587500D03*
%TD*%
D11*
%TO.C,R22*%
X76850000Y-147600000D03*
X76850000Y-149250000D03*
%TD*%
D19*
%TO.C,D4*%
X98110000Y-156090000D03*
X98110000Y-157490000D03*
%TD*%
D40*
%TO.C,Q4*%
X84550000Y-135937500D03*
X86450000Y-135937500D03*
X85500000Y-134062500D03*
%TD*%
D26*
%TO.C,U6*%
X106562500Y-133750000D03*
X106562500Y-134700000D03*
X106562500Y-135650000D03*
X108837500Y-135650000D03*
X108837500Y-133750000D03*
%TD*%
D12*
%TO.C,R3*%
X105055000Y-147710000D03*
X103405000Y-147710000D03*
%TD*%
D26*
%TO.C,U5*%
X100182500Y-150590000D03*
X100182500Y-151540000D03*
X100182500Y-152490000D03*
X102457500Y-152490000D03*
X102457500Y-150590000D03*
%TD*%
D29*
%TO.C,C7*%
X114260000Y-160290000D03*
X114260000Y-158390000D03*
%TD*%
D20*
%TO.C,D6*%
X128487500Y-148650000D03*
X126912500Y-148650000D03*
%TD*%
D38*
%TO.C,R9*%
X100120000Y-155905000D03*
X100120000Y-154255000D03*
%TD*%
D11*
%TO.C,R4*%
X106850000Y-147175000D03*
X106850000Y-148825000D03*
%TD*%
D40*
%TO.C,Q2*%
X105240000Y-159777500D03*
X107140000Y-159777500D03*
X106190000Y-157902500D03*
%TD*%
D25*
%TO.C,C12*%
X85125000Y-148800000D03*
X88075000Y-148800000D03*
%TD*%
D41*
%TO.C,Q1*%
X99882500Y-158480000D03*
X99882500Y-160380000D03*
X101757500Y-159430000D03*
%TD*%
D24*
%TO.C,C10*%
X104580000Y-149465000D03*
X104580000Y-152415000D03*
%TD*%
D13*
%TO.C,C11*%
X106790000Y-150560000D03*
X106790000Y-152460000D03*
%TD*%
D17*
%TO.C,R5*%
X110675000Y-154400000D03*
X112325000Y-154400000D03*
%TD*%
D42*
%TO.C,J5*%
X118290000Y-137700000D03*
X120830000Y-137700000D03*
X123370000Y-137700000D03*
X125910000Y-137700000D03*
%TD*%
D35*
%TO.C,J2*%
X72155000Y-148800000D03*
X79155000Y-148800000D03*
%TD*%
M02*
