M48
; DRILL file {KiCad (6.0.2)} date Sat Apr  9 20:57:42 2022
; FORMAT={-:-/ absolute / metric / decimal}
; #@! TF.CreationDate,2022-04-09T20:57:42+08:00
; #@! TF.GenerationSoftware,Kicad,Pcbnew,(6.0.2)
; #@! TF.FileFunction,Plated,1,2,PTH
FMAT,2
METRIC
; #@! TA.AperFunction,Plated,PTH,ViaDrill
T1C0.400
; #@! TA.AperFunction,Plated,PTH,ComponentDrill
T2C0.600
; #@! TA.AperFunction,Plated,PTH,ComponentDrill
T3C0.800
; #@! TA.AperFunction,Plated,PTH,ComponentDrill
T4C1.000
; #@! TA.AperFunction,Plated,PTH,ComponentDrill
T5C1.200
%
G90
G05
T1
X74.32Y-149.21
X82.38Y-147.91
X84.83Y-154.68
X85.64Y-153.57
X94.37Y-154.19
X95.3Y-159.19
X95.37Y-156.1
X98.55Y-138.65
X101.09Y-156.39
X101.336Y-144.522
X101.38Y-145.67
X102.81Y-135.74
X103.28Y-141.57
X104.38Y-141.59
X104.57Y-144.51
X105.55Y-140.83
X108.14Y-151.35
X108.16Y-153.56
X108.56Y-148.15
X109.41Y-143.25
X110.26Y-142.66
X110.58Y-136.67
X111.04Y-148.2
X114.26Y-151.06
X114.36Y-149.26
X117.16Y-146.52
X120.06Y-145.14
X121.77Y-144.21
T3
X118.29Y-137.7
X120.83Y-137.7
X123.37Y-137.7
X125.91Y-137.7
X127.8Y-153.96
X127.8Y-156.5
T4
X75.071Y-139.8
X80.071Y-139.8
X96.295Y-133.995
X98.835Y-133.995
X101.375Y-133.995
X103.915Y-133.995
T5
X119.7Y-134.15
X119.7Y-148.65
X122.2Y-148.65
X124.7Y-134.15
X124.7Y-148.65
T2
G00X116.48Y-153.68
M15
G01X116.48Y-154.78
M16
G05
G00X116.48Y-158.11
M15
G01X116.48Y-158.71
M16
G05
G00X125.12Y-153.68
M15
G01X125.12Y-154.78
M16
G05
G00X125.12Y-158.11
M15
G01X125.12Y-158.71
M16
G05
T4
G00X115.95Y-140.55
M15
G01X115.95Y-141.75
M16
G05
G00X128.45Y-140.55
M15
G01X128.45Y-141.75
M16
G05
T0
M30
