%TF.GenerationSoftware,KiCad,Pcbnew,(6.0.2)*%
%TF.CreationDate,2022-04-09T20:57:27+08:00*%
%TF.ProjectId,Morse_code_PCB,4d6f7273-655f-4636-9f64-655f5043422e,rev?*%
%TF.SameCoordinates,Original*%
%TF.FileFunction,Copper,L2,Bot*%
%TF.FilePolarity,Positive*%
%FSLAX46Y46*%
G04 Gerber Fmt 4.6, Leading zero omitted, Abs format (unit mm)*
G04 Created by KiCad (PCBNEW (6.0.2)) date 2022-04-09 20:57:27*
%MOMM*%
%LPD*%
G01*
G04 APERTURE LIST*
G04 Aperture macros list*
%AMRoundRect*
0 Rectangle with rounded corners*
0 $1 Rounding radius*
0 $2 $3 $4 $5 $6 $7 $8 $9 X,Y pos of 4 corners*
0 Add a 4 corners polygon primitive as box body*
4,1,4,$2,$3,$4,$5,$6,$7,$8,$9,$2,$3,0*
0 Add four circle primitives for the rounded corners*
1,1,$1+$1,$2,$3*
1,1,$1+$1,$4,$5*
1,1,$1+$1,$6,$7*
1,1,$1+$1,$8,$9*
0 Add four rect primitives between the rounded corners*
20,1,$1+$1,$2,$3,$4,$5,0*
20,1,$1+$1,$4,$5,$6,$7,0*
20,1,$1+$1,$6,$7,$8,$9,0*
20,1,$1+$1,$8,$9,$2,$3,0*%
G04 Aperture macros list end*
%TA.AperFunction,ComponentPad*%
%ADD10R,2.000000X2.000000*%
%TD*%
%TA.AperFunction,ComponentPad*%
%ADD11C,2.000000*%
%TD*%
%TA.AperFunction,ComponentPad*%
%ADD12O,2.000000X1.200000*%
%TD*%
%TA.AperFunction,ComponentPad*%
%ADD13R,1.500000X2.500000*%
%TD*%
%TA.AperFunction,ComponentPad*%
%ADD14R,1.524000X1.524000*%
%TD*%
%TA.AperFunction,ComponentPad*%
%ADD15C,1.524000*%
%TD*%
%TA.AperFunction,ComponentPad*%
%ADD16O,1.000000X2.100000*%
%TD*%
%TA.AperFunction,ComponentPad*%
%ADD17O,1.000000X1.600000*%
%TD*%
%TA.AperFunction,SMDPad,CuDef*%
%ADD18RoundRect,0.135000X-0.135000X-0.185000X0.135000X-0.185000X0.135000X0.185000X-0.135000X0.185000X0*%
%TD*%
%TA.AperFunction,ComponentPad*%
%ADD19O,1.200000X2.000000*%
%TD*%
%TA.AperFunction,SMDPad,CuDef*%
%ADD20R,2.600000X3.540000*%
%TD*%
%TA.AperFunction,SMDPad,CuDef*%
%ADD21R,2.600000X3.660000*%
%TD*%
%TA.AperFunction,SMDPad,CuDef*%
%ADD22R,1.200000X2.500000*%
%TD*%
%TA.AperFunction,ViaPad*%
%ADD23C,0.800000*%
%TD*%
%TA.AperFunction,Conductor*%
%ADD24C,0.300000*%
%TD*%
G04 APERTURE END LIST*
D10*
%TO.P,BZ1,1,-*%
%TO.N,Net-(BZ1-Pad1)*%
X80070785Y-139800000D03*
D11*
%TO.P,BZ1,2,+*%
%TO.N,Net-(BZ1-Pad2)*%
X75070785Y-139800000D03*
%TD*%
D12*
%TO.P,J4,1,Pin_1*%
%TO.N,BAT_IN*%
X127800000Y-156500000D03*
%TO.P,J4,2,Pin_2*%
%TO.N,GND*%
X127800000Y-153960000D03*
%TD*%
D13*
%TO.P,SW1,6*%
%TO.N,N/C*%
X115950000Y-141150000D03*
%TO.P,SW1,7*%
X128450000Y-141150000D03*
D11*
%TO.P,SW1,A,A*%
%TO.N,EN_A*%
X119700000Y-148650000D03*
%TO.P,SW1,B,B*%
%TO.N,EN_B*%
X124700000Y-148650000D03*
%TO.P,SW1,C,C*%
%TO.N,GND*%
X122200000Y-148650000D03*
D10*
%TO.P,SW1,S1,S1*%
%TO.N,K1*%
X119700000Y-134150000D03*
D11*
%TO.P,SW1,S2,S2*%
%TO.N,GND*%
X124700000Y-134150000D03*
%TD*%
D14*
%TO.P,U2,1,GND*%
%TO.N,GND*%
X96295000Y-133995000D03*
D15*
%TO.P,U2,2,VCC*%
%TO.N,VCC*%
X98835000Y-133995000D03*
%TO.P,U2,3,SCL*%
%TO.N,IIC_SCL*%
X101375000Y-133995000D03*
%TO.P,U2,4,SDL*%
%TO.N,IIC_SDL*%
X103915000Y-133995000D03*
%TD*%
D16*
%TO.P,J1,S1,SHIELD*%
%TO.N,GND*%
X116480000Y-154230000D03*
X125120000Y-154230000D03*
D17*
X125120000Y-158410000D03*
X116480000Y-158410000D03*
%TD*%
D18*
%TO.P,R15,1*%
%TO.N,VCC*%
X101440000Y-137170000D03*
%TO.P,R15,2*%
%TO.N,Net-(U7-Pad44)*%
X102460000Y-137170000D03*
%TD*%
D19*
%TO.P,J5,1,Pin_1*%
%TO.N,VCC*%
X118290000Y-137700000D03*
%TO.P,J5,2,Pin_2*%
%TO.N,GND*%
X120830000Y-137700000D03*
%TO.P,J5,3,Pin_3*%
%TO.N,SW_D*%
X123370000Y-137700000D03*
%TO.P,J5,4,Pin_4*%
%TO.N,SW_L*%
X125910000Y-137700000D03*
%TD*%
D20*
%TO.P,BT1,1,+*%
%TO.N,Net-(BT1-Pad1)*%
X91040000Y-143810000D03*
D21*
%TO.P,BT1,2,-*%
%TO.N,GND*%
X91040000Y-159610000D03*
%TD*%
D22*
%TO.P,J2,R1*%
%TO.N,TICK_A*%
X76755000Y-152050000D03*
%TO.P,J2,R2*%
%TO.N,GND*%
X73755000Y-152050000D03*
%TO.P,J2,S*%
%TO.N,unconnected-(J2-PadS)*%
X81855000Y-145550000D03*
%TO.P,J2,T*%
%TO.N,TICK_B*%
X80755000Y-152050000D03*
%TD*%
D23*
%TO.N,Net-(BT1-Pad1)*%
X98550000Y-138650000D03*
%TO.N,VCC*%
X108140000Y-151350000D03*
X120060000Y-145140000D03*
X121770000Y-144210000D03*
X117160000Y-146520000D03*
X110580000Y-136670000D03*
%TO.N,PWR_EN*%
X104570000Y-144510000D03*
X95300000Y-159190000D03*
%TO.N,K1*%
X94370000Y-154190000D03*
%TO.N,K1_DET*%
X95370000Y-156100000D03*
X105550000Y-140830000D03*
%TO.N,TICK_B*%
X84830000Y-154680000D03*
X82380000Y-147910000D03*
%TO.N,TICK_A*%
X85640000Y-153570500D03*
X74320000Y-149210000D03*
%TO.N,EN_A*%
X111040000Y-148200000D03*
X104380000Y-141590000D03*
%TO.N,EN_B*%
X103280000Y-141570000D03*
X108560000Y-148150000D03*
%TO.N,BAT_ADC*%
X101090000Y-156390000D03*
X101336477Y-144522055D03*
%TO.N,BAT_CHG_DET*%
X108160000Y-153560000D03*
X101380000Y-145670000D03*
%TO.N,Net-(U7-Pad44)*%
X102810000Y-135740000D03*
%TO.N,USB_DN*%
X114260000Y-151060000D03*
X109410000Y-143250000D03*
%TO.N,USB_DP*%
X114360000Y-149260000D03*
X110260000Y-142660000D03*
%TD*%
D24*
%TO.N,GND*%
X73755000Y-152050000D02*
X71005479Y-149300479D01*
X74860479Y-154150479D02*
X73755000Y-153045000D01*
X71005479Y-149300479D02*
X71005479Y-138774521D01*
X73755000Y-153045000D02*
X73755000Y-152050000D01*
X94950000Y-132650000D02*
X96295000Y-133995000D01*
X123530000Y-147320000D02*
X122200000Y-148650000D01*
X71005479Y-138774521D02*
X77130000Y-132650000D01*
X123530000Y-140400000D02*
X123530000Y-147320000D01*
X80780479Y-154150479D02*
X74860479Y-154150479D01*
X86180000Y-159550000D02*
X80780479Y-154150479D01*
X77130000Y-132650000D02*
X94950000Y-132650000D01*
X120830000Y-137700000D02*
X123530000Y-140400000D01*
X90580000Y-159550000D02*
X86180000Y-159550000D01*
%TO.N,Net-(BT1-Pad1)*%
X93450000Y-143750000D02*
X98550000Y-138650000D01*
X90580000Y-143750000D02*
X93450000Y-143750000D01*
%TO.N,VCC*%
X120060000Y-145140000D02*
X120840000Y-145140000D01*
X117160000Y-146520000D02*
X118680000Y-146520000D01*
X118290000Y-143370000D02*
X120060000Y-145140000D01*
X121800000Y-134549022D02*
X118649022Y-137700000D01*
X117160000Y-150320000D02*
X117160000Y-146520000D01*
X114680000Y-152800000D02*
X117160000Y-150320000D01*
X121160000Y-132540000D02*
X121800000Y-133180000D01*
X110580000Y-136670000D02*
X106890000Y-132980000D01*
X110490000Y-151350000D02*
X111940000Y-152800000D01*
X118680000Y-146520000D02*
X120060000Y-145140000D01*
X108140000Y-151350000D02*
X110490000Y-151350000D01*
X118330000Y-132540000D02*
X121160000Y-132540000D01*
X110580000Y-136670000D02*
X114200000Y-136670000D01*
X121800000Y-133180000D02*
X121800000Y-134549022D01*
X120840000Y-145140000D02*
X121770000Y-144210000D01*
X118290000Y-137700000D02*
X118290000Y-143370000D01*
X99850000Y-132980000D02*
X98835000Y-133995000D01*
X101440000Y-136600000D02*
X98835000Y-133995000D01*
X118649022Y-137700000D02*
X118290000Y-137700000D01*
X114200000Y-136670000D02*
X118330000Y-132540000D01*
X111940000Y-152800000D02*
X114680000Y-152800000D01*
X106890000Y-132980000D02*
X99850000Y-132980000D01*
X101440000Y-137170000D02*
X101440000Y-136600000D01*
%TO.N,PWR_EN*%
X100930000Y-143460000D02*
X103520000Y-143460000D01*
X95300000Y-159190000D02*
X96580000Y-157910000D01*
X96580000Y-157910000D02*
X96580000Y-147810000D01*
X96580000Y-147810000D02*
X100930000Y-143460000D01*
X103520000Y-143460000D02*
X104570000Y-144510000D01*
%TO.N,K1*%
X119700000Y-134150000D02*
X116110480Y-137739520D01*
X94370000Y-147100000D02*
X94370000Y-154190000D01*
X103730480Y-137739520D02*
X94370000Y-147100000D01*
X116110480Y-137739520D02*
X103730480Y-137739520D01*
%TO.N,K1_DET*%
X102200000Y-140830000D02*
X105550000Y-140830000D01*
X95370000Y-147660000D02*
X102200000Y-140830000D01*
X95370000Y-156100000D02*
X95370000Y-147660000D01*
%TO.N,TICK_B*%
X80755000Y-152050000D02*
X80755000Y-149535000D01*
X82200000Y-152050000D02*
X84830000Y-154680000D01*
X80755000Y-149535000D02*
X82380000Y-147910000D01*
X80755000Y-152050000D02*
X82200000Y-152050000D01*
%TO.N,TICK_A*%
X85110000Y-155890000D02*
X85640000Y-155360000D01*
X80945962Y-153750968D02*
X83084994Y-155890000D01*
X85640000Y-155360000D02*
X85640000Y-153570500D01*
X77805968Y-153750968D02*
X80945962Y-153750968D01*
X76755000Y-152050000D02*
X76755000Y-152700000D01*
X76755000Y-152700000D02*
X77805968Y-153750968D01*
X83084994Y-155890000D02*
X85110000Y-155890000D01*
X76755000Y-151645000D02*
X74320000Y-149210000D01*
X76755000Y-152050000D02*
X76755000Y-151645000D01*
%TO.N,EN_A*%
X104380000Y-141590000D02*
X110990000Y-148200000D01*
X110990000Y-148200000D02*
X111040000Y-148200000D01*
%TO.N,EN_B*%
X108560000Y-146850000D02*
X108560000Y-148150000D01*
X103280000Y-141570000D02*
X108560000Y-146850000D01*
%TO.N,BAT_ADC*%
X101090000Y-156390000D02*
X100450000Y-155750000D01*
X100450000Y-145408532D02*
X101336477Y-144522055D01*
X100450000Y-155750000D02*
X100450000Y-145408532D01*
%TO.N,BAT_CHG_DET*%
X101380000Y-146780000D02*
X101380000Y-145670000D01*
X108160000Y-153560000D02*
X101380000Y-146780000D01*
%TO.N,Net-(U7-Pad44)*%
X102460000Y-137170000D02*
X102460000Y-136090000D01*
X102460000Y-136090000D02*
X102810000Y-135740000D01*
%TO.N,USB_DN*%
X109410000Y-143250000D02*
X113460000Y-147300000D01*
X113460000Y-150260000D02*
X114260000Y-151060000D01*
X113460000Y-147300000D02*
X113460000Y-150260000D01*
%TO.N,USB_DP*%
X110260000Y-142660000D02*
X114360000Y-146760000D01*
X114360000Y-146760000D02*
X114360000Y-149260000D01*
%TD*%
%TA.AperFunction,Conductor*%
%TO.N,GND*%
G36*
X95392710Y-132528002D02*
G01*
X95439203Y-132581658D01*
X95449307Y-132651932D01*
X95419813Y-132716512D01*
X95368819Y-132751982D01*
X95294946Y-132779676D01*
X95279351Y-132788214D01*
X95177276Y-132864715D01*
X95164715Y-132877276D01*
X95088214Y-132979351D01*
X95079676Y-132994946D01*
X95034522Y-133115394D01*
X95030895Y-133130649D01*
X95025369Y-133181514D01*
X95025000Y-133188328D01*
X95025000Y-133722885D01*
X95029475Y-133738124D01*
X95030865Y-133739329D01*
X95038548Y-133741000D01*
X96423000Y-133741000D01*
X96491121Y-133761002D01*
X96537614Y-133814658D01*
X96549000Y-133867000D01*
X96549000Y-135246884D01*
X96553475Y-135262123D01*
X96554865Y-135263328D01*
X96562548Y-135264999D01*
X97101669Y-135264999D01*
X97108490Y-135264629D01*
X97159352Y-135259105D01*
X97174604Y-135255479D01*
X97295054Y-135210324D01*
X97310649Y-135201786D01*
X97412724Y-135125285D01*
X97425285Y-135112724D01*
X97501786Y-135010649D01*
X97510324Y-134995054D01*
X97555478Y-134874606D01*
X97559105Y-134859351D01*
X97564631Y-134808486D01*
X97565000Y-134801672D01*
X97565000Y-134795922D01*
X97585002Y-134727801D01*
X97638658Y-134681308D01*
X97708932Y-134671204D01*
X97773512Y-134700698D01*
X97794213Y-134723651D01*
X97847888Y-134800306D01*
X97858023Y-134814781D01*
X98015219Y-134971977D01*
X98019727Y-134975134D01*
X98019730Y-134975136D01*
X98070448Y-135010649D01*
X98197323Y-135099488D01*
X98202305Y-135101811D01*
X98202310Y-135101814D01*
X98389784Y-135189234D01*
X98398804Y-135193440D01*
X98404112Y-135194862D01*
X98404114Y-135194863D01*
X98429951Y-135201786D01*
X98613537Y-135250978D01*
X98835000Y-135270353D01*
X99056463Y-135250978D01*
X99067636Y-135247984D01*
X99138613Y-135249676D01*
X99189338Y-135280597D01*
X100640474Y-136731733D01*
X100674500Y-136794045D01*
X100672376Y-136855980D01*
X100664371Y-136883534D01*
X100663867Y-136889941D01*
X100663866Y-136889945D01*
X100661693Y-136917556D01*
X100661500Y-136920011D01*
X100661501Y-137419988D01*
X100664371Y-137456466D01*
X100709731Y-137612596D01*
X100792494Y-137752541D01*
X100907459Y-137867506D01*
X100914280Y-137871540D01*
X100969083Y-137903950D01*
X101047404Y-137950269D01*
X101055015Y-137952480D01*
X101055017Y-137952481D01*
X101119222Y-137971134D01*
X101203534Y-137995629D01*
X101209941Y-137996133D01*
X101209945Y-137996134D01*
X101237556Y-137998307D01*
X101237562Y-137998307D01*
X101240011Y-137998500D01*
X101439878Y-137998500D01*
X101639988Y-137998499D01*
X101676466Y-137995629D01*
X101774144Y-137967251D01*
X101824983Y-137952481D01*
X101824985Y-137952480D01*
X101832596Y-137950269D01*
X101839421Y-137946233D01*
X101839425Y-137946231D01*
X101885861Y-137918769D01*
X101954677Y-137901309D01*
X102014139Y-137918769D01*
X102060575Y-137946231D01*
X102060579Y-137946233D01*
X102067404Y-137950269D01*
X102075015Y-137952480D01*
X102075017Y-137952481D01*
X102139222Y-137971134D01*
X102223534Y-137995629D01*
X102229943Y-137996133D01*
X102229946Y-137996134D01*
X102240632Y-137996975D01*
X102247322Y-137997501D01*
X102313663Y-138022786D01*
X102355803Y-138079923D01*
X102360363Y-138150773D01*
X102326532Y-138212208D01*
X93962395Y-146576345D01*
X93953615Y-146584335D01*
X93953613Y-146584337D01*
X93946920Y-146588584D01*
X93941494Y-146594362D01*
X93941493Y-146594363D01*
X93898396Y-146640257D01*
X93895641Y-146643099D01*
X93875073Y-146663667D01*
X93872356Y-146667170D01*
X93864648Y-146676195D01*
X93833028Y-146709867D01*
X93829207Y-146716818D01*
X93829206Y-146716819D01*
X93822697Y-146728658D01*
X93811843Y-146745182D01*
X93806866Y-146751599D01*
X93798696Y-146762132D01*
X93795549Y-146769404D01*
X93795548Y-146769406D01*
X93780346Y-146804535D01*
X93775124Y-146815195D01*
X93760355Y-146842060D01*
X93752876Y-146855663D01*
X93747541Y-146876441D01*
X93741142Y-146895131D01*
X93732620Y-146914824D01*
X93731380Y-146922655D01*
X93725394Y-146960448D01*
X93722987Y-146972071D01*
X93711500Y-147016812D01*
X93711500Y-147038259D01*
X93709949Y-147057969D01*
X93706594Y-147079152D01*
X93707340Y-147087043D01*
X93710941Y-147125138D01*
X93711500Y-147136996D01*
X93711500Y-153515241D01*
X93691498Y-153583362D01*
X93679136Y-153599551D01*
X93646360Y-153635953D01*
X93630960Y-153653056D01*
X93604859Y-153698265D01*
X93544087Y-153803525D01*
X93535473Y-153818444D01*
X93476458Y-154000072D01*
X93475768Y-154006633D01*
X93475768Y-154006635D01*
X93466276Y-154096944D01*
X93456496Y-154190000D01*
X93457186Y-154196565D01*
X93474785Y-154364007D01*
X93476458Y-154379928D01*
X93535473Y-154561556D01*
X93630960Y-154726944D01*
X93635378Y-154731851D01*
X93635379Y-154731852D01*
X93726647Y-154833215D01*
X93758747Y-154868866D01*
X93913248Y-154981118D01*
X93919276Y-154983802D01*
X93919278Y-154983803D01*
X94081681Y-155056109D01*
X94087712Y-155058794D01*
X94181113Y-155078647D01*
X94268056Y-155097128D01*
X94268061Y-155097128D01*
X94274513Y-155098500D01*
X94465487Y-155098500D01*
X94471939Y-155097128D01*
X94471944Y-155097128D01*
X94559303Y-155078559D01*
X94630094Y-155083961D01*
X94686727Y-155126778D01*
X94711220Y-155193416D01*
X94711500Y-155201806D01*
X94711500Y-155425241D01*
X94691498Y-155493362D01*
X94679136Y-155509551D01*
X94652562Y-155539065D01*
X94630960Y-155563056D01*
X94592157Y-155630264D01*
X94538818Y-155722651D01*
X94535473Y-155728444D01*
X94476458Y-155910072D01*
X94475768Y-155916633D01*
X94475768Y-155916635D01*
X94473510Y-155938119D01*
X94456496Y-156100000D01*
X94457186Y-156106565D01*
X94473624Y-156262960D01*
X94476458Y-156289928D01*
X94535473Y-156471556D01*
X94538776Y-156477278D01*
X94538777Y-156477279D01*
X94552677Y-156501354D01*
X94630960Y-156636944D01*
X94635378Y-156641851D01*
X94635379Y-156641852D01*
X94748314Y-156767279D01*
X94758747Y-156778866D01*
X94913248Y-156891118D01*
X94919276Y-156893802D01*
X94919278Y-156893803D01*
X95081679Y-156966108D01*
X95087712Y-156968794D01*
X95181112Y-156988647D01*
X95268056Y-157007128D01*
X95268061Y-157007128D01*
X95274513Y-157008500D01*
X95465487Y-157008500D01*
X95471939Y-157007128D01*
X95471944Y-157007128D01*
X95558888Y-156988647D01*
X95652288Y-156968794D01*
X95658315Y-156966111D01*
X95658323Y-156966108D01*
X95744252Y-156927850D01*
X95814619Y-156918416D01*
X95878916Y-156948523D01*
X95916729Y-157008612D01*
X95921500Y-157042957D01*
X95921500Y-157585050D01*
X95901498Y-157653171D01*
X95884595Y-157674146D01*
X95314144Y-158244596D01*
X95251832Y-158278621D01*
X95225049Y-158281500D01*
X95204513Y-158281500D01*
X95198061Y-158282872D01*
X95198056Y-158282872D01*
X95116852Y-158300133D01*
X95017712Y-158321206D01*
X95011682Y-158323891D01*
X95011681Y-158323891D01*
X94849278Y-158396197D01*
X94849276Y-158396198D01*
X94843248Y-158398882D01*
X94837907Y-158402762D01*
X94837906Y-158402763D01*
X94804495Y-158427038D01*
X94688747Y-158511134D01*
X94560960Y-158653056D01*
X94465473Y-158818444D01*
X94406458Y-159000072D01*
X94386496Y-159190000D01*
X94387186Y-159196565D01*
X94403327Y-159350135D01*
X94406458Y-159379928D01*
X94465473Y-159561556D01*
X94560960Y-159726944D01*
X94688747Y-159868866D01*
X94843248Y-159981118D01*
X94849276Y-159983802D01*
X94849278Y-159983803D01*
X95011681Y-160056109D01*
X95017712Y-160058794D01*
X95111113Y-160078647D01*
X95198056Y-160097128D01*
X95198061Y-160097128D01*
X95204513Y-160098500D01*
X95395487Y-160098500D01*
X95401939Y-160097128D01*
X95401944Y-160097128D01*
X95488887Y-160078647D01*
X95582288Y-160058794D01*
X95588319Y-160056109D01*
X95750722Y-159983803D01*
X95750724Y-159983802D01*
X95756752Y-159981118D01*
X95911253Y-159868866D01*
X96039040Y-159726944D01*
X96134527Y-159561556D01*
X96178040Y-159427637D01*
X96191502Y-159386207D01*
X96191502Y-159386205D01*
X96193542Y-159379928D01*
X96206755Y-159254215D01*
X96233768Y-159188559D01*
X96242969Y-159178291D01*
X96664602Y-158756657D01*
X115472000Y-158756657D01*
X115472301Y-158762805D01*
X115485812Y-158900603D01*
X115488195Y-158912638D01*
X115541767Y-159090076D01*
X115546441Y-159101416D01*
X115633460Y-159265077D01*
X115640249Y-159275294D01*
X115757397Y-159418933D01*
X115766041Y-159427637D01*
X115908856Y-159545784D01*
X115919027Y-159552644D01*
X116082076Y-159640804D01*
X116093381Y-159645556D01*
X116208692Y-159681250D01*
X116222795Y-159681456D01*
X116226000Y-159674701D01*
X116226000Y-159667924D01*
X116734000Y-159667924D01*
X116737973Y-159681455D01*
X116745768Y-159682575D01*
X116853521Y-159650862D01*
X116864889Y-159646269D01*
X117029154Y-159560393D01*
X117039415Y-159553679D01*
X117183873Y-159437532D01*
X117192632Y-159428954D01*
X117311778Y-159286961D01*
X117318708Y-159276841D01*
X117408002Y-159114415D01*
X117412834Y-159103142D01*
X117468880Y-158926462D01*
X117471430Y-158914468D01*
X117487607Y-158770239D01*
X117488000Y-158763215D01*
X117488000Y-158756657D01*
X124112000Y-158756657D01*
X124112301Y-158762805D01*
X124125812Y-158900603D01*
X124128195Y-158912638D01*
X124181767Y-159090076D01*
X124186441Y-159101416D01*
X124273460Y-159265077D01*
X124280249Y-159275294D01*
X124397397Y-159418933D01*
X124406041Y-159427637D01*
X124548856Y-159545784D01*
X124559027Y-159552644D01*
X124722076Y-159640804D01*
X124733381Y-159645556D01*
X124848692Y-159681250D01*
X124862795Y-159681456D01*
X124866000Y-159674701D01*
X124866000Y-159667924D01*
X125374000Y-159667924D01*
X125377973Y-159681455D01*
X125385768Y-159682575D01*
X125493521Y-159650862D01*
X125504889Y-159646269D01*
X125669154Y-159560393D01*
X125679415Y-159553679D01*
X125823873Y-159437532D01*
X125832632Y-159428954D01*
X125951778Y-159286961D01*
X125958708Y-159276841D01*
X126048002Y-159114415D01*
X126052834Y-159103142D01*
X126108880Y-158926462D01*
X126111430Y-158914468D01*
X126127607Y-158770239D01*
X126128000Y-158763215D01*
X126128000Y-158682115D01*
X126123525Y-158666876D01*
X126122135Y-158665671D01*
X126114452Y-158664000D01*
X125392115Y-158664000D01*
X125376876Y-158668475D01*
X125375671Y-158669865D01*
X125374000Y-158677548D01*
X125374000Y-159667924D01*
X124866000Y-159667924D01*
X124866000Y-158682115D01*
X124861525Y-158666876D01*
X124860135Y-158665671D01*
X124852452Y-158664000D01*
X124130115Y-158664000D01*
X124114876Y-158668475D01*
X124113671Y-158669865D01*
X124112000Y-158677548D01*
X124112000Y-158756657D01*
X117488000Y-158756657D01*
X117488000Y-158682115D01*
X117483525Y-158666876D01*
X117482135Y-158665671D01*
X117474452Y-158664000D01*
X116752115Y-158664000D01*
X116736876Y-158668475D01*
X116735671Y-158669865D01*
X116734000Y-158677548D01*
X116734000Y-159667924D01*
X116226000Y-159667924D01*
X116226000Y-158682115D01*
X116221525Y-158666876D01*
X116220135Y-158665671D01*
X116212452Y-158664000D01*
X115490115Y-158664000D01*
X115474876Y-158668475D01*
X115473671Y-158669865D01*
X115472000Y-158677548D01*
X115472000Y-158756657D01*
X96664602Y-158756657D01*
X96987604Y-158433655D01*
X96996385Y-158425665D01*
X96996387Y-158425664D01*
X97003080Y-158421416D01*
X97051620Y-158369726D01*
X97054374Y-158366885D01*
X97074926Y-158346333D01*
X97077638Y-158342837D01*
X97085349Y-158333808D01*
X97097183Y-158321206D01*
X97116972Y-158300133D01*
X97120794Y-158293181D01*
X97127301Y-158281345D01*
X97138158Y-158264816D01*
X97146447Y-158254131D01*
X97146448Y-158254129D01*
X97151304Y-158247869D01*
X97169657Y-158205456D01*
X97174868Y-158194819D01*
X97197124Y-158154337D01*
X97200176Y-158142452D01*
X97201348Y-158137885D01*
X115472000Y-158137885D01*
X115476475Y-158153124D01*
X115477865Y-158154329D01*
X115485548Y-158156000D01*
X116207885Y-158156000D01*
X116223124Y-158151525D01*
X116224329Y-158150135D01*
X116226000Y-158142452D01*
X116226000Y-158137885D01*
X116734000Y-158137885D01*
X116738475Y-158153124D01*
X116739865Y-158154329D01*
X116747548Y-158156000D01*
X117469885Y-158156000D01*
X117485124Y-158151525D01*
X117486329Y-158150135D01*
X117488000Y-158142452D01*
X117488000Y-158137885D01*
X124112000Y-158137885D01*
X124116475Y-158153124D01*
X124117865Y-158154329D01*
X124125548Y-158156000D01*
X124847885Y-158156000D01*
X124863124Y-158151525D01*
X124864329Y-158150135D01*
X124866000Y-158142452D01*
X124866000Y-158137885D01*
X125374000Y-158137885D01*
X125378475Y-158153124D01*
X125379865Y-158154329D01*
X125387548Y-158156000D01*
X126109885Y-158156000D01*
X126125124Y-158151525D01*
X126126329Y-158150135D01*
X126128000Y-158142452D01*
X126128000Y-158063343D01*
X126127699Y-158057195D01*
X126114188Y-157919397D01*
X126111805Y-157907362D01*
X126058233Y-157729924D01*
X126053559Y-157718584D01*
X125966540Y-157554923D01*
X125959751Y-157544706D01*
X125842603Y-157401067D01*
X125833959Y-157392363D01*
X125691144Y-157274216D01*
X125680973Y-157267356D01*
X125517924Y-157179196D01*
X125506619Y-157174444D01*
X125391308Y-157138750D01*
X125377205Y-157138544D01*
X125374000Y-157145299D01*
X125374000Y-158137885D01*
X124866000Y-158137885D01*
X124866000Y-157152076D01*
X124862027Y-157138545D01*
X124854232Y-157137425D01*
X124746479Y-157169138D01*
X124735111Y-157173731D01*
X124570846Y-157259607D01*
X124560585Y-157266321D01*
X124416127Y-157382468D01*
X124407368Y-157391046D01*
X124288222Y-157533039D01*
X124281292Y-157543159D01*
X124191998Y-157705585D01*
X124187166Y-157716858D01*
X124131120Y-157893538D01*
X124128570Y-157905532D01*
X124112393Y-158049761D01*
X124112000Y-158056785D01*
X124112000Y-158137885D01*
X117488000Y-158137885D01*
X117488000Y-158063343D01*
X117487699Y-158057195D01*
X117474188Y-157919397D01*
X117471805Y-157907362D01*
X117418233Y-157729924D01*
X117413559Y-157718584D01*
X117326540Y-157554923D01*
X117319751Y-157544706D01*
X117202603Y-157401067D01*
X117193959Y-157392363D01*
X117051144Y-157274216D01*
X117040973Y-157267356D01*
X116877924Y-157179196D01*
X116866619Y-157174444D01*
X116751308Y-157138750D01*
X116737205Y-157138544D01*
X116734000Y-157145299D01*
X116734000Y-158137885D01*
X116226000Y-158137885D01*
X116226000Y-157152076D01*
X116222027Y-157138545D01*
X116214232Y-157137425D01*
X116106479Y-157169138D01*
X116095111Y-157173731D01*
X115930846Y-157259607D01*
X115920585Y-157266321D01*
X115776127Y-157382468D01*
X115767368Y-157391046D01*
X115648222Y-157533039D01*
X115641292Y-157543159D01*
X115551998Y-157705585D01*
X115547166Y-157716858D01*
X115491120Y-157893538D01*
X115488570Y-157905532D01*
X115472393Y-158049761D01*
X115472000Y-158056785D01*
X115472000Y-158137885D01*
X97201348Y-158137885D01*
X97202457Y-158133566D01*
X97208859Y-158114864D01*
X97217379Y-158095177D01*
X97223395Y-158057195D01*
X97224605Y-158049552D01*
X97227013Y-158037926D01*
X97236529Y-158000865D01*
X97236529Y-158000864D01*
X97238500Y-157993188D01*
X97238500Y-157971742D01*
X97240051Y-157952031D01*
X97242166Y-157938678D01*
X97243406Y-157930849D01*
X97239059Y-157884864D01*
X97238500Y-157873006D01*
X97238500Y-148134950D01*
X97258502Y-148066829D01*
X97275405Y-148045855D01*
X99576405Y-145744855D01*
X99638717Y-145710829D01*
X99709532Y-145715894D01*
X99766368Y-145758441D01*
X99791179Y-145824961D01*
X99791500Y-145833950D01*
X99791500Y-155667944D01*
X99790941Y-155679800D01*
X99789212Y-155687537D01*
X99789461Y-155695459D01*
X99791438Y-155758369D01*
X99791500Y-155762327D01*
X99791500Y-155791432D01*
X99792056Y-155795832D01*
X99792988Y-155807664D01*
X99794438Y-155853831D01*
X99796650Y-155861444D01*
X99796650Y-155861445D01*
X99800419Y-155874416D01*
X99804430Y-155893782D01*
X99807118Y-155915064D01*
X99810034Y-155922429D01*
X99810035Y-155922433D01*
X99824126Y-155958021D01*
X99827965Y-155969231D01*
X99840855Y-156013600D01*
X99851775Y-156032065D01*
X99860466Y-156049805D01*
X99868365Y-156069756D01*
X99891250Y-156101254D01*
X99895516Y-156107126D01*
X99902033Y-156117048D01*
X99921507Y-156149977D01*
X99921510Y-156149981D01*
X99925547Y-156156807D01*
X99940711Y-156171971D01*
X99953551Y-156187004D01*
X99966159Y-156204357D01*
X99997890Y-156230607D01*
X100001752Y-156233802D01*
X100010532Y-156241792D01*
X100147030Y-156378290D01*
X100181056Y-156440602D01*
X100183244Y-156454211D01*
X100188405Y-156503305D01*
X100193214Y-156549059D01*
X100196458Y-156579928D01*
X100255473Y-156761556D01*
X100258776Y-156767278D01*
X100258777Y-156767279D01*
X100292686Y-156826010D01*
X100350960Y-156926944D01*
X100355378Y-156931851D01*
X100355379Y-156931852D01*
X100474325Y-157063955D01*
X100478747Y-157068866D01*
X100573110Y-157137425D01*
X100623081Y-157173731D01*
X100633248Y-157181118D01*
X100639276Y-157183802D01*
X100639278Y-157183803D01*
X100801681Y-157256109D01*
X100807712Y-157258794D01*
X100897575Y-157277895D01*
X100988056Y-157297128D01*
X100988061Y-157297128D01*
X100994513Y-157298500D01*
X101185487Y-157298500D01*
X101191939Y-157297128D01*
X101191944Y-157297128D01*
X101282425Y-157277895D01*
X101372288Y-157258794D01*
X101378319Y-157256109D01*
X101540722Y-157183803D01*
X101540724Y-157183802D01*
X101546752Y-157181118D01*
X101556920Y-157173731D01*
X101606890Y-157137425D01*
X101701253Y-157068866D01*
X101705675Y-157063955D01*
X101824621Y-156931852D01*
X101824622Y-156931851D01*
X101829040Y-156926944D01*
X101887314Y-156826010D01*
X101921223Y-156767279D01*
X101921224Y-156767278D01*
X101924527Y-156761556D01*
X101983542Y-156579928D01*
X101985821Y-156558251D01*
X102002814Y-156396565D01*
X102003504Y-156390000D01*
X102000660Y-156362945D01*
X101984232Y-156206635D01*
X101984232Y-156206633D01*
X101983542Y-156200072D01*
X101924527Y-156018444D01*
X101829040Y-155853056D01*
X101777967Y-155796333D01*
X101705675Y-155716045D01*
X101705674Y-155716044D01*
X101701253Y-155711134D01*
X101590123Y-155630393D01*
X101552094Y-155602763D01*
X101552093Y-155602762D01*
X101546752Y-155598882D01*
X101540724Y-155596198D01*
X101540722Y-155596197D01*
X101378319Y-155523891D01*
X101378318Y-155523891D01*
X101372288Y-155521206D01*
X101208302Y-155486350D01*
X101145830Y-155452622D01*
X101111508Y-155390472D01*
X101108500Y-155363103D01*
X101108500Y-154826657D01*
X115472000Y-154826657D01*
X115472301Y-154832805D01*
X115485812Y-154970603D01*
X115488195Y-154982638D01*
X115541767Y-155160076D01*
X115546441Y-155171416D01*
X115633460Y-155335077D01*
X115640249Y-155345294D01*
X115757397Y-155488933D01*
X115766041Y-155497637D01*
X115908856Y-155615784D01*
X115919027Y-155622644D01*
X116082076Y-155710804D01*
X116093381Y-155715556D01*
X116208692Y-155751250D01*
X116222795Y-155751456D01*
X116226000Y-155744701D01*
X116226000Y-155737924D01*
X116734000Y-155737924D01*
X116737973Y-155751455D01*
X116745768Y-155752575D01*
X116853521Y-155720862D01*
X116864889Y-155716269D01*
X117029154Y-155630393D01*
X117039415Y-155623679D01*
X117183873Y-155507532D01*
X117192632Y-155498954D01*
X117237000Y-155446079D01*
X117296110Y-155406752D01*
X117367098Y-155405626D01*
X117410048Y-155426972D01*
X117475678Y-155477150D01*
X117580814Y-155526175D01*
X117633631Y-155550805D01*
X117633634Y-155550806D01*
X117639808Y-155553685D01*
X117646456Y-155555171D01*
X117646459Y-155555172D01*
X117752421Y-155578857D01*
X117816543Y-155593190D01*
X117822088Y-155593500D01*
X117955244Y-155593500D01*
X118090037Y-155578857D01*
X118226520Y-155532925D01*
X118255204Y-155523272D01*
X118255206Y-155523271D01*
X118261675Y-155521094D01*
X118416905Y-155427823D01*
X118421862Y-155423135D01*
X118421865Y-155423133D01*
X118543527Y-155308082D01*
X118543529Y-155308080D01*
X118548485Y-155303393D01*
X118552317Y-155297755D01*
X118552320Y-155297751D01*
X118646442Y-155159255D01*
X118650277Y-155153612D01*
X118717530Y-154985466D01*
X118718644Y-154978738D01*
X118718645Y-154978734D01*
X118745993Y-154813539D01*
X118745993Y-154813536D01*
X118747108Y-154806802D01*
X118743115Y-154730602D01*
X118742203Y-154713198D01*
X122852892Y-154713198D01*
X122853249Y-154720015D01*
X122853249Y-154720019D01*
X122859550Y-154840239D01*
X122862370Y-154894047D01*
X122864181Y-154900620D01*
X122864181Y-154900623D01*
X122899364Y-155028355D01*
X122910461Y-155068641D01*
X122994922Y-155228836D01*
X122999327Y-155234049D01*
X122999330Y-155234053D01*
X123107406Y-155361943D01*
X123107410Y-155361947D01*
X123111813Y-155367157D01*
X123117237Y-155371304D01*
X123117238Y-155371305D01*
X123250257Y-155473006D01*
X123250261Y-155473009D01*
X123255678Y-155477150D01*
X123360814Y-155526175D01*
X123413631Y-155550805D01*
X123413634Y-155550806D01*
X123419808Y-155553685D01*
X123426456Y-155555171D01*
X123426459Y-155555172D01*
X123532421Y-155578857D01*
X123596543Y-155593190D01*
X123602088Y-155593500D01*
X123735244Y-155593500D01*
X123870037Y-155578857D01*
X124006520Y-155532925D01*
X124035204Y-155523272D01*
X124035206Y-155523271D01*
X124041675Y-155521094D01*
X124193651Y-155429778D01*
X124193654Y-155429777D01*
X124196905Y-155427823D01*
X124197255Y-155428406D01*
X124258917Y-155404935D01*
X124328391Y-155419561D01*
X124366391Y-155450915D01*
X124397397Y-155488933D01*
X124406041Y-155497637D01*
X124548856Y-155615784D01*
X124559027Y-155622644D01*
X124722076Y-155710804D01*
X124733381Y-155715556D01*
X124848692Y-155751250D01*
X124862795Y-155751456D01*
X124866000Y-155744701D01*
X124866000Y-155737924D01*
X125374000Y-155737924D01*
X125377973Y-155751455D01*
X125385768Y-155752575D01*
X125493521Y-155720862D01*
X125504889Y-155716269D01*
X125669154Y-155630393D01*
X125679415Y-155623679D01*
X125823873Y-155507532D01*
X125832632Y-155498954D01*
X125951778Y-155356961D01*
X125958708Y-155346841D01*
X126048002Y-155184415D01*
X126052834Y-155173142D01*
X126108880Y-154996462D01*
X126111430Y-154984468D01*
X126127607Y-154840239D01*
X126128000Y-154833215D01*
X126128000Y-154420930D01*
X126148002Y-154352809D01*
X126201658Y-154306316D01*
X126271932Y-154296212D01*
X126336512Y-154325706D01*
X126368701Y-154368779D01*
X126432629Y-154509382D01*
X126438576Y-154519724D01*
X126553968Y-154682397D01*
X126561761Y-154691425D01*
X126705831Y-154829342D01*
X126715196Y-154836738D01*
X126882741Y-154944921D01*
X126893345Y-154950417D01*
X127078312Y-155024961D01*
X127089770Y-155028355D01*
X127286928Y-155066857D01*
X127295791Y-155067934D01*
X127298500Y-155068000D01*
X127527885Y-155068000D01*
X127543124Y-155063525D01*
X127544329Y-155062135D01*
X127546000Y-155054452D01*
X127546000Y-152870115D01*
X127541525Y-152854876D01*
X127540135Y-152853671D01*
X127532452Y-152852000D01*
X127350168Y-152852000D01*
X127344192Y-152852285D01*
X127195506Y-152866471D01*
X127183772Y-152868730D01*
X126992401Y-152924872D01*
X126981325Y-152929302D01*
X126804022Y-153020619D01*
X126793976Y-153027069D01*
X126637143Y-153150262D01*
X126628494Y-153158499D01*
X126497788Y-153309123D01*
X126490853Y-153318847D01*
X126390990Y-153491467D01*
X126386013Y-153502337D01*
X126363416Y-153567409D01*
X126322175Y-153625198D01*
X126256236Y-153651517D01*
X126186537Y-153638009D01*
X126135205Y-153588962D01*
X126118990Y-153538370D01*
X126114188Y-153489397D01*
X126111805Y-153477362D01*
X126058233Y-153299924D01*
X126053559Y-153288584D01*
X125966540Y-153124923D01*
X125959751Y-153114706D01*
X125842603Y-152971067D01*
X125833959Y-152962363D01*
X125691144Y-152844216D01*
X125680973Y-152837356D01*
X125517924Y-152749196D01*
X125506619Y-152744444D01*
X125391308Y-152708750D01*
X125377205Y-152708544D01*
X125374000Y-152715299D01*
X125374000Y-155737924D01*
X124866000Y-155737924D01*
X124866000Y-152722076D01*
X124862027Y-152708545D01*
X124854232Y-152707425D01*
X124746479Y-152739138D01*
X124735111Y-152743731D01*
X124570846Y-152829607D01*
X124560585Y-152836321D01*
X124416127Y-152952468D01*
X124407368Y-152961046D01*
X124288222Y-153103039D01*
X124281292Y-153113159D01*
X124191998Y-153275585D01*
X124187166Y-153286858D01*
X124131120Y-153463538D01*
X124128570Y-153475532D01*
X124112393Y-153619761D01*
X124112000Y-153626785D01*
X124112000Y-153842974D01*
X124091998Y-153911095D01*
X124038342Y-153957588D01*
X123968068Y-153967692D01*
X123958514Y-153965939D01*
X123788506Y-153927938D01*
X123788499Y-153927937D01*
X123783457Y-153926810D01*
X123777912Y-153926500D01*
X123644756Y-153926500D01*
X123509963Y-153941143D01*
X123391810Y-153980906D01*
X123344796Y-153996728D01*
X123344794Y-153996729D01*
X123338325Y-153998906D01*
X123183095Y-154092177D01*
X123178138Y-154096865D01*
X123178135Y-154096867D01*
X123056473Y-154211918D01*
X123051515Y-154216607D01*
X123047683Y-154222245D01*
X123047680Y-154222249D01*
X122963685Y-154345844D01*
X122949723Y-154366388D01*
X122882470Y-154534534D01*
X122881356Y-154541262D01*
X122881355Y-154541266D01*
X122855105Y-154699830D01*
X122852892Y-154713198D01*
X118742203Y-154713198D01*
X118737987Y-154632766D01*
X118737630Y-154625953D01*
X118733834Y-154612169D01*
X118691352Y-154457941D01*
X118689539Y-154451359D01*
X118605078Y-154291164D01*
X118600673Y-154285951D01*
X118600670Y-154285947D01*
X118492594Y-154158057D01*
X118492590Y-154158053D01*
X118488187Y-154152843D01*
X118428808Y-154107444D01*
X118349743Y-154046994D01*
X118349739Y-154046991D01*
X118344322Y-154042850D01*
X118200962Y-153976000D01*
X118186369Y-153969195D01*
X118186366Y-153969194D01*
X118180192Y-153966315D01*
X118173544Y-153964829D01*
X118173541Y-153964828D01*
X118008494Y-153927936D01*
X118008495Y-153927936D01*
X118003457Y-153926810D01*
X117997912Y-153926500D01*
X117864756Y-153926500D01*
X117729963Y-153941143D01*
X117723499Y-153943318D01*
X117723496Y-153943319D01*
X117666645Y-153962452D01*
X117655167Y-153966315D01*
X117654189Y-153966644D01*
X117583247Y-153969414D01*
X117522068Y-153933391D01*
X117490077Y-153870010D01*
X117488000Y-153847225D01*
X117488000Y-153633343D01*
X117487699Y-153627195D01*
X117474188Y-153489397D01*
X117471805Y-153477362D01*
X117418233Y-153299924D01*
X117413559Y-153288584D01*
X117326540Y-153124923D01*
X117319751Y-153114706D01*
X117202603Y-152971067D01*
X117193959Y-152962363D01*
X117051144Y-152844216D01*
X117040973Y-152837356D01*
X116877924Y-152749196D01*
X116866619Y-152744444D01*
X116751308Y-152708750D01*
X116737205Y-152708544D01*
X116734000Y-152715299D01*
X116734000Y-155737924D01*
X116226000Y-155737924D01*
X116226000Y-154502115D01*
X116221525Y-154486876D01*
X116220135Y-154485671D01*
X116212452Y-154484000D01*
X115490115Y-154484000D01*
X115474876Y-154488475D01*
X115473671Y-154489865D01*
X115472000Y-154497548D01*
X115472000Y-154826657D01*
X101108500Y-154826657D01*
X101108500Y-147743950D01*
X101128502Y-147675829D01*
X101182158Y-147629336D01*
X101252432Y-147619232D01*
X101317012Y-147648726D01*
X101323595Y-147654855D01*
X107217030Y-153548290D01*
X107251056Y-153610602D01*
X107253244Y-153624211D01*
X107266458Y-153749928D01*
X107268498Y-153756205D01*
X107268498Y-153756207D01*
X107291988Y-153828502D01*
X107325473Y-153931556D01*
X107328776Y-153937278D01*
X107328777Y-153937279D01*
X107340674Y-153957885D01*
X107420960Y-154096944D01*
X107425378Y-154101851D01*
X107425379Y-154101852D01*
X107524483Y-154211918D01*
X107548747Y-154238866D01*
X107629158Y-154297288D01*
X107692046Y-154342979D01*
X107703248Y-154351118D01*
X107709276Y-154353802D01*
X107709278Y-154353803D01*
X107860049Y-154420930D01*
X107877712Y-154428794D01*
X107971113Y-154448647D01*
X108058056Y-154467128D01*
X108058061Y-154467128D01*
X108064513Y-154468500D01*
X108255487Y-154468500D01*
X108261939Y-154467128D01*
X108261944Y-154467128D01*
X108348887Y-154448647D01*
X108442288Y-154428794D01*
X108459951Y-154420930D01*
X108610722Y-154353803D01*
X108610724Y-154353802D01*
X108616752Y-154351118D01*
X108627955Y-154342979D01*
X108690842Y-154297288D01*
X108771253Y-154238866D01*
X108795517Y-154211918D01*
X108894621Y-154101852D01*
X108894622Y-154101851D01*
X108899040Y-154096944D01*
X108979326Y-153957885D01*
X108991223Y-153937279D01*
X108991224Y-153937278D01*
X108994527Y-153931556D01*
X109053542Y-153749928D01*
X109062086Y-153668642D01*
X109072814Y-153566565D01*
X109073504Y-153560000D01*
X109068800Y-153515241D01*
X109054232Y-153376635D01*
X109054232Y-153376633D01*
X109053542Y-153370072D01*
X108994527Y-153188444D01*
X108899040Y-153023056D01*
X108855842Y-152975079D01*
X108775675Y-152886045D01*
X108775674Y-152886044D01*
X108771253Y-152881134D01*
X108631204Y-152779382D01*
X108622094Y-152772763D01*
X108622093Y-152772762D01*
X108616752Y-152768882D01*
X108610724Y-152766198D01*
X108610722Y-152766197D01*
X108448319Y-152693891D01*
X108448318Y-152693891D01*
X108442288Y-152691206D01*
X108348888Y-152671353D01*
X108261944Y-152652872D01*
X108261939Y-152652872D01*
X108255487Y-152651500D01*
X108234950Y-152651500D01*
X108166829Y-152631498D01*
X108145855Y-152614595D01*
X108004855Y-152473595D01*
X107970829Y-152411283D01*
X107975894Y-152340468D01*
X108018441Y-152283632D01*
X108084961Y-152258821D01*
X108093950Y-152258500D01*
X108235487Y-152258500D01*
X108241939Y-152257128D01*
X108241944Y-152257128D01*
X108328888Y-152238647D01*
X108422288Y-152218794D01*
X108428319Y-152216109D01*
X108590722Y-152143803D01*
X108590724Y-152143802D01*
X108596752Y-152141118D01*
X108612592Y-152129610D01*
X108746163Y-152032564D01*
X108813031Y-152008706D01*
X108820224Y-152008500D01*
X110165050Y-152008500D01*
X110233171Y-152028502D01*
X110254145Y-152045405D01*
X111416345Y-153207605D01*
X111424335Y-153216385D01*
X111428584Y-153223080D01*
X111434362Y-153228506D01*
X111434363Y-153228507D01*
X111480257Y-153271604D01*
X111483099Y-153274359D01*
X111503667Y-153294927D01*
X111507170Y-153297644D01*
X111516195Y-153305352D01*
X111549867Y-153336972D01*
X111556818Y-153340793D01*
X111556819Y-153340794D01*
X111568658Y-153347303D01*
X111585182Y-153358157D01*
X111592450Y-153363794D01*
X111602132Y-153371304D01*
X111609404Y-153374451D01*
X111609406Y-153374452D01*
X111644535Y-153389654D01*
X111655195Y-153394876D01*
X111685168Y-153411354D01*
X111695663Y-153417124D01*
X111716441Y-153422459D01*
X111735131Y-153428858D01*
X111754824Y-153437380D01*
X111789563Y-153442882D01*
X111800448Y-153444606D01*
X111812071Y-153447013D01*
X111836754Y-153453350D01*
X111856812Y-153458500D01*
X111878259Y-153458500D01*
X111897969Y-153460051D01*
X111919152Y-153463406D01*
X111965141Y-153459059D01*
X111976996Y-153458500D01*
X114597944Y-153458500D01*
X114609800Y-153459059D01*
X114609803Y-153459059D01*
X114617537Y-153460788D01*
X114688369Y-153458562D01*
X114692327Y-153458500D01*
X114721432Y-153458500D01*
X114725832Y-153457944D01*
X114737664Y-153457012D01*
X114783831Y-153455562D01*
X114804421Y-153449580D01*
X114823782Y-153445570D01*
X114831416Y-153444606D01*
X114837204Y-153443875D01*
X114837205Y-153443875D01*
X114845064Y-153442882D01*
X114852429Y-153439966D01*
X114852433Y-153439965D01*
X114888021Y-153425874D01*
X114899231Y-153422035D01*
X114943600Y-153409145D01*
X114962065Y-153398225D01*
X114979805Y-153389534D01*
X114999756Y-153381635D01*
X115037129Y-153354482D01*
X115047048Y-153347967D01*
X115079977Y-153328493D01*
X115079981Y-153328490D01*
X115086807Y-153324453D01*
X115101971Y-153309289D01*
X115117005Y-153296448D01*
X115134357Y-153283841D01*
X115163803Y-153248247D01*
X115171792Y-153239468D01*
X115434319Y-152976941D01*
X115496631Y-152942915D01*
X115567446Y-152947980D01*
X115624282Y-152990527D01*
X115649093Y-153057047D01*
X115633829Y-153126737D01*
X115551994Y-153275593D01*
X115547166Y-153286858D01*
X115491120Y-153463538D01*
X115488570Y-153475532D01*
X115472393Y-153619761D01*
X115472000Y-153626785D01*
X115472000Y-153957885D01*
X115476475Y-153973124D01*
X115477865Y-153974329D01*
X115485548Y-153976000D01*
X116207885Y-153976000D01*
X116223124Y-153971525D01*
X116224329Y-153970135D01*
X116226000Y-153962452D01*
X116226000Y-152722076D01*
X116222027Y-152708545D01*
X116214232Y-152707425D01*
X116106479Y-152739138D01*
X116095111Y-152743731D01*
X115928823Y-152830664D01*
X115859187Y-152844498D01*
X115793127Y-152818488D01*
X115751615Y-152760892D01*
X115747832Y-152689996D01*
X115781353Y-152629907D01*
X117567605Y-150843655D01*
X117576385Y-150835665D01*
X117576387Y-150835663D01*
X117583080Y-150831416D01*
X117600348Y-150813028D01*
X117631604Y-150779743D01*
X117634359Y-150776901D01*
X117654927Y-150756333D01*
X117657647Y-150752826D01*
X117665353Y-150743804D01*
X117691544Y-150715913D01*
X117696972Y-150710133D01*
X117700794Y-150703181D01*
X117707303Y-150691342D01*
X117718157Y-150674818D01*
X117726445Y-150664132D01*
X117731304Y-150657868D01*
X117744641Y-150627048D01*
X117749654Y-150615465D01*
X117754876Y-150604805D01*
X117773305Y-150571284D01*
X117773306Y-150571282D01*
X117777124Y-150564337D01*
X117782459Y-150543559D01*
X117788858Y-150524869D01*
X117797380Y-150505176D01*
X117804606Y-150459552D01*
X117807013Y-150447929D01*
X117816528Y-150410868D01*
X117818500Y-150403188D01*
X117818500Y-150381741D01*
X117820051Y-150362031D01*
X117822166Y-150348677D01*
X117823406Y-150340848D01*
X117819059Y-150294859D01*
X117818500Y-150283004D01*
X117818500Y-147304500D01*
X117838502Y-147236379D01*
X117892158Y-147189886D01*
X117944500Y-147178500D01*
X118597944Y-147178500D01*
X118609800Y-147179059D01*
X118609803Y-147179059D01*
X118617537Y-147180788D01*
X118688369Y-147178562D01*
X118692327Y-147178500D01*
X118721432Y-147178500D01*
X118725832Y-147177944D01*
X118737662Y-147177013D01*
X118767521Y-147176074D01*
X118836234Y-147193927D01*
X118884389Y-147246096D01*
X118896695Y-147316018D01*
X118869245Y-147381493D01*
X118837313Y-147409443D01*
X118814806Y-147423236D01*
X118814799Y-147423241D01*
X118810584Y-147425824D01*
X118630031Y-147580031D01*
X118475824Y-147760584D01*
X118473245Y-147764792D01*
X118473241Y-147764798D01*
X118365302Y-147940939D01*
X118351760Y-147963037D01*
X118349867Y-147967607D01*
X118349865Y-147967611D01*
X118262789Y-148177833D01*
X118260895Y-148182406D01*
X118241640Y-148262609D01*
X118208074Y-148402422D01*
X118205465Y-148413289D01*
X118186835Y-148650000D01*
X118205465Y-148886711D01*
X118206619Y-148891518D01*
X118206620Y-148891524D01*
X118235975Y-149013793D01*
X118260895Y-149117594D01*
X118262788Y-149122165D01*
X118262789Y-149122167D01*
X118317162Y-149253435D01*
X118351760Y-149336963D01*
X118354346Y-149341183D01*
X118473241Y-149535202D01*
X118473245Y-149535208D01*
X118475824Y-149539416D01*
X118630031Y-149719969D01*
X118810584Y-149874176D01*
X118814792Y-149876755D01*
X118814798Y-149876759D01*
X119007831Y-149995050D01*
X119013037Y-149998240D01*
X119017607Y-150000133D01*
X119017611Y-150000135D01*
X119227833Y-150087211D01*
X119232406Y-150089105D01*
X119277758Y-150099993D01*
X119458476Y-150143380D01*
X119458482Y-150143381D01*
X119463289Y-150144535D01*
X119700000Y-150163165D01*
X119936711Y-150144535D01*
X119941518Y-150143381D01*
X119941524Y-150143380D01*
X120122242Y-150099993D01*
X120167594Y-150089105D01*
X120172167Y-150087211D01*
X120382389Y-150000135D01*
X120382393Y-150000133D01*
X120386963Y-149998240D01*
X120392169Y-149995050D01*
X120575556Y-149882670D01*
X121332160Y-149882670D01*
X121337887Y-149890320D01*
X121509042Y-149995205D01*
X121517837Y-149999687D01*
X121727988Y-150086734D01*
X121737373Y-150089783D01*
X121958554Y-150142885D01*
X121968301Y-150144428D01*
X122195070Y-150162275D01*
X122204930Y-150162275D01*
X122431699Y-150144428D01*
X122441446Y-150142885D01*
X122662627Y-150089783D01*
X122672012Y-150086734D01*
X122882163Y-149999687D01*
X122890958Y-149995205D01*
X123058445Y-149892568D01*
X123067907Y-149882110D01*
X123064124Y-149873334D01*
X122212812Y-149022022D01*
X122198868Y-149014408D01*
X122197035Y-149014539D01*
X122190420Y-149018790D01*
X121338920Y-149870290D01*
X121332160Y-149882670D01*
X120575556Y-149882670D01*
X120585202Y-149876759D01*
X120585208Y-149876755D01*
X120589416Y-149874176D01*
X120769969Y-149719969D01*
X120908753Y-149557474D01*
X120954686Y-149523598D01*
X120976668Y-149514122D01*
X121827978Y-148662812D01*
X121834356Y-148651132D01*
X122564408Y-148651132D01*
X122564539Y-148652965D01*
X122568790Y-148659580D01*
X123420290Y-149511080D01*
X123458648Y-149532026D01*
X123494072Y-149560782D01*
X123626823Y-149716213D01*
X123630031Y-149719969D01*
X123810584Y-149874176D01*
X123814792Y-149876755D01*
X123814798Y-149876759D01*
X124007831Y-149995050D01*
X124013037Y-149998240D01*
X124017607Y-150000133D01*
X124017611Y-150000135D01*
X124227833Y-150087211D01*
X124232406Y-150089105D01*
X124277758Y-150099993D01*
X124458476Y-150143380D01*
X124458482Y-150143381D01*
X124463289Y-150144535D01*
X124700000Y-150163165D01*
X124936711Y-150144535D01*
X124941518Y-150143381D01*
X124941524Y-150143380D01*
X125122242Y-150099993D01*
X125167594Y-150089105D01*
X125172167Y-150087211D01*
X125382389Y-150000135D01*
X125382393Y-150000133D01*
X125386963Y-149998240D01*
X125392169Y-149995050D01*
X125585202Y-149876759D01*
X125585208Y-149876755D01*
X125589416Y-149874176D01*
X125769969Y-149719969D01*
X125924176Y-149539416D01*
X125926755Y-149535208D01*
X125926759Y-149535202D01*
X126045654Y-149341183D01*
X126048240Y-149336963D01*
X126082839Y-149253435D01*
X126137211Y-149122167D01*
X126137212Y-149122165D01*
X126139105Y-149117594D01*
X126164025Y-149013793D01*
X126193380Y-148891524D01*
X126193381Y-148891518D01*
X126194535Y-148886711D01*
X126213165Y-148650000D01*
X126194535Y-148413289D01*
X126191927Y-148402422D01*
X126158360Y-148262609D01*
X126139105Y-148182406D01*
X126137211Y-148177833D01*
X126050135Y-147967611D01*
X126050133Y-147967607D01*
X126048240Y-147963037D01*
X126034698Y-147940939D01*
X125926759Y-147764798D01*
X125926755Y-147764792D01*
X125924176Y-147760584D01*
X125769969Y-147580031D01*
X125589416Y-147425824D01*
X125585208Y-147423245D01*
X125585202Y-147423241D01*
X125391183Y-147304346D01*
X125386963Y-147301760D01*
X125382393Y-147299867D01*
X125382389Y-147299865D01*
X125172167Y-147212789D01*
X125172165Y-147212788D01*
X125167594Y-147210895D01*
X125080085Y-147189886D01*
X124941524Y-147156620D01*
X124941518Y-147156619D01*
X124936711Y-147155465D01*
X124700000Y-147136835D01*
X124463289Y-147155465D01*
X124458482Y-147156619D01*
X124458476Y-147156620D01*
X124319915Y-147189886D01*
X124232406Y-147210895D01*
X124227835Y-147212788D01*
X124227833Y-147212789D01*
X124017611Y-147299865D01*
X124017607Y-147299867D01*
X124013037Y-147301760D01*
X124008817Y-147304346D01*
X123814798Y-147423241D01*
X123814792Y-147423245D01*
X123810584Y-147425824D01*
X123630031Y-147580031D01*
X123626823Y-147583787D01*
X123491247Y-147742526D01*
X123445314Y-147776402D01*
X123423332Y-147785878D01*
X122572022Y-148637188D01*
X122564408Y-148651132D01*
X121834356Y-148651132D01*
X121835592Y-148648868D01*
X121835461Y-148647035D01*
X121831210Y-148640420D01*
X120979710Y-147788920D01*
X120941352Y-147767974D01*
X120905928Y-147739218D01*
X120773177Y-147583787D01*
X120769969Y-147580031D01*
X120589416Y-147425824D01*
X120585208Y-147423245D01*
X120585202Y-147423241D01*
X120576470Y-147417890D01*
X121332093Y-147417890D01*
X121335876Y-147426666D01*
X122187188Y-148277978D01*
X122201132Y-148285592D01*
X122202965Y-148285461D01*
X122209580Y-148281210D01*
X123061080Y-147429710D01*
X123067840Y-147417330D01*
X123062113Y-147409680D01*
X122890958Y-147304795D01*
X122882163Y-147300313D01*
X122672012Y-147213266D01*
X122662627Y-147210217D01*
X122441446Y-147157115D01*
X122431699Y-147155572D01*
X122204930Y-147137725D01*
X122195070Y-147137725D01*
X121968301Y-147155572D01*
X121958554Y-147157115D01*
X121737373Y-147210217D01*
X121727988Y-147213266D01*
X121517837Y-147300313D01*
X121509042Y-147304795D01*
X121341555Y-147407432D01*
X121332093Y-147417890D01*
X120576470Y-147417890D01*
X120391183Y-147304346D01*
X120386963Y-147301760D01*
X120382393Y-147299867D01*
X120382389Y-147299865D01*
X120172167Y-147212789D01*
X120172165Y-147212788D01*
X120167594Y-147210895D01*
X120080085Y-147189886D01*
X119941524Y-147156620D01*
X119941518Y-147156619D01*
X119936711Y-147155465D01*
X119700000Y-147136835D01*
X119463289Y-147155465D01*
X119458482Y-147156619D01*
X119458476Y-147156620D01*
X119326840Y-147188223D01*
X119263550Y-147203418D01*
X119192643Y-147199871D01*
X119134909Y-147158551D01*
X119108679Y-147092578D01*
X119122281Y-147022896D01*
X119137051Y-147000585D01*
X119163801Y-146968249D01*
X119171792Y-146959468D01*
X120045855Y-146085405D01*
X120108167Y-146051379D01*
X120134950Y-146048500D01*
X120155487Y-146048500D01*
X120161939Y-146047128D01*
X120161944Y-146047128D01*
X120248888Y-146028647D01*
X120342288Y-146008794D01*
X120400097Y-145983056D01*
X120510722Y-145933803D01*
X120510724Y-145933802D01*
X120516752Y-145931118D01*
X120666163Y-145822564D01*
X120733031Y-145798706D01*
X120740224Y-145798500D01*
X120757944Y-145798500D01*
X120769800Y-145799059D01*
X120769803Y-145799059D01*
X120777537Y-145800788D01*
X120848369Y-145798562D01*
X120852327Y-145798500D01*
X120881432Y-145798500D01*
X120885832Y-145797944D01*
X120897664Y-145797012D01*
X120943831Y-145795562D01*
X120964421Y-145789580D01*
X120983782Y-145785570D01*
X120990770Y-145784688D01*
X120997204Y-145783875D01*
X120997205Y-145783875D01*
X121005064Y-145782882D01*
X121012429Y-145779966D01*
X121012433Y-145779965D01*
X121048021Y-145765874D01*
X121059231Y-145762035D01*
X121103600Y-145749145D01*
X121122065Y-145738225D01*
X121139805Y-145729534D01*
X121159756Y-145721635D01*
X121197129Y-145694482D01*
X121207048Y-145687967D01*
X121239977Y-145668493D01*
X121239981Y-145668490D01*
X121246807Y-145664453D01*
X121261971Y-145649289D01*
X121277005Y-145636448D01*
X121287943Y-145628501D01*
X121294357Y-145623841D01*
X121323803Y-145588247D01*
X121331792Y-145579468D01*
X121755855Y-145155405D01*
X121818167Y-145121379D01*
X121844950Y-145118500D01*
X121865487Y-145118500D01*
X121871939Y-145117128D01*
X121871944Y-145117128D01*
X121958887Y-145098647D01*
X122052288Y-145078794D01*
X122058319Y-145076109D01*
X122220722Y-145003803D01*
X122220724Y-145003802D01*
X122226752Y-145001118D01*
X122232865Y-144996677D01*
X122374722Y-144893611D01*
X122381253Y-144888866D01*
X122430931Y-144833693D01*
X122504621Y-144751852D01*
X122504622Y-144751851D01*
X122509040Y-144746944D01*
X122604527Y-144581556D01*
X122663542Y-144399928D01*
X122666475Y-144372027D01*
X122682814Y-144216565D01*
X122683504Y-144210000D01*
X122677766Y-144155405D01*
X122664232Y-144026635D01*
X122664232Y-144026633D01*
X122663542Y-144020072D01*
X122604527Y-143838444D01*
X122509040Y-143673056D01*
X122490134Y-143652058D01*
X122385675Y-143536045D01*
X122385674Y-143536044D01*
X122381253Y-143531134D01*
X122226752Y-143418882D01*
X122220724Y-143416198D01*
X122220722Y-143416197D01*
X122058319Y-143343891D01*
X122058318Y-143343891D01*
X122052288Y-143341206D01*
X121931159Y-143315459D01*
X121871944Y-143302872D01*
X121871939Y-143302872D01*
X121865487Y-143301500D01*
X121674513Y-143301500D01*
X121668061Y-143302872D01*
X121668056Y-143302872D01*
X121608841Y-143315459D01*
X121487712Y-143341206D01*
X121481682Y-143343891D01*
X121481681Y-143343891D01*
X121319278Y-143416197D01*
X121319276Y-143416198D01*
X121313248Y-143418882D01*
X121158747Y-143531134D01*
X121154326Y-143536044D01*
X121154325Y-143536045D01*
X121049867Y-143652058D01*
X121030960Y-143673056D01*
X120935473Y-143838444D01*
X120876458Y-144020072D01*
X120864011Y-144138502D01*
X120863245Y-144145786D01*
X120836232Y-144211442D01*
X120827030Y-144221710D01*
X120698901Y-144349839D01*
X120636589Y-144383865D01*
X120565774Y-144378800D01*
X120535747Y-144362681D01*
X120522099Y-144352765D01*
X120522086Y-144352758D01*
X120516752Y-144348882D01*
X120503948Y-144343181D01*
X120348319Y-144273891D01*
X120348318Y-144273891D01*
X120342288Y-144271206D01*
X120248887Y-144251353D01*
X120161944Y-144232872D01*
X120161939Y-144232872D01*
X120155487Y-144231500D01*
X120134950Y-144231500D01*
X120066829Y-144211498D01*
X120045855Y-144194595D01*
X118985405Y-143134145D01*
X118951379Y-143071833D01*
X118948500Y-143045050D01*
X118948500Y-139057073D01*
X118968502Y-138988952D01*
X119001602Y-138954302D01*
X119012723Y-138946414D01*
X119012727Y-138946410D01*
X119017611Y-138942946D01*
X119163881Y-138790150D01*
X119278620Y-138612452D01*
X119342561Y-138453793D01*
X119355442Y-138421832D01*
X119355443Y-138421829D01*
X119357686Y-138416263D01*
X119398228Y-138208663D01*
X119398500Y-138203101D01*
X119398500Y-137933972D01*
X119418502Y-137865851D01*
X119435405Y-137844877D01*
X119506905Y-137773377D01*
X119569217Y-137739351D01*
X119640032Y-137744416D01*
X119696868Y-137786963D01*
X119721679Y-137853483D01*
X119722000Y-137862472D01*
X119722000Y-138149832D01*
X119722285Y-138155808D01*
X119736471Y-138304494D01*
X119738730Y-138316228D01*
X119794872Y-138507599D01*
X119799302Y-138518675D01*
X119890619Y-138695978D01*
X119897069Y-138706024D01*
X120020262Y-138862857D01*
X120028499Y-138871506D01*
X120179123Y-139002212D01*
X120188847Y-139009147D01*
X120361467Y-139109010D01*
X120372331Y-139113984D01*
X120560727Y-139179407D01*
X120561716Y-139179648D01*
X120572008Y-139178180D01*
X120576000Y-139164615D01*
X120576000Y-139160402D01*
X121084000Y-139160402D01*
X121087973Y-139173933D01*
X121097399Y-139175288D01*
X121186537Y-139153806D01*
X121197832Y-139149917D01*
X121379382Y-139067371D01*
X121389724Y-139061424D01*
X121552397Y-138946032D01*
X121561425Y-138938239D01*
X121699342Y-138794169D01*
X121706738Y-138784804D01*
X121814921Y-138617259D01*
X121820417Y-138606655D01*
X121894961Y-138421688D01*
X121898355Y-138410230D01*
X121936857Y-138213072D01*
X121937934Y-138204209D01*
X121938000Y-138201500D01*
X121938000Y-138152846D01*
X122261500Y-138152846D01*
X122276548Y-138310566D01*
X122336092Y-138513534D01*
X122338836Y-138518861D01*
X122338836Y-138518862D01*
X122430057Y-138695978D01*
X122432942Y-138701580D01*
X122563604Y-138867920D01*
X122568135Y-138871852D01*
X122568138Y-138871855D01*
X122653620Y-138946032D01*
X122723363Y-139006552D01*
X122728549Y-139009552D01*
X122728553Y-139009555D01*
X122824957Y-139065326D01*
X122906454Y-139112473D01*
X123106271Y-139181861D01*
X123112206Y-139182722D01*
X123112208Y-139182722D01*
X123309664Y-139211352D01*
X123309667Y-139211352D01*
X123315604Y-139212213D01*
X123526899Y-139202433D01*
X123658077Y-139170819D01*
X123726701Y-139154281D01*
X123726703Y-139154280D01*
X123732534Y-139152875D01*
X123737992Y-139150393D01*
X123737996Y-139150392D01*
X123853041Y-139098084D01*
X123925087Y-139065326D01*
X124097611Y-138942946D01*
X124243881Y-138790150D01*
X124358620Y-138612452D01*
X124422561Y-138453793D01*
X124435442Y-138421832D01*
X124435443Y-138421829D01*
X124437686Y-138416263D01*
X124478228Y-138208663D01*
X124478500Y-138203101D01*
X124478500Y-138152846D01*
X124801500Y-138152846D01*
X124816548Y-138310566D01*
X124876092Y-138513534D01*
X124878836Y-138518861D01*
X124878836Y-138518862D01*
X124970057Y-138695978D01*
X124972942Y-138701580D01*
X125103604Y-138867920D01*
X125108135Y-138871852D01*
X125108138Y-138871855D01*
X125193620Y-138946032D01*
X125263363Y-139006552D01*
X125268549Y-139009552D01*
X125268553Y-139009555D01*
X125364957Y-139065326D01*
X125446454Y-139112473D01*
X125646271Y-139181861D01*
X125652206Y-139182722D01*
X125652208Y-139182722D01*
X125849664Y-139211352D01*
X125849667Y-139211352D01*
X125855604Y-139212213D01*
X126066899Y-139202433D01*
X126198077Y-139170819D01*
X126266701Y-139154281D01*
X126266703Y-139154280D01*
X126272534Y-139152875D01*
X126277992Y-139150393D01*
X126277996Y-139150392D01*
X126393041Y-139098084D01*
X126465087Y-139065326D01*
X126637611Y-138942946D01*
X126783881Y-138790150D01*
X126898620Y-138612452D01*
X126962561Y-138453793D01*
X126975442Y-138421832D01*
X126975443Y-138421829D01*
X126977686Y-138416263D01*
X127018228Y-138208663D01*
X127018500Y-138203101D01*
X127018500Y-137247154D01*
X127003452Y-137089434D01*
X126943908Y-136886466D01*
X126865493Y-136734214D01*
X126849804Y-136703751D01*
X126849802Y-136703748D01*
X126847058Y-136698420D01*
X126716396Y-136532080D01*
X126711865Y-136528148D01*
X126711862Y-136528145D01*
X126561167Y-136397379D01*
X126556637Y-136393448D01*
X126551451Y-136390448D01*
X126551447Y-136390445D01*
X126378742Y-136290533D01*
X126373546Y-136287527D01*
X126173729Y-136218139D01*
X126167794Y-136217278D01*
X126167792Y-136217278D01*
X125970336Y-136188648D01*
X125970333Y-136188648D01*
X125964396Y-136187787D01*
X125753101Y-136197567D01*
X125621923Y-136229181D01*
X125553299Y-136245719D01*
X125553297Y-136245720D01*
X125547466Y-136247125D01*
X125542008Y-136249607D01*
X125542004Y-136249608D01*
X125450990Y-136290990D01*
X125354913Y-136334674D01*
X125182389Y-136457054D01*
X125036119Y-136609850D01*
X124921380Y-136787548D01*
X124919137Y-136793114D01*
X124867000Y-136922484D01*
X124842314Y-136983737D01*
X124801772Y-137191337D01*
X124801500Y-137196899D01*
X124801500Y-138152846D01*
X124478500Y-138152846D01*
X124478500Y-137247154D01*
X124463452Y-137089434D01*
X124403908Y-136886466D01*
X124325493Y-136734214D01*
X124309804Y-136703751D01*
X124309802Y-136703748D01*
X124307058Y-136698420D01*
X124176396Y-136532080D01*
X124171865Y-136528148D01*
X124171862Y-136528145D01*
X124021167Y-136397379D01*
X124016637Y-136393448D01*
X124011451Y-136390448D01*
X124011447Y-136390445D01*
X123838742Y-136290533D01*
X123833546Y-136287527D01*
X123633729Y-136218139D01*
X123627794Y-136217278D01*
X123627792Y-136217278D01*
X123430336Y-136188648D01*
X123430333Y-136188648D01*
X123424396Y-136187787D01*
X123213101Y-136197567D01*
X123081923Y-136229181D01*
X123013299Y-136245719D01*
X123013297Y-136245720D01*
X123007466Y-136247125D01*
X123002008Y-136249607D01*
X123002004Y-136249608D01*
X122910990Y-136290990D01*
X122814913Y-136334674D01*
X122642389Y-136457054D01*
X122496119Y-136609850D01*
X122381380Y-136787548D01*
X122379137Y-136793114D01*
X122327000Y-136922484D01*
X122302314Y-136983737D01*
X122261772Y-137191337D01*
X122261500Y-137196899D01*
X122261500Y-138152846D01*
X121938000Y-138152846D01*
X121938000Y-137972115D01*
X121933525Y-137956876D01*
X121932135Y-137955671D01*
X121924452Y-137954000D01*
X121102115Y-137954000D01*
X121086876Y-137958475D01*
X121085671Y-137959865D01*
X121084000Y-137967548D01*
X121084000Y-139160402D01*
X120576000Y-139160402D01*
X120576000Y-137572000D01*
X120596002Y-137503879D01*
X120649658Y-137457386D01*
X120702000Y-137446000D01*
X121919885Y-137446000D01*
X121935124Y-137441525D01*
X121936329Y-137440135D01*
X121938000Y-137432452D01*
X121938000Y-137250168D01*
X121937715Y-137244192D01*
X121923529Y-137095506D01*
X121921270Y-137083772D01*
X121865128Y-136892401D01*
X121860698Y-136881325D01*
X121769381Y-136704022D01*
X121762931Y-136693976D01*
X121639738Y-136537143D01*
X121631501Y-136528494D01*
X121480877Y-136397788D01*
X121471153Y-136390853D01*
X121298533Y-136290990D01*
X121287665Y-136286014D01*
X121259820Y-136276344D01*
X121202031Y-136235101D01*
X121175713Y-136169163D01*
X121189222Y-136099463D01*
X121212060Y-136068222D01*
X121897612Y-135382670D01*
X123832160Y-135382670D01*
X123837887Y-135390320D01*
X124009042Y-135495205D01*
X124017837Y-135499687D01*
X124227988Y-135586734D01*
X124237373Y-135589783D01*
X124458554Y-135642885D01*
X124468301Y-135644428D01*
X124695070Y-135662275D01*
X124704930Y-135662275D01*
X124931699Y-135644428D01*
X124941446Y-135642885D01*
X125162627Y-135589783D01*
X125172012Y-135586734D01*
X125382163Y-135499687D01*
X125390958Y-135495205D01*
X125558445Y-135392568D01*
X125567907Y-135382110D01*
X125564124Y-135373334D01*
X124712812Y-134522022D01*
X124698868Y-134514408D01*
X124697035Y-134514539D01*
X124690420Y-134518790D01*
X123838920Y-135370290D01*
X123832160Y-135382670D01*
X121897612Y-135382670D01*
X122207605Y-135072677D01*
X122216385Y-135064687D01*
X122216387Y-135064685D01*
X122223080Y-135060438D01*
X122271605Y-135008764D01*
X122274359Y-135005923D01*
X122294927Y-134985355D01*
X122297647Y-134981848D01*
X122305353Y-134972826D01*
X122331544Y-134944935D01*
X122336972Y-134939155D01*
X122340794Y-134932203D01*
X122347303Y-134920364D01*
X122358157Y-134903840D01*
X122366445Y-134893154D01*
X122371304Y-134886890D01*
X122376620Y-134874606D01*
X122389654Y-134844487D01*
X122394876Y-134833827D01*
X122413305Y-134800306D01*
X122413306Y-134800304D01*
X122417124Y-134793359D01*
X122422459Y-134772581D01*
X122428858Y-134753891D01*
X122437380Y-134734198D01*
X122444606Y-134688574D01*
X122447013Y-134676951D01*
X122456528Y-134639890D01*
X122458500Y-134632210D01*
X122458500Y-134610763D01*
X122460051Y-134591053D01*
X122462166Y-134577699D01*
X122463406Y-134569870D01*
X122459059Y-134523881D01*
X122458500Y-134512026D01*
X122458500Y-134154930D01*
X123187725Y-134154930D01*
X123205572Y-134381699D01*
X123207115Y-134391446D01*
X123260217Y-134612627D01*
X123263266Y-134622012D01*
X123350313Y-134832163D01*
X123354795Y-134840958D01*
X123457432Y-135008445D01*
X123467890Y-135017907D01*
X123476666Y-135014124D01*
X124327978Y-134162812D01*
X124334356Y-134151132D01*
X125064408Y-134151132D01*
X125064539Y-134152965D01*
X125068790Y-134159580D01*
X125920290Y-135011080D01*
X125932670Y-135017840D01*
X125940320Y-135012113D01*
X126045205Y-134840958D01*
X126049687Y-134832163D01*
X126136734Y-134622012D01*
X126139783Y-134612627D01*
X126192885Y-134391446D01*
X126194428Y-134381699D01*
X126212275Y-134154930D01*
X126212275Y-134145070D01*
X126194428Y-133918301D01*
X126192885Y-133908554D01*
X126139783Y-133687373D01*
X126136734Y-133677988D01*
X126049687Y-133467837D01*
X126045205Y-133459042D01*
X125942568Y-133291555D01*
X125932110Y-133282093D01*
X125923334Y-133285876D01*
X125072022Y-134137188D01*
X125064408Y-134151132D01*
X124334356Y-134151132D01*
X124335592Y-134148868D01*
X124335461Y-134147035D01*
X124331210Y-134140420D01*
X123479710Y-133288920D01*
X123467330Y-133282160D01*
X123459680Y-133287887D01*
X123354795Y-133459042D01*
X123350313Y-133467837D01*
X123263266Y-133677988D01*
X123260217Y-133687373D01*
X123207115Y-133908554D01*
X123205572Y-133918301D01*
X123187725Y-134145070D01*
X123187725Y-134154930D01*
X122458500Y-134154930D01*
X122458500Y-133262059D01*
X122459059Y-133250203D01*
X122460789Y-133242463D01*
X122460233Y-133224756D01*
X122458562Y-133171611D01*
X122458500Y-133167653D01*
X122458500Y-133138568D01*
X122457946Y-133134179D01*
X122457013Y-133122337D01*
X122455811Y-133084094D01*
X122455562Y-133076169D01*
X122449580Y-133055579D01*
X122445570Y-133036216D01*
X122443875Y-133022796D01*
X122443875Y-133022795D01*
X122442882Y-133014936D01*
X122439966Y-133007571D01*
X122439965Y-133007567D01*
X122425874Y-132971979D01*
X122422035Y-132960769D01*
X122409145Y-132916400D01*
X122398225Y-132897935D01*
X122389534Y-132880195D01*
X122381635Y-132860244D01*
X122354482Y-132822871D01*
X122347967Y-132812952D01*
X122328493Y-132780023D01*
X122328490Y-132780019D01*
X122324453Y-132773193D01*
X122309289Y-132758029D01*
X122296448Y-132742995D01*
X122283841Y-132725643D01*
X122277731Y-132720588D01*
X122277417Y-132720254D01*
X122245365Y-132656904D01*
X122252651Y-132586282D01*
X122296961Y-132530811D01*
X122369266Y-132508000D01*
X124090099Y-132508000D01*
X124158220Y-132528002D01*
X124204713Y-132581658D01*
X124214817Y-132651932D01*
X124185323Y-132716512D01*
X124138317Y-132750409D01*
X124017837Y-132800313D01*
X124009042Y-132804795D01*
X123841555Y-132907432D01*
X123832093Y-132917890D01*
X123835876Y-132926666D01*
X124687188Y-133777978D01*
X124701132Y-133785592D01*
X124702965Y-133785461D01*
X124709580Y-133781210D01*
X125561080Y-132929710D01*
X125567840Y-132917330D01*
X125562113Y-132909680D01*
X125390958Y-132804795D01*
X125382163Y-132800313D01*
X125261683Y-132750409D01*
X125206402Y-132705861D01*
X125183981Y-132638497D01*
X125201539Y-132569706D01*
X125253501Y-132521328D01*
X125309901Y-132508000D01*
X128250673Y-132508000D01*
X128270058Y-132509500D01*
X128284859Y-132511805D01*
X128284862Y-132511805D01*
X128293731Y-132513186D01*
X128307770Y-132511350D01*
X128333989Y-132510675D01*
X128476584Y-132521897D01*
X128496112Y-132524990D01*
X128658713Y-132564027D01*
X128677513Y-132570136D01*
X128831998Y-132634127D01*
X128849613Y-132643102D01*
X128992183Y-132730468D01*
X129008179Y-132742090D01*
X129135331Y-132850688D01*
X129149312Y-132864669D01*
X129257910Y-132991821D01*
X129269532Y-133007817D01*
X129356898Y-133150387D01*
X129365873Y-133168002D01*
X129429864Y-133322487D01*
X129435975Y-133341292D01*
X129475010Y-133503887D01*
X129478103Y-133523416D01*
X129488774Y-133659012D01*
X129488133Y-133675880D01*
X129488305Y-133675882D01*
X129488195Y-133684858D01*
X129486814Y-133693729D01*
X129487978Y-133702631D01*
X129487978Y-133702634D01*
X129490936Y-133725250D01*
X129492000Y-133741588D01*
X129492000Y-139284567D01*
X129471998Y-139352688D01*
X129418342Y-139399181D01*
X129348068Y-139409285D01*
X129321770Y-139402549D01*
X129310316Y-139398255D01*
X129248134Y-139391500D01*
X127651866Y-139391500D01*
X127589684Y-139398255D01*
X127453295Y-139449385D01*
X127336739Y-139536739D01*
X127249385Y-139653295D01*
X127198255Y-139789684D01*
X127191500Y-139851866D01*
X127191500Y-142448134D01*
X127198255Y-142510316D01*
X127249385Y-142646705D01*
X127336739Y-142763261D01*
X127453295Y-142850615D01*
X127589684Y-142901745D01*
X127651866Y-142908500D01*
X129248134Y-142908500D01*
X129310316Y-142901745D01*
X129321770Y-142897451D01*
X129325149Y-142897204D01*
X129325400Y-142897144D01*
X129325410Y-142897185D01*
X129392577Y-142892268D01*
X129454946Y-142926188D01*
X129489075Y-142988443D01*
X129492000Y-143015433D01*
X129492000Y-153543057D01*
X129471998Y-153611178D01*
X129418342Y-153657671D01*
X129348068Y-153667775D01*
X129283488Y-153638281D01*
X129251299Y-153595208D01*
X129167371Y-153410618D01*
X129161424Y-153400276D01*
X129046032Y-153237603D01*
X129038239Y-153228575D01*
X128894169Y-153090658D01*
X128884804Y-153083262D01*
X128717259Y-152975079D01*
X128706655Y-152969583D01*
X128521688Y-152895039D01*
X128510230Y-152891645D01*
X128313072Y-152853143D01*
X128304209Y-152852066D01*
X128301500Y-152852000D01*
X128072115Y-152852000D01*
X128056876Y-152856475D01*
X128055671Y-152857865D01*
X128054000Y-152865548D01*
X128054000Y-155049885D01*
X128058475Y-155065124D01*
X128059865Y-155066329D01*
X128067548Y-155068000D01*
X128249832Y-155068000D01*
X128255808Y-155067715D01*
X128404494Y-155053529D01*
X128416228Y-155051270D01*
X128607599Y-154995128D01*
X128618675Y-154990698D01*
X128795978Y-154899381D01*
X128806024Y-154892931D01*
X128962857Y-154769738D01*
X128971506Y-154761501D01*
X129102212Y-154610877D01*
X129109147Y-154601153D01*
X129209010Y-154428533D01*
X129213984Y-154417669D01*
X129246972Y-154322674D01*
X129288214Y-154264884D01*
X129354152Y-154238565D01*
X129423852Y-154252073D01*
X129475184Y-154301119D01*
X129492000Y-154364007D01*
X129492000Y-156081849D01*
X129471998Y-156149970D01*
X129418342Y-156196463D01*
X129348068Y-156206567D01*
X129283488Y-156177073D01*
X129251299Y-156134000D01*
X129235701Y-156099694D01*
X129165326Y-155944913D01*
X129042946Y-155772389D01*
X128890150Y-155626119D01*
X128712452Y-155511380D01*
X128617241Y-155473009D01*
X128521832Y-155434558D01*
X128521829Y-155434557D01*
X128516263Y-155432314D01*
X128308663Y-155391772D01*
X128303101Y-155391500D01*
X127347154Y-155391500D01*
X127189434Y-155406548D01*
X126986466Y-155466092D01*
X126981139Y-155468836D01*
X126981138Y-155468836D01*
X126803751Y-155560196D01*
X126803748Y-155560198D01*
X126798420Y-155562942D01*
X126632080Y-155693604D01*
X126628148Y-155698135D01*
X126628145Y-155698138D01*
X126533098Y-155807670D01*
X126493448Y-155853363D01*
X126490448Y-155858549D01*
X126490445Y-155858553D01*
X126444415Y-155938119D01*
X126387527Y-156036454D01*
X126318139Y-156236271D01*
X126317278Y-156242206D01*
X126317278Y-156242208D01*
X126288991Y-156437303D01*
X126287787Y-156445604D01*
X126297567Y-156656899D01*
X126298971Y-156662724D01*
X126298971Y-156662725D01*
X126342332Y-156842644D01*
X126347125Y-156862534D01*
X126349607Y-156867992D01*
X126349608Y-156867996D01*
X126393053Y-156963546D01*
X126434674Y-157055087D01*
X126557054Y-157227611D01*
X126709850Y-157373881D01*
X126887548Y-157488620D01*
X126893114Y-157490863D01*
X127078168Y-157565442D01*
X127078171Y-157565443D01*
X127083737Y-157567686D01*
X127291337Y-157608228D01*
X127296899Y-157608500D01*
X128252846Y-157608500D01*
X128410566Y-157593452D01*
X128613534Y-157533908D01*
X128697111Y-157490863D01*
X128796249Y-157439804D01*
X128796252Y-157439802D01*
X128801580Y-157437058D01*
X128967920Y-157306396D01*
X128971852Y-157301865D01*
X128971855Y-157301862D01*
X129102621Y-157151167D01*
X129106552Y-157146637D01*
X129109552Y-157141451D01*
X129109555Y-157141447D01*
X129209467Y-156968742D01*
X129212473Y-156963546D01*
X129246972Y-156864199D01*
X129288214Y-156806409D01*
X129354152Y-156780090D01*
X129423852Y-156793598D01*
X129475184Y-156842644D01*
X129492000Y-156905532D01*
X129492000Y-160250673D01*
X129490500Y-160270057D01*
X129486814Y-160293731D01*
X129488454Y-160306271D01*
X129488650Y-160307768D01*
X129489325Y-160333989D01*
X129478103Y-160476584D01*
X129475010Y-160496113D01*
X129435975Y-160658708D01*
X129429864Y-160677513D01*
X129365873Y-160831998D01*
X129356898Y-160849613D01*
X129269532Y-160992183D01*
X129257910Y-161008179D01*
X129149312Y-161135331D01*
X129135331Y-161149312D01*
X129008179Y-161257910D01*
X128992183Y-161269532D01*
X128849613Y-161356898D01*
X128831998Y-161365873D01*
X128677513Y-161429864D01*
X128658713Y-161435973D01*
X128508659Y-161471998D01*
X128496113Y-161475010D01*
X128476584Y-161478103D01*
X128340988Y-161488774D01*
X128324120Y-161488133D01*
X128324118Y-161488305D01*
X128315142Y-161488195D01*
X128306271Y-161486814D01*
X128297369Y-161487978D01*
X128297366Y-161487978D01*
X128274750Y-161490936D01*
X128258412Y-161492000D01*
X92974000Y-161492000D01*
X92905879Y-161471998D01*
X92859386Y-161418342D01*
X92848000Y-161366000D01*
X92848000Y-159882115D01*
X92843525Y-159866876D01*
X92842135Y-159865671D01*
X92834452Y-159864000D01*
X89250116Y-159864000D01*
X89234877Y-159868475D01*
X89233672Y-159869865D01*
X89232001Y-159877548D01*
X89232001Y-161366000D01*
X89211999Y-161434121D01*
X89158343Y-161480614D01*
X89106001Y-161492000D01*
X71749327Y-161492000D01*
X71729942Y-161490500D01*
X71715141Y-161488195D01*
X71715138Y-161488195D01*
X71706269Y-161486814D01*
X71692230Y-161488650D01*
X71666011Y-161489325D01*
X71523416Y-161478103D01*
X71503887Y-161475010D01*
X71491341Y-161471998D01*
X71341287Y-161435973D01*
X71322487Y-161429864D01*
X71168002Y-161365873D01*
X71150387Y-161356898D01*
X71007817Y-161269532D01*
X70991821Y-161257910D01*
X70864669Y-161149312D01*
X70850688Y-161135331D01*
X70742090Y-161008179D01*
X70730468Y-160992183D01*
X70643102Y-160849613D01*
X70634127Y-160831998D01*
X70570136Y-160677513D01*
X70564025Y-160658708D01*
X70524990Y-160496113D01*
X70521897Y-160476584D01*
X70511226Y-160340988D01*
X70511867Y-160324120D01*
X70511695Y-160324118D01*
X70511805Y-160315142D01*
X70513186Y-160306271D01*
X70511547Y-160293731D01*
X70509064Y-160274750D01*
X70508000Y-160258412D01*
X70508000Y-159337885D01*
X89232000Y-159337885D01*
X89236475Y-159353124D01*
X89237865Y-159354329D01*
X89245548Y-159356000D01*
X90767885Y-159356000D01*
X90783124Y-159351525D01*
X90784329Y-159350135D01*
X90786000Y-159342452D01*
X90786000Y-159337885D01*
X91294000Y-159337885D01*
X91298475Y-159353124D01*
X91299865Y-159354329D01*
X91307548Y-159356000D01*
X92829884Y-159356000D01*
X92845123Y-159351525D01*
X92846328Y-159350135D01*
X92847999Y-159342452D01*
X92847999Y-157735331D01*
X92847629Y-157728510D01*
X92842105Y-157677648D01*
X92838479Y-157662396D01*
X92793324Y-157541946D01*
X92784786Y-157526351D01*
X92708285Y-157424276D01*
X92695724Y-157411715D01*
X92593649Y-157335214D01*
X92578054Y-157326676D01*
X92457606Y-157281522D01*
X92442351Y-157277895D01*
X92391486Y-157272369D01*
X92384672Y-157272000D01*
X91312115Y-157272000D01*
X91296876Y-157276475D01*
X91295671Y-157277865D01*
X91294000Y-157285548D01*
X91294000Y-159337885D01*
X90786000Y-159337885D01*
X90786000Y-157290116D01*
X90781525Y-157274877D01*
X90780135Y-157273672D01*
X90772452Y-157272001D01*
X89695331Y-157272001D01*
X89688510Y-157272371D01*
X89637648Y-157277895D01*
X89622396Y-157281521D01*
X89501946Y-157326676D01*
X89486351Y-157335214D01*
X89384276Y-157411715D01*
X89371715Y-157424276D01*
X89295214Y-157526351D01*
X89286676Y-157541946D01*
X89241522Y-157662394D01*
X89237895Y-157677649D01*
X89232369Y-157728514D01*
X89232000Y-157735328D01*
X89232000Y-159337885D01*
X70508000Y-159337885D01*
X70508000Y-155339690D01*
X70892037Y-155339690D01*
X70919025Y-155562715D01*
X70985082Y-155777435D01*
X70987652Y-155782415D01*
X70987654Y-155782419D01*
X71068017Y-155938119D01*
X71088118Y-155977064D01*
X71224877Y-156155292D01*
X71391036Y-156306485D01*
X71395783Y-156309463D01*
X71395786Y-156309465D01*
X71574457Y-156421544D01*
X71581344Y-156425864D01*
X71789783Y-156509656D01*
X72009767Y-156555213D01*
X72014378Y-156555479D01*
X72014379Y-156555479D01*
X72064952Y-156558395D01*
X72064956Y-156558395D01*
X72066775Y-156558500D01*
X72211999Y-156558500D01*
X72214786Y-156558251D01*
X72214792Y-156558251D01*
X72306669Y-156550051D01*
X72378762Y-156543617D01*
X72384176Y-156542136D01*
X72384181Y-156542135D01*
X72533248Y-156501354D01*
X72595451Y-156484337D01*
X72600509Y-156481925D01*
X72600513Y-156481923D01*
X72718042Y-156425864D01*
X72798218Y-156387622D01*
X72980654Y-156256529D01*
X73083917Y-156149970D01*
X73133089Y-156099229D01*
X73133091Y-156099226D01*
X73136992Y-156095201D01*
X73262290Y-155908738D01*
X73352588Y-155703033D01*
X73354407Y-155695459D01*
X73403722Y-155490046D01*
X73403722Y-155490045D01*
X73405032Y-155484589D01*
X73411468Y-155372957D01*
X73417640Y-155265917D01*
X73417640Y-155265914D01*
X73417963Y-155260310D01*
X73390975Y-155037285D01*
X73324918Y-154822565D01*
X73322067Y-154817040D01*
X73224454Y-154627919D01*
X73224454Y-154627918D01*
X73221882Y-154622936D01*
X73085123Y-154444708D01*
X72918964Y-154293515D01*
X72914217Y-154290537D01*
X72914214Y-154290535D01*
X72733405Y-154177115D01*
X72728656Y-154174136D01*
X72520217Y-154090344D01*
X72300233Y-154044787D01*
X72295622Y-154044521D01*
X72295621Y-154044521D01*
X72245048Y-154041605D01*
X72245044Y-154041605D01*
X72243225Y-154041500D01*
X72098001Y-154041500D01*
X72095214Y-154041749D01*
X72095208Y-154041749D01*
X72036441Y-154046994D01*
X71931238Y-154056383D01*
X71925824Y-154057864D01*
X71925819Y-154057865D01*
X71811262Y-154089205D01*
X71714549Y-154115663D01*
X71709491Y-154118075D01*
X71709487Y-154118077D01*
X71625668Y-154158057D01*
X71511782Y-154212378D01*
X71329346Y-154343471D01*
X71278854Y-154395575D01*
X71180035Y-154497548D01*
X71173008Y-154504799D01*
X71047710Y-154691262D01*
X70957412Y-154896967D01*
X70956103Y-154902418D01*
X70956102Y-154902422D01*
X70909357Y-155097128D01*
X70904968Y-155115411D01*
X70900990Y-155184415D01*
X70892576Y-155330347D01*
X70892037Y-155339690D01*
X70508000Y-155339690D01*
X70508000Y-153344669D01*
X72647001Y-153344669D01*
X72647371Y-153351490D01*
X72652895Y-153402352D01*
X72656521Y-153417604D01*
X72701676Y-153538054D01*
X72710214Y-153553649D01*
X72786715Y-153655724D01*
X72799276Y-153668285D01*
X72901351Y-153744786D01*
X72916946Y-153753324D01*
X73037394Y-153798478D01*
X73052649Y-153802105D01*
X73103514Y-153807631D01*
X73110328Y-153808000D01*
X73482885Y-153808000D01*
X73498124Y-153803525D01*
X73499329Y-153802135D01*
X73501000Y-153794452D01*
X73501000Y-153789884D01*
X74009000Y-153789884D01*
X74013475Y-153805123D01*
X74014865Y-153806328D01*
X74022548Y-153807999D01*
X74399669Y-153807999D01*
X74406490Y-153807629D01*
X74457352Y-153802105D01*
X74472604Y-153798479D01*
X74593054Y-153753324D01*
X74608649Y-153744786D01*
X74710724Y-153668285D01*
X74723285Y-153655724D01*
X74799786Y-153553649D01*
X74808324Y-153538054D01*
X74853478Y-153417606D01*
X74857105Y-153402351D01*
X74862631Y-153351486D01*
X74863000Y-153344672D01*
X74863000Y-152322115D01*
X74858525Y-152306876D01*
X74857135Y-152305671D01*
X74849452Y-152304000D01*
X74027115Y-152304000D01*
X74011876Y-152308475D01*
X74010671Y-152309865D01*
X74009000Y-152317548D01*
X74009000Y-153789884D01*
X73501000Y-153789884D01*
X73501000Y-152322115D01*
X73496525Y-152306876D01*
X73495135Y-152305671D01*
X73487452Y-152304000D01*
X72665116Y-152304000D01*
X72649877Y-152308475D01*
X72648672Y-152309865D01*
X72647001Y-152317548D01*
X72647001Y-153344669D01*
X70508000Y-153344669D01*
X70508000Y-151777885D01*
X72647000Y-151777885D01*
X72651475Y-151793124D01*
X72652865Y-151794329D01*
X72660548Y-151796000D01*
X73482885Y-151796000D01*
X73498124Y-151791525D01*
X73499329Y-151790135D01*
X73501000Y-151782452D01*
X73501000Y-150310116D01*
X73496525Y-150294877D01*
X73495135Y-150293672D01*
X73487452Y-150292001D01*
X73110331Y-150292001D01*
X73103510Y-150292371D01*
X73052648Y-150297895D01*
X73037396Y-150301521D01*
X72916946Y-150346676D01*
X72901351Y-150355214D01*
X72799276Y-150431715D01*
X72786715Y-150444276D01*
X72710214Y-150546351D01*
X72701676Y-150561946D01*
X72656522Y-150682394D01*
X72652895Y-150697649D01*
X72647369Y-150748514D01*
X72647000Y-150755328D01*
X72647000Y-151777885D01*
X70508000Y-151777885D01*
X70508000Y-148839690D01*
X70892037Y-148839690D01*
X70919025Y-149062715D01*
X70985082Y-149277435D01*
X70987652Y-149282415D01*
X70987654Y-149282419D01*
X71065295Y-149432846D01*
X71088118Y-149477064D01*
X71224877Y-149655292D01*
X71391036Y-149806485D01*
X71395783Y-149809463D01*
X71395786Y-149809465D01*
X71528265Y-149892568D01*
X71581344Y-149925864D01*
X71789783Y-150009656D01*
X72009767Y-150055213D01*
X72014378Y-150055479D01*
X72014379Y-150055479D01*
X72064952Y-150058395D01*
X72064956Y-150058395D01*
X72066775Y-150058500D01*
X72211999Y-150058500D01*
X72214786Y-150058251D01*
X72214792Y-150058251D01*
X72284929Y-150051991D01*
X72378762Y-150043617D01*
X72384176Y-150042136D01*
X72384181Y-150042135D01*
X72524296Y-150003803D01*
X72595451Y-149984337D01*
X72600509Y-149981925D01*
X72600513Y-149981923D01*
X72718042Y-149925864D01*
X72798218Y-149887622D01*
X72980654Y-149756529D01*
X73096216Y-149637279D01*
X73133089Y-149599229D01*
X73133091Y-149599226D01*
X73136992Y-149595201D01*
X73230474Y-149456085D01*
X73285069Y-149410701D01*
X73355535Y-149402038D01*
X73419499Y-149432846D01*
X73454888Y-149487426D01*
X73485473Y-149581556D01*
X73488776Y-149587278D01*
X73488777Y-149587279D01*
X73510712Y-149625271D01*
X73580960Y-149746944D01*
X73585378Y-149751851D01*
X73585379Y-149751852D01*
X73682711Y-149859950D01*
X73708747Y-149888866D01*
X73863248Y-150001118D01*
X73869276Y-150003802D01*
X73869278Y-150003803D01*
X74008906Y-150065969D01*
X74063002Y-150111949D01*
X74083651Y-150179876D01*
X74064299Y-150248185D01*
X74019206Y-150288015D01*
X74010671Y-150297865D01*
X74009000Y-150305548D01*
X74009000Y-151777885D01*
X74013475Y-151793124D01*
X74014865Y-151794329D01*
X74022548Y-151796000D01*
X74844884Y-151796000D01*
X74860123Y-151791525D01*
X74861328Y-151790135D01*
X74862999Y-151782452D01*
X74862999Y-150988449D01*
X74883001Y-150920328D01*
X74936657Y-150873835D01*
X75006931Y-150863731D01*
X75071511Y-150893225D01*
X75078094Y-150899354D01*
X75609595Y-151430855D01*
X75643621Y-151493167D01*
X75646500Y-151519950D01*
X75646500Y-153348134D01*
X75653255Y-153410316D01*
X75704385Y-153546705D01*
X75791739Y-153663261D01*
X75908295Y-153750615D01*
X76044684Y-153801745D01*
X76106866Y-153808500D01*
X76880050Y-153808500D01*
X76948171Y-153828502D01*
X76969145Y-153845405D01*
X77282313Y-154158573D01*
X77290303Y-154167353D01*
X77294552Y-154174048D01*
X77300330Y-154179474D01*
X77300331Y-154179475D01*
X77346225Y-154222572D01*
X77349067Y-154225327D01*
X77369635Y-154245895D01*
X77373138Y-154248612D01*
X77382163Y-154256320D01*
X77415835Y-154287940D01*
X77422786Y-154291761D01*
X77422787Y-154291762D01*
X77434626Y-154298271D01*
X77451150Y-154309125D01*
X77461833Y-154317411D01*
X77468100Y-154322272D01*
X77495634Y-154334187D01*
X77510504Y-154340622D01*
X77521149Y-154345837D01*
X77561631Y-154368092D01*
X77569305Y-154370062D01*
X77569312Y-154370065D01*
X77582394Y-154373423D01*
X77601102Y-154379828D01*
X77620791Y-154388348D01*
X77628617Y-154389587D01*
X77628619Y-154389588D01*
X77653127Y-154393469D01*
X77666427Y-154395576D01*
X77678038Y-154397980D01*
X77709075Y-154405949D01*
X77715103Y-154407497D01*
X77715104Y-154407497D01*
X77722780Y-154409468D01*
X77744226Y-154409468D01*
X77763936Y-154411019D01*
X77777290Y-154413134D01*
X77777291Y-154413134D01*
X77785120Y-154414374D01*
X77831109Y-154410027D01*
X77842964Y-154409468D01*
X78000594Y-154409468D01*
X78068715Y-154429470D01*
X78115208Y-154483126D01*
X78125312Y-154553400D01*
X78105175Y-154605744D01*
X78053667Y-154682397D01*
X78047710Y-154691262D01*
X77957412Y-154896967D01*
X77956103Y-154902418D01*
X77956102Y-154902422D01*
X77909357Y-155097128D01*
X77904968Y-155115411D01*
X77900990Y-155184415D01*
X77892576Y-155330347D01*
X77892037Y-155339690D01*
X77919025Y-155562715D01*
X77985082Y-155777435D01*
X77987652Y-155782415D01*
X77987654Y-155782419D01*
X78068017Y-155938119D01*
X78088118Y-155977064D01*
X78224877Y-156155292D01*
X78391036Y-156306485D01*
X78395783Y-156309463D01*
X78395786Y-156309465D01*
X78574457Y-156421544D01*
X78581344Y-156425864D01*
X78789783Y-156509656D01*
X79009767Y-156555213D01*
X79014378Y-156555479D01*
X79014379Y-156555479D01*
X79064952Y-156558395D01*
X79064956Y-156558395D01*
X79066775Y-156558500D01*
X79211999Y-156558500D01*
X79214786Y-156558251D01*
X79214792Y-156558251D01*
X79306669Y-156550051D01*
X79378762Y-156543617D01*
X79384176Y-156542136D01*
X79384181Y-156542135D01*
X79533248Y-156501354D01*
X79595451Y-156484337D01*
X79600509Y-156481925D01*
X79600513Y-156481923D01*
X79718042Y-156425864D01*
X79798218Y-156387622D01*
X79980654Y-156256529D01*
X80083917Y-156149970D01*
X80133089Y-156099229D01*
X80133091Y-156099226D01*
X80136992Y-156095201D01*
X80262290Y-155908738D01*
X80352588Y-155703033D01*
X80354407Y-155695459D01*
X80403722Y-155490046D01*
X80403722Y-155490045D01*
X80405032Y-155484589D01*
X80411468Y-155372957D01*
X80417640Y-155265917D01*
X80417640Y-155265914D01*
X80417963Y-155260310D01*
X80390975Y-155037285D01*
X80324918Y-154822565D01*
X80322067Y-154817040D01*
X80224454Y-154627919D01*
X80224454Y-154627918D01*
X80221882Y-154622936D01*
X80218472Y-154618493D01*
X80218467Y-154618484D01*
X80213621Y-154612169D01*
X80188023Y-154545948D01*
X80202289Y-154476400D01*
X80251892Y-154425605D01*
X80313586Y-154409468D01*
X80621012Y-154409468D01*
X80689133Y-154429470D01*
X80710107Y-154446373D01*
X82561339Y-156297605D01*
X82569329Y-156306385D01*
X82573578Y-156313080D01*
X82579356Y-156318506D01*
X82579357Y-156318507D01*
X82625251Y-156361604D01*
X82628093Y-156364359D01*
X82648661Y-156384927D01*
X82652164Y-156387644D01*
X82661189Y-156395352D01*
X82694861Y-156426972D01*
X82701812Y-156430793D01*
X82701813Y-156430794D01*
X82713652Y-156437303D01*
X82730176Y-156448157D01*
X82740265Y-156455982D01*
X82747126Y-156461304D01*
X82754398Y-156464451D01*
X82754400Y-156464452D01*
X82789529Y-156479654D01*
X82800189Y-156484876D01*
X82830162Y-156501354D01*
X82840657Y-156507124D01*
X82861435Y-156512459D01*
X82880125Y-156518858D01*
X82899818Y-156527380D01*
X82930870Y-156532298D01*
X82945442Y-156534606D01*
X82957065Y-156537013D01*
X82981748Y-156543350D01*
X83001806Y-156548500D01*
X83023253Y-156548500D01*
X83042963Y-156550051D01*
X83064146Y-156553406D01*
X83110135Y-156549059D01*
X83121990Y-156548500D01*
X85027944Y-156548500D01*
X85039800Y-156549059D01*
X85039803Y-156549059D01*
X85047537Y-156550788D01*
X85118369Y-156548562D01*
X85122327Y-156548500D01*
X85151432Y-156548500D01*
X85155832Y-156547944D01*
X85167664Y-156547012D01*
X85213831Y-156545562D01*
X85234421Y-156539580D01*
X85253782Y-156535570D01*
X85261416Y-156534606D01*
X85267204Y-156533875D01*
X85267205Y-156533875D01*
X85275064Y-156532882D01*
X85282429Y-156529966D01*
X85282433Y-156529965D01*
X85318021Y-156515874D01*
X85329231Y-156512035D01*
X85373600Y-156499145D01*
X85392065Y-156488225D01*
X85409805Y-156479534D01*
X85429756Y-156471635D01*
X85467129Y-156444482D01*
X85477048Y-156437967D01*
X85509977Y-156418493D01*
X85509981Y-156418490D01*
X85516807Y-156414453D01*
X85531971Y-156399289D01*
X85547005Y-156386448D01*
X85564357Y-156373841D01*
X85593803Y-156338247D01*
X85601792Y-156329468D01*
X86047605Y-155883655D01*
X86056385Y-155875665D01*
X86056387Y-155875663D01*
X86063080Y-155871416D01*
X86072444Y-155861445D01*
X86111604Y-155819743D01*
X86114359Y-155816901D01*
X86134927Y-155796333D01*
X86137647Y-155792826D01*
X86145353Y-155783804D01*
X86171544Y-155755913D01*
X86176972Y-155750133D01*
X86184853Y-155735798D01*
X86187303Y-155731342D01*
X86198157Y-155714818D01*
X86206443Y-155704135D01*
X86206444Y-155704134D01*
X86211304Y-155697868D01*
X86229654Y-155655464D01*
X86234869Y-155644819D01*
X86257124Y-155604337D01*
X86259094Y-155596663D01*
X86259097Y-155596656D01*
X86262455Y-155583574D01*
X86268861Y-155564862D01*
X86269790Y-155562715D01*
X86277380Y-155545177D01*
X86279321Y-155532925D01*
X90026645Y-155532925D01*
X90032158Y-155593500D01*
X90043918Y-155722721D01*
X90044570Y-155729888D01*
X90046308Y-155735794D01*
X90046309Y-155735798D01*
X90064952Y-155799141D01*
X90100410Y-155919619D01*
X90103263Y-155925077D01*
X90103265Y-155925081D01*
X90132767Y-155981512D01*
X90192040Y-156094890D01*
X90315968Y-156249025D01*
X90320692Y-156252989D01*
X90324911Y-156256529D01*
X90467474Y-156376154D01*
X90472872Y-156379121D01*
X90472877Y-156379125D01*
X90613524Y-156456445D01*
X90640787Y-156471433D01*
X90646654Y-156473294D01*
X90646656Y-156473295D01*
X90823436Y-156529373D01*
X90829306Y-156531235D01*
X90983227Y-156548500D01*
X91089769Y-156548500D01*
X91092825Y-156548200D01*
X91092832Y-156548200D01*
X91154683Y-156542135D01*
X91236833Y-156534080D01*
X91242734Y-156532298D01*
X91242736Y-156532298D01*
X91326115Y-156507124D01*
X91426169Y-156476916D01*
X91600796Y-156384066D01*
X91692266Y-156309465D01*
X91749287Y-156262960D01*
X91749290Y-156262957D01*
X91754062Y-156259065D01*
X91766344Y-156244219D01*
X91876201Y-156111425D01*
X91876203Y-156111421D01*
X91880130Y-156106675D01*
X91974198Y-155932701D01*
X92032682Y-155743768D01*
X92034894Y-155722721D01*
X92052711Y-155553204D01*
X92052711Y-155553202D01*
X92053355Y-155547075D01*
X92042267Y-155425241D01*
X92035989Y-155356251D01*
X92035988Y-155356248D01*
X92035430Y-155350112D01*
X92030713Y-155334083D01*
X92002751Y-155239076D01*
X91979590Y-155160381D01*
X91976052Y-155153612D01*
X91921824Y-155049885D01*
X91887960Y-154985110D01*
X91764032Y-154830975D01*
X91757727Y-154825684D01*
X91681236Y-154761501D01*
X91612526Y-154703846D01*
X91607128Y-154700879D01*
X91607123Y-154700875D01*
X91444608Y-154611533D01*
X91444609Y-154611533D01*
X91439213Y-154608567D01*
X91433346Y-154606706D01*
X91433344Y-154606705D01*
X91256564Y-154550627D01*
X91256563Y-154550627D01*
X91250694Y-154548765D01*
X91096773Y-154531500D01*
X90990231Y-154531500D01*
X90987175Y-154531800D01*
X90987168Y-154531800D01*
X90928660Y-154537537D01*
X90843167Y-154545920D01*
X90837266Y-154547702D01*
X90837264Y-154547702D01*
X90818392Y-154553400D01*
X90653831Y-154603084D01*
X90479204Y-154695934D01*
X90420007Y-154744214D01*
X90330713Y-154817040D01*
X90330710Y-154817043D01*
X90325938Y-154820935D01*
X90322011Y-154825682D01*
X90322009Y-154825684D01*
X90203799Y-154968575D01*
X90203797Y-154968579D01*
X90199870Y-154973325D01*
X90105802Y-155147299D01*
X90047318Y-155336232D01*
X90046674Y-155342357D01*
X90046674Y-155342358D01*
X90027660Y-155523272D01*
X90026645Y-155532925D01*
X86279321Y-155532925D01*
X86284607Y-155499544D01*
X86287012Y-155487930D01*
X86298500Y-155443188D01*
X86298500Y-155421742D01*
X86300051Y-155402032D01*
X86302166Y-155388678D01*
X86302166Y-155388677D01*
X86303406Y-155380848D01*
X86299059Y-155334859D01*
X86298500Y-155323004D01*
X86298500Y-154245259D01*
X86318502Y-154177138D01*
X86330864Y-154160949D01*
X86374621Y-154112352D01*
X86374622Y-154112351D01*
X86379040Y-154107444D01*
X86474527Y-153942056D01*
X86533542Y-153760428D01*
X86534574Y-153750615D01*
X86552814Y-153577065D01*
X86553504Y-153570500D01*
X86541947Y-153460539D01*
X86534232Y-153387135D01*
X86534232Y-153387133D01*
X86533542Y-153380572D01*
X86474527Y-153198944D01*
X86379040Y-153033556D01*
X86367392Y-153020619D01*
X86255675Y-152896545D01*
X86255674Y-152896544D01*
X86251253Y-152891634D01*
X86096752Y-152779382D01*
X86090724Y-152776698D01*
X86090722Y-152776697D01*
X85928319Y-152704391D01*
X85928318Y-152704391D01*
X85922288Y-152701706D01*
X85828887Y-152681853D01*
X85741944Y-152663372D01*
X85741939Y-152663372D01*
X85735487Y-152662000D01*
X85544513Y-152662000D01*
X85538061Y-152663372D01*
X85538056Y-152663372D01*
X85451113Y-152681853D01*
X85357712Y-152701706D01*
X85351682Y-152704391D01*
X85351681Y-152704391D01*
X85189278Y-152776697D01*
X85189276Y-152776698D01*
X85183248Y-152779382D01*
X85028747Y-152891634D01*
X85024326Y-152896544D01*
X85024325Y-152896545D01*
X84912609Y-153020619D01*
X84900960Y-153033556D01*
X84805473Y-153198944D01*
X84746458Y-153380572D01*
X84745768Y-153387135D01*
X84745394Y-153388896D01*
X84711666Y-153451369D01*
X84649516Y-153485690D01*
X84578677Y-153480962D01*
X84533053Y-153451793D01*
X82723655Y-151642395D01*
X82715665Y-151633615D01*
X82715663Y-151633613D01*
X82711416Y-151626920D01*
X82659742Y-151578395D01*
X82656901Y-151575641D01*
X82636333Y-151555073D01*
X82632826Y-151552353D01*
X82623804Y-151544647D01*
X82595913Y-151518456D01*
X82590133Y-151513028D01*
X82583181Y-151509206D01*
X82571342Y-151502697D01*
X82554818Y-151491843D01*
X82544132Y-151483555D01*
X82537868Y-151478696D01*
X82530596Y-151475549D01*
X82530594Y-151475548D01*
X82495465Y-151460346D01*
X82484805Y-151455124D01*
X82451284Y-151436695D01*
X82451282Y-151436694D01*
X82444337Y-151432876D01*
X82423559Y-151427541D01*
X82404869Y-151421142D01*
X82385176Y-151412620D01*
X82339552Y-151405394D01*
X82327929Y-151402987D01*
X82299928Y-151395798D01*
X82283188Y-151391500D01*
X82261741Y-151391500D01*
X82242031Y-151389949D01*
X82228677Y-151387834D01*
X82220848Y-151386594D01*
X82174859Y-151390941D01*
X82163004Y-151391500D01*
X81989500Y-151391500D01*
X81921379Y-151371498D01*
X81874886Y-151317842D01*
X81863500Y-151265500D01*
X81863500Y-150751866D01*
X81856745Y-150689684D01*
X81805615Y-150553295D01*
X81718261Y-150436739D01*
X81601705Y-150349385D01*
X81578933Y-150340848D01*
X81495270Y-150309484D01*
X81438506Y-150266842D01*
X81413806Y-150200281D01*
X81413500Y-150191502D01*
X81413500Y-149859950D01*
X81433502Y-149791829D01*
X81450405Y-149770855D01*
X82365855Y-148855405D01*
X82428167Y-148821379D01*
X82454950Y-148818500D01*
X82475487Y-148818500D01*
X82481939Y-148817128D01*
X82481944Y-148817128D01*
X82568888Y-148798647D01*
X82662288Y-148778794D01*
X82703804Y-148760310D01*
X82830722Y-148703803D01*
X82830724Y-148703802D01*
X82836752Y-148701118D01*
X82887483Y-148664260D01*
X82903029Y-148652965D01*
X82991253Y-148588866D01*
X83014689Y-148562838D01*
X83114621Y-148451852D01*
X83114622Y-148451851D01*
X83119040Y-148446944D01*
X83190850Y-148322565D01*
X83211223Y-148287279D01*
X83211224Y-148287278D01*
X83214527Y-148281556D01*
X83263354Y-148131284D01*
X89880124Y-148131284D01*
X89881103Y-148136981D01*
X89881103Y-148136982D01*
X89912992Y-148322565D01*
X89916181Y-148341126D01*
X89989875Y-148540884D01*
X90098739Y-148723866D01*
X90239125Y-148883946D01*
X90406333Y-149015762D01*
X90411444Y-149018451D01*
X90411447Y-149018453D01*
X90509559Y-149070072D01*
X90594762Y-149114900D01*
X90600283Y-149116614D01*
X90600287Y-149116616D01*
X90738068Y-149159398D01*
X90798102Y-149178039D01*
X90970982Y-149198500D01*
X91094013Y-149198500D01*
X91184789Y-149190159D01*
X91246270Y-149184510D01*
X91246273Y-149184509D01*
X91252024Y-149183981D01*
X91273093Y-149178039D01*
X91451389Y-149127754D01*
X91451391Y-149127753D01*
X91456948Y-149126186D01*
X91462123Y-149123634D01*
X91462128Y-149123632D01*
X91642727Y-149034570D01*
X91647908Y-149032015D01*
X91655112Y-149026636D01*
X91813886Y-148908074D01*
X91818509Y-148904622D01*
X91963037Y-148748271D01*
X92076653Y-148568201D01*
X92155551Y-148370441D01*
X92160305Y-148346544D01*
X92195962Y-148167282D01*
X92195962Y-148167280D01*
X92197089Y-148161615D01*
X92197412Y-148136982D01*
X92199155Y-148003794D01*
X92199876Y-147948716D01*
X92194352Y-147916565D01*
X92164797Y-147744564D01*
X92164796Y-147744561D01*
X92163819Y-147738874D01*
X92090125Y-147539116D01*
X91981261Y-147356134D01*
X91840875Y-147196054D01*
X91673667Y-147064238D01*
X91668556Y-147061549D01*
X91668553Y-147061547D01*
X91552683Y-147000585D01*
X91485238Y-146965100D01*
X91479717Y-146963386D01*
X91479713Y-146963384D01*
X91287421Y-146903676D01*
X91287422Y-146903676D01*
X91281898Y-146901961D01*
X91109018Y-146881500D01*
X90985987Y-146881500D01*
X90900355Y-146889368D01*
X90833730Y-146895490D01*
X90833727Y-146895491D01*
X90827976Y-146896019D01*
X90822417Y-146897587D01*
X90822416Y-146897587D01*
X90628611Y-146952246D01*
X90628609Y-146952247D01*
X90623052Y-146953814D01*
X90617877Y-146956366D01*
X90617872Y-146956368D01*
X90482967Y-147022896D01*
X90432092Y-147047985D01*
X90261491Y-147175378D01*
X90116963Y-147331729D01*
X90003347Y-147511799D01*
X89924449Y-147709559D01*
X89923323Y-147715219D01*
X89923322Y-147715223D01*
X89884579Y-147910000D01*
X89882911Y-147918385D01*
X89882835Y-147924160D01*
X89882835Y-147924164D01*
X89881793Y-148003794D01*
X89880124Y-148131284D01*
X83263354Y-148131284D01*
X83273542Y-148099928D01*
X83275347Y-148082760D01*
X83292814Y-147916565D01*
X83293504Y-147910000D01*
X83280510Y-147786369D01*
X83274232Y-147726635D01*
X83274232Y-147726633D01*
X83273542Y-147720072D01*
X83214527Y-147538444D01*
X83207369Y-147526045D01*
X83151749Y-147429710D01*
X83119040Y-147373056D01*
X83103804Y-147356134D01*
X82995675Y-147236045D01*
X82995674Y-147236044D01*
X82991253Y-147231134D01*
X82985911Y-147227253D01*
X82985909Y-147227251D01*
X82946420Y-147198561D01*
X82903066Y-147142339D01*
X82896991Y-147071603D01*
X82906035Y-147046862D01*
X82905615Y-147046705D01*
X82916821Y-147016812D01*
X82956745Y-146910316D01*
X82963500Y-146848134D01*
X82963500Y-145628134D01*
X89231500Y-145628134D01*
X89238255Y-145690316D01*
X89289385Y-145826705D01*
X89376739Y-145943261D01*
X89493295Y-146030615D01*
X89629684Y-146081745D01*
X89691866Y-146088500D01*
X92388134Y-146088500D01*
X92450316Y-146081745D01*
X92586705Y-146030615D01*
X92703261Y-145943261D01*
X92790615Y-145826705D01*
X92841745Y-145690316D01*
X92848500Y-145628134D01*
X92848500Y-144534500D01*
X92868502Y-144466379D01*
X92922158Y-144419886D01*
X92974500Y-144408500D01*
X93367944Y-144408500D01*
X93379800Y-144409059D01*
X93379803Y-144409059D01*
X93387537Y-144410788D01*
X93458369Y-144408562D01*
X93462327Y-144408500D01*
X93491432Y-144408500D01*
X93495832Y-144407944D01*
X93507664Y-144407012D01*
X93553831Y-144405562D01*
X93574421Y-144399580D01*
X93593782Y-144395570D01*
X93600770Y-144394688D01*
X93607204Y-144393875D01*
X93607205Y-144393875D01*
X93615064Y-144392882D01*
X93622429Y-144389966D01*
X93622433Y-144389965D01*
X93658021Y-144375874D01*
X93669231Y-144372035D01*
X93713600Y-144359145D01*
X93732065Y-144348225D01*
X93749805Y-144339534D01*
X93769756Y-144331635D01*
X93807129Y-144304482D01*
X93817048Y-144297967D01*
X93849977Y-144278493D01*
X93849981Y-144278490D01*
X93856807Y-144274453D01*
X93871971Y-144259289D01*
X93887005Y-144246448D01*
X93897943Y-144238501D01*
X93904357Y-144233841D01*
X93933803Y-144198247D01*
X93941792Y-144189468D01*
X98535855Y-139595405D01*
X98598167Y-139561379D01*
X98624950Y-139558500D01*
X98645487Y-139558500D01*
X98651939Y-139557128D01*
X98651944Y-139557128D01*
X98747864Y-139536739D01*
X98832288Y-139518794D01*
X98838319Y-139516109D01*
X99000722Y-139443803D01*
X99000724Y-139443802D01*
X99006752Y-139441118D01*
X99161253Y-139328866D01*
X99289040Y-139186944D01*
X99347314Y-139086010D01*
X99381223Y-139027279D01*
X99381224Y-139027278D01*
X99384527Y-139021556D01*
X99443542Y-138839928D01*
X99448352Y-138794169D01*
X99462814Y-138656565D01*
X99463504Y-138650000D01*
X99443542Y-138460072D01*
X99384527Y-138278444D01*
X99289040Y-138113056D01*
X99185894Y-137998500D01*
X99165675Y-137976045D01*
X99165674Y-137976044D01*
X99161253Y-137971134D01*
X99006752Y-137858882D01*
X99000724Y-137856198D01*
X99000722Y-137856197D01*
X98838319Y-137783891D01*
X98838318Y-137783891D01*
X98832288Y-137781206D01*
X98723805Y-137758147D01*
X98651944Y-137742872D01*
X98651939Y-137742872D01*
X98645487Y-137741500D01*
X98454513Y-137741500D01*
X98448061Y-137742872D01*
X98448056Y-137742872D01*
X98376195Y-137758147D01*
X98267712Y-137781206D01*
X98261682Y-137783891D01*
X98261681Y-137783891D01*
X98099278Y-137856197D01*
X98099276Y-137856198D01*
X98093248Y-137858882D01*
X97938747Y-137971134D01*
X97934326Y-137976044D01*
X97934325Y-137976045D01*
X97914107Y-137998500D01*
X97810960Y-138113056D01*
X97715473Y-138278444D01*
X97713431Y-138284729D01*
X97670693Y-138416263D01*
X97656458Y-138460072D01*
X97643955Y-138579035D01*
X97643245Y-138585786D01*
X97616232Y-138651443D01*
X97607030Y-138661711D01*
X93214145Y-143054595D01*
X93151833Y-143088621D01*
X93125050Y-143091500D01*
X92974500Y-143091500D01*
X92906379Y-143071498D01*
X92859886Y-143017842D01*
X92848500Y-142965500D01*
X92848500Y-141991866D01*
X92841745Y-141929684D01*
X92790615Y-141793295D01*
X92703261Y-141676739D01*
X92586705Y-141589385D01*
X92450316Y-141538255D01*
X92388134Y-141531500D01*
X89691866Y-141531500D01*
X89629684Y-141538255D01*
X89493295Y-141589385D01*
X89376739Y-141676739D01*
X89289385Y-141793295D01*
X89238255Y-141929684D01*
X89231500Y-141991866D01*
X89231500Y-145628134D01*
X82963500Y-145628134D01*
X82963500Y-144251866D01*
X82956745Y-144189684D01*
X82905615Y-144053295D01*
X82818261Y-143936739D01*
X82701705Y-143849385D01*
X82565316Y-143798255D01*
X82503134Y-143791500D01*
X81206866Y-143791500D01*
X81144684Y-143798255D01*
X81008295Y-143849385D01*
X80891739Y-143936739D01*
X80804385Y-144053295D01*
X80753255Y-144189684D01*
X80746500Y-144251866D01*
X80746500Y-146848134D01*
X80753255Y-146910316D01*
X80804385Y-147046705D01*
X80891739Y-147163261D01*
X81008295Y-147250615D01*
X81144684Y-147301745D01*
X81206866Y-147308500D01*
X81459993Y-147308500D01*
X81528114Y-147328502D01*
X81574607Y-147382158D01*
X81584711Y-147452432D01*
X81569112Y-147497500D01*
X81552632Y-147526045D01*
X81545473Y-147538444D01*
X81526068Y-147598167D01*
X81500834Y-147675829D01*
X81486458Y-147720072D01*
X81473833Y-147840195D01*
X81473245Y-147845786D01*
X81446232Y-147911442D01*
X81437030Y-147921710D01*
X80620522Y-148738218D01*
X80558210Y-148772244D01*
X80487395Y-148767179D01*
X80430559Y-148724632D01*
X80406341Y-148664264D01*
X80390975Y-148537285D01*
X80324918Y-148322565D01*
X80316614Y-148306475D01*
X80224454Y-148127919D01*
X80224454Y-148127918D01*
X80221882Y-148122936D01*
X80085123Y-147944708D01*
X79918964Y-147793515D01*
X79914217Y-147790537D01*
X79914214Y-147790535D01*
X79733405Y-147677115D01*
X79728656Y-147674136D01*
X79520217Y-147590344D01*
X79300233Y-147544787D01*
X79295622Y-147544521D01*
X79295621Y-147544521D01*
X79245048Y-147541605D01*
X79245044Y-147541605D01*
X79243225Y-147541500D01*
X79098001Y-147541500D01*
X79095214Y-147541749D01*
X79095208Y-147541749D01*
X79025071Y-147548009D01*
X78931238Y-147556383D01*
X78925824Y-147557864D01*
X78925819Y-147557865D01*
X78811262Y-147589205D01*
X78714549Y-147615663D01*
X78709491Y-147618075D01*
X78709487Y-147618077D01*
X78645231Y-147648726D01*
X78511782Y-147712378D01*
X78329346Y-147843471D01*
X78325439Y-147847503D01*
X78209046Y-147967611D01*
X78173008Y-148004799D01*
X78047710Y-148191262D01*
X77957412Y-148396967D01*
X77956103Y-148402418D01*
X77956102Y-148402422D01*
X77914123Y-148577279D01*
X77904968Y-148615411D01*
X77902421Y-148659580D01*
X77893093Y-148821379D01*
X77892037Y-148839690D01*
X77919025Y-149062715D01*
X77985082Y-149277435D01*
X77987652Y-149282415D01*
X77987654Y-149282419D01*
X78065295Y-149432846D01*
X78088118Y-149477064D01*
X78224877Y-149655292D01*
X78391036Y-149806485D01*
X78395783Y-149809463D01*
X78395786Y-149809465D01*
X78528265Y-149892568D01*
X78581344Y-149925864D01*
X78789783Y-150009656D01*
X79009767Y-150055213D01*
X79014378Y-150055479D01*
X79014379Y-150055479D01*
X79064952Y-150058395D01*
X79064956Y-150058395D01*
X79066775Y-150058500D01*
X79211999Y-150058500D01*
X79214786Y-150058251D01*
X79214792Y-150058251D01*
X79284929Y-150051991D01*
X79378762Y-150043617D01*
X79384176Y-150042136D01*
X79384181Y-150042135D01*
X79524296Y-150003803D01*
X79595451Y-149984337D01*
X79600509Y-149981925D01*
X79600513Y-149981923D01*
X79718042Y-149925864D01*
X79798218Y-149887622D01*
X79896974Y-149816659D01*
X79963966Y-149793152D01*
X80033032Y-149809594D01*
X80082245Y-149860766D01*
X80096500Y-149918982D01*
X80096500Y-150191502D01*
X80076498Y-150259623D01*
X80022842Y-150306116D01*
X80014730Y-150309484D01*
X79931067Y-150340848D01*
X79908295Y-150349385D01*
X79791739Y-150436739D01*
X79704385Y-150553295D01*
X79653255Y-150689684D01*
X79646500Y-150751866D01*
X79646500Y-152966468D01*
X79626498Y-153034589D01*
X79572842Y-153081082D01*
X79520500Y-153092468D01*
X78130917Y-153092468D01*
X78062796Y-153072466D01*
X78041822Y-153055563D01*
X77900405Y-152914146D01*
X77866379Y-152851834D01*
X77863500Y-152825051D01*
X77863500Y-150751866D01*
X77856745Y-150689684D01*
X77805615Y-150553295D01*
X77718261Y-150436739D01*
X77601705Y-150349385D01*
X77465316Y-150298255D01*
X77403134Y-150291500D01*
X76384950Y-150291500D01*
X76316829Y-150271498D01*
X76295855Y-150254595D01*
X75262970Y-149221710D01*
X75228944Y-149159398D01*
X75226755Y-149145786D01*
X75214232Y-149026636D01*
X75214232Y-149026635D01*
X75213542Y-149020072D01*
X75210980Y-149012185D01*
X75156569Y-148844729D01*
X75154527Y-148838444D01*
X75144675Y-148821379D01*
X75095926Y-148736944D01*
X75059040Y-148673056D01*
X75029655Y-148640420D01*
X74935675Y-148536045D01*
X74935674Y-148536044D01*
X74931253Y-148531134D01*
X74776752Y-148418882D01*
X74770724Y-148416198D01*
X74770722Y-148416197D01*
X74608319Y-148343891D01*
X74608318Y-148343891D01*
X74602288Y-148341206D01*
X74491142Y-148317581D01*
X74421944Y-148302872D01*
X74421939Y-148302872D01*
X74415487Y-148301500D01*
X74224513Y-148301500D01*
X74218061Y-148302872D01*
X74218056Y-148302872D01*
X74148858Y-148317581D01*
X74037712Y-148341206D01*
X74031682Y-148343891D01*
X74031681Y-148343891D01*
X73869278Y-148416197D01*
X73869276Y-148416198D01*
X73863248Y-148418882D01*
X73708747Y-148531134D01*
X73704326Y-148536044D01*
X73704325Y-148536045D01*
X73613398Y-148637030D01*
X73552952Y-148674270D01*
X73481969Y-148672918D01*
X73422984Y-148633405D01*
X73394675Y-148567859D01*
X73391649Y-148542855D01*
X73390975Y-148537285D01*
X73324918Y-148322565D01*
X73316614Y-148306475D01*
X73224454Y-148127919D01*
X73224454Y-148127918D01*
X73221882Y-148122936D01*
X73085123Y-147944708D01*
X72918964Y-147793515D01*
X72914217Y-147790537D01*
X72914214Y-147790535D01*
X72733405Y-147677115D01*
X72728656Y-147674136D01*
X72520217Y-147590344D01*
X72300233Y-147544787D01*
X72295622Y-147544521D01*
X72295621Y-147544521D01*
X72245048Y-147541605D01*
X72245044Y-147541605D01*
X72243225Y-147541500D01*
X72098001Y-147541500D01*
X72095214Y-147541749D01*
X72095208Y-147541749D01*
X72025071Y-147548009D01*
X71931238Y-147556383D01*
X71925824Y-147557864D01*
X71925819Y-147557865D01*
X71811262Y-147589205D01*
X71714549Y-147615663D01*
X71709491Y-147618075D01*
X71709487Y-147618077D01*
X71645231Y-147648726D01*
X71511782Y-147712378D01*
X71329346Y-147843471D01*
X71325439Y-147847503D01*
X71209046Y-147967611D01*
X71173008Y-148004799D01*
X71047710Y-148191262D01*
X70957412Y-148396967D01*
X70956103Y-148402418D01*
X70956102Y-148402422D01*
X70914123Y-148577279D01*
X70904968Y-148615411D01*
X70902421Y-148659580D01*
X70893093Y-148821379D01*
X70892037Y-148839690D01*
X70508000Y-148839690D01*
X70508000Y-139800000D01*
X73557620Y-139800000D01*
X73576250Y-140036711D01*
X73577404Y-140041518D01*
X73577405Y-140041524D01*
X73608060Y-140169211D01*
X73631680Y-140267594D01*
X73633573Y-140272165D01*
X73633574Y-140272167D01*
X73708362Y-140452721D01*
X73722545Y-140486963D01*
X73725131Y-140491183D01*
X73844026Y-140685202D01*
X73844030Y-140685208D01*
X73846609Y-140689416D01*
X74000816Y-140869969D01*
X74181369Y-141024176D01*
X74185577Y-141026755D01*
X74185583Y-141026759D01*
X74379602Y-141145654D01*
X74383822Y-141148240D01*
X74388392Y-141150133D01*
X74388396Y-141150135D01*
X74598618Y-141237211D01*
X74603191Y-141239105D01*
X74651134Y-141250615D01*
X74829261Y-141293380D01*
X74829267Y-141293381D01*
X74834074Y-141294535D01*
X75070785Y-141313165D01*
X75307496Y-141294535D01*
X75312303Y-141293381D01*
X75312309Y-141293380D01*
X75490436Y-141250615D01*
X75538379Y-141239105D01*
X75542952Y-141237211D01*
X75753174Y-141150135D01*
X75753178Y-141150133D01*
X75757748Y-141148240D01*
X75761968Y-141145654D01*
X75955987Y-141026759D01*
X75955993Y-141026755D01*
X75960201Y-141024176D01*
X76140754Y-140869969D01*
X76159403Y-140848134D01*
X78562285Y-140848134D01*
X78569040Y-140910316D01*
X78620170Y-141046705D01*
X78707524Y-141163261D01*
X78824080Y-141250615D01*
X78960469Y-141301745D01*
X79022651Y-141308500D01*
X81118919Y-141308500D01*
X81181101Y-141301745D01*
X81317490Y-141250615D01*
X81434046Y-141163261D01*
X81521400Y-141046705D01*
X81572530Y-140910316D01*
X81579285Y-140848134D01*
X81579285Y-138751866D01*
X81572530Y-138689684D01*
X81521400Y-138553295D01*
X81434046Y-138436739D01*
X81317490Y-138349385D01*
X81181101Y-138298255D01*
X81118919Y-138291500D01*
X79022651Y-138291500D01*
X78960469Y-138298255D01*
X78824080Y-138349385D01*
X78707524Y-138436739D01*
X78620170Y-138553295D01*
X78569040Y-138689684D01*
X78562285Y-138751866D01*
X78562285Y-140848134D01*
X76159403Y-140848134D01*
X76294961Y-140689416D01*
X76297540Y-140685208D01*
X76297544Y-140685202D01*
X76416439Y-140491183D01*
X76419025Y-140486963D01*
X76433209Y-140452721D01*
X76507996Y-140272167D01*
X76507997Y-140272165D01*
X76509890Y-140267594D01*
X76533510Y-140169211D01*
X76564165Y-140041524D01*
X76564166Y-140041518D01*
X76565320Y-140036711D01*
X76583950Y-139800000D01*
X76565320Y-139563289D01*
X76537218Y-139446233D01*
X76511045Y-139337218D01*
X76509890Y-139332406D01*
X76449638Y-139186944D01*
X76420920Y-139117611D01*
X76420918Y-139117607D01*
X76419025Y-139113037D01*
X76387663Y-139061859D01*
X76297544Y-138914798D01*
X76297540Y-138914792D01*
X76294961Y-138910584D01*
X76140754Y-138730031D01*
X75960201Y-138575824D01*
X75955993Y-138573245D01*
X75955987Y-138573241D01*
X75761968Y-138454346D01*
X75757748Y-138451760D01*
X75753178Y-138449867D01*
X75753174Y-138449865D01*
X75542952Y-138362789D01*
X75542950Y-138362788D01*
X75538379Y-138360895D01*
X75441965Y-138337748D01*
X75312309Y-138306620D01*
X75312303Y-138306619D01*
X75307496Y-138305465D01*
X75070785Y-138286835D01*
X74834074Y-138305465D01*
X74829267Y-138306619D01*
X74829261Y-138306620D01*
X74699605Y-138337748D01*
X74603191Y-138360895D01*
X74598620Y-138362788D01*
X74598618Y-138362789D01*
X74388396Y-138449865D01*
X74388392Y-138449867D01*
X74383822Y-138451760D01*
X74379602Y-138454346D01*
X74185583Y-138573241D01*
X74185577Y-138573245D01*
X74181369Y-138575824D01*
X74000816Y-138730031D01*
X73846609Y-138910584D01*
X73844030Y-138914792D01*
X73844026Y-138914798D01*
X73753907Y-139061859D01*
X73722545Y-139113037D01*
X73720652Y-139117607D01*
X73720650Y-139117611D01*
X73691932Y-139186944D01*
X73631680Y-139332406D01*
X73630525Y-139337218D01*
X73604353Y-139446233D01*
X73576250Y-139563289D01*
X73557620Y-139800000D01*
X70508000Y-139800000D01*
X70508000Y-134801669D01*
X95025001Y-134801669D01*
X95025371Y-134808490D01*
X95030895Y-134859352D01*
X95034521Y-134874604D01*
X95079676Y-134995054D01*
X95088214Y-135010649D01*
X95164715Y-135112724D01*
X95177276Y-135125285D01*
X95279351Y-135201786D01*
X95294946Y-135210324D01*
X95415394Y-135255478D01*
X95430649Y-135259105D01*
X95481514Y-135264631D01*
X95488328Y-135265000D01*
X96022885Y-135265000D01*
X96038124Y-135260525D01*
X96039329Y-135259135D01*
X96041000Y-135251452D01*
X96041000Y-134267115D01*
X96036525Y-134251876D01*
X96035135Y-134250671D01*
X96027452Y-134249000D01*
X95043116Y-134249000D01*
X95027877Y-134253475D01*
X95026672Y-134254865D01*
X95025001Y-134262548D01*
X95025001Y-134801669D01*
X70508000Y-134801669D01*
X70508000Y-133749327D01*
X70509500Y-133729942D01*
X70511805Y-133715141D01*
X70511805Y-133715138D01*
X70513186Y-133706269D01*
X70511350Y-133692230D01*
X70510675Y-133666011D01*
X70521897Y-133523416D01*
X70524990Y-133503887D01*
X70564025Y-133341292D01*
X70570136Y-133322487D01*
X70634127Y-133168002D01*
X70643102Y-133150387D01*
X70730468Y-133007817D01*
X70742090Y-132991821D01*
X70850688Y-132864669D01*
X70864669Y-132850688D01*
X70991821Y-132742090D01*
X71007817Y-132730468D01*
X71150387Y-132643102D01*
X71168002Y-132634127D01*
X71322487Y-132570136D01*
X71341287Y-132564027D01*
X71503888Y-132524990D01*
X71523416Y-132521897D01*
X71659012Y-132511226D01*
X71675880Y-132511867D01*
X71675882Y-132511695D01*
X71684858Y-132511805D01*
X71693729Y-132513186D01*
X71702631Y-132512022D01*
X71702634Y-132512022D01*
X71725250Y-132509064D01*
X71741588Y-132508000D01*
X95324589Y-132508000D01*
X95392710Y-132528002D01*
G37*
%TD.AperFunction*%
%TD*%
M02*
