%TF.GenerationSoftware,KiCad,Pcbnew,(6.0.2)*%
%TF.CreationDate,2022-04-09T20:57:27+08:00*%
%TF.ProjectId,Morse_code_PCB,4d6f7273-655f-4636-9f64-655f5043422e,rev?*%
%TF.SameCoordinates,Original*%
%TF.FileFunction,Copper,L1,Top*%
%TF.FilePolarity,Positive*%
%FSLAX46Y46*%
G04 Gerber Fmt 4.6, Leading zero omitted, Abs format (unit mm)*
G04 Created by KiCad (PCBNEW (6.0.2)) date 2022-04-09 20:57:27*
%MOMM*%
%LPD*%
G01*
G04 APERTURE LIST*
G04 Aperture macros list*
%AMRoundRect*
0 Rectangle with rounded corners*
0 $1 Rounding radius*
0 $2 $3 $4 $5 $6 $7 $8 $9 X,Y pos of 4 corners*
0 Add a 4 corners polygon primitive as box body*
4,1,4,$2,$3,$4,$5,$6,$7,$8,$9,$2,$3,0*
0 Add four circle primitives for the rounded corners*
1,1,$1+$1,$2,$3*
1,1,$1+$1,$4,$5*
1,1,$1+$1,$6,$7*
1,1,$1+$1,$8,$9*
0 Add four rect primitives between the rounded corners*
20,1,$1+$1,$2,$3,$4,$5,0*
20,1,$1+$1,$4,$5,$6,$7,0*
20,1,$1+$1,$6,$7,$8,$9,0*
20,1,$1+$1,$8,$9,$2,$3,0*%
G04 Aperture macros list end*
%TA.AperFunction,SMDPad,CuDef*%
%ADD10RoundRect,0.225000X-0.250000X0.225000X-0.250000X-0.225000X0.250000X-0.225000X0.250000X0.225000X0*%
%TD*%
%TA.AperFunction,SMDPad,CuDef*%
%ADD11RoundRect,0.155000X-0.212500X-0.155000X0.212500X-0.155000X0.212500X0.155000X-0.212500X0.155000X0*%
%TD*%
%TA.AperFunction,SMDPad,CuDef*%
%ADD12RoundRect,0.200000X-0.275000X0.200000X-0.275000X-0.200000X0.275000X-0.200000X0.275000X0.200000X0*%
%TD*%
%TA.AperFunction,SMDPad,CuDef*%
%ADD13RoundRect,0.200000X0.200000X0.275000X-0.200000X0.275000X-0.200000X-0.275000X0.200000X-0.275000X0*%
%TD*%
%TA.AperFunction,SMDPad,CuDef*%
%ADD14RoundRect,0.150000X0.587500X0.150000X-0.587500X0.150000X-0.587500X-0.150000X0.587500X-0.150000X0*%
%TD*%
%TA.AperFunction,ComponentPad*%
%ADD15R,2.000000X2.000000*%
%TD*%
%TA.AperFunction,ComponentPad*%
%ADD16C,2.000000*%
%TD*%
%TA.AperFunction,SMDPad,CuDef*%
%ADD17RoundRect,0.200000X-0.200000X-0.275000X0.200000X-0.275000X0.200000X0.275000X-0.200000X0.275000X0*%
%TD*%
%TA.AperFunction,SMDPad,CuDef*%
%ADD18R,1.000000X1.800000*%
%TD*%
%TA.AperFunction,SMDPad,CuDef*%
%ADD19RoundRect,0.075000X-0.662500X-0.075000X0.662500X-0.075000X0.662500X0.075000X-0.662500X0.075000X0*%
%TD*%
%TA.AperFunction,SMDPad,CuDef*%
%ADD20RoundRect,0.075000X-0.075000X-0.662500X0.075000X-0.662500X0.075000X0.662500X-0.075000X0.662500X0*%
%TD*%
%TA.AperFunction,ComponentPad*%
%ADD21O,2.000000X1.200000*%
%TD*%
%TA.AperFunction,SMDPad,CuDef*%
%ADD22R,0.700000X0.600000*%
%TD*%
%TA.AperFunction,SMDPad,CuDef*%
%ADD23RoundRect,0.218750X-0.218750X-0.381250X0.218750X-0.381250X0.218750X0.381250X-0.218750X0.381250X0*%
%TD*%
%TA.AperFunction,ComponentPad*%
%ADD24R,1.500000X2.500000*%
%TD*%
%TA.AperFunction,SMDPad,CuDef*%
%ADD25RoundRect,0.250000X0.325000X0.650000X-0.325000X0.650000X-0.325000X-0.650000X0.325000X-0.650000X0*%
%TD*%
%TA.AperFunction,SMDPad,CuDef*%
%ADD26RoundRect,0.250000X-0.650000X0.325000X-0.650000X-0.325000X0.650000X-0.325000X0.650000X0.325000X0*%
%TD*%
%TA.AperFunction,SMDPad,CuDef*%
%ADD27RoundRect,0.250000X-0.325000X-0.650000X0.325000X-0.650000X0.325000X0.650000X-0.325000X0.650000X0*%
%TD*%
%TA.AperFunction,SMDPad,CuDef*%
%ADD28RoundRect,0.218750X0.218750X0.256250X-0.218750X0.256250X-0.218750X-0.256250X0.218750X-0.256250X0*%
%TD*%
%TA.AperFunction,SMDPad,CuDef*%
%ADD29RoundRect,0.200000X0.275000X-0.200000X0.275000X0.200000X-0.275000X0.200000X-0.275000X-0.200000X0*%
%TD*%
%TA.AperFunction,SMDPad,CuDef*%
%ADD30RoundRect,0.150000X-0.512500X-0.150000X0.512500X-0.150000X0.512500X0.150000X-0.512500X0.150000X0*%
%TD*%
%TA.AperFunction,ComponentPad*%
%ADD31R,1.524000X1.524000*%
%TD*%
%TA.AperFunction,ComponentPad*%
%ADD32C,1.524000*%
%TD*%
%TA.AperFunction,SMDPad,CuDef*%
%ADD33RoundRect,0.250000X0.475000X-0.250000X0.475000X0.250000X-0.475000X0.250000X-0.475000X-0.250000X0*%
%TD*%
%TA.AperFunction,SMDPad,CuDef*%
%ADD34R,0.600000X1.450000*%
%TD*%
%TA.AperFunction,SMDPad,CuDef*%
%ADD35R,0.300000X1.450000*%
%TD*%
%TA.AperFunction,ComponentPad*%
%ADD36O,1.000000X2.100000*%
%TD*%
%TA.AperFunction,ComponentPad*%
%ADD37O,1.000000X1.600000*%
%TD*%
%TA.AperFunction,SMDPad,CuDef*%
%ADD38R,1.200000X2.500000*%
%TD*%
%TA.AperFunction,SMDPad,CuDef*%
%ADD39RoundRect,0.250000X0.250000X0.475000X-0.250000X0.475000X-0.250000X-0.475000X0.250000X-0.475000X0*%
%TD*%
%TA.AperFunction,SMDPad,CuDef*%
%ADD40RoundRect,0.150000X0.150000X-0.587500X0.150000X0.587500X-0.150000X0.587500X-0.150000X-0.587500X0*%
%TD*%
%TA.AperFunction,SMDPad,CuDef*%
%ADD41R,2.000000X2.400000*%
%TD*%
%TA.AperFunction,SMDPad,CuDef*%
%ADD42RoundRect,0.150000X-0.587500X-0.150000X0.587500X-0.150000X0.587500X0.150000X-0.587500X0.150000X0*%
%TD*%
%TA.AperFunction,SMDPad,CuDef*%
%ADD43RoundRect,0.250000X-0.475000X0.250000X-0.475000X-0.250000X0.475000X-0.250000X0.475000X0.250000X0*%
%TD*%
%TA.AperFunction,ComponentPad*%
%ADD44O,1.200000X2.000000*%
%TD*%
%TA.AperFunction,ViaPad*%
%ADD45C,0.800000*%
%TD*%
%TA.AperFunction,Conductor*%
%ADD46C,0.300000*%
%TD*%
G04 APERTURE END LIST*
D10*
%TO.P,C2,1*%
%TO.N,EN_A*%
X112300000Y-149125000D03*
%TO.P,C2,2*%
%TO.N,GND*%
X112300000Y-150675000D03*
%TD*%
D11*
%TO.P,C16,1*%
%TO.N,GND*%
X91282500Y-135720000D03*
%TO.P,C16,2*%
%TO.N,Net-(U7-Pad4)*%
X92417500Y-135720000D03*
%TD*%
D12*
%TO.P,R19,1*%
%TO.N,IIC_SCL*%
X110600000Y-133675000D03*
%TO.P,R19,2*%
%TO.N,VCC*%
X110600000Y-135325000D03*
%TD*%
D13*
%TO.P,R21,1*%
%TO.N,MUTE*%
X86625000Y-139600000D03*
%TO.P,R21,2*%
%TO.N,Net-(Q4-Pad1)*%
X84975000Y-139600000D03*
%TD*%
D14*
%TO.P,Q3,1,G*%
%TO.N,Net-(Q3-Pad1)*%
X87137500Y-143350000D03*
%TO.P,Q3,2,S*%
%TO.N,GND*%
X87137500Y-141450000D03*
%TO.P,Q3,3,D*%
%TO.N,Net-(BZ1-Pad2)*%
X85262500Y-142400000D03*
%TD*%
D15*
%TO.P,BZ1,1,-*%
%TO.N,Net-(BZ1-Pad1)*%
X80070785Y-139800000D03*
D16*
%TO.P,BZ1,2,+*%
%TO.N,Net-(BZ1-Pad2)*%
X75070785Y-139800000D03*
%TD*%
D17*
%TO.P,R20,1*%
%TO.N,Net-(Q4-Pad1)*%
X84875000Y-137900000D03*
%TO.P,R20,2*%
%TO.N,VCC*%
X86525000Y-137900000D03*
%TD*%
D18*
%TO.P,Y2,1,1*%
%TO.N,Net-(U7-Pad4)*%
X93830000Y-137640000D03*
%TO.P,Y2,2,2*%
%TO.N,Net-(U7-Pad3)*%
X96330000Y-137640000D03*
%TD*%
D19*
%TO.P,U7,1,VBAT*%
%TO.N,Net-(BT1-Pad1)*%
X99337500Y-140550000D03*
%TO.P,U7,2,PC13*%
%TO.N,unconnected-(U7-Pad2)*%
X99337500Y-141050000D03*
%TO.P,U7,3,PC14*%
%TO.N,Net-(U7-Pad3)*%
X99337500Y-141550000D03*
%TO.P,U7,4,PC15*%
%TO.N,Net-(U7-Pad4)*%
X99337500Y-142050000D03*
%TO.P,U7,5,PD0*%
%TO.N,Net-(U7-Pad5)*%
X99337500Y-142550000D03*
%TO.P,U7,6,PD1*%
%TO.N,Net-(U7-Pad6)*%
X99337500Y-143050000D03*
%TO.P,U7,7,NRST*%
%TO.N,Net-(U7-Pad7)*%
X99337500Y-143550000D03*
%TO.P,U7,8,VSSA*%
%TO.N,GND*%
X99337500Y-144050000D03*
%TO.P,U7,9,VDDA*%
%TO.N,Net-(U7-Pad9)*%
X99337500Y-144550000D03*
%TO.P,U7,10,PA0*%
%TO.N,BAT_ADC*%
X99337500Y-145050000D03*
%TO.P,U7,11,PA1*%
%TO.N,BAT_CHG_DET*%
X99337500Y-145550000D03*
%TO.P,U7,12,PA2*%
%TO.N,PWM*%
X99337500Y-146050000D03*
D20*
%TO.P,U7,13,PA3*%
%TO.N,MUTE*%
X100750000Y-147462500D03*
%TO.P,U7,14,PA4*%
%TO.N,unconnected-(U7-Pad14)*%
X101250000Y-147462500D03*
%TO.P,U7,15,PA5*%
%TO.N,unconnected-(U7-Pad15)*%
X101750000Y-147462500D03*
%TO.P,U7,16,PA6*%
%TO.N,unconnected-(U7-Pad16)*%
X102250000Y-147462500D03*
%TO.P,U7,17,PA7*%
%TO.N,unconnected-(U7-Pad17)*%
X102750000Y-147462500D03*
%TO.P,U7,18,PB0*%
%TO.N,TICK_A*%
X103250000Y-147462500D03*
%TO.P,U7,19,PB1*%
%TO.N,TICK_B*%
X103750000Y-147462500D03*
%TO.P,U7,20,PB2*%
%TO.N,unconnected-(U7-Pad20)*%
X104250000Y-147462500D03*
%TO.P,U7,21,PB10*%
%TO.N,unconnected-(U7-Pad21)*%
X104750000Y-147462500D03*
%TO.P,U7,22,PB11*%
%TO.N,unconnected-(U7-Pad22)*%
X105250000Y-147462500D03*
%TO.P,U7,23,VSS*%
%TO.N,GND*%
X105750000Y-147462500D03*
%TO.P,U7,24,VDD*%
%TO.N,VCC*%
X106250000Y-147462500D03*
D19*
%TO.P,U7,25,PB12*%
%TO.N,unconnected-(U7-Pad25)*%
X107662500Y-146050000D03*
%TO.P,U7,26,PB13*%
%TO.N,unconnected-(U7-Pad26)*%
X107662500Y-145550000D03*
%TO.P,U7,27,PB14*%
%TO.N,unconnected-(U7-Pad27)*%
X107662500Y-145050000D03*
%TO.P,U7,28,PB15*%
%TO.N,RUN_LED*%
X107662500Y-144550000D03*
%TO.P,U7,29,PA8*%
%TO.N,PWR_EN*%
X107662500Y-144050000D03*
%TO.P,U7,30,PA9*%
%TO.N,RXD*%
X107662500Y-143550000D03*
%TO.P,U7,31,PA10*%
%TO.N,TXD*%
X107662500Y-143050000D03*
%TO.P,U7,32,PA11*%
%TO.N,USB_DN*%
X107662500Y-142550000D03*
%TO.P,U7,33,PA12*%
%TO.N,USB_DP*%
X107662500Y-142050000D03*
%TO.P,U7,34,PA13*%
%TO.N,SW_D*%
X107662500Y-141550000D03*
%TO.P,U7,35,VSS*%
%TO.N,GND*%
X107662500Y-141050000D03*
%TO.P,U7,36,VDD*%
%TO.N,VCC*%
X107662500Y-140550000D03*
D20*
%TO.P,U7,37,PA14*%
%TO.N,SW_L*%
X106250000Y-139137500D03*
%TO.P,U7,38,PA15*%
%TO.N,unconnected-(U7-Pad38)*%
X105750000Y-139137500D03*
%TO.P,U7,39,PB3*%
%TO.N,K1_DET*%
X105250000Y-139137500D03*
%TO.P,U7,40,PB4*%
%TO.N,EN_A*%
X104750000Y-139137500D03*
%TO.P,U7,41,PB5*%
%TO.N,EN_B*%
X104250000Y-139137500D03*
%TO.P,U7,42,PB6*%
%TO.N,IIC_SCL*%
X103750000Y-139137500D03*
%TO.P,U7,43,PB7*%
%TO.N,IIC_SDL*%
X103250000Y-139137500D03*
%TO.P,U7,44,BOOT0*%
%TO.N,Net-(U7-Pad44)*%
X102750000Y-139137500D03*
%TO.P,U7,45,PB8*%
%TO.N,unconnected-(U7-Pad45)*%
X102250000Y-139137500D03*
%TO.P,U7,46,PB9*%
%TO.N,unconnected-(U7-Pad46)*%
X101750000Y-139137500D03*
%TO.P,U7,47,VSS*%
%TO.N,GND*%
X101250000Y-139137500D03*
%TO.P,U7,48,VDD*%
%TO.N,VCC*%
X100750000Y-139137500D03*
%TD*%
D21*
%TO.P,J4,1,Pin_1*%
%TO.N,BAT_IN*%
X127800000Y-156500000D03*
%TO.P,J4,2,Pin_2*%
%TO.N,GND*%
X127800000Y-153960000D03*
%TD*%
D17*
%TO.P,R18,1*%
%TO.N,IIC_SDL*%
X106575000Y-137300000D03*
%TO.P,R18,2*%
%TO.N,VCC*%
X108225000Y-137300000D03*
%TD*%
D11*
%TO.P,C14,1*%
%TO.N,GND*%
X91272500Y-138330000D03*
%TO.P,C14,2*%
%TO.N,Net-(U7-Pad6)*%
X92407500Y-138330000D03*
%TD*%
D22*
%TO.P,D1,1,K*%
%TO.N,Net-(D1-Pad1)*%
X96570000Y-160570000D03*
%TO.P,D1,2,A*%
%TO.N,PWR_EN*%
X96570000Y-159170000D03*
%TD*%
D13*
%TO.P,R8,1*%
%TO.N,Net-(C8-Pad1)*%
X103615000Y-156920000D03*
%TO.P,R8,2*%
%TO.N,BAT_ADC*%
X101965000Y-156920000D03*
%TD*%
D17*
%TO.P,R17,1*%
%TO.N,GND*%
X84975000Y-145000000D03*
%TO.P,R17,2*%
%TO.N,Net-(Q3-Pad1)*%
X86625000Y-145000000D03*
%TD*%
D10*
%TO.P,C3,1*%
%TO.N,EN_B*%
X109800000Y-149125000D03*
%TO.P,C3,2*%
%TO.N,GND*%
X109800000Y-150675000D03*
%TD*%
D13*
%TO.P,R2,1*%
%TO.N,Net-(U7-Pad7)*%
X94505000Y-146280000D03*
%TO.P,R2,2*%
%TO.N,VCC*%
X92855000Y-146280000D03*
%TD*%
D23*
%TO.P,L1,1,1*%
%TO.N,VCC*%
X92757500Y-148040000D03*
%TO.P,L1,2,2*%
%TO.N,Net-(U7-Pad9)*%
X94882500Y-148040000D03*
%TD*%
D24*
%TO.P,SW1,6*%
%TO.N,N/C*%
X115950000Y-141150000D03*
%TO.P,SW1,7*%
X128450000Y-141150000D03*
D16*
%TO.P,SW1,A,A*%
%TO.N,EN_A*%
X119700000Y-148650000D03*
%TO.P,SW1,B,B*%
%TO.N,EN_B*%
X124700000Y-148650000D03*
%TO.P,SW1,C,C*%
%TO.N,GND*%
X122200000Y-148650000D03*
D15*
%TO.P,SW1,S1,S1*%
%TO.N,K1*%
X119700000Y-134150000D03*
D16*
%TO.P,SW1,S2,S2*%
%TO.N,GND*%
X124700000Y-134150000D03*
%TD*%
D25*
%TO.P,C8,1*%
%TO.N,Net-(C8-Pad1)*%
X104775000Y-154750000D03*
%TO.P,C8,2*%
%TO.N,GND*%
X101825000Y-154750000D03*
%TD*%
D26*
%TO.P,C5,1*%
%TO.N,USB_VCC*%
X114200000Y-153725000D03*
%TO.P,C5,2*%
%TO.N,GND*%
X114200000Y-156675000D03*
%TD*%
D27*
%TO.P,C13,1*%
%TO.N,Net-(C13-Pad1)*%
X85125000Y-151350000D03*
%TO.P,C13,2*%
%TO.N,PWM*%
X88075000Y-151350000D03*
%TD*%
D25*
%TO.P,C6,1*%
%TO.N,BAT_IN*%
X112095000Y-160130000D03*
%TO.P,C6,2*%
%TO.N,GND*%
X109145000Y-160130000D03*
%TD*%
D22*
%TO.P,D5,1,K*%
%TO.N,K1*%
X96600000Y-157500000D03*
%TO.P,D5,2,A*%
%TO.N,K1_DET*%
X96600000Y-156100000D03*
%TD*%
D28*
%TO.P,D3,1,K*%
%TO.N,Net-(D3-Pad1)*%
X128387500Y-151000000D03*
%TO.P,D3,2,A*%
%TO.N,USB_VCC*%
X126812500Y-151000000D03*
%TD*%
D29*
%TO.P,R13,1*%
%TO.N,Net-(R13-Pad1)*%
X115200000Y-147525000D03*
%TO.P,R13,2*%
%TO.N,VCC*%
X115200000Y-145875000D03*
%TD*%
D30*
%TO.P,U3,1,STAT*%
%TO.N,BAT_CHG_DET*%
X109162500Y-154250000D03*
%TO.P,U3,2,VSS*%
%TO.N,GND*%
X109162500Y-155200000D03*
%TO.P,U3,3,VBAT*%
%TO.N,BAT_IN*%
X109162500Y-156150000D03*
%TO.P,U3,4,VDD*%
%TO.N,USB_VCC*%
X111437500Y-156150000D03*
%TO.P,U3,5,PROG*%
%TO.N,Net-(R5-Pad2)*%
X111437500Y-154250000D03*
%TD*%
D31*
%TO.P,U2,1,GND*%
%TO.N,GND*%
X96295000Y-133995000D03*
D32*
%TO.P,U2,2,VCC*%
%TO.N,VCC*%
X98835000Y-133995000D03*
%TO.P,U2,3,SCL*%
%TO.N,IIC_SCL*%
X101375000Y-133995000D03*
%TO.P,U2,4,SDL*%
%TO.N,IIC_SDL*%
X103915000Y-133995000D03*
%TD*%
D33*
%TO.P,C9,1*%
%TO.N,Net-(C8-Pad1)*%
X106700000Y-156050000D03*
%TO.P,C9,2*%
%TO.N,GND*%
X106700000Y-154150000D03*
%TD*%
D17*
%TO.P,R16,1*%
%TO.N,Net-(Q3-Pad1)*%
X84975000Y-146600000D03*
%TO.P,R16,2*%
%TO.N,PWM*%
X86625000Y-146600000D03*
%TD*%
D12*
%TO.P,R7,1*%
%TO.N,Net-(D4-Pad2)*%
X103550000Y-158455000D03*
%TO.P,R7,2*%
%TO.N,BAT_IN*%
X103550000Y-160105000D03*
%TD*%
D34*
%TO.P,J1,A1,GND*%
%TO.N,GND*%
X117550000Y-153315000D03*
%TO.P,J1,A4,VBUS*%
%TO.N,USB_VCC*%
X118350000Y-153315000D03*
D35*
%TO.P,J1,A5,CC1*%
%TO.N,unconnected-(J1-PadA5)*%
X119550000Y-153315000D03*
%TO.P,J1,A6,D+*%
%TO.N,Net-(R13-Pad1)*%
X120550000Y-153315000D03*
%TO.P,J1,A7,D-*%
%TO.N,Net-(R11-Pad2)*%
X121050000Y-153315000D03*
%TO.P,J1,A8,SBU1*%
%TO.N,unconnected-(J1-PadA8)*%
X122050000Y-153315000D03*
D34*
%TO.P,J1,A9,VBUS*%
%TO.N,USB_VCC*%
X123250000Y-153315000D03*
%TO.P,J1,A12,GND*%
%TO.N,GND*%
X124050000Y-153315000D03*
%TO.P,J1,B1,GND*%
X124050000Y-153315000D03*
%TO.P,J1,B4,VBUS*%
%TO.N,USB_VCC*%
X123250000Y-153315000D03*
D35*
%TO.P,J1,B5,CC2*%
%TO.N,unconnected-(J1-PadB5)*%
X122550000Y-153315000D03*
%TO.P,J1,B6,D+*%
%TO.N,Net-(R13-Pad1)*%
X121550000Y-153315000D03*
%TO.P,J1,B7,D-*%
%TO.N,Net-(R11-Pad2)*%
X120050000Y-153315000D03*
%TO.P,J1,B8,SBU2*%
%TO.N,unconnected-(J1-PadB8)*%
X119050000Y-153315000D03*
D34*
%TO.P,J1,B9,VBUS*%
%TO.N,USB_VCC*%
X118350000Y-153315000D03*
%TO.P,J1,B12,GND*%
%TO.N,GND*%
X117550000Y-153315000D03*
D36*
%TO.P,J1,S1,SHIELD*%
X116480000Y-154230000D03*
X125120000Y-154230000D03*
D37*
X125120000Y-158410000D03*
X116480000Y-158410000D03*
%TD*%
D12*
%TO.P,R6,1*%
%TO.N,Net-(D1-Pad1)*%
X98100000Y-158825000D03*
%TO.P,R6,2*%
%TO.N,GND*%
X98100000Y-160475000D03*
%TD*%
%TO.P,R24,1*%
%TO.N,RUN_LED*%
X128850000Y-145375000D03*
%TO.P,R24,2*%
%TO.N,Net-(D6-Pad2)*%
X128850000Y-147025000D03*
%TD*%
D38*
%TO.P,J3,R1*%
%TO.N,Net-(C12-Pad1)*%
X76755000Y-152050000D03*
%TO.P,J3,R2*%
%TO.N,GND*%
X73755000Y-152050000D03*
%TO.P,J3,S*%
%TO.N,unconnected-(J3-PadS)*%
X81855000Y-158550000D03*
%TO.P,J3,T*%
%TO.N,Net-(C13-Pad1)*%
X80755000Y-152050000D03*
%TD*%
D11*
%TO.P,C1,1*%
%TO.N,GND*%
X91282500Y-136960000D03*
%TO.P,C1,2*%
%TO.N,Net-(U7-Pad5)*%
X92417500Y-136960000D03*
%TD*%
%TO.P,C15,1*%
%TO.N,GND*%
X91262500Y-134520000D03*
%TO.P,C15,2*%
%TO.N,Net-(U7-Pad3)*%
X92397500Y-134520000D03*
%TD*%
D12*
%TO.P,R23,1*%
%TO.N,VCC*%
X80950000Y-147575000D03*
%TO.P,R23,2*%
%TO.N,TICK_B*%
X80950000Y-149225000D03*
%TD*%
D17*
%TO.P,R12,1*%
%TO.N,USB_DP*%
X115375000Y-149300000D03*
%TO.P,R12,2*%
%TO.N,Net-(R13-Pad1)*%
X117025000Y-149300000D03*
%TD*%
D39*
%TO.P,C17,1*%
%TO.N,Net-(U7-Pad7)*%
X94830000Y-144370000D03*
%TO.P,C17,2*%
%TO.N,GND*%
X92930000Y-144370000D03*
%TD*%
D17*
%TO.P,R11,1*%
%TO.N,USB_DN*%
X115375000Y-151100000D03*
%TO.P,R11,2*%
%TO.N,Net-(R11-Pad2)*%
X117025000Y-151100000D03*
%TD*%
D13*
%TO.P,R10,1*%
%TO.N,Net-(D3-Pad1)*%
X111100000Y-158000000D03*
%TO.P,R10,2*%
%TO.N,BAT_CHG_DET*%
X109450000Y-158000000D03*
%TD*%
D17*
%TO.P,R1,1*%
%TO.N,GND*%
X101005000Y-137190000D03*
%TO.P,R1,2*%
%TO.N,Net-(U7-Pad44)*%
X102655000Y-137190000D03*
%TD*%
D12*
%TO.P,R22,1*%
%TO.N,VCC*%
X76850000Y-147600000D03*
%TO.P,R22,2*%
%TO.N,TICK_A*%
X76850000Y-149250000D03*
%TD*%
D22*
%TO.P,D4,1,K*%
%TO.N,K1*%
X98110000Y-156090000D03*
%TO.P,D4,2,A*%
%TO.N,Net-(D4-Pad2)*%
X98110000Y-157490000D03*
%TD*%
D40*
%TO.P,Q4,1,G*%
%TO.N,Net-(Q4-Pad1)*%
X84550000Y-135937500D03*
%TO.P,Q4,2,S*%
%TO.N,VCC*%
X86450000Y-135937500D03*
%TO.P,Q4,3,D*%
%TO.N,Net-(BZ1-Pad1)*%
X85500000Y-134062500D03*
%TD*%
D30*
%TO.P,U6,1,SCL*%
%TO.N,IIC_SCL*%
X106562500Y-133750000D03*
%TO.P,U6,2,GND*%
%TO.N,GND*%
X106562500Y-134700000D03*
%TO.P,U6,3,SDA*%
%TO.N,IIC_SDL*%
X106562500Y-135650000D03*
%TO.P,U6,4,VCC*%
%TO.N,VCC*%
X108837500Y-135650000D03*
%TO.P,U6,5,NC*%
%TO.N,unconnected-(U6-Pad5)*%
X108837500Y-133750000D03*
%TD*%
D29*
%TO.P,R3,1*%
%TO.N,EN_A*%
X112300000Y-147525000D03*
%TO.P,R3,2*%
%TO.N,VCC*%
X112300000Y-145875000D03*
%TD*%
D41*
%TO.P,Y1,1,1*%
%TO.N,Net-(U7-Pad6)*%
X92130000Y-141070000D03*
%TO.P,Y1,2,2*%
%TO.N,Net-(U7-Pad5)*%
X95830000Y-141070000D03*
%TD*%
D30*
%TO.P,U5,1,IN*%
%TO.N,Net-(C8-Pad1)*%
X100182500Y-150590000D03*
%TO.P,U5,2,GND*%
%TO.N,GND*%
X100182500Y-151540000D03*
%TO.P,U5,3,EN*%
%TO.N,Net-(C8-Pad1)*%
X100182500Y-152490000D03*
%TO.P,U5,4,NC*%
%TO.N,unconnected-(U5-Pad4)*%
X102457500Y-152490000D03*
%TO.P,U5,5,OUT*%
%TO.N,VCC*%
X102457500Y-150590000D03*
%TD*%
D33*
%TO.P,C7,1*%
%TO.N,BAT_IN*%
X114260000Y-160290000D03*
%TO.P,C7,2*%
%TO.N,GND*%
X114260000Y-158390000D03*
%TD*%
D28*
%TO.P,D6,1,K*%
%TO.N,GND*%
X128387500Y-149200000D03*
%TO.P,D6,2,A*%
%TO.N,Net-(D6-Pad2)*%
X126812500Y-149200000D03*
%TD*%
D29*
%TO.P,R9,1*%
%TO.N,BAT_ADC*%
X100120000Y-155905000D03*
%TO.P,R9,2*%
%TO.N,GND*%
X100120000Y-154255000D03*
%TD*%
%TO.P,R4,1*%
%TO.N,EN_B*%
X109800000Y-147525000D03*
%TO.P,R4,2*%
%TO.N,VCC*%
X109800000Y-145875000D03*
%TD*%
D40*
%TO.P,Q2,1,G*%
%TO.N,Net-(D4-Pad2)*%
X105240000Y-159777500D03*
%TO.P,Q2,2,S*%
%TO.N,BAT_IN*%
X107140000Y-159777500D03*
%TO.P,Q2,3,D*%
%TO.N,Net-(C8-Pad1)*%
X106190000Y-157902500D03*
%TD*%
D27*
%TO.P,C12,1*%
%TO.N,Net-(C12-Pad1)*%
X85125000Y-148800000D03*
%TO.P,C12,2*%
%TO.N,PWM*%
X88075000Y-148800000D03*
%TD*%
D42*
%TO.P,Q1,1,G*%
%TO.N,Net-(D1-Pad1)*%
X99882500Y-158480000D03*
%TO.P,Q1,2,S*%
%TO.N,GND*%
X99882500Y-160380000D03*
%TO.P,Q1,3,D*%
%TO.N,Net-(D4-Pad2)*%
X101757500Y-159430000D03*
%TD*%
D26*
%TO.P,C10,1*%
%TO.N,VCC*%
X104580000Y-149465000D03*
%TO.P,C10,2*%
%TO.N,GND*%
X104580000Y-152415000D03*
%TD*%
D43*
%TO.P,C11,1*%
%TO.N,VCC*%
X106790000Y-150560000D03*
%TO.P,C11,2*%
%TO.N,GND*%
X106790000Y-152460000D03*
%TD*%
D17*
%TO.P,R5,1*%
%TO.N,GND*%
X109350000Y-152400000D03*
%TO.P,R5,2*%
%TO.N,Net-(R5-Pad2)*%
X111000000Y-152400000D03*
%TD*%
D44*
%TO.P,J5,1,Pin_1*%
%TO.N,VCC*%
X118290000Y-137700000D03*
%TO.P,J5,2,Pin_2*%
%TO.N,GND*%
X120830000Y-137700000D03*
%TO.P,J5,3,Pin_3*%
%TO.N,SW_D*%
X123370000Y-137700000D03*
%TO.P,J5,4,Pin_4*%
%TO.N,SW_L*%
X125910000Y-137700000D03*
%TD*%
D45*
%TO.N,Net-(BT1-Pad1)*%
X98550000Y-138650000D03*
%TO.N,VCC*%
X108140000Y-151350000D03*
X120060000Y-145140000D03*
X121770000Y-144210000D03*
X117160000Y-146520000D03*
X110580000Y-136670000D03*
%TO.N,PWR_EN*%
X104570000Y-144510000D03*
X95300000Y-159190000D03*
%TO.N,K1*%
X94370000Y-154190000D03*
%TO.N,K1_DET*%
X95370000Y-156100000D03*
X105550000Y-140830000D03*
%TO.N,TICK_B*%
X84830000Y-154680000D03*
X82380000Y-147910000D03*
%TO.N,TICK_A*%
X85640000Y-153570500D03*
X74320000Y-149210000D03*
%TO.N,EN_A*%
X111040000Y-148200000D03*
X104380000Y-141590000D03*
%TO.N,EN_B*%
X103280000Y-141570000D03*
X108560000Y-148150000D03*
%TO.N,BAT_ADC*%
X101090000Y-156390000D03*
X101336477Y-144522055D03*
%TO.N,BAT_CHG_DET*%
X108160000Y-153560000D03*
X101380000Y-145670000D03*
%TO.N,Net-(U7-Pad44)*%
X102810000Y-135740000D03*
%TO.N,USB_DN*%
X114260000Y-151060000D03*
X109410000Y-143250000D03*
%TO.N,USB_DP*%
X114360000Y-149260000D03*
X110260000Y-142660000D03*
%TD*%
D46*
%TO.N,Net-(BZ1-Pad1)*%
X84508285Y-134062500D02*
X85500000Y-134062500D01*
X80070785Y-138500000D02*
X84508285Y-134062500D01*
X80070785Y-139800000D02*
X80070785Y-138500000D01*
%TO.N,Net-(BZ1-Pad2)*%
X77670785Y-142400000D02*
X75070785Y-139800000D01*
X85262500Y-142400000D02*
X77670785Y-142400000D01*
%TO.N,GND*%
X113460000Y-149515000D02*
X113460000Y-145690000D01*
X114835986Y-139200000D02*
X119330000Y-139200000D01*
X127600000Y-149987500D02*
X128387500Y-149200000D01*
X100090000Y-133280000D02*
X99660000Y-132850000D01*
X102245000Y-154750000D02*
X104580000Y-152415000D01*
X71005479Y-138844521D02*
X71005479Y-149300479D01*
X71005479Y-149300479D02*
X73755000Y-152050000D01*
X116480000Y-154230000D02*
X116480000Y-154780000D01*
X100780000Y-151540000D02*
X101160000Y-151920000D01*
X87137500Y-141982500D02*
X84975000Y-144145000D01*
X96295000Y-133975000D02*
X96295000Y-133995000D01*
X87590000Y-138810000D02*
X86304283Y-138810000D01*
X92930000Y-144370000D02*
X93700000Y-145140000D01*
X100922500Y-161420000D02*
X99882500Y-160380000D01*
X125530000Y-134150000D02*
X124700000Y-134150000D01*
X92730978Y-144370000D02*
X90450000Y-142089022D01*
X89180000Y-140400000D02*
X87590000Y-138810000D01*
X124050000Y-136340000D02*
X124730000Y-137020000D01*
X78154521Y-156449521D02*
X87879521Y-156449521D01*
X120680000Y-150170000D02*
X122200000Y-148650000D01*
X83490000Y-148300000D02*
X83490000Y-146485000D01*
X75465000Y-150340000D02*
X81450000Y-150340000D01*
X100090000Y-135040000D02*
X100090000Y-133280000D01*
X127010480Y-138949520D02*
X127130000Y-138830000D01*
X101005000Y-135955000D02*
X101005000Y-137190000D01*
X121790000Y-136340000D02*
X124050000Y-136340000D01*
X129330000Y-159150000D02*
X129330000Y-155490000D01*
X109290000Y-152460000D02*
X109350000Y-152400000D01*
X73755000Y-152050000D02*
X75465000Y-150340000D01*
X127800000Y-154300000D02*
X127800000Y-153960000D01*
X116460000Y-158390000D02*
X116480000Y-158410000D01*
X100033940Y-144050000D02*
X101250000Y-142833940D01*
X81450000Y-150340000D02*
X83490000Y-148300000D01*
X116480000Y-154780000D02*
X117184521Y-155484521D01*
X102670000Y-134290000D02*
X101005000Y-135955000D01*
X93700000Y-148359733D02*
X92529733Y-149530000D01*
X120830000Y-137700000D02*
X120830000Y-137300000D01*
X109162500Y-155200000D02*
X107750000Y-155200000D01*
X114260000Y-158390000D02*
X116460000Y-158390000D01*
X101250000Y-139137500D02*
X101250000Y-137435000D01*
X119330000Y-139200000D02*
X120830000Y-137700000D01*
X118270000Y-149100000D02*
X119340000Y-150170000D01*
X101250000Y-142833940D02*
X101250000Y-139137500D01*
X108835000Y-150675000D02*
X109800000Y-150675000D01*
X116480000Y-158410000D02*
X125120000Y-158410000D01*
X114070978Y-145079022D02*
X116637556Y-145079022D01*
X112300000Y-150675000D02*
X113460000Y-149515000D01*
X127600000Y-151500000D02*
X127600000Y-149987500D01*
X92830000Y-161400000D02*
X97175000Y-161400000D01*
X101160000Y-154085000D02*
X101825000Y-154750000D01*
X124730000Y-137020000D02*
X124730000Y-138490000D01*
X129500000Y-152260000D02*
X129500000Y-150312500D01*
X112300000Y-150675000D02*
X109800000Y-150675000D01*
X125120000Y-154230000D02*
X125120000Y-153980000D01*
X104343489Y-132983489D02*
X103096511Y-132983489D01*
X105750000Y-148300000D02*
X106280000Y-148830000D01*
X73755000Y-152050000D02*
X78154521Y-156449521D01*
X124730000Y-138490000D02*
X125189520Y-138949520D01*
X105750000Y-147462500D02*
X105750000Y-148300000D01*
X123990108Y-155484521D02*
X125120000Y-154354629D01*
X99337500Y-144050000D02*
X100033940Y-144050000D01*
X86304283Y-138810000D02*
X85840000Y-139274283D01*
X118270000Y-146711466D02*
X118270000Y-149100000D01*
X106790000Y-152460000D02*
X104625000Y-152460000D01*
X106060000Y-134700000D02*
X104343489Y-132983489D01*
X90450000Y-142089022D02*
X90450000Y-139152500D01*
X109800000Y-150675000D02*
X109800000Y-150700000D01*
X101825000Y-154750000D02*
X102245000Y-154750000D01*
X96295000Y-133995000D02*
X94975969Y-132675969D01*
X106562500Y-134700000D02*
X106060000Y-134700000D01*
X104625000Y-152460000D02*
X104580000Y-152415000D01*
X125120000Y-154354629D02*
X125120000Y-154230000D01*
X93700000Y-145140000D02*
X93700000Y-148359733D01*
X117395000Y-153315000D02*
X116480000Y-154230000D01*
X101250000Y-137435000D02*
X101005000Y-137190000D01*
X109145000Y-160130000D02*
X107855000Y-161420000D01*
X117184521Y-155484521D02*
X123990108Y-155484521D01*
X106990000Y-148830000D02*
X108835000Y-150675000D01*
X119340000Y-150170000D02*
X120680000Y-150170000D01*
X106790000Y-152460000D02*
X109290000Y-152460000D01*
X117550000Y-153315000D02*
X117395000Y-153315000D01*
X106700000Y-154150000D02*
X106700000Y-152550000D01*
X90255752Y-149530000D02*
X89180000Y-148454248D01*
X86480000Y-141450000D02*
X87137500Y-141450000D01*
X85840000Y-139274283D02*
X85840000Y-140810000D01*
X94975969Y-132675969D02*
X77174031Y-132675969D01*
X113460000Y-145690000D02*
X114070978Y-145079022D01*
X114200000Y-158330000D02*
X114260000Y-158390000D01*
X102670000Y-133410000D02*
X102670000Y-134290000D01*
X107750000Y-155200000D02*
X106700000Y-154150000D01*
X127130000Y-135750000D02*
X125530000Y-134150000D01*
X129500000Y-150312500D02*
X128387500Y-149200000D01*
X107855000Y-161420000D02*
X100922500Y-161420000D01*
X87879521Y-156449521D02*
X92830000Y-161400000D01*
X126990000Y-161490000D02*
X129330000Y-159150000D01*
X124205000Y-153315000D02*
X125120000Y-154230000D01*
X77174031Y-132675969D02*
X71005479Y-138844521D01*
X125189520Y-138949520D02*
X127010480Y-138949520D01*
X125120000Y-158410000D02*
X125120000Y-156980000D01*
X125120000Y-153980000D02*
X127600000Y-151500000D01*
X89180000Y-148454248D02*
X89180000Y-140400000D01*
X120830000Y-137300000D02*
X121790000Y-136340000D01*
X112985986Y-141050000D02*
X114835986Y-139200000D01*
X127130000Y-138830000D02*
X127130000Y-135750000D01*
X107662500Y-141050000D02*
X112985986Y-141050000D01*
X116637556Y-145079022D02*
X118270000Y-146711466D01*
X84975000Y-144145000D02*
X84975000Y-145000000D01*
X98195000Y-160380000D02*
X98100000Y-160475000D01*
X101005000Y-135955000D02*
X100090000Y-135040000D01*
X124050000Y-153315000D02*
X124205000Y-153315000D01*
X100182500Y-151540000D02*
X100780000Y-151540000D01*
X109350000Y-151150000D02*
X109350000Y-152400000D01*
X87137500Y-141450000D02*
X87137500Y-141982500D01*
X106700000Y-152550000D02*
X106790000Y-152460000D01*
X91282500Y-135720000D02*
X91282500Y-136960000D01*
X129330000Y-155490000D02*
X127800000Y-153960000D01*
X97175000Y-161400000D02*
X98100000Y-160475000D01*
X92930000Y-144370000D02*
X92730978Y-144370000D01*
X109800000Y-150700000D02*
X109350000Y-151150000D01*
X85840000Y-140810000D02*
X86480000Y-141450000D01*
X127600000Y-149987500D02*
X123537500Y-149987500D01*
X90450000Y-139152500D02*
X91272500Y-138330000D01*
X125120000Y-156980000D02*
X127800000Y-154300000D01*
X91282500Y-136960000D02*
X91282500Y-138320000D01*
X92529733Y-149530000D02*
X90255752Y-149530000D01*
X99882500Y-160380000D02*
X98195000Y-160380000D01*
X110505000Y-161490000D02*
X126990000Y-161490000D01*
X103096511Y-132983489D02*
X102670000Y-133410000D01*
X106280000Y-148830000D02*
X106990000Y-148830000D01*
X123537500Y-149987500D02*
X122200000Y-148650000D01*
X91262500Y-135700000D02*
X91282500Y-135720000D01*
X97420000Y-132850000D02*
X96295000Y-133975000D01*
X99660000Y-132850000D02*
X97420000Y-132850000D01*
X91282500Y-138320000D02*
X91272500Y-138330000D01*
X91262500Y-134520000D02*
X91262500Y-135700000D01*
X127800000Y-153960000D02*
X129500000Y-152260000D01*
X114200000Y-156675000D02*
X114200000Y-158330000D01*
X100120000Y-154255000D02*
X101330000Y-154255000D01*
X109145000Y-160130000D02*
X110505000Y-161490000D01*
X83490000Y-146485000D02*
X84975000Y-145000000D01*
X101160000Y-151920000D02*
X101160000Y-154085000D01*
%TO.N,Net-(BT1-Pad1)*%
X98550000Y-139762500D02*
X99337500Y-140550000D01*
X98550000Y-138650000D02*
X98550000Y-139762500D01*
%TO.N,Net-(U7-Pad5)*%
X95830000Y-141070000D02*
X97310000Y-142550000D01*
X94670000Y-139910000D02*
X95830000Y-141070000D01*
X93050000Y-137600000D02*
X93050000Y-138759022D01*
X92417500Y-136960000D02*
X92417500Y-136967500D01*
X97310000Y-142550000D02*
X99337500Y-142550000D01*
X94200978Y-139910000D02*
X94670000Y-139910000D01*
X93050000Y-138759022D02*
X94200978Y-139910000D01*
X92417500Y-136967500D02*
X93050000Y-137600000D01*
%TO.N,USB_VCC*%
X118350000Y-153315000D02*
X118350000Y-154050000D01*
X124840978Y-151000000D02*
X126812500Y-151000000D01*
X111437500Y-156150000D02*
X111775000Y-156150000D01*
X117900000Y-152000000D02*
X118350000Y-152450000D01*
X111775000Y-156150000D02*
X114200000Y-153725000D01*
X118350000Y-154050000D02*
X119300000Y-155000000D01*
X119300000Y-155000000D02*
X122400000Y-155000000D01*
X115900000Y-152000000D02*
X117900000Y-152000000D01*
X114200000Y-153725000D02*
X114200000Y-153700000D01*
X123250000Y-153315000D02*
X123250000Y-152590978D01*
X123250000Y-154150000D02*
X123250000Y-153315000D01*
X123250000Y-152590978D02*
X124840978Y-151000000D01*
X118350000Y-152450000D02*
X118350000Y-153315000D01*
X122400000Y-155000000D02*
X123250000Y-154150000D01*
X114200000Y-153700000D02*
X115900000Y-152000000D01*
%TO.N,BAT_IN*%
X109162500Y-156150000D02*
X108600000Y-156712500D01*
X114260000Y-160290000D02*
X112255000Y-160290000D01*
X108900000Y-158800000D02*
X110765000Y-158800000D01*
X106622500Y-159777500D02*
X107140000Y-159777500D01*
X103550000Y-160105000D02*
X104345000Y-160900000D01*
X104345000Y-160900000D02*
X105500000Y-160900000D01*
X105500000Y-160900000D02*
X106622500Y-159777500D01*
X112255000Y-160290000D02*
X112095000Y-160130000D01*
X114260000Y-160290000D02*
X126310000Y-160290000D01*
X108600000Y-158500000D02*
X108900000Y-158800000D01*
X127800000Y-158800000D02*
X127800000Y-156500000D01*
X126310000Y-160290000D02*
X127800000Y-158800000D01*
X108600000Y-156712500D02*
X108600000Y-158500000D01*
X110765000Y-158800000D02*
X112095000Y-160130000D01*
X107140000Y-159777500D02*
X107322500Y-159777500D01*
X107322500Y-159777500D02*
X108600000Y-158500000D01*
%TO.N,Net-(C8-Pad1)*%
X99100000Y-152600000D02*
X99100000Y-155995717D01*
X106190000Y-156560000D02*
X106700000Y-156050000D01*
X99904994Y-150590000D02*
X99100000Y-151394994D01*
X99100000Y-155995717D02*
X99658803Y-156554520D01*
X99658803Y-156554520D02*
X100154520Y-156554520D01*
X103615000Y-156920000D02*
X103615000Y-155910000D01*
X100182500Y-152490000D02*
X99210000Y-152490000D01*
X100154520Y-156554520D02*
X101500000Y-157900000D01*
X99100000Y-151394994D02*
X99100000Y-152600000D01*
X101500000Y-157900000D02*
X102635000Y-157900000D01*
X106700000Y-156050000D02*
X106075000Y-156050000D01*
X102635000Y-157900000D02*
X103615000Y-156920000D01*
X99210000Y-152490000D02*
X99100000Y-152600000D01*
X106075000Y-156050000D02*
X104775000Y-154750000D01*
X100182500Y-150590000D02*
X99904994Y-150590000D01*
X103615000Y-155910000D02*
X104775000Y-154750000D01*
X106190000Y-157902500D02*
X106190000Y-156560000D01*
%TO.N,VCC*%
X98835000Y-137222500D02*
X98835000Y-133995000D01*
X109800000Y-145875000D02*
X109800000Y-145450000D01*
X109950000Y-137300000D02*
X110580000Y-136670000D01*
X76850000Y-147600000D02*
X80925000Y-147600000D01*
X86450000Y-135937500D02*
X89007500Y-133380000D01*
X73090000Y-143840000D02*
X76850000Y-147600000D01*
X121300000Y-143150000D02*
X121770000Y-143620000D01*
X106790000Y-150560000D02*
X107350000Y-150560000D01*
X106790000Y-150560000D02*
X106790000Y-150045000D01*
X112300000Y-145190000D02*
X113210000Y-144280000D01*
X107350000Y-150560000D02*
X108140000Y-151350000D01*
X112100000Y-143150000D02*
X121300000Y-143150000D01*
X116515000Y-145875000D02*
X117160000Y-146520000D01*
X110275000Y-135650000D02*
X110600000Y-135325000D01*
X103455000Y-150590000D02*
X104580000Y-149465000D01*
X78804520Y-133075480D02*
X73090000Y-138790000D01*
X92070000Y-146280000D02*
X89650000Y-143860000D01*
X120060000Y-145050000D02*
X120060000Y-145140000D01*
X89007500Y-133380000D02*
X93674994Y-133380000D01*
X113210000Y-144280000D02*
X119290000Y-144280000D01*
X89007500Y-133380000D02*
X88702980Y-133075480D01*
X80925000Y-147600000D02*
X80950000Y-147575000D01*
X121770000Y-143620000D02*
X121770000Y-144210000D01*
X93674994Y-133380000D02*
X95954994Y-135660000D01*
X104580000Y-149465000D02*
X106210000Y-149465000D01*
X115200000Y-145875000D02*
X116515000Y-145875000D01*
X108225000Y-137300000D02*
X108225000Y-136262500D01*
X88702980Y-133075480D02*
X78804520Y-133075480D01*
X86525000Y-137900000D02*
X86525000Y-136012500D01*
X109800000Y-145450000D02*
X112100000Y-143150000D01*
X92757500Y-146377500D02*
X92855000Y-146280000D01*
X106250000Y-147462500D02*
X107917500Y-147462500D01*
X115770993Y-137700000D02*
X113933981Y-139537011D01*
X92757500Y-148040000D02*
X92757500Y-146377500D01*
X109505000Y-145875000D02*
X109800000Y-145875000D01*
X108837500Y-135650000D02*
X110275000Y-135650000D01*
X87590000Y-137900000D02*
X86525000Y-137900000D01*
X108225000Y-136262500D02*
X108837500Y-135650000D01*
X106790000Y-150045000D02*
X106210000Y-149465000D01*
X113933981Y-139537011D02*
X108675489Y-139537011D01*
X73090000Y-138790000D02*
X73090000Y-143840000D01*
X100750000Y-139137500D02*
X98835000Y-137222500D01*
X97170000Y-135660000D02*
X98835000Y-133995000D01*
X89650000Y-139960000D02*
X87590000Y-137900000D01*
X86525000Y-136012500D02*
X86450000Y-135937500D01*
X92855000Y-146280000D02*
X92070000Y-146280000D01*
X119290000Y-144280000D02*
X120060000Y-145050000D01*
X108225000Y-137300000D02*
X109950000Y-137300000D01*
X107917500Y-147462500D02*
X109505000Y-145875000D01*
X95954994Y-135660000D02*
X97170000Y-135660000D01*
X102457500Y-150590000D02*
X103455000Y-150590000D01*
X108675489Y-139537011D02*
X107662500Y-140550000D01*
X118290000Y-137700000D02*
X115770993Y-137700000D01*
X89650000Y-143860000D02*
X89650000Y-139960000D01*
X112300000Y-145875000D02*
X112300000Y-145190000D01*
%TO.N,Net-(C12-Pad1)*%
X84606916Y-153549511D02*
X85949520Y-152206907D01*
X76755000Y-152050000D02*
X78254511Y-153549511D01*
X78254511Y-153549511D02*
X84606916Y-153549511D01*
X85949520Y-149624520D02*
X85125000Y-148800000D01*
X85949520Y-152206907D02*
X85949520Y-149624520D01*
%TO.N,PWM*%
X86625000Y-146600000D02*
X86625000Y-147350000D01*
X88075000Y-148800000D02*
X88075000Y-151350000D01*
X93110000Y-151350000D02*
X98410000Y-146050000D01*
X98410000Y-146050000D02*
X99337500Y-146050000D01*
X88075000Y-151350000D02*
X93110000Y-151350000D01*
X86625000Y-147350000D02*
X88075000Y-148800000D01*
%TO.N,Net-(C13-Pad1)*%
X80755000Y-152050000D02*
X84425000Y-152050000D01*
X84425000Y-152050000D02*
X85125000Y-151350000D01*
%TO.N,PWR_EN*%
X105030000Y-144050000D02*
X107662500Y-144050000D01*
X95320000Y-159170000D02*
X95300000Y-159190000D01*
X96570000Y-159170000D02*
X95320000Y-159170000D01*
X104570000Y-144510000D02*
X105030000Y-144050000D01*
%TO.N,Net-(D1-Pad1)*%
X98100000Y-158825000D02*
X99537500Y-158825000D01*
X98100000Y-159040000D02*
X96570000Y-160570000D01*
X98100000Y-158825000D02*
X98100000Y-159040000D01*
X99537500Y-158825000D02*
X99882500Y-158480000D01*
%TO.N,Net-(D3-Pad1)*%
X115384032Y-155884032D02*
X125075949Y-155884032D01*
X126300000Y-153364994D02*
X128387500Y-151277494D01*
X125075949Y-155884032D02*
X126300000Y-154659981D01*
X114800000Y-155300000D02*
X115384032Y-155884032D01*
X113800000Y-155300000D02*
X114800000Y-155300000D01*
X111100000Y-158000000D02*
X113800000Y-155300000D01*
X128387500Y-151277494D02*
X128387500Y-151000000D01*
X126300000Y-154659981D02*
X126300000Y-153364994D01*
%TO.N,Net-(D4-Pad2)*%
X105240000Y-159777500D02*
X104872500Y-159777500D01*
X100525006Y-157490000D02*
X101757500Y-158722494D01*
X98110000Y-157490000D02*
X100525006Y-157490000D01*
X102575000Y-159430000D02*
X103550000Y-158455000D01*
X101757500Y-158722494D02*
X101757500Y-159430000D01*
X104872500Y-159777500D02*
X103550000Y-158455000D01*
X101757500Y-159430000D02*
X102575000Y-159430000D01*
%TO.N,K1*%
X96600000Y-157500000D02*
X96700000Y-157500000D01*
X96210000Y-154190000D02*
X98110000Y-156090000D01*
X96700000Y-157500000D02*
X98110000Y-156090000D01*
X94370000Y-154190000D02*
X96210000Y-154190000D01*
%TO.N,K1_DET*%
X105250000Y-140530000D02*
X105250000Y-139137500D01*
X96600000Y-156100000D02*
X95370000Y-156100000D01*
X105550000Y-140830000D02*
X105250000Y-140530000D01*
%TO.N,Net-(D6-Pad2)*%
X126812500Y-149062500D02*
X128850000Y-147025000D01*
X126812500Y-149200000D02*
X126812500Y-149062500D01*
%TO.N,TICK_B*%
X89100000Y-154680000D02*
X84830000Y-154680000D01*
X82380000Y-147910000D02*
X82265000Y-147910000D01*
X102494422Y-149479511D02*
X97925483Y-149479511D01*
X93184994Y-154220000D02*
X89560000Y-154220000D01*
X97925483Y-149479511D02*
X93184994Y-154220000D01*
X103750000Y-148223933D02*
X102494422Y-149479511D01*
X89560000Y-154220000D02*
X89100000Y-154680000D01*
X103750000Y-147462500D02*
X103750000Y-148223933D01*
X82265000Y-147910000D02*
X80950000Y-149225000D01*
%TO.N,TICK_A*%
X97760000Y-149080000D02*
X93269500Y-153570500D01*
X103250000Y-147462500D02*
X103250000Y-148158940D01*
X103250000Y-148158940D02*
X102328940Y-149080000D01*
X93269500Y-153570500D02*
X85640000Y-153570500D01*
X102328940Y-149080000D02*
X97760000Y-149080000D01*
X74320000Y-149210000D02*
X76810000Y-149210000D01*
X76810000Y-149210000D02*
X76850000Y-149250000D01*
%TO.N,EN_A*%
X111040000Y-148200000D02*
X111625000Y-148200000D01*
X104750000Y-141220000D02*
X104380000Y-141590000D01*
X119700000Y-147235787D02*
X119700000Y-148650000D01*
X113024520Y-146800480D02*
X113024520Y-145375480D01*
X111625000Y-148200000D02*
X112300000Y-147525000D01*
X112300000Y-147525000D02*
X113024520Y-146800480D01*
X113720489Y-144679511D02*
X117143724Y-144679511D01*
X104750000Y-139137500D02*
X104750000Y-141220000D01*
X112300000Y-149125000D02*
X112300000Y-147525000D01*
X113024520Y-145375480D02*
X113720489Y-144679511D01*
X117143724Y-144679511D02*
X119700000Y-147235787D01*
%TO.N,Net-(Q3-Pad1)*%
X86245007Y-145000000D02*
X86625000Y-145000000D01*
X84975000Y-146600000D02*
X84975000Y-146270007D01*
X87137500Y-144487500D02*
X86625000Y-145000000D01*
X84975000Y-146270007D02*
X86245007Y-145000000D01*
X87137500Y-143350000D02*
X87137500Y-144487500D01*
%TO.N,Net-(Q4-Pad1)*%
X84550000Y-135937500D02*
X84550000Y-137575000D01*
X84875000Y-139500000D02*
X84975000Y-139600000D01*
X84550000Y-137575000D02*
X84875000Y-137900000D01*
X84875000Y-137900000D02*
X84875000Y-139500000D01*
%TO.N,EN_B*%
X104250000Y-140600000D02*
X103280000Y-141570000D01*
X104250000Y-139137500D02*
X104250000Y-140600000D01*
X119779510Y-143729510D02*
X124700000Y-148650000D01*
X112844516Y-143729510D02*
X119779510Y-143729510D01*
X109800000Y-147525000D02*
X111509510Y-145815490D01*
X109800000Y-149125000D02*
X109800000Y-147525000D01*
X111509510Y-145064516D02*
X112844516Y-143729510D01*
X111509510Y-145815490D02*
X111509510Y-145064516D01*
X109175000Y-148150000D02*
X109800000Y-147525000D01*
X108560000Y-148150000D02*
X109175000Y-148150000D01*
%TO.N,Net-(R5-Pad2)*%
X111437500Y-152837500D02*
X111000000Y-152400000D01*
X111437500Y-154250000D02*
X111437500Y-152837500D01*
%TO.N,BAT_ADC*%
X100605000Y-155905000D02*
X101090000Y-156390000D01*
X101135000Y-156920000D02*
X100120000Y-155905000D01*
X100808532Y-145050000D02*
X101336477Y-144522055D01*
X101965000Y-156920000D02*
X101135000Y-156920000D01*
X99337500Y-145050000D02*
X100808532Y-145050000D01*
X100120000Y-155905000D02*
X100605000Y-155905000D01*
%TO.N,BAT_CHG_DET*%
X101380000Y-145670000D02*
X101260000Y-145550000D01*
X109162500Y-154250000D02*
X108850000Y-154250000D01*
X108850000Y-154250000D02*
X108160000Y-153560000D01*
X110050000Y-154250000D02*
X109162500Y-154250000D01*
X110300000Y-156500000D02*
X110300000Y-154500000D01*
X109450000Y-157350000D02*
X110300000Y-156500000D01*
X110300000Y-154500000D02*
X110050000Y-154250000D01*
X109450000Y-158000000D02*
X109450000Y-157350000D01*
X101260000Y-145550000D02*
X99337500Y-145550000D01*
%TO.N,IIC_SDL*%
X103250000Y-139137500D02*
X103250000Y-138376067D01*
X106562500Y-135650000D02*
X105570000Y-135650000D01*
X105570000Y-135650000D02*
X103915000Y-133995000D01*
X104326067Y-137300000D02*
X106575000Y-137300000D01*
X106575000Y-137300000D02*
X106575000Y-135662500D01*
X103250000Y-138376067D02*
X104326067Y-137300000D01*
X106575000Y-135662500D02*
X106562500Y-135650000D01*
%TO.N,IIC_SCL*%
X101375000Y-133995000D02*
X102786021Y-132583979D01*
X107590000Y-136824283D02*
X107590000Y-134499994D01*
X105396479Y-132583979D02*
X106562500Y-133750000D01*
X102786021Y-132583979D02*
X105396479Y-132583979D01*
X107430000Y-136984283D02*
X107590000Y-136824283D01*
X104121060Y-138070000D02*
X107000000Y-138070000D01*
X103750000Y-138441060D02*
X104121060Y-138070000D01*
X110600000Y-133675000D02*
X110025000Y-133100000D01*
X103750000Y-139137500D02*
X103750000Y-138441060D01*
X106840006Y-133750000D02*
X106562500Y-133750000D01*
X107212500Y-133100000D02*
X106562500Y-133750000D01*
X107000000Y-138070000D02*
X107430000Y-137640000D01*
X107430000Y-137640000D02*
X107430000Y-136984283D01*
X110025000Y-133100000D02*
X107212500Y-133100000D01*
X107590000Y-134499994D02*
X106840006Y-133750000D01*
%TO.N,MUTE*%
X85840000Y-145970000D02*
X85840000Y-147350000D01*
X87090000Y-139600000D02*
X88740000Y-141250000D01*
X86625000Y-139600000D02*
X87090000Y-139600000D01*
X86960000Y-153100000D02*
X92910000Y-153100000D01*
X87370000Y-145810000D02*
X86000000Y-145810000D01*
X86660000Y-152800000D02*
X86960000Y-153100000D01*
X86660000Y-148170000D02*
X86660000Y-152800000D01*
X88740000Y-141250000D02*
X88740000Y-144440000D01*
X92910000Y-153100000D02*
X98547500Y-147462500D01*
X85840000Y-147350000D02*
X86660000Y-148170000D01*
X98547500Y-147462500D02*
X100750000Y-147462500D01*
X86000000Y-145810000D02*
X85840000Y-145970000D01*
X88740000Y-144440000D02*
X87370000Y-145810000D01*
%TO.N,RUN_LED*%
X110135006Y-144550000D02*
X111934517Y-142750489D01*
X107662500Y-144550000D02*
X110135006Y-144550000D01*
X121465482Y-142750489D02*
X124089993Y-145375000D01*
X111934517Y-142750489D02*
X121465482Y-142750489D01*
X124089993Y-145375000D02*
X128850000Y-145375000D01*
%TO.N,Net-(U7-Pad6)*%
X94810000Y-143050000D02*
X92830000Y-141070000D01*
X92407500Y-140792500D02*
X92130000Y-141070000D01*
X92407500Y-138330000D02*
X92407500Y-140792500D01*
X99337500Y-143050000D02*
X94810000Y-143050000D01*
X92830000Y-141070000D02*
X92130000Y-141070000D01*
%TO.N,Net-(U7-Pad3)*%
X97750000Y-139060000D02*
X97750000Y-140658940D01*
X97750000Y-140658940D02*
X98641060Y-141550000D01*
X96330000Y-137640000D02*
X97750000Y-139060000D01*
X92397500Y-134520000D02*
X93210000Y-134520000D01*
X98641060Y-141550000D02*
X99337500Y-141550000D01*
X93210000Y-134520000D02*
X96330000Y-137640000D01*
%TO.N,Net-(U7-Pad4)*%
X99337500Y-142050000D02*
X97950000Y-142050000D01*
X93830000Y-137132500D02*
X93830000Y-137640000D01*
X97950000Y-142050000D02*
X97220000Y-141320000D01*
X96910000Y-139110000D02*
X94700000Y-139110000D01*
X97220000Y-141320000D02*
X97220000Y-139420000D01*
X92417500Y-135720000D02*
X93830000Y-137132500D01*
X93830000Y-138240000D02*
X93830000Y-137640000D01*
X97220000Y-139420000D02*
X96910000Y-139110000D01*
X94700000Y-139110000D02*
X93830000Y-138240000D01*
%TO.N,Net-(U7-Pad7)*%
X94505000Y-146280000D02*
X94505000Y-144695000D01*
X94505000Y-144695000D02*
X94830000Y-144370000D01*
X95650000Y-143550000D02*
X99337500Y-143550000D01*
X94830000Y-144370000D02*
X95650000Y-143550000D01*
%TO.N,SW_D*%
X113050980Y-141550000D02*
X115001469Y-139599511D01*
X107662500Y-141550000D02*
X113050980Y-141550000D01*
X121470489Y-139599511D02*
X123370000Y-137700000D01*
X115001469Y-139599511D02*
X121470489Y-139599511D01*
%TO.N,SW_L*%
X116965510Y-135940489D02*
X124550489Y-135940489D01*
X125910000Y-137300000D02*
X125910000Y-137700000D01*
X124550489Y-135940489D02*
X125910000Y-137300000D01*
X106250000Y-139137500D02*
X113768499Y-139137500D01*
X113768499Y-139137500D02*
X116965510Y-135940489D01*
%TO.N,Net-(U7-Pad9)*%
X95930000Y-145320000D02*
X96700000Y-144550000D01*
X96700000Y-144550000D02*
X99337500Y-144550000D01*
X95930000Y-146992500D02*
X95930000Y-145320000D01*
X94882500Y-148040000D02*
X95930000Y-146992500D01*
%TO.N,Net-(U7-Pad44)*%
X102750000Y-137285000D02*
X102655000Y-137190000D01*
X102750000Y-139137500D02*
X102750000Y-137285000D01*
X102810000Y-137035000D02*
X102655000Y-137190000D01*
X102810000Y-135740000D02*
X102810000Y-137035000D01*
%TO.N,Net-(R13-Pad1)*%
X116975000Y-149300000D02*
X115200000Y-147525000D01*
X121550000Y-152350000D02*
X121550000Y-153315000D01*
X117025000Y-149300000D02*
X116975000Y-149300000D01*
X120550000Y-152350000D02*
X120700000Y-152200000D01*
X120700000Y-152200000D02*
X121400000Y-152200000D01*
X120700000Y-152200000D02*
X117800000Y-149300000D01*
X120550000Y-153315000D02*
X120550000Y-152350000D01*
X117800000Y-149300000D02*
X117025000Y-149300000D01*
X121400000Y-152200000D02*
X121550000Y-152350000D01*
%TO.N,Net-(R11-Pad2)*%
X120050000Y-153315000D02*
X120050000Y-154150000D01*
X121050000Y-154150000D02*
X121050000Y-153315000D01*
X120050000Y-154150000D02*
X120300000Y-154400000D01*
X118709022Y-151100000D02*
X120050000Y-152440978D01*
X117025000Y-151100000D02*
X118709022Y-151100000D01*
X120050000Y-152440978D02*
X120050000Y-153315000D01*
X120800000Y-154400000D02*
X121050000Y-154150000D01*
X120300000Y-154400000D02*
X120800000Y-154400000D01*
%TO.N,USB_DN*%
X107662500Y-142550000D02*
X108710000Y-142550000D01*
X115335000Y-151060000D02*
X115375000Y-151100000D01*
X108710000Y-142550000D02*
X109410000Y-143250000D01*
X114260000Y-151060000D02*
X115335000Y-151060000D01*
%TO.N,USB_DP*%
X114360000Y-149260000D02*
X115335000Y-149260000D01*
X107662500Y-142050000D02*
X109650000Y-142050000D01*
X115335000Y-149260000D02*
X115375000Y-149300000D01*
X109650000Y-142050000D02*
X110260000Y-142660000D01*
%TD*%
%TA.AperFunction,Conductor*%
%TO.N,GND*%
G36*
X100829297Y-160143547D02*
G01*
X100906399Y-160189145D01*
X100914010Y-160191356D01*
X100914012Y-160191357D01*
X100948499Y-160201376D01*
X101066169Y-160235562D01*
X101072574Y-160236066D01*
X101072579Y-160236067D01*
X101101042Y-160238307D01*
X101101050Y-160238307D01*
X101103498Y-160238500D01*
X102411502Y-160238500D01*
X102413955Y-160238307D01*
X102413979Y-160238306D01*
X102430657Y-160236993D01*
X102500137Y-160251587D01*
X102550698Y-160301429D01*
X102566413Y-160356833D01*
X102566501Y-160358751D01*
X102566501Y-160361634D01*
X102573247Y-160435062D01*
X102624528Y-160598699D01*
X102713361Y-160745381D01*
X102834619Y-160866639D01*
X102981301Y-160955472D01*
X102988548Y-160957743D01*
X102988550Y-160957744D01*
X103028004Y-160970108D01*
X103144938Y-161006753D01*
X103218365Y-161013500D01*
X103475050Y-161013500D01*
X103543171Y-161033502D01*
X103564145Y-161050405D01*
X103790645Y-161276905D01*
X103824671Y-161339217D01*
X103819606Y-161410032D01*
X103777059Y-161466868D01*
X103710539Y-161491679D01*
X103701550Y-161492000D01*
X98844045Y-161492000D01*
X98775924Y-161471998D01*
X98729431Y-161418342D01*
X98719327Y-161348068D01*
X98748821Y-161283488D01*
X98778774Y-161258224D01*
X98808571Y-161240178D01*
X98820443Y-161230869D01*
X98888769Y-161162543D01*
X98951081Y-161128517D01*
X99027904Y-161136001D01*
X99039207Y-161140892D01*
X99185065Y-161183269D01*
X99197667Y-161185570D01*
X99226084Y-161187807D01*
X99231014Y-161188000D01*
X99610385Y-161188000D01*
X99625624Y-161183525D01*
X99626829Y-161182135D01*
X99628500Y-161174452D01*
X99628500Y-161169884D01*
X100136500Y-161169884D01*
X100140975Y-161185123D01*
X100142365Y-161186328D01*
X100150048Y-161187999D01*
X100533984Y-161187999D01*
X100538920Y-161187805D01*
X100567336Y-161185570D01*
X100579931Y-161183270D01*
X100725790Y-161140893D01*
X100740221Y-161134648D01*
X100869678Y-161058089D01*
X100882104Y-161048449D01*
X100988449Y-160942104D01*
X100998089Y-160929678D01*
X101074648Y-160800221D01*
X101080893Y-160785790D01*
X101119939Y-160651395D01*
X101119899Y-160637294D01*
X101112630Y-160634000D01*
X100154615Y-160634000D01*
X100139376Y-160638475D01*
X100138171Y-160639865D01*
X100136500Y-160647548D01*
X100136500Y-161169884D01*
X99628500Y-161169884D01*
X99628500Y-160652115D01*
X99624025Y-160636876D01*
X99622635Y-160635671D01*
X99614952Y-160634000D01*
X99141115Y-160634000D01*
X99125876Y-160638475D01*
X99115714Y-160650203D01*
X99092837Y-160692097D01*
X99030524Y-160726121D01*
X99003743Y-160729000D01*
X97972000Y-160729000D01*
X97903879Y-160708998D01*
X97857386Y-160655342D01*
X97846000Y-160603000D01*
X97846000Y-160347000D01*
X97866002Y-160278879D01*
X97919658Y-160232386D01*
X97972000Y-160221000D01*
X98578885Y-160221000D01*
X98594124Y-160216525D01*
X98604286Y-160204797D01*
X98627163Y-160162903D01*
X98689476Y-160128879D01*
X98716257Y-160126000D01*
X100765158Y-160126000D01*
X100829297Y-160143547D01*
G37*
%TD.AperFunction*%
%TA.AperFunction,Conductor*%
G36*
X78204671Y-132528002D02*
G01*
X78251164Y-132581658D01*
X78261268Y-132651932D01*
X78231774Y-132716512D01*
X78225645Y-132723095D01*
X72682395Y-138266345D01*
X72673615Y-138274335D01*
X72673613Y-138274337D01*
X72666920Y-138278584D01*
X72661494Y-138284362D01*
X72661493Y-138284363D01*
X72618396Y-138330257D01*
X72615641Y-138333099D01*
X72595073Y-138353667D01*
X72592356Y-138357170D01*
X72584648Y-138366195D01*
X72553028Y-138399867D01*
X72549207Y-138406818D01*
X72549206Y-138406819D01*
X72542697Y-138418658D01*
X72531843Y-138435182D01*
X72525067Y-138443919D01*
X72518696Y-138452132D01*
X72515549Y-138459404D01*
X72515548Y-138459406D01*
X72500346Y-138494535D01*
X72495124Y-138505195D01*
X72483620Y-138526121D01*
X72472876Y-138545663D01*
X72467541Y-138566441D01*
X72461142Y-138585131D01*
X72452620Y-138604824D01*
X72451380Y-138612655D01*
X72445394Y-138650448D01*
X72442987Y-138662071D01*
X72431500Y-138706812D01*
X72431500Y-138728259D01*
X72429949Y-138747969D01*
X72426594Y-138769152D01*
X72429804Y-138803105D01*
X72430941Y-138815138D01*
X72431500Y-138826996D01*
X72431500Y-143757944D01*
X72430941Y-143769800D01*
X72429212Y-143777537D01*
X72429461Y-143785459D01*
X72431438Y-143848369D01*
X72431500Y-143852327D01*
X72431500Y-143881432D01*
X72432056Y-143885832D01*
X72432988Y-143897664D01*
X72434438Y-143943831D01*
X72436650Y-143951444D01*
X72436650Y-143951445D01*
X72440419Y-143964416D01*
X72444430Y-143983782D01*
X72447118Y-144005064D01*
X72450034Y-144012429D01*
X72450035Y-144012433D01*
X72464126Y-144048021D01*
X72467965Y-144059231D01*
X72480855Y-144103600D01*
X72491775Y-144122065D01*
X72500466Y-144139805D01*
X72508365Y-144159756D01*
X72535516Y-144197126D01*
X72542033Y-144207048D01*
X72561507Y-144239977D01*
X72561510Y-144239981D01*
X72565547Y-144246807D01*
X72580711Y-144261971D01*
X72593551Y-144277004D01*
X72606159Y-144294357D01*
X72637243Y-144320072D01*
X72641752Y-144323802D01*
X72650532Y-144331792D01*
X75829595Y-147510855D01*
X75863621Y-147573167D01*
X75866500Y-147599950D01*
X75866501Y-147739218D01*
X75866501Y-147856634D01*
X75866764Y-147859492D01*
X75866764Y-147859501D01*
X75870026Y-147895004D01*
X75873247Y-147930062D01*
X75875246Y-147936440D01*
X75875246Y-147936441D01*
X75917705Y-148071926D01*
X75924528Y-148093699D01*
X76013361Y-148240381D01*
X76108885Y-148335905D01*
X76142911Y-148398217D01*
X76137846Y-148469032D01*
X76108885Y-148514095D01*
X76108385Y-148514595D01*
X76046073Y-148548621D01*
X76019290Y-148551500D01*
X75000224Y-148551500D01*
X74932103Y-148531498D01*
X74926163Y-148527436D01*
X74925909Y-148527251D01*
X74814005Y-148445948D01*
X74782094Y-148422763D01*
X74782093Y-148422762D01*
X74776752Y-148418882D01*
X74770724Y-148416198D01*
X74770722Y-148416197D01*
X74608319Y-148343891D01*
X74608318Y-148343891D01*
X74602288Y-148341206D01*
X74491142Y-148317581D01*
X74421944Y-148302872D01*
X74421939Y-148302872D01*
X74415487Y-148301500D01*
X74224513Y-148301500D01*
X74218061Y-148302872D01*
X74218056Y-148302872D01*
X74148858Y-148317581D01*
X74037712Y-148341206D01*
X74031682Y-148343891D01*
X74031681Y-148343891D01*
X73869278Y-148416197D01*
X73869276Y-148416198D01*
X73863248Y-148418882D01*
X73857907Y-148422762D01*
X73857906Y-148422763D01*
X73852401Y-148426763D01*
X73708747Y-148531134D01*
X73704326Y-148536044D01*
X73704325Y-148536045D01*
X73679043Y-148564124D01*
X73613791Y-148636594D01*
X73613398Y-148637030D01*
X73552952Y-148674270D01*
X73481969Y-148672918D01*
X73422984Y-148633405D01*
X73394675Y-148567859D01*
X73391649Y-148542855D01*
X73390975Y-148537285D01*
X73324918Y-148322565D01*
X73321789Y-148316501D01*
X73224454Y-148127919D01*
X73224454Y-148127918D01*
X73221882Y-148122936D01*
X73085123Y-147944708D01*
X72918964Y-147793515D01*
X72914217Y-147790537D01*
X72914214Y-147790535D01*
X72733405Y-147677115D01*
X72728656Y-147674136D01*
X72520217Y-147590344D01*
X72300233Y-147544787D01*
X72295622Y-147544521D01*
X72295621Y-147544521D01*
X72245048Y-147541605D01*
X72245044Y-147541605D01*
X72243225Y-147541500D01*
X72098001Y-147541500D01*
X72095214Y-147541749D01*
X72095208Y-147541749D01*
X72027858Y-147547760D01*
X71931238Y-147556383D01*
X71925824Y-147557864D01*
X71925819Y-147557865D01*
X71811262Y-147589205D01*
X71714549Y-147615663D01*
X71709491Y-147618075D01*
X71709487Y-147618077D01*
X71613165Y-147664021D01*
X71511782Y-147712378D01*
X71329346Y-147843471D01*
X71324562Y-147848408D01*
X71183634Y-147993834D01*
X71173008Y-148004799D01*
X71047710Y-148191262D01*
X70957412Y-148396967D01*
X70956103Y-148402418D01*
X70956102Y-148402422D01*
X70906278Y-148609954D01*
X70904968Y-148615411D01*
X70903526Y-148640420D01*
X70893093Y-148821379D01*
X70892037Y-148839690D01*
X70919025Y-149062715D01*
X70985082Y-149277435D01*
X70987652Y-149282415D01*
X70987654Y-149282419D01*
X71085458Y-149471910D01*
X71088118Y-149477064D01*
X71224877Y-149655292D01*
X71391036Y-149806485D01*
X71395783Y-149809463D01*
X71395786Y-149809465D01*
X71524779Y-149890381D01*
X71581344Y-149925864D01*
X71789783Y-150009656D01*
X72009767Y-150055213D01*
X72014378Y-150055479D01*
X72014379Y-150055479D01*
X72064952Y-150058395D01*
X72064956Y-150058395D01*
X72066775Y-150058500D01*
X72211999Y-150058500D01*
X72214786Y-150058251D01*
X72214792Y-150058251D01*
X72284929Y-150051991D01*
X72378762Y-150043617D01*
X72384176Y-150042136D01*
X72384181Y-150042135D01*
X72524296Y-150003803D01*
X72595451Y-149984337D01*
X72600509Y-149981925D01*
X72600513Y-149981923D01*
X72723411Y-149923303D01*
X72798218Y-149887622D01*
X72980654Y-149756529D01*
X73078760Y-149655292D01*
X73133089Y-149599229D01*
X73133091Y-149599226D01*
X73136992Y-149595201D01*
X73230474Y-149456085D01*
X73285069Y-149410701D01*
X73355535Y-149402038D01*
X73419499Y-149432846D01*
X73454888Y-149487426D01*
X73460143Y-149503598D01*
X73485473Y-149581556D01*
X73488776Y-149587278D01*
X73488777Y-149587279D01*
X73502697Y-149611389D01*
X73580960Y-149746944D01*
X73585378Y-149751851D01*
X73585379Y-149751852D01*
X73704325Y-149883955D01*
X73708747Y-149888866D01*
X73863248Y-150001118D01*
X73869276Y-150003802D01*
X73869278Y-150003803D01*
X74008906Y-150065969D01*
X74063002Y-150111949D01*
X74083651Y-150179876D01*
X74064299Y-150248185D01*
X74019206Y-150288015D01*
X74010671Y-150297865D01*
X74009000Y-150305548D01*
X74009000Y-151777885D01*
X74013475Y-151793124D01*
X74014865Y-151794329D01*
X74022548Y-151796000D01*
X74844884Y-151796000D01*
X74860123Y-151791525D01*
X74861328Y-151790135D01*
X74862999Y-151782452D01*
X74862999Y-150755331D01*
X74862629Y-150748510D01*
X74857105Y-150697648D01*
X74853479Y-150682396D01*
X74808324Y-150561946D01*
X74799786Y-150546351D01*
X74723285Y-150444276D01*
X74710724Y-150431715D01*
X74608649Y-150355214D01*
X74593054Y-150346676D01*
X74544499Y-150328473D01*
X74487734Y-150285831D01*
X74463035Y-150219269D01*
X74478243Y-150149920D01*
X74528529Y-150099802D01*
X74562532Y-150087245D01*
X74580148Y-150083500D01*
X74595830Y-150080167D01*
X74595833Y-150080166D01*
X74602288Y-150078794D01*
X74608319Y-150076109D01*
X74770722Y-150003803D01*
X74770724Y-150003802D01*
X74776752Y-150001118D01*
X74926163Y-149892564D01*
X74993031Y-149868706D01*
X75000224Y-149868500D01*
X75939290Y-149868500D01*
X76007411Y-149888502D01*
X76028385Y-149905405D01*
X76134619Y-150011639D01*
X76141121Y-150015576D01*
X76141120Y-150015576D01*
X76210715Y-150057724D01*
X76258622Y-150110121D01*
X76270595Y-150180101D01*
X76242834Y-150245445D01*
X76184152Y-150285407D01*
X76145444Y-150291500D01*
X76106866Y-150291500D01*
X76044684Y-150298255D01*
X75908295Y-150349385D01*
X75791739Y-150436739D01*
X75704385Y-150553295D01*
X75653255Y-150689684D01*
X75646500Y-150751866D01*
X75646500Y-153348134D01*
X75653255Y-153410316D01*
X75704385Y-153546705D01*
X75791739Y-153663261D01*
X75908295Y-153750615D01*
X76044684Y-153801745D01*
X76106866Y-153808500D01*
X77403134Y-153808500D01*
X77407746Y-153807999D01*
X77457466Y-153802598D01*
X77457468Y-153802598D01*
X77465316Y-153801745D01*
X77472710Y-153798973D01*
X77480398Y-153797145D01*
X77480921Y-153799345D01*
X77540289Y-153794998D01*
X77602809Y-153829069D01*
X77730856Y-153957116D01*
X77738846Y-153965896D01*
X77743095Y-153972591D01*
X77748873Y-153978017D01*
X77748874Y-153978018D01*
X77794768Y-154021115D01*
X77797610Y-154023870D01*
X77818178Y-154044438D01*
X77821681Y-154047155D01*
X77830706Y-154054863D01*
X77864378Y-154086483D01*
X77871329Y-154090304D01*
X77871330Y-154090305D01*
X77883169Y-154096814D01*
X77899693Y-154107668D01*
X77908093Y-154114183D01*
X77916643Y-154120815D01*
X77923915Y-154123962D01*
X77923917Y-154123963D01*
X77959046Y-154139165D01*
X77969707Y-154144387D01*
X78010174Y-154166635D01*
X78030952Y-154171970D01*
X78049642Y-154178369D01*
X78069335Y-154186891D01*
X78113107Y-154193824D01*
X78114959Y-154194117D01*
X78126582Y-154196524D01*
X78154583Y-154203713D01*
X78171323Y-154208011D01*
X78179250Y-154208011D01*
X78179749Y-154208074D01*
X78244826Y-154236456D01*
X78284228Y-154295516D01*
X78285445Y-154366502D01*
X78254442Y-154420765D01*
X78248201Y-154427206D01*
X78181535Y-154496000D01*
X78173008Y-154504799D01*
X78047710Y-154691262D01*
X77957412Y-154896967D01*
X77956103Y-154902418D01*
X77956102Y-154902422D01*
X77910394Y-155092811D01*
X77904968Y-155115411D01*
X77900581Y-155191500D01*
X77892403Y-155333350D01*
X77892037Y-155339690D01*
X77919025Y-155562715D01*
X77985082Y-155777435D01*
X77987652Y-155782415D01*
X77987654Y-155782419D01*
X78065632Y-155933498D01*
X78088118Y-155977064D01*
X78224877Y-156155292D01*
X78391036Y-156306485D01*
X78395783Y-156309463D01*
X78395786Y-156309465D01*
X78544694Y-156402874D01*
X78581344Y-156425864D01*
X78789783Y-156509656D01*
X79009767Y-156555213D01*
X79014378Y-156555479D01*
X79014379Y-156555479D01*
X79064952Y-156558395D01*
X79064956Y-156558395D01*
X79066775Y-156558500D01*
X79211999Y-156558500D01*
X79214786Y-156558251D01*
X79214792Y-156558251D01*
X79284929Y-156551991D01*
X79378762Y-156543617D01*
X79384176Y-156542136D01*
X79384181Y-156542135D01*
X79514481Y-156506488D01*
X79595451Y-156484337D01*
X79600509Y-156481925D01*
X79600513Y-156481923D01*
X79718042Y-156425864D01*
X79798218Y-156387622D01*
X79980654Y-156256529D01*
X80057652Y-156177073D01*
X80133089Y-156099229D01*
X80133091Y-156099226D01*
X80136992Y-156095201D01*
X80262290Y-155908738D01*
X80352588Y-155703033D01*
X80355742Y-155689898D01*
X80403722Y-155490046D01*
X80403722Y-155490045D01*
X80405032Y-155484589D01*
X80412057Y-155362749D01*
X80417640Y-155265917D01*
X80417640Y-155265914D01*
X80417963Y-155260310D01*
X80390975Y-155037285D01*
X80324918Y-154822565D01*
X80318190Y-154809528D01*
X80224454Y-154627919D01*
X80224454Y-154627918D01*
X80221882Y-154622936D01*
X80085123Y-154444708D01*
X80080979Y-154440937D01*
X80080976Y-154440934D01*
X80065889Y-154427206D01*
X80028965Y-154366566D01*
X80030688Y-154295590D01*
X80070509Y-154236813D01*
X80135786Y-154208895D01*
X80150687Y-154208011D01*
X83854682Y-154208011D01*
X83922803Y-154228013D01*
X83969296Y-154281669D01*
X83979400Y-154351943D01*
X83974517Y-154372939D01*
X83936458Y-154490072D01*
X83935768Y-154496633D01*
X83935768Y-154496635D01*
X83921970Y-154627919D01*
X83916496Y-154680000D01*
X83917186Y-154686565D01*
X83934228Y-154848706D01*
X83936458Y-154869928D01*
X83995473Y-155051556D01*
X83998776Y-155057278D01*
X83998777Y-155057279D01*
X84004002Y-155066329D01*
X84090960Y-155216944D01*
X84095378Y-155221851D01*
X84095379Y-155221852D01*
X84203284Y-155341693D01*
X84218747Y-155358866D01*
X84296753Y-155415541D01*
X84367253Y-155466762D01*
X84373248Y-155471118D01*
X84379276Y-155473802D01*
X84379278Y-155473803D01*
X84485748Y-155521206D01*
X84547712Y-155548794D01*
X84631699Y-155566646D01*
X84728056Y-155587128D01*
X84728061Y-155587128D01*
X84734513Y-155588500D01*
X84925487Y-155588500D01*
X84931939Y-155587128D01*
X84931944Y-155587128D01*
X85028301Y-155566646D01*
X85112288Y-155548794D01*
X85174252Y-155521206D01*
X85280722Y-155473803D01*
X85280724Y-155473802D01*
X85286752Y-155471118D01*
X85292748Y-155466762D01*
X85400269Y-155388643D01*
X85436163Y-155362564D01*
X85503031Y-155338706D01*
X85510224Y-155338500D01*
X89017944Y-155338500D01*
X89029800Y-155339059D01*
X89029803Y-155339059D01*
X89037537Y-155340788D01*
X89108369Y-155338562D01*
X89112327Y-155338500D01*
X89141432Y-155338500D01*
X89145832Y-155337944D01*
X89157664Y-155337012D01*
X89203831Y-155335562D01*
X89224421Y-155329580D01*
X89243782Y-155325570D01*
X89250770Y-155324688D01*
X89257204Y-155323875D01*
X89257205Y-155323875D01*
X89265064Y-155322882D01*
X89272429Y-155319966D01*
X89272433Y-155319965D01*
X89308021Y-155305874D01*
X89319231Y-155302035D01*
X89363600Y-155289145D01*
X89382065Y-155278225D01*
X89399805Y-155269534D01*
X89419756Y-155261635D01*
X89457129Y-155234482D01*
X89467048Y-155227967D01*
X89499977Y-155208493D01*
X89499981Y-155208490D01*
X89506807Y-155204453D01*
X89521971Y-155189289D01*
X89537005Y-155176448D01*
X89547944Y-155168500D01*
X89554357Y-155163841D01*
X89583803Y-155128246D01*
X89591792Y-155119468D01*
X89689145Y-155022115D01*
X89795854Y-154915405D01*
X89858166Y-154881380D01*
X89884950Y-154878500D01*
X90039774Y-154878500D01*
X90107895Y-154898502D01*
X90154388Y-154952158D01*
X90164492Y-155022432D01*
X90150610Y-155064429D01*
X90105802Y-155147299D01*
X90047318Y-155336232D01*
X90046674Y-155342357D01*
X90046674Y-155342358D01*
X90028568Y-155514633D01*
X90026645Y-155532925D01*
X90029127Y-155560196D01*
X90043918Y-155722721D01*
X90044570Y-155729888D01*
X90046308Y-155735794D01*
X90046309Y-155735798D01*
X90060030Y-155782419D01*
X90100410Y-155919619D01*
X90103263Y-155925077D01*
X90103265Y-155925081D01*
X90132767Y-155981512D01*
X90192040Y-156094890D01*
X90315968Y-156249025D01*
X90320692Y-156252989D01*
X90324911Y-156256529D01*
X90467474Y-156376154D01*
X90472872Y-156379121D01*
X90472877Y-156379125D01*
X90582999Y-156439664D01*
X90640787Y-156471433D01*
X90646654Y-156473294D01*
X90646656Y-156473295D01*
X90816977Y-156527324D01*
X90829306Y-156531235D01*
X90983227Y-156548500D01*
X91089769Y-156548500D01*
X91092825Y-156548200D01*
X91092832Y-156548200D01*
X91154683Y-156542135D01*
X91236833Y-156534080D01*
X91242734Y-156532298D01*
X91242736Y-156532298D01*
X91358531Y-156497337D01*
X91426169Y-156476916D01*
X91600796Y-156384066D01*
X91695151Y-156307112D01*
X91749287Y-156262960D01*
X91749290Y-156262957D01*
X91754062Y-156259065D01*
X91766344Y-156244219D01*
X91876201Y-156111425D01*
X91876203Y-156111421D01*
X91880130Y-156106675D01*
X91974198Y-155932701D01*
X92032682Y-155743768D01*
X92036112Y-155711134D01*
X92052711Y-155553204D01*
X92052711Y-155553202D01*
X92053355Y-155547075D01*
X92042553Y-155428378D01*
X92035989Y-155356251D01*
X92035988Y-155356248D01*
X92035430Y-155350112D01*
X92033612Y-155343933D01*
X91991455Y-155200695D01*
X91979590Y-155160381D01*
X91976733Y-155154917D01*
X91976731Y-155154911D01*
X91928616Y-155062876D01*
X91914781Y-154993240D01*
X91940791Y-154927179D01*
X91998386Y-154885667D01*
X92040277Y-154878500D01*
X93102938Y-154878500D01*
X93114794Y-154879059D01*
X93114797Y-154879059D01*
X93122531Y-154880788D01*
X93193363Y-154878562D01*
X93197321Y-154878500D01*
X93226426Y-154878500D01*
X93230826Y-154877944D01*
X93242658Y-154877012D01*
X93288825Y-154875562D01*
X93309415Y-154869580D01*
X93328776Y-154865570D01*
X93335764Y-154864688D01*
X93342198Y-154863875D01*
X93342199Y-154863875D01*
X93350058Y-154862882D01*
X93357423Y-154859966D01*
X93357427Y-154859965D01*
X93393015Y-154845874D01*
X93404225Y-154842035D01*
X93448594Y-154829145D01*
X93467059Y-154818225D01*
X93484799Y-154809534D01*
X93504750Y-154801635D01*
X93515730Y-154793658D01*
X93529920Y-154783348D01*
X93596788Y-154759489D01*
X93665940Y-154775570D01*
X93697616Y-154800974D01*
X93719351Y-154825112D01*
X93750733Y-154859965D01*
X93758747Y-154868866D01*
X93822802Y-154915405D01*
X93870417Y-154949999D01*
X93913248Y-154981118D01*
X93919276Y-154983802D01*
X93919278Y-154983803D01*
X94081198Y-155055894D01*
X94087712Y-155058794D01*
X94180430Y-155078502D01*
X94268056Y-155097128D01*
X94268061Y-155097128D01*
X94274513Y-155098500D01*
X94465487Y-155098500D01*
X94471939Y-155097128D01*
X94471944Y-155097128D01*
X94559570Y-155078502D01*
X94652288Y-155058794D01*
X94658802Y-155055894D01*
X94820722Y-154983803D01*
X94820724Y-154983802D01*
X94826752Y-154981118D01*
X94850937Y-154963547D01*
X94946594Y-154894047D01*
X94976163Y-154872564D01*
X95043031Y-154848706D01*
X95050224Y-154848500D01*
X95885050Y-154848500D01*
X95953171Y-154868502D01*
X95974145Y-154885405D01*
X96181181Y-155092441D01*
X96215207Y-155154753D01*
X96210142Y-155225568D01*
X96167595Y-155282404D01*
X96136315Y-155299518D01*
X96011701Y-155346233D01*
X96011697Y-155346235D01*
X96003295Y-155349385D01*
X96001961Y-155350385D01*
X95936197Y-155364770D01*
X95870981Y-155341016D01*
X95826752Y-155308882D01*
X95820724Y-155306198D01*
X95820722Y-155306197D01*
X95658319Y-155233891D01*
X95658318Y-155233891D01*
X95652288Y-155231206D01*
X95558290Y-155211226D01*
X95471944Y-155192872D01*
X95471939Y-155192872D01*
X95465487Y-155191500D01*
X95274513Y-155191500D01*
X95268061Y-155192872D01*
X95268056Y-155192872D01*
X95181710Y-155211226D01*
X95087712Y-155231206D01*
X95081682Y-155233891D01*
X95081681Y-155233891D01*
X94919278Y-155306197D01*
X94919276Y-155306198D01*
X94913248Y-155308882D01*
X94907907Y-155312762D01*
X94907906Y-155312763D01*
X94868353Y-155341500D01*
X94758747Y-155421134D01*
X94754326Y-155426044D01*
X94754325Y-155426045D01*
X94643802Y-155548794D01*
X94630960Y-155563056D01*
X94592157Y-155630264D01*
X94553294Y-155697578D01*
X94535473Y-155728444D01*
X94476458Y-155910072D01*
X94475768Y-155916633D01*
X94475768Y-155916635D01*
X94473996Y-155933498D01*
X94456496Y-156100000D01*
X94457186Y-156106565D01*
X94473624Y-156262960D01*
X94476458Y-156289928D01*
X94535473Y-156471556D01*
X94538776Y-156477278D01*
X94538777Y-156477279D01*
X94555393Y-156506059D01*
X94630960Y-156636944D01*
X94635378Y-156641851D01*
X94635379Y-156641852D01*
X94753738Y-156773303D01*
X94758747Y-156778866D01*
X94913248Y-156891118D01*
X94919276Y-156893802D01*
X94919278Y-156893803D01*
X95081681Y-156966109D01*
X95087712Y-156968794D01*
X95171708Y-156986648D01*
X95268056Y-157007128D01*
X95268061Y-157007128D01*
X95274513Y-157008500D01*
X95465487Y-157008500D01*
X95471939Y-157007128D01*
X95471944Y-157007128D01*
X95593708Y-156981246D01*
X95664499Y-156986648D01*
X95721132Y-157029465D01*
X95745625Y-157096103D01*
X95745168Y-157118101D01*
X95741500Y-157151866D01*
X95741500Y-157848134D01*
X95748255Y-157910316D01*
X95799385Y-158046705D01*
X95886739Y-158163261D01*
X95954427Y-158213990D01*
X95966358Y-158222932D01*
X96008873Y-158279791D01*
X96013899Y-158350610D01*
X95979839Y-158412903D01*
X95966357Y-158424585D01*
X95954998Y-158433098D01*
X95888492Y-158457945D01*
X95819110Y-158442892D01*
X95805373Y-158434207D01*
X95762094Y-158402763D01*
X95762092Y-158402762D01*
X95756752Y-158398882D01*
X95750724Y-158396198D01*
X95750722Y-158396197D01*
X95588319Y-158323891D01*
X95588318Y-158323891D01*
X95582288Y-158321206D01*
X95488887Y-158301353D01*
X95401944Y-158282872D01*
X95401939Y-158282872D01*
X95395487Y-158281500D01*
X95204513Y-158281500D01*
X95198061Y-158282872D01*
X95198056Y-158282872D01*
X95111113Y-158301353D01*
X95017712Y-158321206D01*
X95011682Y-158323891D01*
X95011681Y-158323891D01*
X94849278Y-158396197D01*
X94849276Y-158396198D01*
X94843248Y-158398882D01*
X94837907Y-158402762D01*
X94837906Y-158402763D01*
X94787843Y-158439136D01*
X94688747Y-158511134D01*
X94684326Y-158516044D01*
X94684325Y-158516045D01*
X94591928Y-158618663D01*
X94560960Y-158653056D01*
X94546820Y-158677548D01*
X94484447Y-158785581D01*
X94465473Y-158818444D01*
X94406458Y-159000072D01*
X94405768Y-159006633D01*
X94405768Y-159006635D01*
X94395806Y-159101416D01*
X94386496Y-159190000D01*
X94387186Y-159196565D01*
X94403150Y-159348450D01*
X94406458Y-159379928D01*
X94465473Y-159561556D01*
X94560960Y-159726944D01*
X94565378Y-159731851D01*
X94565379Y-159731852D01*
X94682972Y-159862452D01*
X94688747Y-159868866D01*
X94843248Y-159981118D01*
X94849276Y-159983802D01*
X94849278Y-159983803D01*
X95011681Y-160056109D01*
X95017712Y-160058794D01*
X95111113Y-160078647D01*
X95198056Y-160097128D01*
X95198061Y-160097128D01*
X95204513Y-160098500D01*
X95395487Y-160098500D01*
X95401939Y-160097128D01*
X95401944Y-160097128D01*
X95518258Y-160072404D01*
X95562430Y-160063015D01*
X95633220Y-160068417D01*
X95689852Y-160111234D01*
X95714346Y-160177871D01*
X95713889Y-160199867D01*
X95711869Y-160218462D01*
X95711868Y-160218476D01*
X95711500Y-160221866D01*
X95711500Y-160918134D01*
X95718255Y-160980316D01*
X95769385Y-161116705D01*
X95856739Y-161233261D01*
X95899322Y-161265175D01*
X95941835Y-161322034D01*
X95946860Y-161392852D01*
X95912800Y-161455145D01*
X95850469Y-161489136D01*
X95823755Y-161492000D01*
X71749327Y-161492000D01*
X71729942Y-161490500D01*
X71715141Y-161488195D01*
X71715138Y-161488195D01*
X71706269Y-161486814D01*
X71692230Y-161488650D01*
X71666011Y-161489325D01*
X71523416Y-161478103D01*
X71503887Y-161475010D01*
X71500909Y-161474295D01*
X71341287Y-161435973D01*
X71322487Y-161429864D01*
X71168002Y-161365873D01*
X71150387Y-161356898D01*
X71007817Y-161269532D01*
X70991821Y-161257910D01*
X70864669Y-161149312D01*
X70850688Y-161135331D01*
X70742090Y-161008179D01*
X70730468Y-160992183D01*
X70643102Y-160849613D01*
X70634127Y-160831998D01*
X70570136Y-160677513D01*
X70564025Y-160658708D01*
X70562443Y-160652115D01*
X70524990Y-160496112D01*
X70521897Y-160476584D01*
X70511226Y-160340988D01*
X70511867Y-160324120D01*
X70511695Y-160324118D01*
X70511805Y-160315142D01*
X70513186Y-160306271D01*
X70511547Y-160293731D01*
X70509064Y-160274750D01*
X70508000Y-160258412D01*
X70508000Y-159848134D01*
X80746500Y-159848134D01*
X80753255Y-159910316D01*
X80804385Y-160046705D01*
X80891739Y-160163261D01*
X81008295Y-160250615D01*
X81144684Y-160301745D01*
X81206866Y-160308500D01*
X82503134Y-160308500D01*
X82565316Y-160301745D01*
X82701705Y-160250615D01*
X82818261Y-160163261D01*
X82905615Y-160046705D01*
X82956745Y-159910316D01*
X82963500Y-159848134D01*
X82963500Y-157251866D01*
X82956745Y-157189684D01*
X82905615Y-157053295D01*
X82818261Y-156936739D01*
X82701705Y-156849385D01*
X82565316Y-156798255D01*
X82503134Y-156791500D01*
X81206866Y-156791500D01*
X81144684Y-156798255D01*
X81008295Y-156849385D01*
X80891739Y-156936739D01*
X80804385Y-157053295D01*
X80753255Y-157189684D01*
X80746500Y-157251866D01*
X80746500Y-159848134D01*
X70508000Y-159848134D01*
X70508000Y-155339690D01*
X70892037Y-155339690D01*
X70919025Y-155562715D01*
X70985082Y-155777435D01*
X70987652Y-155782415D01*
X70987654Y-155782419D01*
X71065632Y-155933498D01*
X71088118Y-155977064D01*
X71224877Y-156155292D01*
X71391036Y-156306485D01*
X71395783Y-156309463D01*
X71395786Y-156309465D01*
X71544694Y-156402874D01*
X71581344Y-156425864D01*
X71789783Y-156509656D01*
X72009767Y-156555213D01*
X72014378Y-156555479D01*
X72014379Y-156555479D01*
X72064952Y-156558395D01*
X72064956Y-156558395D01*
X72066775Y-156558500D01*
X72211999Y-156558500D01*
X72214786Y-156558251D01*
X72214792Y-156558251D01*
X72284929Y-156551991D01*
X72378762Y-156543617D01*
X72384176Y-156542136D01*
X72384181Y-156542135D01*
X72514481Y-156506488D01*
X72595451Y-156484337D01*
X72600509Y-156481925D01*
X72600513Y-156481923D01*
X72718042Y-156425864D01*
X72798218Y-156387622D01*
X72980654Y-156256529D01*
X73057652Y-156177073D01*
X73133089Y-156099229D01*
X73133091Y-156099226D01*
X73136992Y-156095201D01*
X73262290Y-155908738D01*
X73352588Y-155703033D01*
X73355742Y-155689898D01*
X73403722Y-155490046D01*
X73403722Y-155490045D01*
X73405032Y-155484589D01*
X73412057Y-155362749D01*
X73417640Y-155265917D01*
X73417640Y-155265914D01*
X73417963Y-155260310D01*
X73390975Y-155037285D01*
X73324918Y-154822565D01*
X73318190Y-154809528D01*
X73224454Y-154627919D01*
X73224454Y-154627918D01*
X73221882Y-154622936D01*
X73085123Y-154444708D01*
X72918964Y-154293515D01*
X72914217Y-154290537D01*
X72914214Y-154290535D01*
X72733405Y-154177115D01*
X72728656Y-154174136D01*
X72520217Y-154090344D01*
X72300233Y-154044787D01*
X72295622Y-154044521D01*
X72295621Y-154044521D01*
X72245048Y-154041605D01*
X72245044Y-154041605D01*
X72243225Y-154041500D01*
X72098001Y-154041500D01*
X72095214Y-154041749D01*
X72095208Y-154041749D01*
X72043074Y-154046402D01*
X71931238Y-154056383D01*
X71925824Y-154057864D01*
X71925819Y-154057865D01*
X71841053Y-154081055D01*
X71714549Y-154115663D01*
X71709491Y-154118075D01*
X71709487Y-154118077D01*
X71615691Y-154162816D01*
X71511782Y-154212378D01*
X71329346Y-154343471D01*
X71301002Y-154372720D01*
X71181535Y-154496000D01*
X71173008Y-154504799D01*
X71047710Y-154691262D01*
X70957412Y-154896967D01*
X70956103Y-154902418D01*
X70956102Y-154902422D01*
X70910394Y-155092811D01*
X70904968Y-155115411D01*
X70900581Y-155191500D01*
X70892403Y-155333350D01*
X70892037Y-155339690D01*
X70508000Y-155339690D01*
X70508000Y-153344669D01*
X72647001Y-153344669D01*
X72647371Y-153351490D01*
X72652895Y-153402352D01*
X72656521Y-153417604D01*
X72701676Y-153538054D01*
X72710214Y-153553649D01*
X72786715Y-153655724D01*
X72799276Y-153668285D01*
X72901351Y-153744786D01*
X72916946Y-153753324D01*
X73037394Y-153798478D01*
X73052649Y-153802105D01*
X73103514Y-153807631D01*
X73110328Y-153808000D01*
X73482885Y-153808000D01*
X73498124Y-153803525D01*
X73499329Y-153802135D01*
X73501000Y-153794452D01*
X73501000Y-153789884D01*
X74009000Y-153789884D01*
X74013475Y-153805123D01*
X74014865Y-153806328D01*
X74022548Y-153807999D01*
X74399669Y-153807999D01*
X74406490Y-153807629D01*
X74457352Y-153802105D01*
X74472604Y-153798479D01*
X74593054Y-153753324D01*
X74608649Y-153744786D01*
X74710724Y-153668285D01*
X74723285Y-153655724D01*
X74799786Y-153553649D01*
X74808324Y-153538054D01*
X74853478Y-153417606D01*
X74857105Y-153402351D01*
X74862631Y-153351486D01*
X74863000Y-153344672D01*
X74863000Y-152322115D01*
X74858525Y-152306876D01*
X74857135Y-152305671D01*
X74849452Y-152304000D01*
X74027115Y-152304000D01*
X74011876Y-152308475D01*
X74010671Y-152309865D01*
X74009000Y-152317548D01*
X74009000Y-153789884D01*
X73501000Y-153789884D01*
X73501000Y-152322115D01*
X73496525Y-152306876D01*
X73495135Y-152305671D01*
X73487452Y-152304000D01*
X72665116Y-152304000D01*
X72649877Y-152308475D01*
X72648672Y-152309865D01*
X72647001Y-152317548D01*
X72647001Y-153344669D01*
X70508000Y-153344669D01*
X70508000Y-151777885D01*
X72647000Y-151777885D01*
X72651475Y-151793124D01*
X72652865Y-151794329D01*
X72660548Y-151796000D01*
X73482885Y-151796000D01*
X73498124Y-151791525D01*
X73499329Y-151790135D01*
X73501000Y-151782452D01*
X73501000Y-150310116D01*
X73496525Y-150294877D01*
X73495135Y-150293672D01*
X73487452Y-150292001D01*
X73110331Y-150292001D01*
X73103510Y-150292371D01*
X73052648Y-150297895D01*
X73037396Y-150301521D01*
X72916946Y-150346676D01*
X72901351Y-150355214D01*
X72799276Y-150431715D01*
X72786715Y-150444276D01*
X72710214Y-150546351D01*
X72701676Y-150561946D01*
X72656522Y-150682394D01*
X72652895Y-150697649D01*
X72647369Y-150748514D01*
X72647000Y-150755328D01*
X72647000Y-151777885D01*
X70508000Y-151777885D01*
X70508000Y-133749327D01*
X70509500Y-133729942D01*
X70511805Y-133715141D01*
X70511805Y-133715138D01*
X70513186Y-133706269D01*
X70511350Y-133692230D01*
X70510675Y-133666011D01*
X70521897Y-133523416D01*
X70524990Y-133503887D01*
X70541920Y-133433369D01*
X70564027Y-133341287D01*
X70570136Y-133322487D01*
X70634127Y-133168002D01*
X70643102Y-133150387D01*
X70730468Y-133007817D01*
X70742090Y-132991821D01*
X70850688Y-132864669D01*
X70864669Y-132850688D01*
X70991821Y-132742090D01*
X71007817Y-132730468D01*
X71150387Y-132643102D01*
X71168002Y-132634127D01*
X71322487Y-132570136D01*
X71341287Y-132564027D01*
X71503888Y-132524990D01*
X71523416Y-132521897D01*
X71659012Y-132511226D01*
X71675880Y-132511867D01*
X71675882Y-132511695D01*
X71684858Y-132511805D01*
X71693729Y-132513186D01*
X71702631Y-132512022D01*
X71702634Y-132512022D01*
X71725250Y-132509064D01*
X71741588Y-132508000D01*
X78136550Y-132508000D01*
X78204671Y-132528002D01*
G37*
%TD.AperFunction*%
%TA.AperFunction,Conductor*%
G36*
X108014923Y-160715583D02*
G01*
X108055496Y-160773844D01*
X108062001Y-160813804D01*
X108062001Y-160827095D01*
X108062338Y-160833614D01*
X108072257Y-160929206D01*
X108075149Y-160942600D01*
X108126588Y-161096784D01*
X108132761Y-161109962D01*
X108218063Y-161247807D01*
X108227099Y-161259208D01*
X108244748Y-161276826D01*
X108278828Y-161339109D01*
X108273825Y-161409929D01*
X108231328Y-161466802D01*
X108164830Y-161491671D01*
X108155731Y-161492000D01*
X106143450Y-161492000D01*
X106075329Y-161471998D01*
X106028836Y-161418342D01*
X106018732Y-161348068D01*
X106048226Y-161283488D01*
X106054355Y-161276905D01*
X106425730Y-160905530D01*
X106488042Y-160871504D01*
X106558857Y-160876569D01*
X106582891Y-160889963D01*
X106583193Y-160889453D01*
X106726399Y-160974145D01*
X106734010Y-160976356D01*
X106734012Y-160976357D01*
X106773108Y-160987715D01*
X106886169Y-161020562D01*
X106892574Y-161021066D01*
X106892579Y-161021067D01*
X106921042Y-161023307D01*
X106921050Y-161023307D01*
X106923498Y-161023500D01*
X107356502Y-161023500D01*
X107358950Y-161023307D01*
X107358958Y-161023307D01*
X107387421Y-161021067D01*
X107387426Y-161021066D01*
X107393831Y-161020562D01*
X107506892Y-160987715D01*
X107545988Y-160976357D01*
X107545990Y-160976356D01*
X107553601Y-160974145D01*
X107591829Y-160951537D01*
X107689980Y-160893491D01*
X107689983Y-160893489D01*
X107696807Y-160889453D01*
X107814453Y-160771807D01*
X107827549Y-160749663D01*
X107879441Y-160701212D01*
X107949292Y-160688507D01*
X108014923Y-160715583D01*
G37*
%TD.AperFunction*%
%TA.AperFunction,Conductor*%
G36*
X129423852Y-156793598D02*
G01*
X129475184Y-156842644D01*
X129492000Y-156905532D01*
X129492000Y-160250673D01*
X129490500Y-160270058D01*
X129489127Y-160278879D01*
X129486814Y-160293731D01*
X129488454Y-160306271D01*
X129488650Y-160307768D01*
X129489325Y-160333989D01*
X129478103Y-160476584D01*
X129475010Y-160496112D01*
X129437558Y-160652115D01*
X129435975Y-160658708D01*
X129429864Y-160677513D01*
X129365873Y-160831998D01*
X129356898Y-160849613D01*
X129269532Y-160992183D01*
X129257910Y-161008179D01*
X129149312Y-161135331D01*
X129135331Y-161149312D01*
X129008179Y-161257910D01*
X128992183Y-161269532D01*
X128849613Y-161356898D01*
X128831998Y-161365873D01*
X128677513Y-161429864D01*
X128658713Y-161435973D01*
X128499091Y-161474295D01*
X128496113Y-161475010D01*
X128476584Y-161478103D01*
X128340988Y-161488774D01*
X128324120Y-161488133D01*
X128324118Y-161488305D01*
X128315142Y-161488195D01*
X128306271Y-161486814D01*
X128297369Y-161487978D01*
X128297366Y-161487978D01*
X128274750Y-161490936D01*
X128258412Y-161492000D01*
X115054083Y-161492000D01*
X114985962Y-161471998D01*
X114939469Y-161418342D01*
X114929365Y-161348068D01*
X114958859Y-161283488D01*
X115014207Y-161246476D01*
X115037695Y-161238640D01*
X115058946Y-161231550D01*
X115209348Y-161138478D01*
X115334305Y-161013303D01*
X115338146Y-161007072D01*
X115342683Y-161001327D01*
X115344013Y-161002377D01*
X115390107Y-160960892D01*
X115444597Y-160948500D01*
X126227944Y-160948500D01*
X126239800Y-160949059D01*
X126239803Y-160949059D01*
X126247537Y-160950788D01*
X126318369Y-160948562D01*
X126322327Y-160948500D01*
X126351432Y-160948500D01*
X126355832Y-160947944D01*
X126367664Y-160947012D01*
X126413831Y-160945562D01*
X126434421Y-160939580D01*
X126453782Y-160935570D01*
X126460770Y-160934688D01*
X126467204Y-160933875D01*
X126467205Y-160933875D01*
X126475064Y-160932882D01*
X126482429Y-160929966D01*
X126482433Y-160929965D01*
X126518021Y-160915874D01*
X126529231Y-160912035D01*
X126573600Y-160899145D01*
X126592065Y-160888225D01*
X126609805Y-160879534D01*
X126629756Y-160871635D01*
X126667129Y-160844482D01*
X126677048Y-160837967D01*
X126709977Y-160818493D01*
X126709981Y-160818490D01*
X126716807Y-160814453D01*
X126731971Y-160799289D01*
X126747005Y-160786448D01*
X126757943Y-160778501D01*
X126764357Y-160773841D01*
X126793803Y-160738247D01*
X126801792Y-160729468D01*
X128207605Y-159323655D01*
X128216385Y-159315665D01*
X128216387Y-159315663D01*
X128223080Y-159311416D01*
X128244600Y-159288500D01*
X128271604Y-159259743D01*
X128274359Y-159256901D01*
X128294927Y-159236333D01*
X128297647Y-159232826D01*
X128305353Y-159223804D01*
X128331544Y-159195913D01*
X128336972Y-159190133D01*
X128340794Y-159183181D01*
X128347303Y-159171342D01*
X128358157Y-159154818D01*
X128366443Y-159144135D01*
X128366444Y-159144134D01*
X128371304Y-159137868D01*
X128386331Y-159103142D01*
X128389654Y-159095464D01*
X128394869Y-159084819D01*
X128417124Y-159044337D01*
X128419094Y-159036663D01*
X128419097Y-159036656D01*
X128422455Y-159023574D01*
X128428861Y-159004862D01*
X128434233Y-158992448D01*
X128437380Y-158985177D01*
X128444608Y-158939541D01*
X128447012Y-158927930D01*
X128458500Y-158883188D01*
X128458500Y-158861742D01*
X128460051Y-158842032D01*
X128462166Y-158828678D01*
X128462166Y-158828677D01*
X128463406Y-158820848D01*
X128459059Y-158774859D01*
X128458500Y-158763004D01*
X128458500Y-157673736D01*
X128478502Y-157605615D01*
X128532158Y-157559122D01*
X128549031Y-157552831D01*
X128607779Y-157535597D01*
X128607785Y-157535594D01*
X128613534Y-157533908D01*
X128618868Y-157531161D01*
X128796249Y-157439804D01*
X128796252Y-157439802D01*
X128801580Y-157437058D01*
X128967920Y-157306396D01*
X128971852Y-157301865D01*
X128971855Y-157301862D01*
X129102621Y-157151167D01*
X129106552Y-157146637D01*
X129109552Y-157141451D01*
X129109555Y-157141447D01*
X129209467Y-156968742D01*
X129212473Y-156963546D01*
X129246972Y-156864199D01*
X129288214Y-156806409D01*
X129354152Y-156780090D01*
X129423852Y-156793598D01*
G37*
%TD.AperFunction*%
%TA.AperFunction,Conductor*%
G36*
X97399262Y-161244923D02*
G01*
X97421225Y-161258224D01*
X97469132Y-161310621D01*
X97481106Y-161380600D01*
X97453346Y-161445944D01*
X97394664Y-161485907D01*
X97355955Y-161492000D01*
X97316245Y-161492000D01*
X97248124Y-161471998D01*
X97201631Y-161418342D01*
X97191527Y-161348068D01*
X97221021Y-161283488D01*
X97240679Y-161265175D01*
X97258426Y-161251874D01*
X97324932Y-161227025D01*
X97399262Y-161244923D01*
G37*
%TD.AperFunction*%
%TA.AperFunction,Conductor*%
G36*
X110508171Y-159478502D02*
G01*
X110529145Y-159495405D01*
X110974595Y-159940855D01*
X111008621Y-160003167D01*
X111011500Y-160029950D01*
X111011500Y-160830400D01*
X111011837Y-160833646D01*
X111011837Y-160833650D01*
X111021752Y-160929206D01*
X111022474Y-160936166D01*
X111024655Y-160942702D01*
X111024655Y-160942704D01*
X111048186Y-161013234D01*
X111078450Y-161103946D01*
X111171522Y-161254348D01*
X111176704Y-161259521D01*
X111194040Y-161276827D01*
X111228119Y-161339110D01*
X111223116Y-161409930D01*
X111180618Y-161466803D01*
X111114120Y-161491671D01*
X111105022Y-161492000D01*
X110134134Y-161492000D01*
X110066013Y-161471998D01*
X110019520Y-161418342D01*
X110009416Y-161348068D01*
X110038910Y-161283488D01*
X110044961Y-161276983D01*
X110063735Y-161258176D01*
X110072751Y-161246760D01*
X110157816Y-161108757D01*
X110163963Y-161095576D01*
X110215138Y-160941290D01*
X110218005Y-160927914D01*
X110227672Y-160833562D01*
X110228000Y-160827146D01*
X110228000Y-160402115D01*
X110223525Y-160386876D01*
X110222135Y-160385671D01*
X110214452Y-160384000D01*
X109017000Y-160384000D01*
X108948879Y-160363998D01*
X108902386Y-160310342D01*
X108891000Y-160258000D01*
X108891000Y-160002000D01*
X108911002Y-159933879D01*
X108964658Y-159887386D01*
X109017000Y-159876000D01*
X110209884Y-159876000D01*
X110225123Y-159871525D01*
X110226328Y-159870135D01*
X110227999Y-159862452D01*
X110227999Y-159584500D01*
X110248001Y-159516379D01*
X110301657Y-159469886D01*
X110353999Y-159458500D01*
X110440050Y-159458500D01*
X110508171Y-159478502D01*
G37*
%TD.AperFunction*%
%TA.AperFunction,Conductor*%
G36*
X127996121Y-153726002D02*
G01*
X128042614Y-153779658D01*
X128054000Y-153832000D01*
X128054000Y-155049885D01*
X128058475Y-155065124D01*
X128059865Y-155066329D01*
X128067548Y-155068000D01*
X128249832Y-155068000D01*
X128255808Y-155067715D01*
X128404494Y-155053529D01*
X128416228Y-155051270D01*
X128607599Y-154995128D01*
X128618675Y-154990698D01*
X128795978Y-154899381D01*
X128806024Y-154892931D01*
X128962857Y-154769738D01*
X128971506Y-154761501D01*
X129102212Y-154610877D01*
X129109147Y-154601153D01*
X129209010Y-154428533D01*
X129213984Y-154417669D01*
X129246972Y-154322674D01*
X129288214Y-154264884D01*
X129354152Y-154238565D01*
X129423852Y-154252073D01*
X129475184Y-154301119D01*
X129492000Y-154364007D01*
X129492000Y-156081849D01*
X129471998Y-156149970D01*
X129418342Y-156196463D01*
X129348068Y-156206567D01*
X129283488Y-156177073D01*
X129251299Y-156134000D01*
X129235701Y-156099694D01*
X129165326Y-155944913D01*
X129042946Y-155772389D01*
X128890150Y-155626119D01*
X128712452Y-155511380D01*
X128632067Y-155478984D01*
X128521832Y-155434558D01*
X128521829Y-155434557D01*
X128516263Y-155432314D01*
X128308663Y-155391772D01*
X128303101Y-155391500D01*
X127347154Y-155391500D01*
X127189434Y-155406548D01*
X126986466Y-155466092D01*
X126981139Y-155468836D01*
X126981138Y-155468836D01*
X126803751Y-155560196D01*
X126803748Y-155560198D01*
X126798420Y-155562942D01*
X126632080Y-155693604D01*
X126628148Y-155698135D01*
X126628145Y-155698138D01*
X126559474Y-155777275D01*
X126493448Y-155853363D01*
X126490448Y-155858549D01*
X126490445Y-155858553D01*
X126431463Y-155960508D01*
X126387527Y-156036454D01*
X126318139Y-156236271D01*
X126317278Y-156242206D01*
X126317278Y-156242208D01*
X126288815Y-156438516D01*
X126287787Y-156445604D01*
X126297567Y-156656899D01*
X126298971Y-156662724D01*
X126298971Y-156662725D01*
X126342332Y-156842644D01*
X126347125Y-156862534D01*
X126349607Y-156867992D01*
X126349608Y-156867996D01*
X126390674Y-156958315D01*
X126434674Y-157055087D01*
X126557054Y-157227611D01*
X126709850Y-157373881D01*
X126887548Y-157488620D01*
X126962861Y-157518972D01*
X127062598Y-157559167D01*
X127118304Y-157603182D01*
X127141500Y-157676033D01*
X127141500Y-158475051D01*
X127121498Y-158543172D01*
X127104595Y-158564146D01*
X126074145Y-159594595D01*
X126011833Y-159628621D01*
X125985050Y-159631500D01*
X125932884Y-159631500D01*
X125864763Y-159611498D01*
X125818270Y-159557842D01*
X125808166Y-159487568D01*
X125836362Y-159424509D01*
X125951778Y-159286961D01*
X125958708Y-159276841D01*
X126048002Y-159114415D01*
X126052834Y-159103142D01*
X126108880Y-158926462D01*
X126111430Y-158914468D01*
X126127607Y-158770239D01*
X126128000Y-158763215D01*
X126128000Y-158682115D01*
X126123525Y-158666876D01*
X126122135Y-158665671D01*
X126114452Y-158664000D01*
X124130115Y-158664000D01*
X124114876Y-158668475D01*
X124113671Y-158669865D01*
X124112000Y-158677548D01*
X124112000Y-158756657D01*
X124112301Y-158762805D01*
X124125812Y-158900603D01*
X124128195Y-158912638D01*
X124181767Y-159090076D01*
X124186441Y-159101416D01*
X124273460Y-159265077D01*
X124280249Y-159275294D01*
X124401292Y-159423708D01*
X124399690Y-159425015D01*
X124429003Y-159479147D01*
X124423691Y-159549944D01*
X124380946Y-159606631D01*
X124314340Y-159631210D01*
X124305790Y-159631500D01*
X117292884Y-159631500D01*
X117224763Y-159611498D01*
X117178270Y-159557842D01*
X117168166Y-159487568D01*
X117196362Y-159424509D01*
X117311778Y-159286961D01*
X117318708Y-159276841D01*
X117408002Y-159114415D01*
X117412834Y-159103142D01*
X117468880Y-158926462D01*
X117471430Y-158914468D01*
X117487607Y-158770239D01*
X117488000Y-158763215D01*
X117488000Y-158682115D01*
X117483525Y-158666876D01*
X117482135Y-158665671D01*
X117474452Y-158664000D01*
X115494283Y-158664000D01*
X115448229Y-158650478D01*
X115418452Y-158644000D01*
X113045116Y-158644000D01*
X113029877Y-158648475D01*
X113028672Y-158649865D01*
X113027001Y-158657548D01*
X113027001Y-158687095D01*
X113027339Y-158693617D01*
X113030822Y-158727194D01*
X113017956Y-158797015D01*
X112969385Y-158848797D01*
X112900529Y-158866098D01*
X112839380Y-158847456D01*
X112742738Y-158787885D01*
X112648588Y-158756657D01*
X112581389Y-158734368D01*
X112581387Y-158734368D01*
X112574861Y-158732203D01*
X112568025Y-158731503D01*
X112568022Y-158731502D01*
X112524969Y-158727091D01*
X112470400Y-158721500D01*
X112074115Y-158721500D01*
X112005994Y-158701498D01*
X111959501Y-158647842D01*
X111949397Y-158577568D01*
X111953881Y-158557821D01*
X111962069Y-158531693D01*
X112001753Y-158405062D01*
X112008500Y-158331635D01*
X112008500Y-158074950D01*
X112028502Y-158006829D01*
X112045405Y-157985855D01*
X112688529Y-157342731D01*
X112750841Y-157308705D01*
X112821656Y-157313770D01*
X112878492Y-157356317D01*
X112884768Y-157365523D01*
X112948063Y-157467807D01*
X112957099Y-157479208D01*
X113071829Y-157593739D01*
X113088985Y-157607288D01*
X113087371Y-157609331D01*
X113126712Y-157653050D01*
X113138131Y-157723122D01*
X113120358Y-157773647D01*
X113097185Y-157811241D01*
X113091037Y-157824424D01*
X113039862Y-157978710D01*
X113036995Y-157992086D01*
X113027328Y-158086438D01*
X113027000Y-158092855D01*
X113027000Y-158117885D01*
X113031475Y-158133124D01*
X113032865Y-158134329D01*
X113040548Y-158136000D01*
X113987885Y-158136000D01*
X114003124Y-158131525D01*
X114004329Y-158130135D01*
X114006000Y-158122452D01*
X114006000Y-157816115D01*
X114001526Y-157800876D01*
X113989488Y-157790446D01*
X113951104Y-157730720D01*
X113946000Y-157695221D01*
X113946000Y-157323885D01*
X114454000Y-157323885D01*
X114458474Y-157339124D01*
X114470512Y-157349554D01*
X114508896Y-157409280D01*
X114514000Y-157444779D01*
X114514000Y-158117885D01*
X114518475Y-158133124D01*
X114519865Y-158134329D01*
X114527548Y-158136000D01*
X115470717Y-158136000D01*
X115516771Y-158149522D01*
X115546548Y-158156000D01*
X116207885Y-158156000D01*
X116223124Y-158151525D01*
X116224329Y-158150135D01*
X116226000Y-158142452D01*
X116226000Y-158137885D01*
X116734000Y-158137885D01*
X116738475Y-158153124D01*
X116739865Y-158154329D01*
X116747548Y-158156000D01*
X117469885Y-158156000D01*
X117485124Y-158151525D01*
X117486329Y-158150135D01*
X117488000Y-158142452D01*
X117488000Y-158137885D01*
X124112000Y-158137885D01*
X124116475Y-158153124D01*
X124117865Y-158154329D01*
X124125548Y-158156000D01*
X124847885Y-158156000D01*
X124863124Y-158151525D01*
X124864329Y-158150135D01*
X124866000Y-158142452D01*
X124866000Y-158137885D01*
X125374000Y-158137885D01*
X125378475Y-158153124D01*
X125379865Y-158154329D01*
X125387548Y-158156000D01*
X126109885Y-158156000D01*
X126125124Y-158151525D01*
X126126329Y-158150135D01*
X126128000Y-158142452D01*
X126128000Y-158063343D01*
X126127699Y-158057195D01*
X126114188Y-157919397D01*
X126111805Y-157907362D01*
X126058233Y-157729924D01*
X126053559Y-157718584D01*
X125966540Y-157554923D01*
X125959751Y-157544706D01*
X125842603Y-157401067D01*
X125833959Y-157392363D01*
X125691144Y-157274216D01*
X125680973Y-157267356D01*
X125517924Y-157179196D01*
X125506619Y-157174444D01*
X125391308Y-157138750D01*
X125377205Y-157138544D01*
X125374000Y-157145299D01*
X125374000Y-158137885D01*
X124866000Y-158137885D01*
X124866000Y-157152076D01*
X124862027Y-157138545D01*
X124854232Y-157137425D01*
X124746479Y-157169138D01*
X124735111Y-157173731D01*
X124570846Y-157259607D01*
X124560585Y-157266321D01*
X124416127Y-157382468D01*
X124407368Y-157391046D01*
X124288222Y-157533039D01*
X124281292Y-157543159D01*
X124191998Y-157705585D01*
X124187166Y-157716858D01*
X124131120Y-157893538D01*
X124128570Y-157905532D01*
X124112393Y-158049761D01*
X124112000Y-158056785D01*
X124112000Y-158137885D01*
X117488000Y-158137885D01*
X117488000Y-158063343D01*
X117487699Y-158057195D01*
X117474188Y-157919397D01*
X117471805Y-157907362D01*
X117418233Y-157729924D01*
X117413559Y-157718584D01*
X117326540Y-157554923D01*
X117319751Y-157544706D01*
X117202603Y-157401067D01*
X117193959Y-157392363D01*
X117051144Y-157274216D01*
X117040973Y-157267356D01*
X116877924Y-157179196D01*
X116866619Y-157174444D01*
X116751308Y-157138750D01*
X116737205Y-157138544D01*
X116734000Y-157145299D01*
X116734000Y-158137885D01*
X116226000Y-158137885D01*
X116226000Y-157152076D01*
X116222027Y-157138545D01*
X116214232Y-157137425D01*
X116106479Y-157169138D01*
X116095111Y-157173731D01*
X115930846Y-157259607D01*
X115920585Y-157266321D01*
X115776127Y-157382467D01*
X115770821Y-157387664D01*
X115708157Y-157421036D01*
X115637398Y-157415231D01*
X115581010Y-157372092D01*
X115556896Y-157305316D01*
X115563069Y-157257975D01*
X115595137Y-157161293D01*
X115598005Y-157147914D01*
X115607672Y-157053562D01*
X115608000Y-157047146D01*
X115608000Y-156947115D01*
X115603525Y-156931876D01*
X115602135Y-156930671D01*
X115594452Y-156929000D01*
X114472115Y-156929000D01*
X114456876Y-156933475D01*
X114455671Y-156934865D01*
X114454000Y-156942548D01*
X114454000Y-157323885D01*
X113946000Y-157323885D01*
X113946000Y-156547000D01*
X113966002Y-156478879D01*
X114019658Y-156432386D01*
X114072000Y-156421000D01*
X114958759Y-156421000D01*
X115026880Y-156441002D01*
X115035986Y-156447441D01*
X115039903Y-156450480D01*
X115039906Y-156450482D01*
X115046164Y-156455336D01*
X115053436Y-156458483D01*
X115053438Y-156458484D01*
X115088567Y-156473686D01*
X115099227Y-156478908D01*
X115129200Y-156495386D01*
X115139695Y-156501156D01*
X115160473Y-156506491D01*
X115179163Y-156512890D01*
X115198856Y-156521412D01*
X115233595Y-156526914D01*
X115244480Y-156528638D01*
X115256103Y-156531045D01*
X115280786Y-156537382D01*
X115300844Y-156542532D01*
X115322291Y-156542532D01*
X115342001Y-156544083D01*
X115363184Y-156547438D01*
X115409173Y-156543091D01*
X115421028Y-156542532D01*
X124993893Y-156542532D01*
X125005749Y-156543091D01*
X125005752Y-156543091D01*
X125013486Y-156544820D01*
X125084318Y-156542594D01*
X125088276Y-156542532D01*
X125117381Y-156542532D01*
X125121781Y-156541976D01*
X125133613Y-156541044D01*
X125179780Y-156539594D01*
X125200370Y-156533612D01*
X125219731Y-156529602D01*
X125227365Y-156528638D01*
X125233153Y-156527907D01*
X125233154Y-156527907D01*
X125241013Y-156526914D01*
X125248378Y-156523998D01*
X125248382Y-156523997D01*
X125283970Y-156509906D01*
X125295180Y-156506067D01*
X125339549Y-156493177D01*
X125358014Y-156482257D01*
X125375754Y-156473566D01*
X125395705Y-156465667D01*
X125433078Y-156438514D01*
X125442997Y-156431999D01*
X125475926Y-156412525D01*
X125475930Y-156412522D01*
X125482756Y-156408485D01*
X125497920Y-156393321D01*
X125512954Y-156380480D01*
X125514819Y-156379125D01*
X125530306Y-156367873D01*
X125559752Y-156332279D01*
X125567741Y-156323500D01*
X126707605Y-155183636D01*
X126716385Y-155175646D01*
X126716387Y-155175644D01*
X126723080Y-155171397D01*
X126735910Y-155157735D01*
X126771604Y-155119724D01*
X126774359Y-155116882D01*
X126794927Y-155096314D01*
X126797647Y-155092807D01*
X126805353Y-155083785D01*
X126824988Y-155062876D01*
X126836972Y-155050114D01*
X126840792Y-155043165D01*
X126845450Y-155036754D01*
X126847716Y-155038401D01*
X126888571Y-154997783D01*
X126957988Y-154982894D01*
X126995733Y-154991680D01*
X127078316Y-155024962D01*
X127089770Y-155028355D01*
X127286928Y-155066857D01*
X127295791Y-155067934D01*
X127298500Y-155068000D01*
X127527885Y-155068000D01*
X127543124Y-155063525D01*
X127544329Y-155062135D01*
X127546000Y-155054452D01*
X127546000Y-153832000D01*
X127566002Y-153763879D01*
X127619658Y-153717386D01*
X127672000Y-153706000D01*
X127928000Y-153706000D01*
X127996121Y-153726002D01*
G37*
%TD.AperFunction*%
%TA.AperFunction,Conductor*%
G36*
X103386510Y-153268533D02*
G01*
X103451829Y-153333739D01*
X103463240Y-153342751D01*
X103601243Y-153427816D01*
X103614424Y-153433963D01*
X103758065Y-153481607D01*
X103816424Y-153522038D01*
X103843661Y-153587602D01*
X103831127Y-153657484D01*
X103825657Y-153667316D01*
X103772368Y-153753767D01*
X103757885Y-153777262D01*
X103702203Y-153945139D01*
X103701503Y-153951975D01*
X103701502Y-153951978D01*
X103699390Y-153972591D01*
X103691500Y-154049600D01*
X103691500Y-154850050D01*
X103671498Y-154918171D01*
X103654595Y-154939145D01*
X103207395Y-155386345D01*
X103198615Y-155394335D01*
X103198613Y-155394337D01*
X103191920Y-155398584D01*
X103186494Y-155404362D01*
X103186493Y-155404363D01*
X103143396Y-155450257D01*
X103140641Y-155453099D01*
X103123095Y-155470645D01*
X103060783Y-155504671D01*
X102989968Y-155499606D01*
X102933132Y-155457059D01*
X102908321Y-155390539D01*
X102908000Y-155381550D01*
X102908000Y-155022115D01*
X102903525Y-155006876D01*
X102902135Y-155005671D01*
X102894452Y-155004000D01*
X101697000Y-155004000D01*
X101628879Y-154983998D01*
X101582386Y-154930342D01*
X101571000Y-154878000D01*
X101571000Y-154622000D01*
X101591002Y-154553879D01*
X101644658Y-154507386D01*
X101697000Y-154496000D01*
X102889884Y-154496000D01*
X102905123Y-154491525D01*
X102906328Y-154490135D01*
X102907999Y-154482452D01*
X102907999Y-154052905D01*
X102907662Y-154046386D01*
X102897743Y-153950794D01*
X102894851Y-153937400D01*
X102843412Y-153783216D01*
X102837239Y-153770038D01*
X102751937Y-153632193D01*
X102742901Y-153620792D01*
X102635596Y-153513673D01*
X102601517Y-153451390D01*
X102606520Y-153380570D01*
X102649018Y-153323697D01*
X102715516Y-153298829D01*
X102724614Y-153298500D01*
X103036502Y-153298500D01*
X103038950Y-153298307D01*
X103038958Y-153298307D01*
X103067421Y-153296067D01*
X103067426Y-153296066D01*
X103073831Y-153295562D01*
X103155630Y-153271797D01*
X103225992Y-153251356D01*
X103225995Y-153251355D01*
X103233601Y-153249145D01*
X103240421Y-153245112D01*
X103247452Y-153242069D01*
X103317913Y-153233372D01*
X103386510Y-153268533D01*
G37*
%TD.AperFunction*%
%TA.AperFunction,Conductor*%
G36*
X107965483Y-154861274D02*
G01*
X107997887Y-154924444D01*
X107999617Y-154942486D01*
X108007370Y-154946000D01*
X108245158Y-154946000D01*
X108309297Y-154963547D01*
X108386399Y-155009145D01*
X108394010Y-155011356D01*
X108394012Y-155011357D01*
X108432822Y-155022632D01*
X108546169Y-155055562D01*
X108552574Y-155056066D01*
X108552579Y-155056067D01*
X108581042Y-155058307D01*
X108581050Y-155058307D01*
X108583498Y-155058500D01*
X109290500Y-155058500D01*
X109358621Y-155078502D01*
X109405114Y-155132158D01*
X109416500Y-155184500D01*
X109416500Y-155215500D01*
X109396498Y-155283621D01*
X109342842Y-155330114D01*
X109290500Y-155341500D01*
X108583498Y-155341500D01*
X108581050Y-155341693D01*
X108581042Y-155341693D01*
X108552579Y-155343933D01*
X108552574Y-155343934D01*
X108546169Y-155344438D01*
X108446231Y-155373472D01*
X108394012Y-155388643D01*
X108394010Y-155388644D01*
X108386399Y-155390855D01*
X108359864Y-155406548D01*
X108309297Y-155436453D01*
X108245158Y-155454000D01*
X108013122Y-155454000D01*
X107969659Y-155466762D01*
X107898663Y-155466762D01*
X107838937Y-155428378D01*
X107827017Y-155412170D01*
X107816325Y-155394892D01*
X107773478Y-155325652D01*
X107753666Y-155305874D01*
X107653486Y-155205869D01*
X107648303Y-155200695D01*
X107643765Y-155197898D01*
X107603176Y-155140647D01*
X107599946Y-155069724D01*
X107635572Y-155008313D01*
X107644068Y-155000938D01*
X107654207Y-154992902D01*
X107768739Y-154878171D01*
X107775232Y-154869949D01*
X107833148Y-154828884D01*
X107904071Y-154825650D01*
X107965483Y-154861274D01*
G37*
%TD.AperFunction*%
%TA.AperFunction,Conductor*%
G36*
X117277447Y-153996002D02*
G01*
X117323940Y-154049658D01*
X117334044Y-154119932D01*
X117304550Y-154184512D01*
X117295899Y-154193548D01*
X117278540Y-154209964D01*
X117271515Y-154216607D01*
X117267683Y-154222245D01*
X117267680Y-154222249D01*
X117182557Y-154347503D01*
X117169723Y-154366388D01*
X117154362Y-154404794D01*
X117110495Y-154460613D01*
X117037374Y-154484000D01*
X116352000Y-154484000D01*
X116283879Y-154463998D01*
X116237386Y-154410342D01*
X116226000Y-154358000D01*
X116226000Y-154102000D01*
X116246002Y-154033879D01*
X116299658Y-153987386D01*
X116352000Y-153976000D01*
X117209326Y-153976000D01*
X117277447Y-153996002D01*
G37*
%TD.AperFunction*%
%TA.AperFunction,Conductor*%
G36*
X125986567Y-151678502D02*
G01*
X126016636Y-151705734D01*
X126019929Y-151711055D01*
X126139947Y-151830864D01*
X126284308Y-151919849D01*
X126291256Y-151922154D01*
X126291257Y-151922154D01*
X126438738Y-151971072D01*
X126438740Y-151971072D01*
X126445269Y-151973238D01*
X126467523Y-151975518D01*
X126533251Y-152002359D01*
X126574033Y-152060473D01*
X126576923Y-152131411D01*
X126543777Y-152189957D01*
X125892395Y-152841339D01*
X125883612Y-152849331D01*
X125876920Y-152853578D01*
X125871498Y-152859352D01*
X125870781Y-152859945D01*
X125805542Y-152887953D01*
X125735518Y-152876244D01*
X125710154Y-152859943D01*
X125691144Y-152844216D01*
X125680973Y-152837356D01*
X125517924Y-152749196D01*
X125506619Y-152744444D01*
X125391308Y-152708750D01*
X125377205Y-152708544D01*
X125374000Y-152715299D01*
X125374000Y-154358000D01*
X125353998Y-154426121D01*
X125300342Y-154472614D01*
X125248000Y-154484000D01*
X124562757Y-154484000D01*
X124494636Y-154463998D01*
X124451300Y-154416765D01*
X124421764Y-154360745D01*
X124385078Y-154291164D01*
X124380673Y-154285951D01*
X124380670Y-154285947D01*
X124293949Y-154183328D01*
X124265257Y-154118387D01*
X124276230Y-154048244D01*
X124323383Y-153995167D01*
X124390187Y-153976000D01*
X124847885Y-153976000D01*
X124863124Y-153971525D01*
X124864329Y-153970135D01*
X124866000Y-153962452D01*
X124866000Y-153587115D01*
X124861525Y-153571876D01*
X124860135Y-153570671D01*
X124852452Y-153569000D01*
X124184500Y-153569000D01*
X124116379Y-153548998D01*
X124069886Y-153495342D01*
X124058500Y-153443000D01*
X124058500Y-153083137D01*
X124078502Y-153015016D01*
X124132158Y-152968523D01*
X124202432Y-152958419D01*
X124267012Y-152987913D01*
X124305396Y-153047639D01*
X124308475Y-153058124D01*
X124309865Y-153059329D01*
X124317548Y-153061000D01*
X124847885Y-153061000D01*
X124863124Y-153056525D01*
X124864329Y-153055135D01*
X124866000Y-153047452D01*
X124866000Y-152722076D01*
X124863103Y-152712210D01*
X124857999Y-152676712D01*
X124857999Y-152545331D01*
X124857629Y-152538510D01*
X124852105Y-152487648D01*
X124848479Y-152472396D01*
X124803324Y-152351946D01*
X124794786Y-152336351D01*
X124718285Y-152234276D01*
X124717219Y-152233210D01*
X124716502Y-152231896D01*
X124712904Y-152227096D01*
X124713597Y-152226577D01*
X124683193Y-152170898D01*
X124688258Y-152100083D01*
X124717218Y-152055020D01*
X125076834Y-151695404D01*
X125139145Y-151661380D01*
X125165928Y-151658500D01*
X125918446Y-151658500D01*
X125986567Y-151678502D01*
G37*
%TD.AperFunction*%
%TA.AperFunction,Conductor*%
G36*
X105522663Y-150569644D02*
G01*
X105554483Y-150633110D01*
X105556500Y-150655563D01*
X105556500Y-150860400D01*
X105556837Y-150863646D01*
X105556837Y-150863650D01*
X105565696Y-150949027D01*
X105567474Y-150966166D01*
X105569655Y-150972702D01*
X105569655Y-150972704D01*
X105601359Y-151067732D01*
X105623450Y-151133946D01*
X105627306Y-151140177D01*
X105664974Y-151201048D01*
X105683812Y-151269500D01*
X105662651Y-151337270D01*
X105608210Y-151382841D01*
X105537774Y-151391745D01*
X105518163Y-151386944D01*
X105391293Y-151344863D01*
X105377914Y-151341995D01*
X105283562Y-151332328D01*
X105277145Y-151332000D01*
X104852115Y-151332000D01*
X104836876Y-151336475D01*
X104835671Y-151337865D01*
X104834000Y-151345548D01*
X104834000Y-152142885D01*
X104838475Y-152158124D01*
X104839865Y-152159329D01*
X104847548Y-152161000D01*
X105936865Y-152161000D01*
X106004986Y-152181002D01*
X106019377Y-152191775D01*
X106033865Y-152204329D01*
X106041548Y-152206000D01*
X107802193Y-152206000D01*
X107845061Y-152215111D01*
X107845400Y-152214068D01*
X107851680Y-152216108D01*
X107857712Y-152218794D01*
X107951112Y-152238647D01*
X108038056Y-152257128D01*
X108038061Y-152257128D01*
X108044513Y-152258500D01*
X108235487Y-152258500D01*
X108241939Y-152257128D01*
X108241944Y-152257128D01*
X108328888Y-152238647D01*
X108422288Y-152218794D01*
X108428315Y-152216111D01*
X108428323Y-152216108D01*
X108561322Y-152156893D01*
X108612570Y-152146000D01*
X109478000Y-152146000D01*
X109546121Y-152166002D01*
X109592614Y-152219658D01*
X109604000Y-152272000D01*
X109604000Y-152528000D01*
X109583998Y-152596121D01*
X109530342Y-152642614D01*
X109478000Y-152654000D01*
X108460116Y-152654000D01*
X108409678Y-152668810D01*
X108347983Y-152671160D01*
X108261953Y-152652873D01*
X108261940Y-152652872D01*
X108255487Y-152651500D01*
X108064513Y-152651500D01*
X108058061Y-152652872D01*
X108058056Y-152652872D01*
X107983076Y-152668810D01*
X107877712Y-152691206D01*
X107871682Y-152693891D01*
X107871681Y-152693891D01*
X107850982Y-152703107D01*
X107799733Y-152714000D01*
X107062115Y-152714000D01*
X107046876Y-152718475D01*
X107045671Y-152719865D01*
X107044000Y-152727548D01*
X107044000Y-153392570D01*
X107023998Y-153460691D01*
X106970342Y-153507184D01*
X106957219Y-153512079D01*
X106955671Y-153513865D01*
X106954000Y-153521548D01*
X106954000Y-154278000D01*
X106933998Y-154346121D01*
X106880342Y-154392614D01*
X106828000Y-154404000D01*
X106572000Y-154404000D01*
X106503879Y-154383998D01*
X106457386Y-154330342D01*
X106446000Y-154278000D01*
X106446000Y-153217430D01*
X106466002Y-153149309D01*
X106519658Y-153102816D01*
X106532781Y-153097921D01*
X106534329Y-153096135D01*
X106536000Y-153088452D01*
X106536000Y-152732115D01*
X106531525Y-152716876D01*
X106530135Y-152715671D01*
X106522452Y-152714000D01*
X105608135Y-152714000D01*
X105540014Y-152693998D01*
X105525623Y-152683225D01*
X105511135Y-152670671D01*
X105503452Y-152669000D01*
X104452000Y-152669000D01*
X104383879Y-152648998D01*
X104337386Y-152595342D01*
X104326000Y-152543000D01*
X104326000Y-151350116D01*
X104321525Y-151334877D01*
X104320135Y-151333672D01*
X104312452Y-151332001D01*
X103947740Y-151332001D01*
X103879619Y-151311999D01*
X103833126Y-151258343D01*
X103823022Y-151188069D01*
X103852516Y-151123489D01*
X103861928Y-151114574D01*
X103861807Y-151114453D01*
X103876971Y-151099289D01*
X103892005Y-151086448D01*
X103902943Y-151078501D01*
X103909357Y-151073841D01*
X103938803Y-151038247D01*
X103946792Y-151029468D01*
X104390855Y-150585405D01*
X104453167Y-150551379D01*
X104479950Y-150548500D01*
X105280400Y-150548500D01*
X105283646Y-150548163D01*
X105283650Y-150548163D01*
X105379308Y-150538238D01*
X105379312Y-150538237D01*
X105386166Y-150537526D01*
X105392703Y-150535345D01*
X105399445Y-150533889D01*
X105399837Y-150535702D01*
X105461581Y-150533457D01*
X105522663Y-150569644D01*
G37*
%TD.AperFunction*%
%TA.AperFunction,Conductor*%
G36*
X111235094Y-149107777D02*
G01*
X111291727Y-149150594D01*
X111316220Y-149217232D01*
X111316500Y-149225622D01*
X111316500Y-149398732D01*
X111327113Y-149501019D01*
X111329295Y-149507559D01*
X111378538Y-149655156D01*
X111381244Y-149663268D01*
X111385096Y-149669492D01*
X111385096Y-149669493D01*
X111438956Y-149756529D01*
X111471248Y-149808713D01*
X111476430Y-149813886D01*
X111480977Y-149819623D01*
X111479170Y-149821055D01*
X111507902Y-149873575D01*
X111502892Y-149944395D01*
X111479501Y-149980853D01*
X111480552Y-149981683D01*
X111467002Y-149998840D01*
X111384996Y-150131880D01*
X111378849Y-150145061D01*
X111329509Y-150293814D01*
X111326642Y-150307190D01*
X111317328Y-150398097D01*
X111317071Y-150403126D01*
X111321475Y-150418124D01*
X111322865Y-150419329D01*
X111330548Y-150421000D01*
X112428000Y-150421000D01*
X112496121Y-150441002D01*
X112542614Y-150494658D01*
X112554000Y-150547000D01*
X112554000Y-151614885D01*
X112558475Y-151630124D01*
X112559865Y-151631329D01*
X112567548Y-151633000D01*
X112595438Y-151633000D01*
X112601953Y-151632663D01*
X112694057Y-151623106D01*
X112707456Y-151620212D01*
X112856107Y-151570619D01*
X112869286Y-151564445D01*
X113002173Y-151482212D01*
X113013574Y-151473176D01*
X113123986Y-151362571D01*
X113133000Y-151351157D01*
X113164489Y-151300072D01*
X113217260Y-151252578D01*
X113287332Y-151241154D01*
X113352456Y-151269428D01*
X113391582Y-151327251D01*
X113425473Y-151431556D01*
X113520960Y-151596944D01*
X113525378Y-151601851D01*
X113525379Y-151601852D01*
X113620848Y-151707881D01*
X113648747Y-151738866D01*
X113724632Y-151794000D01*
X113785950Y-151838550D01*
X113803248Y-151851118D01*
X113809276Y-151853802D01*
X113809278Y-151853803D01*
X113962798Y-151922154D01*
X113977712Y-151928794D01*
X114045454Y-151943193D01*
X114158056Y-151967128D01*
X114158061Y-151967128D01*
X114164513Y-151968500D01*
X114355487Y-151968500D01*
X114361939Y-151967128D01*
X114361944Y-151967128D01*
X114474546Y-151943193D01*
X114542288Y-151928794D01*
X114548315Y-151926111D01*
X114548323Y-151926108D01*
X114590831Y-151907182D01*
X114661198Y-151897748D01*
X114723138Y-151926751D01*
X114723272Y-151926581D01*
X114724010Y-151927160D01*
X114725495Y-151927855D01*
X114728502Y-151930682D01*
X114729243Y-151931263D01*
X114734619Y-151936639D01*
X114741121Y-151940576D01*
X114741120Y-151940576D01*
X114782443Y-151965602D01*
X114830350Y-152017999D01*
X114842323Y-152087979D01*
X114814562Y-152153323D01*
X114806267Y-152162473D01*
X114364145Y-152604595D01*
X114301833Y-152638621D01*
X114275050Y-152641500D01*
X113499600Y-152641500D01*
X113496354Y-152641837D01*
X113496350Y-152641837D01*
X113400692Y-152651762D01*
X113400688Y-152651763D01*
X113393834Y-152652474D01*
X113387298Y-152654655D01*
X113387296Y-152654655D01*
X113269372Y-152693998D01*
X113226054Y-152708450D01*
X113075652Y-152801522D01*
X112950695Y-152926697D01*
X112946855Y-152932927D01*
X112946854Y-152932928D01*
X112870668Y-153056525D01*
X112857885Y-153077262D01*
X112836823Y-153140761D01*
X112804703Y-153237603D01*
X112802203Y-153245139D01*
X112791500Y-153349600D01*
X112791500Y-153768712D01*
X112771498Y-153836833D01*
X112717842Y-153883326D01*
X112647568Y-153893430D01*
X112582988Y-153863936D01*
X112557047Y-153832851D01*
X112478491Y-153700020D01*
X112478489Y-153700017D01*
X112474453Y-153693193D01*
X112356807Y-153575547D01*
X112349983Y-153571511D01*
X112349980Y-153571509D01*
X112230239Y-153500695D01*
X112213601Y-153490855D01*
X112186846Y-153483082D01*
X112127011Y-153444868D01*
X112097334Y-153380372D01*
X112096000Y-153362085D01*
X112096000Y-152919556D01*
X112096559Y-152907700D01*
X112096559Y-152907697D01*
X112098288Y-152899963D01*
X112096062Y-152829131D01*
X112096000Y-152825173D01*
X112096000Y-152796068D01*
X112095444Y-152791668D01*
X112094512Y-152779830D01*
X112094466Y-152778342D01*
X112093062Y-152733669D01*
X112087080Y-152713079D01*
X112083070Y-152693716D01*
X112081375Y-152680296D01*
X112081375Y-152680295D01*
X112080382Y-152672436D01*
X112077466Y-152665071D01*
X112077465Y-152665067D01*
X112063376Y-152629482D01*
X112059531Y-152618253D01*
X112048856Y-152581510D01*
X112046645Y-152573899D01*
X112035730Y-152555443D01*
X112027031Y-152537687D01*
X112026682Y-152536807D01*
X112019135Y-152517744D01*
X111991980Y-152480368D01*
X111985465Y-152470449D01*
X111965992Y-152437523D01*
X111965989Y-152437519D01*
X111961952Y-152430693D01*
X111946791Y-152415532D01*
X111933951Y-152400499D01*
X111932564Y-152398590D01*
X111908705Y-152331722D01*
X111908499Y-152324528D01*
X111908499Y-152068366D01*
X111907357Y-152055930D01*
X111902999Y-152008500D01*
X111901753Y-151994938D01*
X111899754Y-151988559D01*
X111852744Y-151838550D01*
X111852743Y-151838548D01*
X111850472Y-151831301D01*
X111843511Y-151819807D01*
X111825332Y-151751178D01*
X111847142Y-151683614D01*
X111902018Y-151638568D01*
X111964129Y-151629192D01*
X111998097Y-151632672D01*
X112004513Y-151633000D01*
X112027885Y-151633000D01*
X112043124Y-151628525D01*
X112044329Y-151627135D01*
X112046000Y-151619452D01*
X112046000Y-150947115D01*
X112041525Y-150931876D01*
X112040135Y-150930671D01*
X112032452Y-150929000D01*
X111335115Y-150929000D01*
X111319876Y-150933475D01*
X111318671Y-150934865D01*
X111317000Y-150942548D01*
X111317000Y-150945438D01*
X111317337Y-150951953D01*
X111326894Y-151044057D01*
X111329788Y-151057456D01*
X111379381Y-151206107D01*
X111385552Y-151219281D01*
X111389742Y-151226051D01*
X111408580Y-151294503D01*
X111387419Y-151362272D01*
X111332979Y-151407844D01*
X111271073Y-151417827D01*
X111256635Y-151416500D01*
X111237549Y-151416500D01*
X110818403Y-151416501D01*
X110750282Y-151396499D01*
X110703789Y-151342844D01*
X110693685Y-151272570D01*
X110711142Y-151224387D01*
X110715003Y-151218123D01*
X110721151Y-151204939D01*
X110770491Y-151056186D01*
X110773358Y-151042810D01*
X110782672Y-150951903D01*
X110782929Y-150946874D01*
X110778525Y-150931876D01*
X110777135Y-150930671D01*
X110769452Y-150929000D01*
X109672000Y-150929000D01*
X109603879Y-150908998D01*
X109557386Y-150855342D01*
X109546000Y-150803000D01*
X109546000Y-150547000D01*
X109566002Y-150478879D01*
X109619658Y-150432386D01*
X109672000Y-150421000D01*
X110764885Y-150421000D01*
X110780124Y-150416525D01*
X110781329Y-150415135D01*
X110783000Y-150407452D01*
X110783000Y-150404562D01*
X110782662Y-150398038D01*
X110773106Y-150305943D01*
X110770212Y-150292544D01*
X110720619Y-150143893D01*
X110714445Y-150130714D01*
X110632212Y-149997827D01*
X110618629Y-149980689D01*
X110620559Y-149979159D01*
X110592097Y-149927120D01*
X110597113Y-149856301D01*
X110620799Y-149819383D01*
X110619843Y-149818628D01*
X110624381Y-149812882D01*
X110629552Y-149807702D01*
X110637033Y-149795566D01*
X110715462Y-149668331D01*
X110715463Y-149668329D01*
X110719302Y-149662101D01*
X110773149Y-149499757D01*
X110774413Y-149487426D01*
X110780005Y-149432846D01*
X110783500Y-149398732D01*
X110783500Y-149229872D01*
X110803502Y-149161751D01*
X110857158Y-149115258D01*
X110927432Y-149105154D01*
X110935690Y-149106625D01*
X110944513Y-149108500D01*
X111135487Y-149108500D01*
X111141939Y-149107128D01*
X111141944Y-149107128D01*
X111164303Y-149102375D01*
X111235094Y-149107777D01*
G37*
%TD.AperFunction*%
%TA.AperFunction,Conductor*%
G36*
X129446707Y-151553071D02*
G01*
X129486207Y-151612065D01*
X129492000Y-151649830D01*
X129492000Y-153543057D01*
X129471998Y-153611178D01*
X129418342Y-153657671D01*
X129348068Y-153667775D01*
X129283488Y-153638281D01*
X129251299Y-153595208D01*
X129167371Y-153410618D01*
X129161424Y-153400276D01*
X129046032Y-153237603D01*
X129038239Y-153228575D01*
X128894169Y-153090658D01*
X128884804Y-153083262D01*
X128717259Y-152975079D01*
X128706655Y-152969583D01*
X128521688Y-152895039D01*
X128510230Y-152891645D01*
X128313072Y-152853143D01*
X128304209Y-152852066D01*
X128301500Y-152852000D01*
X128048444Y-152852000D01*
X127980323Y-152831998D01*
X127933830Y-152778342D01*
X127923726Y-152708068D01*
X127953220Y-152643488D01*
X127959349Y-152636905D01*
X128576415Y-152019839D01*
X128638727Y-151985813D01*
X128654592Y-151983692D01*
X128654572Y-151983500D01*
X128755982Y-151972978D01*
X128916849Y-151919308D01*
X129061055Y-151830071D01*
X129180864Y-151710053D01*
X129185609Y-151702356D01*
X129258740Y-151583714D01*
X129311512Y-151536221D01*
X129381583Y-151524797D01*
X129446707Y-151553071D01*
G37*
%TD.AperFunction*%
%TA.AperFunction,Conductor*%
G36*
X117459532Y-152972825D02*
G01*
X117516368Y-153015372D01*
X117541179Y-153081892D01*
X117541500Y-153090881D01*
X117541500Y-153443000D01*
X117521498Y-153511121D01*
X117467842Y-153557614D01*
X117415500Y-153569000D01*
X116828000Y-153569000D01*
X116759879Y-153548998D01*
X116713386Y-153495342D01*
X116702000Y-153443000D01*
X116702000Y-153187000D01*
X116722002Y-153118879D01*
X116775658Y-153072386D01*
X116828000Y-153061000D01*
X117277885Y-153061000D01*
X117293124Y-153056525D01*
X117302290Y-153045947D01*
X117326404Y-153001786D01*
X117388716Y-152967761D01*
X117459532Y-152972825D01*
G37*
%TD.AperFunction*%
%TA.AperFunction,Conductor*%
G36*
X120840037Y-145741494D02*
G01*
X120891337Y-145772597D01*
X122058722Y-146939982D01*
X122092748Y-147002294D01*
X122087683Y-147073109D01*
X122045136Y-147129945D01*
X121979515Y-147154688D01*
X121968313Y-147155570D01*
X121958554Y-147157115D01*
X121737373Y-147210217D01*
X121727988Y-147213266D01*
X121517837Y-147300313D01*
X121509042Y-147304795D01*
X121341555Y-147407432D01*
X121332093Y-147417890D01*
X121335876Y-147426666D01*
X123420290Y-149511080D01*
X123458648Y-149532026D01*
X123494072Y-149560782D01*
X123580607Y-149662101D01*
X123630031Y-149719969D01*
X123810584Y-149874176D01*
X123814792Y-149876755D01*
X123814798Y-149876759D01*
X124004489Y-149993002D01*
X124013037Y-149998240D01*
X124017607Y-150000133D01*
X124017611Y-150000135D01*
X124227833Y-150087211D01*
X124232406Y-150089105D01*
X124312609Y-150108360D01*
X124458476Y-150143380D01*
X124458482Y-150143381D01*
X124463289Y-150144535D01*
X124537878Y-150150405D01*
X124604219Y-150175690D01*
X124646359Y-150232828D01*
X124650918Y-150303678D01*
X124616449Y-150365746D01*
X124580611Y-150389916D01*
X124577378Y-150390855D01*
X124558913Y-150401775D01*
X124541173Y-150410466D01*
X124521222Y-150418365D01*
X124484314Y-150445180D01*
X124483852Y-150445516D01*
X124473930Y-150452033D01*
X124441001Y-150471507D01*
X124440997Y-150471510D01*
X124434171Y-150475547D01*
X124419007Y-150490711D01*
X124403974Y-150503551D01*
X124386621Y-150516159D01*
X124362647Y-150545139D01*
X124357176Y-150551752D01*
X124349186Y-150560532D01*
X122863058Y-152046660D01*
X122800746Y-152080686D01*
X122760356Y-152082828D01*
X122748134Y-152081500D01*
X122351866Y-152081500D01*
X122348471Y-152081869D01*
X122348467Y-152081869D01*
X122322469Y-152084693D01*
X122313606Y-152085656D01*
X122286394Y-152085656D01*
X122277531Y-152084693D01*
X122251533Y-152081869D01*
X122251529Y-152081869D01*
X122248134Y-152081500D01*
X122233075Y-152081500D01*
X122164954Y-152061498D01*
X122131139Y-152029562D01*
X122104475Y-151992862D01*
X122097967Y-151982952D01*
X122078493Y-151950023D01*
X122078490Y-151950019D01*
X122074453Y-151943193D01*
X122059289Y-151928029D01*
X122046448Y-151912995D01*
X122038501Y-151902057D01*
X122033841Y-151895643D01*
X121998247Y-151866197D01*
X121989468Y-151858208D01*
X121923655Y-151792395D01*
X121915665Y-151783615D01*
X121915663Y-151783613D01*
X121911416Y-151776920D01*
X121884004Y-151751178D01*
X121859743Y-151728396D01*
X121856901Y-151725641D01*
X121836333Y-151705073D01*
X121832826Y-151702353D01*
X121823804Y-151694647D01*
X121813125Y-151684619D01*
X121790133Y-151663028D01*
X121783181Y-151659206D01*
X121771342Y-151652697D01*
X121754818Y-151641843D01*
X121744132Y-151633555D01*
X121737868Y-151628696D01*
X121730596Y-151625549D01*
X121730594Y-151625548D01*
X121695465Y-151610346D01*
X121684805Y-151605124D01*
X121651284Y-151586695D01*
X121651282Y-151586694D01*
X121644337Y-151582876D01*
X121623559Y-151577541D01*
X121604869Y-151571142D01*
X121585176Y-151562620D01*
X121539552Y-151555394D01*
X121527929Y-151552987D01*
X121499928Y-151545798D01*
X121483188Y-151541500D01*
X121461741Y-151541500D01*
X121442031Y-151539949D01*
X121420848Y-151536594D01*
X121374859Y-151540941D01*
X121363004Y-151541500D01*
X121024949Y-151541500D01*
X120956828Y-151521498D01*
X120935854Y-151504595D01*
X119795390Y-150364130D01*
X119761364Y-150301818D01*
X119766429Y-150231002D01*
X119808976Y-150174167D01*
X119874599Y-150149423D01*
X119936711Y-150144535D01*
X119941518Y-150143381D01*
X119941524Y-150143380D01*
X120087391Y-150108360D01*
X120167594Y-150089105D01*
X120172167Y-150087211D01*
X120382389Y-150000135D01*
X120382393Y-150000133D01*
X120386963Y-149998240D01*
X120395511Y-149993002D01*
X120575556Y-149882670D01*
X121332160Y-149882670D01*
X121337887Y-149890320D01*
X121509042Y-149995205D01*
X121517837Y-149999687D01*
X121727988Y-150086734D01*
X121737373Y-150089783D01*
X121958554Y-150142885D01*
X121968301Y-150144428D01*
X122195070Y-150162275D01*
X122204930Y-150162275D01*
X122431699Y-150144428D01*
X122441446Y-150142885D01*
X122662627Y-150089783D01*
X122672012Y-150086734D01*
X122882163Y-149999687D01*
X122890958Y-149995205D01*
X123058445Y-149892568D01*
X123067907Y-149882110D01*
X123064124Y-149873334D01*
X122212812Y-149022022D01*
X122198868Y-149014408D01*
X122197035Y-149014539D01*
X122190420Y-149018790D01*
X121338920Y-149870290D01*
X121332160Y-149882670D01*
X120575556Y-149882670D01*
X120585202Y-149876759D01*
X120585208Y-149876755D01*
X120589416Y-149874176D01*
X120769969Y-149719969D01*
X120908753Y-149557474D01*
X120954686Y-149523598D01*
X120976668Y-149514122D01*
X121827978Y-148662812D01*
X121835592Y-148648868D01*
X121835461Y-148647035D01*
X121831210Y-148640420D01*
X120979710Y-147788920D01*
X120941352Y-147767974D01*
X120905928Y-147739218D01*
X120773177Y-147583787D01*
X120769969Y-147580031D01*
X120589416Y-147425824D01*
X120585201Y-147423241D01*
X120585193Y-147423235D01*
X120418665Y-147321186D01*
X120371034Y-147268539D01*
X120358500Y-147213754D01*
X120358500Y-147194355D01*
X120357944Y-147189955D01*
X120357012Y-147178117D01*
X120356921Y-147175196D01*
X120355562Y-147131956D01*
X120349580Y-147111366D01*
X120345570Y-147092003D01*
X120343875Y-147078583D01*
X120343875Y-147078582D01*
X120342882Y-147070723D01*
X120339966Y-147063358D01*
X120339965Y-147063354D01*
X120325874Y-147027766D01*
X120322035Y-147016556D01*
X120309145Y-146972187D01*
X120298229Y-146953730D01*
X120289534Y-146935980D01*
X120281635Y-146916031D01*
X120276976Y-146909618D01*
X120254477Y-146878651D01*
X120247960Y-146868730D01*
X120224452Y-146828980D01*
X120209291Y-146813819D01*
X120196449Y-146798784D01*
X120183841Y-146781430D01*
X120148241Y-146751979D01*
X120139462Y-146743990D01*
X119585275Y-146189803D01*
X119551249Y-146127491D01*
X119556314Y-146056676D01*
X119598861Y-145999840D01*
X119665381Y-145975029D01*
X119725618Y-145985601D01*
X119771677Y-146006108D01*
X119771685Y-146006111D01*
X119777712Y-146008794D01*
X119853033Y-146024804D01*
X119958056Y-146047128D01*
X119958061Y-146047128D01*
X119964513Y-146048500D01*
X120155487Y-146048500D01*
X120161939Y-146047128D01*
X120161944Y-146047128D01*
X120266967Y-146024804D01*
X120342288Y-146008794D01*
X120379730Y-145992124D01*
X120510722Y-145933803D01*
X120510724Y-145933802D01*
X120516752Y-145931118D01*
X120671253Y-145818866D01*
X120708607Y-145777381D01*
X120769053Y-145740142D01*
X120840037Y-145741494D01*
G37*
%TD.AperFunction*%
%TA.AperFunction,Conductor*%
G36*
X101527720Y-151255071D02*
G01*
X101532585Y-151258845D01*
X101538193Y-151264453D01*
X101545017Y-151268489D01*
X101545020Y-151268491D01*
X101644378Y-151327251D01*
X101681399Y-151349145D01*
X101689010Y-151351356D01*
X101689012Y-151351357D01*
X101726583Y-151362272D01*
X101841169Y-151395562D01*
X101847574Y-151396066D01*
X101847579Y-151396067D01*
X101876042Y-151398307D01*
X101876050Y-151398307D01*
X101878498Y-151398500D01*
X103036502Y-151398500D01*
X103038950Y-151398307D01*
X103038958Y-151398307D01*
X103067421Y-151396067D01*
X103067426Y-151396066D01*
X103073831Y-151395562D01*
X103188417Y-151362272D01*
X103225988Y-151351357D01*
X103225990Y-151351356D01*
X103233601Y-151349145D01*
X103268874Y-151328284D01*
X103337689Y-151310826D01*
X103405020Y-151333343D01*
X103449489Y-151388688D01*
X103456977Y-151459288D01*
X103422184Y-151525757D01*
X103336259Y-151611831D01*
X103327249Y-151623240D01*
X103307088Y-151655948D01*
X103254317Y-151703442D01*
X103184245Y-151714866D01*
X103164676Y-151710830D01*
X103080011Y-151686233D01*
X103080007Y-151686232D01*
X103073831Y-151684438D01*
X103067426Y-151683934D01*
X103067421Y-151683933D01*
X103038958Y-151681693D01*
X103038950Y-151681693D01*
X103036502Y-151681500D01*
X101878498Y-151681500D01*
X101876050Y-151681693D01*
X101876042Y-151681693D01*
X101847579Y-151683933D01*
X101847574Y-151683934D01*
X101841169Y-151684438D01*
X101766129Y-151706239D01*
X101689012Y-151728643D01*
X101689010Y-151728644D01*
X101681399Y-151730855D01*
X101538193Y-151815547D01*
X101532584Y-151821156D01*
X101527114Y-151825399D01*
X101461029Y-151851346D01*
X101391406Y-151837445D01*
X101349884Y-151799554D01*
X101337630Y-151794000D01*
X101099842Y-151794000D01*
X101035703Y-151776453D01*
X100992965Y-151751178D01*
X100958601Y-151730855D01*
X100950990Y-151728644D01*
X100950988Y-151728643D01*
X100873871Y-151706239D01*
X100798831Y-151684438D01*
X100792426Y-151683934D01*
X100792421Y-151683933D01*
X100763958Y-151681693D01*
X100763950Y-151681693D01*
X100761502Y-151681500D01*
X100054500Y-151681500D01*
X99986379Y-151661498D01*
X99939886Y-151607842D01*
X99928500Y-151555500D01*
X99928500Y-151549943D01*
X99948502Y-151481822D01*
X99965405Y-151460848D01*
X99990848Y-151435405D01*
X100053160Y-151401379D01*
X100079943Y-151398500D01*
X100761502Y-151398500D01*
X100763950Y-151398307D01*
X100763958Y-151398307D01*
X100792421Y-151396067D01*
X100792426Y-151396066D01*
X100798831Y-151395562D01*
X100913417Y-151362272D01*
X100950988Y-151351357D01*
X100950990Y-151351356D01*
X100958601Y-151349145D01*
X101000142Y-151324577D01*
X101035703Y-151303547D01*
X101099842Y-151286000D01*
X101331878Y-151286000D01*
X101347116Y-151281526D01*
X101355268Y-151272118D01*
X101414994Y-151233734D01*
X101485990Y-151233734D01*
X101527720Y-151255071D01*
G37*
%TD.AperFunction*%
%TA.AperFunction,Conductor*%
G36*
X73957012Y-140820859D02*
G01*
X73970311Y-140834253D01*
X73997603Y-140866208D01*
X73997608Y-140866213D01*
X74000816Y-140869969D01*
X74181369Y-141024176D01*
X74185577Y-141026755D01*
X74185583Y-141026759D01*
X74363752Y-141135941D01*
X74383822Y-141148240D01*
X74388392Y-141150133D01*
X74388396Y-141150135D01*
X74598618Y-141237211D01*
X74603191Y-141239105D01*
X74664263Y-141253767D01*
X74829261Y-141293380D01*
X74829267Y-141293381D01*
X74834074Y-141294535D01*
X75070785Y-141313165D01*
X75307496Y-141294535D01*
X75312303Y-141293381D01*
X75312309Y-141293380D01*
X75502225Y-141247785D01*
X75573133Y-141251332D01*
X75620734Y-141281209D01*
X77147126Y-142807600D01*
X77155116Y-142816381D01*
X77155124Y-142816390D01*
X77159369Y-142823080D01*
X77165144Y-142828503D01*
X77211059Y-142871620D01*
X77213901Y-142874375D01*
X77234452Y-142894926D01*
X77237586Y-142897357D01*
X77237948Y-142897638D01*
X77246976Y-142905348D01*
X77280652Y-142936972D01*
X77287603Y-142940793D01*
X77287604Y-142940794D01*
X77299440Y-142947301D01*
X77315968Y-142958157D01*
X77332916Y-142971304D01*
X77375330Y-142989659D01*
X77385968Y-142994871D01*
X77426448Y-143017124D01*
X77434125Y-143019095D01*
X77434130Y-143019097D01*
X77447211Y-143022455D01*
X77465919Y-143028860D01*
X77485608Y-143037380D01*
X77493434Y-143038619D01*
X77493436Y-143038620D01*
X77517944Y-143042501D01*
X77531244Y-143044608D01*
X77542855Y-143047012D01*
X77573892Y-143054981D01*
X77579920Y-143056529D01*
X77579921Y-143056529D01*
X77587597Y-143058500D01*
X77609043Y-143058500D01*
X77628753Y-143060051D01*
X77649936Y-143063406D01*
X77695925Y-143059059D01*
X77707780Y-143058500D01*
X84206749Y-143058500D01*
X84270889Y-143076047D01*
X84411399Y-143159145D01*
X84419010Y-143161356D01*
X84419012Y-143161357D01*
X84471231Y-143176528D01*
X84571169Y-143205562D01*
X84577574Y-143206066D01*
X84577579Y-143206067D01*
X84606042Y-143208307D01*
X84606050Y-143208307D01*
X84608498Y-143208500D01*
X85765500Y-143208500D01*
X85833621Y-143228502D01*
X85880114Y-143282158D01*
X85891500Y-143334500D01*
X85891500Y-143566502D01*
X85894438Y-143603831D01*
X85911699Y-143663244D01*
X85928991Y-143722763D01*
X85940855Y-143763601D01*
X85944892Y-143770427D01*
X86021509Y-143899980D01*
X86021511Y-143899983D01*
X86025547Y-143906807D01*
X86056267Y-143937527D01*
X86090293Y-143999839D01*
X86085228Y-144070654D01*
X86042681Y-144127490D01*
X86032443Y-144134398D01*
X85984619Y-144163361D01*
X85888741Y-144259239D01*
X85826429Y-144293265D01*
X85755614Y-144288200D01*
X85710551Y-144259239D01*
X85620443Y-144169131D01*
X85608574Y-144159824D01*
X85474988Y-144078921D01*
X85461243Y-144072715D01*
X85311356Y-144025744D01*
X85298306Y-144023131D01*
X85243414Y-144018087D01*
X85231876Y-144021475D01*
X85230671Y-144022865D01*
X85229000Y-144030548D01*
X85229000Y-145032557D01*
X85208998Y-145100678D01*
X85192095Y-145121652D01*
X85096652Y-145217095D01*
X85034340Y-145251121D01*
X85007557Y-145254000D01*
X84085116Y-145254000D01*
X84069877Y-145258475D01*
X84068672Y-145259865D01*
X84067001Y-145267548D01*
X84067001Y-145328705D01*
X84067264Y-145334454D01*
X84073132Y-145398315D01*
X84075743Y-145411351D01*
X84122715Y-145561243D01*
X84128921Y-145574988D01*
X84209825Y-145708575D01*
X84220226Y-145721839D01*
X84246523Y-145787786D01*
X84232991Y-145857481D01*
X84220230Y-145877339D01*
X84218737Y-145879243D01*
X84213361Y-145884619D01*
X84124528Y-146031301D01*
X84122257Y-146038548D01*
X84122256Y-146038550D01*
X84105976Y-146090500D01*
X84073247Y-146194938D01*
X84066500Y-146268365D01*
X84066501Y-146931634D01*
X84066764Y-146934492D01*
X84066764Y-146934501D01*
X84068531Y-146953733D01*
X84073247Y-147005062D01*
X84075246Y-147011440D01*
X84075246Y-147011441D01*
X84120898Y-147157115D01*
X84124528Y-147168699D01*
X84213361Y-147315381D01*
X84298505Y-147400525D01*
X84332531Y-147462837D01*
X84327466Y-147533652D01*
X84298583Y-147578638D01*
X84263138Y-147614145D01*
X84200695Y-147676697D01*
X84196855Y-147682927D01*
X84196854Y-147682928D01*
X84136011Y-147781634D01*
X84107885Y-147827262D01*
X84096547Y-147861446D01*
X84061334Y-147967611D01*
X84052203Y-147995139D01*
X84041500Y-148099600D01*
X84041500Y-149500400D01*
X84041837Y-149503646D01*
X84041837Y-149503650D01*
X84049921Y-149581556D01*
X84052474Y-149606166D01*
X84054655Y-149612702D01*
X84054655Y-149612704D01*
X84086066Y-149706854D01*
X84108450Y-149773946D01*
X84201522Y-149924348D01*
X84206704Y-149929521D01*
X84263109Y-149985828D01*
X84297188Y-150048111D01*
X84292185Y-150118931D01*
X84263264Y-150164019D01*
X84200695Y-150226697D01*
X84196855Y-150232927D01*
X84196854Y-150232928D01*
X84114984Y-150365746D01*
X84107885Y-150377262D01*
X84086744Y-150441002D01*
X84059528Y-150523056D01*
X84052203Y-150545139D01*
X84051503Y-150551975D01*
X84051502Y-150551978D01*
X84048077Y-150585405D01*
X84041500Y-150649600D01*
X84041500Y-151265500D01*
X84021498Y-151333621D01*
X83967842Y-151380114D01*
X83915500Y-151391500D01*
X81989500Y-151391500D01*
X81921379Y-151371498D01*
X81874886Y-151317842D01*
X81863500Y-151265500D01*
X81863500Y-150751866D01*
X81856745Y-150689684D01*
X81805615Y-150553295D01*
X81718261Y-150436739D01*
X81601705Y-150349385D01*
X81509063Y-150314655D01*
X81452299Y-150272013D01*
X81427599Y-150205452D01*
X81442806Y-150136103D01*
X81493092Y-150085985D01*
X81504630Y-150081094D01*
X81504528Y-150080869D01*
X81511449Y-150077744D01*
X81518699Y-150075472D01*
X81665381Y-149986639D01*
X81786639Y-149865381D01*
X81875472Y-149718699D01*
X81877981Y-149710695D01*
X81910738Y-149606166D01*
X81926753Y-149555062D01*
X81933500Y-149481635D01*
X81933499Y-149224950D01*
X81953501Y-149156831D01*
X81970404Y-149135856D01*
X82250855Y-148855405D01*
X82313167Y-148821379D01*
X82339950Y-148818500D01*
X82475487Y-148818500D01*
X82481939Y-148817128D01*
X82481944Y-148817128D01*
X82570586Y-148798286D01*
X82662288Y-148778794D01*
X82684951Y-148768704D01*
X82830722Y-148703803D01*
X82830724Y-148703802D01*
X82836752Y-148701118D01*
X82847264Y-148693481D01*
X82908668Y-148648868D01*
X82991253Y-148588866D01*
X82998215Y-148581134D01*
X83114621Y-148451852D01*
X83114622Y-148451851D01*
X83119040Y-148446944D01*
X83193728Y-148317581D01*
X83211223Y-148287279D01*
X83211224Y-148287278D01*
X83214527Y-148281556D01*
X83273542Y-148099928D01*
X83282080Y-148018699D01*
X83292814Y-147916565D01*
X83293504Y-147910000D01*
X83287592Y-147853751D01*
X83274232Y-147726635D01*
X83274232Y-147726633D01*
X83273542Y-147720072D01*
X83214527Y-147538444D01*
X83206567Y-147524656D01*
X83155298Y-147435856D01*
X83119040Y-147373056D01*
X83096616Y-147348151D01*
X82995675Y-147236045D01*
X82995674Y-147236044D01*
X82991253Y-147231134D01*
X82888694Y-147156620D01*
X82842094Y-147122763D01*
X82842093Y-147122762D01*
X82836752Y-147118882D01*
X82830724Y-147116198D01*
X82830722Y-147116197D01*
X82668319Y-147043891D01*
X82668318Y-147043891D01*
X82662288Y-147041206D01*
X82546207Y-147016532D01*
X82481944Y-147002872D01*
X82481939Y-147002872D01*
X82475487Y-147001500D01*
X82284513Y-147001500D01*
X82278061Y-147002872D01*
X82278056Y-147002872D01*
X82213793Y-147016532D01*
X82097712Y-147041206D01*
X82091682Y-147043891D01*
X82091681Y-147043891D01*
X82074726Y-147051440D01*
X82005024Y-147082473D01*
X81934658Y-147091907D01*
X81870361Y-147061801D01*
X81846000Y-147032637D01*
X81840799Y-147024048D01*
X81786639Y-146934619D01*
X81665381Y-146813361D01*
X81518699Y-146724528D01*
X81511452Y-146722257D01*
X81511450Y-146722256D01*
X81428895Y-146696385D01*
X81355062Y-146673247D01*
X81281635Y-146666500D01*
X81278737Y-146666500D01*
X80949140Y-146666501D01*
X80618366Y-146666501D01*
X80615508Y-146666764D01*
X80615499Y-146666764D01*
X80579996Y-146670026D01*
X80544938Y-146673247D01*
X80538560Y-146675246D01*
X80538559Y-146675246D01*
X80388550Y-146722256D01*
X80388548Y-146722257D01*
X80381301Y-146724528D01*
X80234619Y-146813361D01*
X80143385Y-146904595D01*
X80081073Y-146938621D01*
X80054290Y-146941500D01*
X77720710Y-146941500D01*
X77652589Y-146921498D01*
X77631615Y-146904595D01*
X77565381Y-146838361D01*
X77418699Y-146749528D01*
X77411452Y-146747257D01*
X77411450Y-146747256D01*
X77297540Y-146711559D01*
X77255062Y-146698247D01*
X77181635Y-146691500D01*
X76924950Y-146691500D01*
X76856829Y-146671498D01*
X76835855Y-146654595D01*
X74909145Y-144727885D01*
X84067000Y-144727885D01*
X84071475Y-144743124D01*
X84072865Y-144744329D01*
X84080548Y-144746000D01*
X84702885Y-144746000D01*
X84718124Y-144741525D01*
X84719329Y-144740135D01*
X84721000Y-144732452D01*
X84721000Y-144035116D01*
X84716525Y-144019877D01*
X84715135Y-144018672D01*
X84710706Y-144017709D01*
X84651685Y-144023132D01*
X84638649Y-144025743D01*
X84488757Y-144072715D01*
X84475012Y-144078921D01*
X84341426Y-144159824D01*
X84329557Y-144169131D01*
X84219131Y-144279557D01*
X84209824Y-144291426D01*
X84128921Y-144425012D01*
X84122715Y-144438757D01*
X84075744Y-144588644D01*
X84073131Y-144601694D01*
X84067266Y-144665521D01*
X84067000Y-144671309D01*
X84067000Y-144727885D01*
X74909145Y-144727885D01*
X73785405Y-143604145D01*
X73751379Y-143541833D01*
X73748500Y-143515050D01*
X73748500Y-140916083D01*
X73768502Y-140847962D01*
X73822158Y-140801469D01*
X73892432Y-140791365D01*
X73957012Y-140820859D01*
G37*
%TD.AperFunction*%
%TA.AperFunction,Conductor*%
G36*
X89528453Y-144671454D02*
G01*
X89541752Y-144683012D01*
X91546345Y-146687605D01*
X91554335Y-146696385D01*
X91558584Y-146703080D01*
X91564362Y-146708506D01*
X91564363Y-146708507D01*
X91610257Y-146751604D01*
X91613099Y-146754359D01*
X91616333Y-146757593D01*
X91650359Y-146819905D01*
X91645294Y-146890720D01*
X91602747Y-146947556D01*
X91536227Y-146972367D01*
X91485532Y-146964153D01*
X91485238Y-146965100D01*
X91448630Y-146953733D01*
X91281898Y-146901961D01*
X91109018Y-146881500D01*
X90985987Y-146881500D01*
X90900355Y-146889368D01*
X90833730Y-146895490D01*
X90833727Y-146895491D01*
X90827976Y-146896019D01*
X90822417Y-146897587D01*
X90822416Y-146897587D01*
X90628611Y-146952246D01*
X90628609Y-146952247D01*
X90623052Y-146953814D01*
X90617877Y-146956366D01*
X90617872Y-146956368D01*
X90473092Y-147027766D01*
X90432092Y-147047985D01*
X90261491Y-147175378D01*
X90116963Y-147331729D01*
X90003347Y-147511799D01*
X89924449Y-147709559D01*
X89923323Y-147715219D01*
X89923322Y-147715223D01*
X89885813Y-147903795D01*
X89882911Y-147918385D01*
X89882835Y-147924160D01*
X89882835Y-147924164D01*
X89881817Y-148001978D01*
X89880124Y-148131284D01*
X89881103Y-148136981D01*
X89881103Y-148136982D01*
X89913453Y-148325248D01*
X89916181Y-148341126D01*
X89989875Y-148540884D01*
X90047562Y-148637846D01*
X90084675Y-148700226D01*
X90098739Y-148723866D01*
X90239125Y-148883946D01*
X90406333Y-149015762D01*
X90411444Y-149018451D01*
X90411447Y-149018453D01*
X90484620Y-149056951D01*
X90594762Y-149114900D01*
X90600283Y-149116614D01*
X90600287Y-149116616D01*
X90702971Y-149148500D01*
X90798102Y-149178039D01*
X90970982Y-149198500D01*
X91094013Y-149198500D01*
X91179645Y-149190632D01*
X91246270Y-149184510D01*
X91246273Y-149184509D01*
X91252024Y-149183981D01*
X91257584Y-149182413D01*
X91451389Y-149127754D01*
X91451391Y-149127753D01*
X91456948Y-149126186D01*
X91462123Y-149123634D01*
X91462128Y-149123632D01*
X91642727Y-149034570D01*
X91647908Y-149032015D01*
X91818509Y-148904622D01*
X91821699Y-148901171D01*
X91885392Y-148870605D01*
X91955846Y-148879370D01*
X91994712Y-148905786D01*
X92084947Y-148995864D01*
X92091177Y-148999704D01*
X92091178Y-148999705D01*
X92122514Y-149019020D01*
X92229308Y-149084849D01*
X92236256Y-149087154D01*
X92236257Y-149087154D01*
X92383738Y-149136072D01*
X92383740Y-149136072D01*
X92390269Y-149138238D01*
X92490428Y-149148500D01*
X93024572Y-149148500D01*
X93027818Y-149148163D01*
X93027822Y-149148163D01*
X93061603Y-149144658D01*
X93125982Y-149137978D01*
X93286849Y-149084308D01*
X93431055Y-148995071D01*
X93550864Y-148875053D01*
X93639849Y-148730692D01*
X93650946Y-148697237D01*
X93691072Y-148576262D01*
X93691072Y-148576260D01*
X93693238Y-148569731D01*
X93694712Y-148555344D01*
X93721554Y-148489617D01*
X93779669Y-148448836D01*
X93850607Y-148445948D01*
X93911845Y-148481870D01*
X93943941Y-148545198D01*
X93945383Y-148555186D01*
X93945611Y-148557379D01*
X93947022Y-148570982D01*
X94000692Y-148731849D01*
X94089929Y-148876055D01*
X94209947Y-148995864D01*
X94216178Y-148999705D01*
X94216181Y-148999707D01*
X94274036Y-149035369D01*
X94321530Y-149088140D01*
X94332954Y-149158212D01*
X94304680Y-149223336D01*
X94297016Y-149231724D01*
X92874145Y-150654595D01*
X92811833Y-150688621D01*
X92785050Y-150691500D01*
X89276450Y-150691500D01*
X89208329Y-150671498D01*
X89161836Y-150617842D01*
X89151123Y-150578503D01*
X89148238Y-150550692D01*
X89148237Y-150550688D01*
X89147526Y-150543834D01*
X89144285Y-150534118D01*
X89094883Y-150386045D01*
X89091550Y-150376054D01*
X88998478Y-150225652D01*
X88970345Y-150197568D01*
X88936891Y-150164172D01*
X88902812Y-150101889D01*
X88907815Y-150031069D01*
X88936736Y-149985981D01*
X88994134Y-149928483D01*
X88999305Y-149923303D01*
X89003669Y-149916224D01*
X89088275Y-149778968D01*
X89088276Y-149778966D01*
X89092115Y-149772738D01*
X89128424Y-149663268D01*
X89145632Y-149611389D01*
X89145632Y-149611387D01*
X89147797Y-149604861D01*
X89149599Y-149587279D01*
X89154502Y-149539416D01*
X89158500Y-149500400D01*
X89158500Y-148099600D01*
X89147526Y-147993834D01*
X89138778Y-147967611D01*
X89093868Y-147833002D01*
X89091550Y-147826054D01*
X88998478Y-147675652D01*
X88873303Y-147550695D01*
X88865239Y-147545724D01*
X88728968Y-147461725D01*
X88728966Y-147461724D01*
X88722738Y-147457885D01*
X88642995Y-147431436D01*
X88561389Y-147404368D01*
X88561387Y-147404368D01*
X88554861Y-147402203D01*
X88548025Y-147401503D01*
X88548022Y-147401502D01*
X88504969Y-147397091D01*
X88450400Y-147391500D01*
X87699600Y-147391500D01*
X87667008Y-147394882D01*
X87597189Y-147382018D01*
X87564910Y-147358650D01*
X87505094Y-147298834D01*
X87471068Y-147236522D01*
X87475909Y-147168836D01*
X87475472Y-147168699D01*
X87476051Y-147166851D01*
X87526753Y-147005062D01*
X87533500Y-146931635D01*
X87533499Y-146542829D01*
X87553501Y-146474710D01*
X87607156Y-146428217D01*
X87624341Y-146421835D01*
X87633600Y-146419145D01*
X87652065Y-146408225D01*
X87669805Y-146399534D01*
X87689756Y-146391635D01*
X87727129Y-146364482D01*
X87737048Y-146357967D01*
X87769977Y-146338493D01*
X87769981Y-146338490D01*
X87776807Y-146334453D01*
X87791971Y-146319289D01*
X87807005Y-146306448D01*
X87817943Y-146298501D01*
X87824357Y-146293841D01*
X87853803Y-146258247D01*
X87861792Y-146249468D01*
X89147605Y-144963655D01*
X89156385Y-144955665D01*
X89156387Y-144955663D01*
X89163080Y-144951416D01*
X89174908Y-144938821D01*
X89211604Y-144899743D01*
X89214359Y-144896901D01*
X89234927Y-144876333D01*
X89237647Y-144872826D01*
X89245353Y-144863804D01*
X89271544Y-144835913D01*
X89276972Y-144830133D01*
X89280794Y-144823181D01*
X89287303Y-144811342D01*
X89298157Y-144794818D01*
X89306445Y-144784132D01*
X89311304Y-144777868D01*
X89324686Y-144746944D01*
X89329654Y-144735465D01*
X89334876Y-144724806D01*
X89342242Y-144711407D01*
X89392587Y-144661348D01*
X89462003Y-144646454D01*
X89528453Y-144671454D01*
G37*
%TD.AperFunction*%
%TA.AperFunction,Conductor*%
G36*
X107598118Y-148141002D02*
G01*
X107644611Y-148194658D01*
X107655307Y-148233829D01*
X107659878Y-148277324D01*
X107665197Y-148327927D01*
X107666458Y-148339928D01*
X107725473Y-148521556D01*
X107728776Y-148527278D01*
X107728777Y-148527279D01*
X107750050Y-148564124D01*
X107820960Y-148686944D01*
X107825378Y-148691851D01*
X107825379Y-148691852D01*
X107938178Y-148817128D01*
X107948747Y-148828866D01*
X108103248Y-148941118D01*
X108109276Y-148943802D01*
X108109278Y-148943803D01*
X108268155Y-149014539D01*
X108277712Y-149018794D01*
X108339912Y-149032015D01*
X108458056Y-149057128D01*
X108458061Y-149057128D01*
X108464513Y-149058500D01*
X108655487Y-149058500D01*
X108664303Y-149056626D01*
X108665699Y-149056733D01*
X108668511Y-149056437D01*
X108668565Y-149056951D01*
X108735093Y-149062027D01*
X108791726Y-149104843D01*
X108816220Y-149171480D01*
X108816500Y-149179872D01*
X108816500Y-149398732D01*
X108827113Y-149501019D01*
X108829295Y-149507559D01*
X108878538Y-149655156D01*
X108881244Y-149663268D01*
X108885096Y-149669492D01*
X108885096Y-149669493D01*
X108938956Y-149756529D01*
X108971248Y-149808713D01*
X108976430Y-149813886D01*
X108980977Y-149819623D01*
X108979170Y-149821055D01*
X109007902Y-149873575D01*
X109002892Y-149944395D01*
X108979501Y-149980853D01*
X108980552Y-149981683D01*
X108967002Y-149998840D01*
X108884996Y-150131880D01*
X108878849Y-150145061D01*
X108829509Y-150293814D01*
X108826642Y-150307190D01*
X108817328Y-150398097D01*
X108817000Y-150404514D01*
X108817000Y-150471613D01*
X108796998Y-150539734D01*
X108743342Y-150586227D01*
X108673068Y-150596331D01*
X108616938Y-150573548D01*
X108602095Y-150562764D01*
X108596752Y-150558882D01*
X108590724Y-150556198D01*
X108590722Y-150556197D01*
X108428319Y-150483891D01*
X108428318Y-150483891D01*
X108422288Y-150481206D01*
X108328887Y-150461353D01*
X108241944Y-150442872D01*
X108241939Y-150442872D01*
X108235487Y-150441500D01*
X108214950Y-150441500D01*
X108146829Y-150421498D01*
X108125855Y-150404595D01*
X108059884Y-150338624D01*
X108025858Y-150276312D01*
X108023621Y-150259587D01*
X108023500Y-150259600D01*
X108013238Y-150160692D01*
X108013237Y-150160688D01*
X108012526Y-150153834D01*
X108009210Y-150143893D01*
X107958868Y-149993002D01*
X107956550Y-149986054D01*
X107863478Y-149835652D01*
X107818975Y-149791226D01*
X107743483Y-149715866D01*
X107738303Y-149710695D01*
X107732072Y-149706854D01*
X107593968Y-149621725D01*
X107593966Y-149621724D01*
X107587738Y-149617885D01*
X107459260Y-149575271D01*
X107426389Y-149564368D01*
X107426387Y-149564368D01*
X107419861Y-149562203D01*
X107413025Y-149561503D01*
X107413022Y-149561502D01*
X107369969Y-149557091D01*
X107315400Y-149551500D01*
X107279950Y-149551500D01*
X107211829Y-149531498D01*
X107190855Y-149514595D01*
X106733655Y-149057395D01*
X106725665Y-149048615D01*
X106725663Y-149048613D01*
X106721416Y-149041920D01*
X106693561Y-149015762D01*
X106669743Y-148993396D01*
X106666901Y-148990641D01*
X106646333Y-148970073D01*
X106642826Y-148967353D01*
X106633804Y-148959647D01*
X106616932Y-148943803D01*
X106600133Y-148928028D01*
X106593181Y-148924206D01*
X106581342Y-148917697D01*
X106564818Y-148906843D01*
X106554135Y-148898557D01*
X106554134Y-148898556D01*
X106547868Y-148893696D01*
X106540596Y-148890549D01*
X106535613Y-148887602D01*
X106487162Y-148835707D01*
X106474458Y-148765857D01*
X106501536Y-148700226D01*
X106551537Y-148662741D01*
X106569274Y-148655394D01*
X106619268Y-148634686D01*
X106741157Y-148541157D01*
X106748243Y-148531923D01*
X106796615Y-148468882D01*
X106834686Y-148419267D01*
X106885992Y-148295405D01*
X106890321Y-148284953D01*
X106893481Y-148277324D01*
X106899638Y-148230554D01*
X106928360Y-148165627D01*
X106987625Y-148126535D01*
X107024560Y-148121000D01*
X107529997Y-148121000D01*
X107598118Y-148141002D01*
G37*
%TD.AperFunction*%
%TA.AperFunction,Conductor*%
G36*
X113434029Y-149471910D02*
G01*
X113486041Y-149520234D01*
X113497577Y-149545702D01*
X113525473Y-149631556D01*
X113620960Y-149796944D01*
X113625378Y-149801851D01*
X113625379Y-149801852D01*
X113739398Y-149928483D01*
X113748747Y-149938866D01*
X113814501Y-149986639D01*
X113874535Y-150030257D01*
X113917889Y-150086480D01*
X113923964Y-150157216D01*
X113890832Y-150220007D01*
X113851722Y-150247300D01*
X113809281Y-150266195D01*
X113809274Y-150266199D01*
X113803248Y-150268882D01*
X113797907Y-150272762D01*
X113797906Y-150272763D01*
X113759002Y-150301029D01*
X113648747Y-150381134D01*
X113644326Y-150386044D01*
X113644325Y-150386045D01*
X113546530Y-150494658D01*
X113520960Y-150523056D01*
X113517659Y-150528774D01*
X113513776Y-150534118D01*
X113512586Y-150533253D01*
X113466739Y-150576969D01*
X113397026Y-150590407D01*
X113331114Y-150564021D01*
X113289931Y-150506190D01*
X113283000Y-150464977D01*
X113283000Y-150404562D01*
X113282662Y-150398038D01*
X113273106Y-150305943D01*
X113270212Y-150292544D01*
X113220619Y-150143893D01*
X113214445Y-150130714D01*
X113132212Y-149997827D01*
X113118629Y-149980689D01*
X113120559Y-149979159D01*
X113092097Y-149927120D01*
X113097113Y-149856301D01*
X113120799Y-149819383D01*
X113119843Y-149818628D01*
X113124381Y-149812882D01*
X113129552Y-149807702D01*
X113137033Y-149795566D01*
X113215462Y-149668331D01*
X113215463Y-149668329D01*
X113219302Y-149662101D01*
X113258152Y-149544972D01*
X113298583Y-149486613D01*
X113364147Y-149459376D01*
X113434029Y-149471910D01*
G37*
%TD.AperFunction*%
%TA.AperFunction,Conductor*%
G36*
X129446708Y-149752118D02*
G01*
X129486207Y-149811112D01*
X129492000Y-149848877D01*
X129492000Y-150349956D01*
X129471998Y-150418077D01*
X129418342Y-150464570D01*
X129348068Y-150474674D01*
X129283488Y-150445180D01*
X129258856Y-150416259D01*
X129183925Y-150295171D01*
X129183919Y-150295164D01*
X129180071Y-150288945D01*
X129079840Y-150188889D01*
X129045762Y-150126608D01*
X129050765Y-150055788D01*
X129079686Y-150010699D01*
X129175298Y-149914920D01*
X129184310Y-149903509D01*
X129258740Y-149782761D01*
X129311512Y-149735268D01*
X129381584Y-149723844D01*
X129446708Y-149752118D01*
G37*
%TD.AperFunction*%
%TA.AperFunction,Conductor*%
G36*
X127644351Y-149975768D02*
G01*
X127689432Y-150004686D01*
X127695158Y-150010402D01*
X127729237Y-150072684D01*
X127724234Y-150143504D01*
X127695322Y-150188584D01*
X127692705Y-150191206D01*
X127689121Y-150194797D01*
X127626842Y-150228882D01*
X127556022Y-150223885D01*
X127510922Y-150194960D01*
X127505195Y-150189243D01*
X127471116Y-150126961D01*
X127476119Y-150056141D01*
X127505044Y-150011048D01*
X127511247Y-150004835D01*
X127573532Y-149970760D01*
X127644351Y-149975768D01*
G37*
%TD.AperFunction*%
%TA.AperFunction,Conductor*%
G36*
X116202584Y-146553502D02*
G01*
X116249077Y-146607158D01*
X116259773Y-146646328D01*
X116265459Y-146700426D01*
X116266458Y-146709928D01*
X116268498Y-146716205D01*
X116268498Y-146716207D01*
X116318428Y-146869875D01*
X116319774Y-146916975D01*
X116358525Y-146949345D01*
X116362890Y-146956363D01*
X116420960Y-147056944D01*
X116425378Y-147061851D01*
X116425379Y-147061852D01*
X116540735Y-147189968D01*
X116548747Y-147198866D01*
X116604841Y-147239621D01*
X116696365Y-147306117D01*
X116703248Y-147311118D01*
X116709276Y-147313802D01*
X116709278Y-147313803D01*
X116871681Y-147386109D01*
X116877712Y-147388794D01*
X116971113Y-147408647D01*
X117058056Y-147427128D01*
X117058061Y-147427128D01*
X117064513Y-147428500D01*
X117255487Y-147428500D01*
X117261939Y-147427128D01*
X117261944Y-147427128D01*
X117348887Y-147408647D01*
X117442288Y-147388794D01*
X117448319Y-147386109D01*
X117610722Y-147313803D01*
X117610724Y-147313802D01*
X117616752Y-147311118D01*
X117623636Y-147306117D01*
X117715159Y-147239621D01*
X117771253Y-147198866D01*
X117779265Y-147189968D01*
X117894621Y-147061852D01*
X117894622Y-147061851D01*
X117899040Y-147056944D01*
X117973052Y-146928751D01*
X117991223Y-146897279D01*
X117991224Y-146897278D01*
X117994527Y-146891556D01*
X118036437Y-146762571D01*
X118076511Y-146703965D01*
X118141907Y-146676328D01*
X118211864Y-146688435D01*
X118245365Y-146712412D01*
X118794129Y-147261176D01*
X118828155Y-147323488D01*
X118823090Y-147394303D01*
X118786864Y-147446082D01*
X118633792Y-147576818D01*
X118633787Y-147576823D01*
X118630031Y-147580031D01*
X118626823Y-147583787D01*
X118619433Y-147592440D01*
X118475824Y-147760584D01*
X118473245Y-147764792D01*
X118473241Y-147764798D01*
X118371967Y-147930062D01*
X118351760Y-147963037D01*
X118349867Y-147967607D01*
X118349865Y-147967611D01*
X118270640Y-148158880D01*
X118260895Y-148182406D01*
X118246871Y-148240820D01*
X118208072Y-148402432D01*
X118205465Y-148413289D01*
X118199893Y-148484085D01*
X118193237Y-148568655D01*
X118167951Y-148634997D01*
X118110813Y-148677136D01*
X118036290Y-148680810D01*
X118023555Y-148677540D01*
X118004869Y-148671142D01*
X117985176Y-148662620D01*
X117939552Y-148655394D01*
X117927929Y-148652987D01*
X117899928Y-148645798D01*
X117883188Y-148641500D01*
X117876148Y-148641500D01*
X117811433Y-148613277D01*
X117793147Y-148594398D01*
X117790574Y-148591117D01*
X117786639Y-148584619D01*
X117665381Y-148463361D01*
X117518699Y-148374528D01*
X117511452Y-148372257D01*
X117511450Y-148372256D01*
X117428324Y-148346206D01*
X117355062Y-148323247D01*
X117281635Y-148316500D01*
X117262756Y-148316500D01*
X116974951Y-148316501D01*
X116906831Y-148296499D01*
X116885856Y-148279596D01*
X116220405Y-147614145D01*
X116186379Y-147551833D01*
X116183500Y-147525050D01*
X116183499Y-147271249D01*
X116183499Y-147268366D01*
X116183234Y-147265474D01*
X116179302Y-147222684D01*
X116176753Y-147194938D01*
X116170150Y-147173868D01*
X116133542Y-147057051D01*
X116132696Y-147010300D01*
X116090819Y-146974082D01*
X116089781Y-146972367D01*
X116036639Y-146884619D01*
X115941115Y-146789095D01*
X115907089Y-146726783D01*
X115912154Y-146655968D01*
X115941115Y-146610905D01*
X115981615Y-146570405D01*
X116043927Y-146536379D01*
X116070710Y-146533500D01*
X116134463Y-146533500D01*
X116202584Y-146553502D01*
G37*
%TD.AperFunction*%
%TA.AperFunction,Conductor*%
G36*
X101309065Y-140256892D02*
G01*
X101326705Y-140268229D01*
X101353908Y-140289103D01*
X101395775Y-140346442D01*
X101398099Y-140353567D01*
X101404044Y-140373813D01*
X101417583Y-140375842D01*
X101477194Y-140367994D01*
X101477427Y-140369765D01*
X101522507Y-140369766D01*
X101522676Y-140368481D01*
X101632669Y-140382962D01*
X101632670Y-140382962D01*
X101636756Y-140383500D01*
X101863244Y-140383500D01*
X101867330Y-140382962D01*
X101867331Y-140382962D01*
X101977324Y-140368481D01*
X101977527Y-140370026D01*
X102022473Y-140370026D01*
X102022676Y-140368481D01*
X102132669Y-140382962D01*
X102132670Y-140382962D01*
X102136756Y-140383500D01*
X102363244Y-140383500D01*
X102367330Y-140382962D01*
X102367331Y-140382962D01*
X102477324Y-140368481D01*
X102477527Y-140370026D01*
X102522473Y-140370026D01*
X102522676Y-140368481D01*
X102632669Y-140382962D01*
X102632670Y-140382962D01*
X102636756Y-140383500D01*
X102863244Y-140383500D01*
X102867330Y-140382962D01*
X102867331Y-140382962D01*
X102977324Y-140368481D01*
X102977527Y-140370026D01*
X103022473Y-140370026D01*
X103022676Y-140368481D01*
X103132669Y-140382962D01*
X103132670Y-140382962D01*
X103136756Y-140383500D01*
X103231050Y-140383500D01*
X103299171Y-140403502D01*
X103345664Y-140457158D01*
X103355768Y-140527432D01*
X103326274Y-140592012D01*
X103320145Y-140598595D01*
X103294145Y-140624595D01*
X103231833Y-140658621D01*
X103205050Y-140661500D01*
X103184513Y-140661500D01*
X103178061Y-140662872D01*
X103178056Y-140662872D01*
X103091113Y-140681353D01*
X102997712Y-140701206D01*
X102991682Y-140703891D01*
X102991681Y-140703891D01*
X102829278Y-140776197D01*
X102829276Y-140776198D01*
X102823248Y-140778882D01*
X102817907Y-140782762D01*
X102817906Y-140782763D01*
X102794182Y-140800000D01*
X102668747Y-140891134D01*
X102664326Y-140896044D01*
X102664325Y-140896045D01*
X102548956Y-141024176D01*
X102540960Y-141033056D01*
X102445473Y-141198444D01*
X102386458Y-141380072D01*
X102385768Y-141386633D01*
X102385768Y-141386635D01*
X102372921Y-141508866D01*
X102366496Y-141570000D01*
X102367186Y-141576565D01*
X102384062Y-141737128D01*
X102386458Y-141759928D01*
X102445473Y-141941556D01*
X102540960Y-142106944D01*
X102545378Y-142111851D01*
X102545379Y-142111852D01*
X102664325Y-142243955D01*
X102668747Y-142248866D01*
X102723221Y-142288444D01*
X102817824Y-142357177D01*
X102823248Y-142361118D01*
X102829276Y-142363802D01*
X102829278Y-142363803D01*
X102983955Y-142432669D01*
X102997712Y-142438794D01*
X103091113Y-142458647D01*
X103178056Y-142477128D01*
X103178061Y-142477128D01*
X103184513Y-142478500D01*
X103375487Y-142478500D01*
X103381939Y-142477128D01*
X103381944Y-142477128D01*
X103468887Y-142458647D01*
X103562288Y-142438794D01*
X103576045Y-142432669D01*
X103730722Y-142363803D01*
X103730724Y-142363802D01*
X103736752Y-142361118D01*
X103742093Y-142357237D01*
X103742099Y-142357234D01*
X103742176Y-142357178D01*
X103742228Y-142357159D01*
X103747811Y-142353936D01*
X103748401Y-142354957D01*
X103809043Y-142333319D01*
X103878195Y-142349400D01*
X103890296Y-142357177D01*
X103890379Y-142357237D01*
X103923248Y-142381118D01*
X103929276Y-142383802D01*
X103929278Y-142383803D01*
X104066094Y-142444717D01*
X104097712Y-142458794D01*
X104183966Y-142477128D01*
X104278056Y-142497128D01*
X104278061Y-142497128D01*
X104284513Y-142498500D01*
X104475487Y-142498500D01*
X104481939Y-142497128D01*
X104481944Y-142497128D01*
X104576034Y-142477128D01*
X104662288Y-142458794D01*
X104693906Y-142444717D01*
X104830722Y-142383803D01*
X104830724Y-142383802D01*
X104836752Y-142381118D01*
X104869626Y-142357234D01*
X104917190Y-142322676D01*
X104991253Y-142268866D01*
X105012620Y-142245136D01*
X105114621Y-142131852D01*
X105114622Y-142131851D01*
X105119040Y-142126944D01*
X105214527Y-141961556D01*
X105262766Y-141813093D01*
X105302840Y-141754487D01*
X105368236Y-141726850D01*
X105408797Y-141728783D01*
X105448050Y-141737127D01*
X105448057Y-141737128D01*
X105454513Y-141738500D01*
X105645487Y-141738500D01*
X105651939Y-141737128D01*
X105651944Y-141737128D01*
X105738887Y-141718647D01*
X105832288Y-141698794D01*
X105838319Y-141696109D01*
X106000722Y-141623803D01*
X106000724Y-141623802D01*
X106006752Y-141621118D01*
X106161253Y-141508866D01*
X106196864Y-141469316D01*
X106257310Y-141432076D01*
X106328294Y-141433428D01*
X106387278Y-141472941D01*
X106415536Y-141538072D01*
X106416500Y-141553626D01*
X106416500Y-141663244D01*
X106417038Y-141667330D01*
X106417038Y-141667331D01*
X106431519Y-141777324D01*
X106429974Y-141777527D01*
X106429974Y-141822473D01*
X106431519Y-141822676D01*
X106416500Y-141936756D01*
X106416500Y-142163244D01*
X106417038Y-142167330D01*
X106417038Y-142167331D01*
X106431519Y-142277324D01*
X106429974Y-142277527D01*
X106429974Y-142322473D01*
X106431519Y-142322676D01*
X106423931Y-142380316D01*
X106416500Y-142436756D01*
X106416500Y-142663244D01*
X106417038Y-142667330D01*
X106417038Y-142667331D01*
X106431519Y-142777324D01*
X106429974Y-142777527D01*
X106429974Y-142822473D01*
X106431519Y-142822676D01*
X106421475Y-142898971D01*
X106416500Y-142936756D01*
X106416500Y-143163244D01*
X106417038Y-143167330D01*
X106417038Y-143167331D01*
X106427797Y-143249054D01*
X106416858Y-143319203D01*
X106369729Y-143372301D01*
X106302875Y-143391500D01*
X105112056Y-143391500D01*
X105100200Y-143390941D01*
X105100197Y-143390941D01*
X105092463Y-143389212D01*
X105037446Y-143390941D01*
X105021631Y-143391438D01*
X105017673Y-143391500D01*
X104988568Y-143391500D01*
X104984168Y-143392056D01*
X104972336Y-143392988D01*
X104926169Y-143394438D01*
X104905579Y-143400420D01*
X104886218Y-143404430D01*
X104879230Y-143405312D01*
X104872796Y-143406125D01*
X104872795Y-143406125D01*
X104864936Y-143407118D01*
X104857571Y-143410034D01*
X104857567Y-143410035D01*
X104821979Y-143424126D01*
X104810769Y-143427965D01*
X104766400Y-143440855D01*
X104747943Y-143451771D01*
X104730193Y-143460466D01*
X104710244Y-143468365D01*
X104703833Y-143473023D01*
X104703831Y-143473024D01*
X104672864Y-143495523D01*
X104662946Y-143502038D01*
X104623193Y-143525548D01*
X104608032Y-143540709D01*
X104593000Y-143553548D01*
X104575643Y-143566159D01*
X104573816Y-143568367D01*
X104512475Y-143599401D01*
X104489573Y-143601500D01*
X104474513Y-143601500D01*
X104468061Y-143602872D01*
X104468056Y-143602872D01*
X104381112Y-143621353D01*
X104287712Y-143641206D01*
X104281682Y-143643891D01*
X104281681Y-143643891D01*
X104119278Y-143716197D01*
X104119276Y-143716198D01*
X104113248Y-143718882D01*
X103958747Y-143831134D01*
X103954326Y-143836044D01*
X103954325Y-143836045D01*
X103850419Y-143951445D01*
X103830960Y-143973056D01*
X103827659Y-143978774D01*
X103750092Y-144113124D01*
X103735473Y-144138444D01*
X103676458Y-144320072D01*
X103656496Y-144510000D01*
X103657186Y-144516565D01*
X103667925Y-144618737D01*
X103676458Y-144699928D01*
X103735473Y-144881556D01*
X103830960Y-145046944D01*
X103835378Y-145051851D01*
X103835379Y-145051852D01*
X103909110Y-145133739D01*
X103958747Y-145188866D01*
X104036566Y-145245405D01*
X104101691Y-145292721D01*
X104113248Y-145301118D01*
X104119276Y-145303802D01*
X104119278Y-145303803D01*
X104281681Y-145376109D01*
X104287712Y-145378794D01*
X104379551Y-145398315D01*
X104468056Y-145417128D01*
X104468061Y-145417128D01*
X104474513Y-145418500D01*
X104665487Y-145418500D01*
X104671939Y-145417128D01*
X104671944Y-145417128D01*
X104760449Y-145398315D01*
X104852288Y-145378794D01*
X104858319Y-145376109D01*
X105020722Y-145303803D01*
X105020724Y-145303802D01*
X105026752Y-145301118D01*
X105038310Y-145292721D01*
X105103434Y-145245405D01*
X105181253Y-145188866D01*
X105230890Y-145133739D01*
X105304621Y-145051852D01*
X105304622Y-145051851D01*
X105309040Y-145046944D01*
X105404527Y-144881556D01*
X105419358Y-144835913D01*
X105432468Y-144795564D01*
X105472542Y-144736958D01*
X105537938Y-144709321D01*
X105552301Y-144708500D01*
X106302875Y-144708500D01*
X106370996Y-144728502D01*
X106417489Y-144782158D01*
X106427797Y-144850946D01*
X106422805Y-144888866D01*
X106416500Y-144936756D01*
X106416500Y-145163244D01*
X106417038Y-145167330D01*
X106417038Y-145167331D01*
X106431519Y-145277324D01*
X106429974Y-145277527D01*
X106429974Y-145322473D01*
X106431519Y-145322676D01*
X106416500Y-145436756D01*
X106416500Y-145663244D01*
X106417038Y-145667330D01*
X106417038Y-145667331D01*
X106431519Y-145777324D01*
X106429974Y-145777527D01*
X106429974Y-145822473D01*
X106431519Y-145822676D01*
X106420478Y-145906544D01*
X106416500Y-145936756D01*
X106416500Y-146090500D01*
X106396498Y-146158621D01*
X106342842Y-146205114D01*
X106290500Y-146216500D01*
X106136756Y-146216500D01*
X106132670Y-146217038D01*
X106132669Y-146217038D01*
X106022676Y-146231519D01*
X106022507Y-146230234D01*
X105977427Y-146230235D01*
X105977194Y-146232006D01*
X105917960Y-146224208D01*
X105903778Y-146226419D01*
X105898217Y-146245784D01*
X105860189Y-146305737D01*
X105853816Y-146310967D01*
X105826704Y-146331771D01*
X105760484Y-146357372D01*
X105690935Y-146343108D01*
X105673295Y-146331771D01*
X105646092Y-146310897D01*
X105604225Y-146253558D01*
X105601901Y-146246433D01*
X105595956Y-146226187D01*
X105582417Y-146224158D01*
X105522806Y-146232006D01*
X105522573Y-146230235D01*
X105477493Y-146230234D01*
X105477324Y-146231519D01*
X105367331Y-146217038D01*
X105367330Y-146217038D01*
X105363244Y-146216500D01*
X105136756Y-146216500D01*
X105132670Y-146217038D01*
X105132669Y-146217038D01*
X105022676Y-146231519D01*
X105022473Y-146229974D01*
X104977527Y-146229974D01*
X104977324Y-146231519D01*
X104867331Y-146217038D01*
X104867330Y-146217038D01*
X104863244Y-146216500D01*
X104636756Y-146216500D01*
X104632670Y-146217038D01*
X104632669Y-146217038D01*
X104522676Y-146231519D01*
X104522473Y-146229974D01*
X104477527Y-146229974D01*
X104477324Y-146231519D01*
X104367331Y-146217038D01*
X104367330Y-146217038D01*
X104363244Y-146216500D01*
X104136756Y-146216500D01*
X104132670Y-146217038D01*
X104132669Y-146217038D01*
X104022676Y-146231519D01*
X104022473Y-146229974D01*
X103977527Y-146229974D01*
X103977324Y-146231519D01*
X103867331Y-146217038D01*
X103867330Y-146217038D01*
X103863244Y-146216500D01*
X103636756Y-146216500D01*
X103632670Y-146217038D01*
X103632669Y-146217038D01*
X103522676Y-146231519D01*
X103522473Y-146229974D01*
X103477527Y-146229974D01*
X103477324Y-146231519D01*
X103367331Y-146217038D01*
X103367330Y-146217038D01*
X103363244Y-146216500D01*
X103136756Y-146216500D01*
X103132670Y-146217038D01*
X103132669Y-146217038D01*
X103022676Y-146231519D01*
X103022473Y-146229974D01*
X102977527Y-146229974D01*
X102977324Y-146231519D01*
X102867331Y-146217038D01*
X102867330Y-146217038D01*
X102863244Y-146216500D01*
X102636756Y-146216500D01*
X102632670Y-146217038D01*
X102632669Y-146217038D01*
X102522676Y-146231519D01*
X102522473Y-146229974D01*
X102477527Y-146229974D01*
X102477324Y-146231519D01*
X102367331Y-146217038D01*
X102367330Y-146217038D01*
X102363244Y-146216500D01*
X102329904Y-146216500D01*
X102261783Y-146196498D01*
X102215290Y-146142842D01*
X102205186Y-146072568D01*
X102213739Y-146042921D01*
X102214527Y-146041556D01*
X102228055Y-145999923D01*
X102267885Y-145877339D01*
X102273542Y-145859928D01*
X102274802Y-145847945D01*
X102292814Y-145676565D01*
X102293504Y-145670000D01*
X102278322Y-145525547D01*
X102274232Y-145486635D01*
X102274232Y-145486633D01*
X102273542Y-145480072D01*
X102214527Y-145298444D01*
X102119040Y-145133056D01*
X102118045Y-145131951D01*
X102094824Y-145066872D01*
X102111499Y-144996677D01*
X102167700Y-144899334D01*
X102167701Y-144899333D01*
X102171004Y-144893611D01*
X102230019Y-144711983D01*
X102239820Y-144618737D01*
X102249291Y-144528620D01*
X102249981Y-144522055D01*
X102241226Y-144438757D01*
X102230709Y-144338690D01*
X102230709Y-144338688D01*
X102230019Y-144332127D01*
X102171004Y-144150499D01*
X102149426Y-144113124D01*
X102115722Y-144054748D01*
X102075517Y-143985111D01*
X102060244Y-143968148D01*
X101952152Y-143848100D01*
X101952151Y-143848099D01*
X101947730Y-143843189D01*
X101815456Y-143747086D01*
X101798571Y-143734818D01*
X101798570Y-143734817D01*
X101793229Y-143730937D01*
X101787201Y-143728253D01*
X101787199Y-143728252D01*
X101624796Y-143655946D01*
X101624795Y-143655946D01*
X101618765Y-143653261D01*
X101525364Y-143633408D01*
X101438421Y-143614927D01*
X101438416Y-143614927D01*
X101431964Y-143613555D01*
X101240990Y-143613555D01*
X101234538Y-143614927D01*
X101234533Y-143614927D01*
X101147590Y-143633408D01*
X101054189Y-143653261D01*
X101048159Y-143655946D01*
X101048158Y-143655946D01*
X100885755Y-143728252D01*
X100885753Y-143728253D01*
X100879725Y-143730937D01*
X100874384Y-143734817D01*
X100874383Y-143734818D01*
X100779577Y-143803699D01*
X100712709Y-143827557D01*
X100643558Y-143811477D01*
X100594078Y-143760563D01*
X100580594Y-143685317D01*
X100582962Y-143667331D01*
X100582962Y-143667330D01*
X100583500Y-143663244D01*
X100583500Y-143436756D01*
X100577274Y-143389461D01*
X100568481Y-143322676D01*
X100570026Y-143322473D01*
X100570026Y-143277527D01*
X100568481Y-143277324D01*
X100582962Y-143167331D01*
X100582962Y-143167330D01*
X100583500Y-143163244D01*
X100583500Y-142936756D01*
X100578526Y-142898971D01*
X100568481Y-142822676D01*
X100570026Y-142822473D01*
X100570026Y-142777527D01*
X100568481Y-142777324D01*
X100582962Y-142667331D01*
X100582962Y-142667330D01*
X100583500Y-142663244D01*
X100583500Y-142436756D01*
X100576070Y-142380316D01*
X100568481Y-142322676D01*
X100570026Y-142322473D01*
X100570026Y-142277527D01*
X100568481Y-142277324D01*
X100582962Y-142167331D01*
X100582962Y-142167330D01*
X100583500Y-142163244D01*
X100583500Y-141936756D01*
X100568481Y-141822676D01*
X100570026Y-141822473D01*
X100570026Y-141777527D01*
X100568481Y-141777324D01*
X100582962Y-141667331D01*
X100582962Y-141667330D01*
X100583500Y-141663244D01*
X100583500Y-141436756D01*
X100568481Y-141322676D01*
X100570026Y-141322473D01*
X100570026Y-141277527D01*
X100568481Y-141277324D01*
X100582962Y-141167331D01*
X100582962Y-141167330D01*
X100583500Y-141163244D01*
X100583500Y-140936756D01*
X100568481Y-140822676D01*
X100570026Y-140822473D01*
X100570026Y-140777527D01*
X100568481Y-140777324D01*
X100582962Y-140667331D01*
X100582962Y-140667330D01*
X100583500Y-140663244D01*
X100583500Y-140509500D01*
X100603502Y-140441379D01*
X100657158Y-140394886D01*
X100709500Y-140383500D01*
X100863244Y-140383500D01*
X100867330Y-140382962D01*
X100867331Y-140382962D01*
X100977324Y-140368481D01*
X100977493Y-140369766D01*
X101022573Y-140369765D01*
X101022806Y-140367994D01*
X101082040Y-140375792D01*
X101096222Y-140373581D01*
X101101783Y-140354216D01*
X101139811Y-140294263D01*
X101146184Y-140289033D01*
X101173296Y-140268229D01*
X101239516Y-140242628D01*
X101309065Y-140256892D01*
G37*
%TD.AperFunction*%
%TA.AperFunction,Conductor*%
G36*
X90354084Y-134058502D02*
G01*
X90400577Y-134112158D01*
X90410681Y-134182432D01*
X90406198Y-134202178D01*
X90395312Y-134236918D01*
X90392991Y-134248503D01*
X90395806Y-134262835D01*
X90407702Y-134266000D01*
X91390500Y-134266000D01*
X91458621Y-134286002D01*
X91505114Y-134339658D01*
X91516500Y-134392000D01*
X91516500Y-134843885D01*
X91531396Y-134894616D01*
X91536500Y-134930114D01*
X91536500Y-137772030D01*
X91533621Y-137798813D01*
X91526500Y-137831548D01*
X91526500Y-138458000D01*
X91506498Y-138526121D01*
X91452842Y-138572614D01*
X91400500Y-138584000D01*
X90419342Y-138584000D01*
X90404797Y-138588271D01*
X90402752Y-138600302D01*
X90405313Y-138613088D01*
X90449029Y-138752589D01*
X90455235Y-138766334D01*
X90530496Y-138890604D01*
X90539803Y-138902473D01*
X90642527Y-139005197D01*
X90654396Y-139014504D01*
X90778666Y-139089765D01*
X90792411Y-139095971D01*
X90931904Y-139139685D01*
X90951503Y-139143610D01*
X90951055Y-139145848D01*
X91007237Y-139168113D01*
X91048621Y-139225800D01*
X91052247Y-139296704D01*
X91016964Y-139358313D01*
X90973925Y-139385409D01*
X90891705Y-139416232D01*
X90891704Y-139416233D01*
X90883295Y-139419385D01*
X90766739Y-139506739D01*
X90679385Y-139623295D01*
X90628255Y-139759684D01*
X90621500Y-139821866D01*
X90621500Y-142318134D01*
X90628255Y-142380316D01*
X90679385Y-142516705D01*
X90766739Y-142633261D01*
X90883295Y-142720615D01*
X91019684Y-142771745D01*
X91081866Y-142778500D01*
X93178134Y-142778500D01*
X93240316Y-142771745D01*
X93376705Y-142720615D01*
X93383893Y-142715228D01*
X93387982Y-142712164D01*
X93454489Y-142687319D01*
X93523871Y-142702374D01*
X93552638Y-142723898D01*
X94026431Y-143197691D01*
X94060457Y-143260003D01*
X94055392Y-143330818D01*
X94026510Y-143375802D01*
X93980695Y-143421697D01*
X93977898Y-143426235D01*
X93920647Y-143466824D01*
X93849724Y-143470054D01*
X93788313Y-143434428D01*
X93780938Y-143425932D01*
X93772902Y-143415793D01*
X93658171Y-143301261D01*
X93646760Y-143292249D01*
X93508757Y-143207184D01*
X93495576Y-143201037D01*
X93341290Y-143149862D01*
X93327914Y-143146995D01*
X93233562Y-143137328D01*
X93227145Y-143137000D01*
X93202115Y-143137000D01*
X93186876Y-143141475D01*
X93185671Y-143142865D01*
X93184000Y-143150548D01*
X93184000Y-144498000D01*
X93163998Y-144566121D01*
X93110342Y-144612614D01*
X93058000Y-144624000D01*
X91940116Y-144624000D01*
X91924877Y-144628475D01*
X91923672Y-144629865D01*
X91922001Y-144637548D01*
X91922001Y-144895362D01*
X91920642Y-144895362D01*
X91905448Y-144959158D01*
X91854271Y-145008366D01*
X91784614Y-145022095D01*
X91718593Y-144995984D01*
X91706971Y-144985711D01*
X90819145Y-144097885D01*
X91922000Y-144097885D01*
X91926475Y-144113124D01*
X91927865Y-144114329D01*
X91935548Y-144116000D01*
X92657885Y-144116000D01*
X92673124Y-144111525D01*
X92674329Y-144110135D01*
X92676000Y-144102452D01*
X92676000Y-143155116D01*
X92671525Y-143139877D01*
X92670135Y-143138672D01*
X92662452Y-143137001D01*
X92632905Y-143137001D01*
X92626386Y-143137338D01*
X92530794Y-143147257D01*
X92517400Y-143150149D01*
X92363216Y-143201588D01*
X92350038Y-143207761D01*
X92212193Y-143293063D01*
X92200792Y-143302099D01*
X92086261Y-143416829D01*
X92077249Y-143428240D01*
X91992184Y-143566243D01*
X91986037Y-143579424D01*
X91934862Y-143733710D01*
X91931995Y-143747086D01*
X91922328Y-143841438D01*
X91922000Y-143847855D01*
X91922000Y-144097885D01*
X90819145Y-144097885D01*
X90345405Y-143624145D01*
X90311379Y-143561833D01*
X90308500Y-143535050D01*
X90308500Y-140042059D01*
X90309059Y-140030203D01*
X90310789Y-140022463D01*
X90308562Y-139951611D01*
X90308500Y-139947653D01*
X90308500Y-139918568D01*
X90307946Y-139914179D01*
X90307013Y-139902337D01*
X90306673Y-139891500D01*
X90305562Y-139856169D01*
X90299580Y-139835579D01*
X90295570Y-139816216D01*
X90293875Y-139802796D01*
X90293875Y-139802795D01*
X90292882Y-139794936D01*
X90289966Y-139787571D01*
X90289965Y-139787567D01*
X90275874Y-139751979D01*
X90272035Y-139740769D01*
X90259145Y-139696400D01*
X90248225Y-139677935D01*
X90239534Y-139660195D01*
X90231635Y-139640244D01*
X90204482Y-139602871D01*
X90197967Y-139592952D01*
X90178493Y-139560023D01*
X90178490Y-139560019D01*
X90174453Y-139553193D01*
X90159289Y-139538029D01*
X90146448Y-139522995D01*
X90138501Y-139512057D01*
X90133841Y-139505643D01*
X90098247Y-139476197D01*
X90089468Y-139468208D01*
X88679763Y-138058503D01*
X90402991Y-138058503D01*
X90405806Y-138072835D01*
X90417702Y-138076000D01*
X91000385Y-138076000D01*
X91015624Y-138071525D01*
X91016829Y-138070135D01*
X91018500Y-138062452D01*
X91018500Y-137517970D01*
X91021379Y-137491187D01*
X91028500Y-137458452D01*
X91028500Y-137232115D01*
X91024025Y-137216876D01*
X91022635Y-137215671D01*
X91014952Y-137214000D01*
X90429342Y-137214000D01*
X90414797Y-137218271D01*
X90412752Y-137230302D01*
X90415313Y-137243088D01*
X90459029Y-137382589D01*
X90465235Y-137396334D01*
X90540496Y-137520604D01*
X90549803Y-137532473D01*
X90568235Y-137550905D01*
X90602261Y-137613217D01*
X90597196Y-137684032D01*
X90568235Y-137729095D01*
X90539803Y-137757527D01*
X90530496Y-137769396D01*
X90455235Y-137893666D01*
X90449029Y-137907411D01*
X90405313Y-138046912D01*
X90402991Y-138058503D01*
X88679763Y-138058503D01*
X88113655Y-137492395D01*
X88105665Y-137483615D01*
X88105663Y-137483613D01*
X88101416Y-137476920D01*
X88068490Y-137446000D01*
X88049743Y-137428396D01*
X88046901Y-137425641D01*
X88026333Y-137405073D01*
X88022826Y-137402353D01*
X88013804Y-137394647D01*
X88002412Y-137383949D01*
X87980133Y-137363028D01*
X87973181Y-137359206D01*
X87961342Y-137352697D01*
X87944818Y-137341843D01*
X87934132Y-137333555D01*
X87927868Y-137328696D01*
X87920596Y-137325549D01*
X87920594Y-137325548D01*
X87885465Y-137310346D01*
X87874805Y-137305124D01*
X87841284Y-137286695D01*
X87841282Y-137286694D01*
X87834337Y-137282876D01*
X87813559Y-137277541D01*
X87794869Y-137271142D01*
X87775176Y-137262620D01*
X87729552Y-137255394D01*
X87717929Y-137252987D01*
X87689928Y-137245798D01*
X87673188Y-137241500D01*
X87651741Y-137241500D01*
X87632031Y-137239949D01*
X87618677Y-137237834D01*
X87610848Y-137236594D01*
X87564859Y-137240941D01*
X87553004Y-137241500D01*
X87391398Y-137241500D01*
X87323277Y-137221498D01*
X87292246Y-137193249D01*
X87290575Y-137191118D01*
X87286639Y-137184619D01*
X87220405Y-137118385D01*
X87186379Y-137056073D01*
X87183500Y-137029290D01*
X87183500Y-136866434D01*
X87201046Y-136802295D01*
X87205110Y-136795423D01*
X87209145Y-136788601D01*
X87212063Y-136778559D01*
X87232905Y-136706819D01*
X87255562Y-136628831D01*
X87256078Y-136622285D01*
X87258307Y-136593958D01*
X87258307Y-136593950D01*
X87258500Y-136591502D01*
X87258500Y-136112450D01*
X87278502Y-136044329D01*
X87295405Y-136023355D01*
X87328458Y-135990302D01*
X90412752Y-135990302D01*
X90415313Y-136003088D01*
X90459029Y-136142589D01*
X90465237Y-136156338D01*
X90536937Y-136274729D01*
X90555116Y-136343358D01*
X90536937Y-136405271D01*
X90465237Y-136523662D01*
X90459029Y-136537411D01*
X90415313Y-136676912D01*
X90412991Y-136688503D01*
X90415806Y-136702835D01*
X90427702Y-136706000D01*
X91010385Y-136706000D01*
X91025624Y-136701525D01*
X91026829Y-136700135D01*
X91028500Y-136692452D01*
X91028500Y-135992115D01*
X91024025Y-135976876D01*
X91022635Y-135975671D01*
X91014952Y-135974000D01*
X90429342Y-135974000D01*
X90414797Y-135978271D01*
X90412752Y-135990302D01*
X87328458Y-135990302D01*
X88528458Y-134790302D01*
X90392752Y-134790302D01*
X90395313Y-134803088D01*
X90439029Y-134942589D01*
X90445235Y-134956334D01*
X90514825Y-135071240D01*
X90533004Y-135139870D01*
X90514825Y-135201784D01*
X90465235Y-135283667D01*
X90459029Y-135297411D01*
X90415313Y-135436912D01*
X90412991Y-135448503D01*
X90415806Y-135462835D01*
X90427702Y-135466000D01*
X91010385Y-135466000D01*
X91025624Y-135461525D01*
X91026829Y-135460135D01*
X91028500Y-135452452D01*
X91028500Y-135396115D01*
X91013604Y-135345384D01*
X91008500Y-135309886D01*
X91008500Y-134792115D01*
X91004025Y-134776876D01*
X91002635Y-134775671D01*
X90994952Y-134774000D01*
X90409342Y-134774000D01*
X90394797Y-134778271D01*
X90392752Y-134790302D01*
X88528458Y-134790302D01*
X89243355Y-134075405D01*
X89305667Y-134041379D01*
X89332450Y-134038500D01*
X90285963Y-134038500D01*
X90354084Y-134058502D01*
G37*
%TD.AperFunction*%
%TA.AperFunction,Conductor*%
G36*
X124158220Y-132528002D02*
G01*
X124204713Y-132581658D01*
X124214817Y-132651932D01*
X124185323Y-132716512D01*
X124138317Y-132750409D01*
X124017837Y-132800313D01*
X124009042Y-132804795D01*
X123841555Y-132907432D01*
X123832093Y-132917890D01*
X123835876Y-132926666D01*
X124687188Y-133777978D01*
X124701132Y-133785592D01*
X124702965Y-133785461D01*
X124709580Y-133781210D01*
X125561080Y-132929710D01*
X125567840Y-132917330D01*
X125562113Y-132909680D01*
X125390958Y-132804795D01*
X125382163Y-132800313D01*
X125261683Y-132750409D01*
X125206402Y-132705861D01*
X125183981Y-132638497D01*
X125201539Y-132569706D01*
X125253501Y-132521328D01*
X125309901Y-132508000D01*
X128250673Y-132508000D01*
X128270058Y-132509500D01*
X128284859Y-132511805D01*
X128284862Y-132511805D01*
X128293731Y-132513186D01*
X128307770Y-132511350D01*
X128333989Y-132510675D01*
X128476584Y-132521897D01*
X128496112Y-132524990D01*
X128658713Y-132564027D01*
X128677513Y-132570136D01*
X128831998Y-132634127D01*
X128849613Y-132643102D01*
X128992183Y-132730468D01*
X129008179Y-132742090D01*
X129135331Y-132850688D01*
X129149312Y-132864669D01*
X129257910Y-132991821D01*
X129269532Y-133007817D01*
X129356898Y-133150387D01*
X129365873Y-133168002D01*
X129429864Y-133322487D01*
X129435973Y-133341287D01*
X129458080Y-133433369D01*
X129475010Y-133503887D01*
X129478103Y-133523416D01*
X129488774Y-133659012D01*
X129488133Y-133675880D01*
X129488305Y-133675882D01*
X129488195Y-133684858D01*
X129486814Y-133693729D01*
X129487978Y-133702631D01*
X129487978Y-133702634D01*
X129490936Y-133725250D01*
X129492000Y-133741588D01*
X129492000Y-139284567D01*
X129471998Y-139352688D01*
X129418342Y-139399181D01*
X129348068Y-139409285D01*
X129321770Y-139402549D01*
X129310316Y-139398255D01*
X129248134Y-139391500D01*
X127651866Y-139391500D01*
X127589684Y-139398255D01*
X127453295Y-139449385D01*
X127336739Y-139536739D01*
X127249385Y-139653295D01*
X127198255Y-139789684D01*
X127191500Y-139851866D01*
X127191500Y-142448134D01*
X127198255Y-142510316D01*
X127249385Y-142646705D01*
X127336739Y-142763261D01*
X127453295Y-142850615D01*
X127589684Y-142901745D01*
X127651866Y-142908500D01*
X129248134Y-142908500D01*
X129310316Y-142901745D01*
X129321770Y-142897451D01*
X129325149Y-142897204D01*
X129325400Y-142897144D01*
X129325410Y-142897185D01*
X129392577Y-142892268D01*
X129454946Y-142926188D01*
X129489075Y-142988443D01*
X129492000Y-143015433D01*
X129492000Y-144375971D01*
X129471998Y-144444092D01*
X129418342Y-144490585D01*
X129348068Y-144500689D01*
X129328321Y-144496205D01*
X129310387Y-144490585D01*
X129255062Y-144473247D01*
X129181635Y-144466500D01*
X129178737Y-144466500D01*
X128849140Y-144466501D01*
X128518366Y-144466501D01*
X128515508Y-144466764D01*
X128515499Y-144466764D01*
X128479996Y-144470026D01*
X128444938Y-144473247D01*
X128438560Y-144475246D01*
X128438559Y-144475246D01*
X128288550Y-144522256D01*
X128288548Y-144522257D01*
X128281301Y-144524528D01*
X128134619Y-144613361D01*
X128068385Y-144679595D01*
X128006073Y-144713621D01*
X127979290Y-144716500D01*
X124414943Y-144716500D01*
X124346822Y-144696498D01*
X124325848Y-144679595D01*
X121989137Y-142342884D01*
X121981147Y-142334104D01*
X121981145Y-142334102D01*
X121976898Y-142327409D01*
X121963383Y-142314717D01*
X121925225Y-142278885D01*
X121922383Y-142276130D01*
X121901815Y-142255562D01*
X121898308Y-142252842D01*
X121889286Y-142245136D01*
X121883693Y-142239884D01*
X121855615Y-142213517D01*
X121846489Y-142208500D01*
X121836824Y-142203186D01*
X121820300Y-142192332D01*
X121809614Y-142184044D01*
X121803350Y-142179185D01*
X121796078Y-142176038D01*
X121796076Y-142176037D01*
X121760947Y-142160835D01*
X121750287Y-142155613D01*
X121716766Y-142137184D01*
X121716764Y-142137183D01*
X121709819Y-142133365D01*
X121689041Y-142128030D01*
X121670351Y-142121631D01*
X121650658Y-142113109D01*
X121605034Y-142105883D01*
X121593411Y-142103476D01*
X121565410Y-142096287D01*
X121548670Y-142091989D01*
X121527223Y-142091989D01*
X121507513Y-142090438D01*
X121494159Y-142088323D01*
X121486330Y-142087083D01*
X121440341Y-142091430D01*
X121428486Y-142091989D01*
X117334500Y-142091989D01*
X117266379Y-142071987D01*
X117219886Y-142018331D01*
X117208500Y-141965989D01*
X117208500Y-140384011D01*
X117228502Y-140315890D01*
X117282158Y-140269397D01*
X117334500Y-140258011D01*
X121388433Y-140258011D01*
X121400289Y-140258570D01*
X121400292Y-140258570D01*
X121408026Y-140260299D01*
X121478858Y-140258073D01*
X121482816Y-140258011D01*
X121511921Y-140258011D01*
X121516321Y-140257455D01*
X121528153Y-140256523D01*
X121574320Y-140255073D01*
X121594910Y-140249091D01*
X121614271Y-140245081D01*
X121621259Y-140244199D01*
X121627693Y-140243386D01*
X121627694Y-140243386D01*
X121635553Y-140242393D01*
X121642918Y-140239477D01*
X121642922Y-140239476D01*
X121678510Y-140225385D01*
X121689720Y-140221546D01*
X121734089Y-140208656D01*
X121752554Y-140197736D01*
X121770294Y-140189045D01*
X121790245Y-140181146D01*
X121827618Y-140153993D01*
X121837537Y-140147478D01*
X121870466Y-140128004D01*
X121870470Y-140128001D01*
X121877296Y-140123964D01*
X121892460Y-140108800D01*
X121907494Y-140095959D01*
X121918432Y-140088012D01*
X121924846Y-140083352D01*
X121954292Y-140047758D01*
X121962281Y-140038979D01*
X122837505Y-139163755D01*
X122899817Y-139129729D01*
X122967933Y-139133822D01*
X123106271Y-139181861D01*
X123112206Y-139182722D01*
X123112208Y-139182722D01*
X123309664Y-139211352D01*
X123309667Y-139211352D01*
X123315604Y-139212213D01*
X123526899Y-139202433D01*
X123687389Y-139163755D01*
X123726701Y-139154281D01*
X123726703Y-139154280D01*
X123732534Y-139152875D01*
X123737992Y-139150393D01*
X123737996Y-139150392D01*
X123871336Y-139089765D01*
X123925087Y-139065326D01*
X124097611Y-138942946D01*
X124243881Y-138790150D01*
X124358620Y-138612452D01*
X124401846Y-138505195D01*
X124435442Y-138421832D01*
X124435443Y-138421829D01*
X124437686Y-138416263D01*
X124478228Y-138208663D01*
X124478500Y-138203101D01*
X124478500Y-137247154D01*
X124464598Y-137101445D01*
X124478039Y-137031733D01*
X124527037Y-136980354D01*
X124596033Y-136963621D01*
X124663123Y-136986847D01*
X124679123Y-137000383D01*
X124766080Y-137087340D01*
X124800106Y-137149652D01*
X124801997Y-137190183D01*
X124801772Y-137191337D01*
X124801500Y-137196899D01*
X124801500Y-138152846D01*
X124816548Y-138310566D01*
X124876092Y-138513534D01*
X124878836Y-138518861D01*
X124878836Y-138518862D01*
X124970057Y-138695978D01*
X124972942Y-138701580D01*
X125103604Y-138867920D01*
X125108135Y-138871852D01*
X125108138Y-138871855D01*
X125194058Y-138946412D01*
X125263363Y-139006552D01*
X125268549Y-139009552D01*
X125268553Y-139009555D01*
X125374217Y-139070683D01*
X125446454Y-139112473D01*
X125646271Y-139181861D01*
X125652206Y-139182722D01*
X125652208Y-139182722D01*
X125849664Y-139211352D01*
X125849667Y-139211352D01*
X125855604Y-139212213D01*
X126066899Y-139202433D01*
X126227389Y-139163755D01*
X126266701Y-139154281D01*
X126266703Y-139154280D01*
X126272534Y-139152875D01*
X126277992Y-139150393D01*
X126277996Y-139150392D01*
X126411336Y-139089765D01*
X126465087Y-139065326D01*
X126637611Y-138942946D01*
X126783881Y-138790150D01*
X126898620Y-138612452D01*
X126941846Y-138505195D01*
X126975442Y-138421832D01*
X126975443Y-138421829D01*
X126977686Y-138416263D01*
X127018228Y-138208663D01*
X127018500Y-138203101D01*
X127018500Y-137247154D01*
X127003452Y-137089434D01*
X126943908Y-136886466D01*
X126933591Y-136866434D01*
X126849804Y-136703751D01*
X126849802Y-136703748D01*
X126847058Y-136698420D01*
X126716396Y-136532080D01*
X126711865Y-136528148D01*
X126711862Y-136528145D01*
X126561167Y-136397379D01*
X126556637Y-136393448D01*
X126551451Y-136390448D01*
X126551447Y-136390445D01*
X126378742Y-136290533D01*
X126373546Y-136287527D01*
X126173729Y-136218139D01*
X126167794Y-136217278D01*
X126167792Y-136217278D01*
X125970336Y-136188648D01*
X125970333Y-136188648D01*
X125964396Y-136187787D01*
X125795037Y-136195626D01*
X125726064Y-136178795D01*
X125700116Y-136158856D01*
X125274227Y-135732967D01*
X125240201Y-135670655D01*
X125245266Y-135599840D01*
X125287813Y-135543004D01*
X125315105Y-135527463D01*
X125382159Y-135499689D01*
X125390958Y-135495205D01*
X125558445Y-135392568D01*
X125567907Y-135382110D01*
X125564124Y-135373334D01*
X124341922Y-134151132D01*
X125064408Y-134151132D01*
X125064539Y-134152965D01*
X125068790Y-134159580D01*
X125920290Y-135011080D01*
X125932670Y-135017840D01*
X125940320Y-135012113D01*
X126045205Y-134840958D01*
X126049687Y-134832163D01*
X126136734Y-134622012D01*
X126139783Y-134612627D01*
X126192885Y-134391446D01*
X126194428Y-134381699D01*
X126212275Y-134154930D01*
X126212275Y-134145070D01*
X126194428Y-133918301D01*
X126192885Y-133908554D01*
X126139783Y-133687373D01*
X126136734Y-133677988D01*
X126049687Y-133467837D01*
X126045205Y-133459042D01*
X125942568Y-133291555D01*
X125932110Y-133282093D01*
X125923334Y-133285876D01*
X125072022Y-134137188D01*
X125064408Y-134151132D01*
X124341922Y-134151132D01*
X123479710Y-133288920D01*
X123467330Y-133282160D01*
X123459680Y-133287887D01*
X123354795Y-133459042D01*
X123350313Y-133467837D01*
X123263266Y-133677988D01*
X123260217Y-133687373D01*
X123207115Y-133908554D01*
X123205572Y-133918301D01*
X123187725Y-134145070D01*
X123187725Y-134154930D01*
X123205572Y-134381699D01*
X123207115Y-134391446D01*
X123260217Y-134612627D01*
X123263266Y-134622012D01*
X123350313Y-134832163D01*
X123354795Y-134840958D01*
X123473643Y-135034899D01*
X123479448Y-135042890D01*
X123506154Y-135074158D01*
X123535186Y-135138947D01*
X123524581Y-135209147D01*
X123477707Y-135262470D01*
X123410344Y-135281989D01*
X121334500Y-135281989D01*
X121266379Y-135261987D01*
X121219886Y-135208331D01*
X121208500Y-135155989D01*
X121208500Y-133101866D01*
X121201745Y-133039684D01*
X121150615Y-132903295D01*
X121063261Y-132786739D01*
X121036611Y-132766766D01*
X120993994Y-132734826D01*
X120951479Y-132677967D01*
X120946453Y-132607148D01*
X120980513Y-132544855D01*
X121042845Y-132510865D01*
X121069559Y-132508000D01*
X124090099Y-132508000D01*
X124158220Y-132528002D01*
G37*
%TD.AperFunction*%
%TA.AperFunction,Conductor*%
G36*
X83669476Y-133753982D02*
G01*
X83715969Y-133807638D01*
X83726073Y-133877912D01*
X83696579Y-133942492D01*
X83690450Y-133949075D01*
X79663180Y-137976345D01*
X79654400Y-137984335D01*
X79654398Y-137984337D01*
X79647705Y-137988584D01*
X79599185Y-138040253D01*
X79596430Y-138043095D01*
X79575858Y-138063667D01*
X79573141Y-138067170D01*
X79565433Y-138076195D01*
X79533813Y-138109867D01*
X79529992Y-138116818D01*
X79529991Y-138116819D01*
X79523482Y-138128658D01*
X79512628Y-138145182D01*
X79506684Y-138152846D01*
X79499481Y-138162132D01*
X79496334Y-138169404D01*
X79496333Y-138169406D01*
X79481131Y-138204535D01*
X79475911Y-138215190D01*
X79469861Y-138226196D01*
X79419518Y-138276257D01*
X79359444Y-138291500D01*
X79022651Y-138291500D01*
X78960469Y-138298255D01*
X78824080Y-138349385D01*
X78707524Y-138436739D01*
X78620170Y-138553295D01*
X78569040Y-138689684D01*
X78562285Y-138751866D01*
X78562285Y-140848134D01*
X78569040Y-140910316D01*
X78620170Y-141046705D01*
X78707524Y-141163261D01*
X78824080Y-141250615D01*
X78960469Y-141301745D01*
X79022651Y-141308500D01*
X81118919Y-141308500D01*
X81181101Y-141301745D01*
X81317490Y-141250615D01*
X81434046Y-141163261D01*
X81521400Y-141046705D01*
X81572530Y-140910316D01*
X81579285Y-140848134D01*
X81579285Y-138751866D01*
X81572530Y-138689684D01*
X81521400Y-138553295D01*
X81434046Y-138436739D01*
X81339566Y-138365930D01*
X81297051Y-138309071D01*
X81292025Y-138238252D01*
X81326036Y-138176009D01*
X83526405Y-135975640D01*
X83588717Y-135941614D01*
X83659532Y-135946679D01*
X83716368Y-135989226D01*
X83741179Y-136055746D01*
X83741500Y-136064735D01*
X83741500Y-136591502D01*
X83741693Y-136593950D01*
X83741693Y-136593958D01*
X83743923Y-136622285D01*
X83744438Y-136628831D01*
X83767095Y-136706819D01*
X83787938Y-136778559D01*
X83790855Y-136788601D01*
X83799578Y-136803350D01*
X83873953Y-136929112D01*
X83891500Y-136993251D01*
X83891500Y-137492944D01*
X83890941Y-137504800D01*
X83889212Y-137512537D01*
X83889461Y-137520459D01*
X83891438Y-137583369D01*
X83891500Y-137587327D01*
X83891500Y-137616432D01*
X83892056Y-137620832D01*
X83892988Y-137632664D01*
X83894438Y-137678831D01*
X83896650Y-137686444D01*
X83896650Y-137686445D01*
X83900419Y-137699416D01*
X83904430Y-137718782D01*
X83907118Y-137740064D01*
X83910034Y-137747429D01*
X83910035Y-137747433D01*
X83924126Y-137783021D01*
X83927965Y-137794231D01*
X83940855Y-137838600D01*
X83946395Y-137847967D01*
X83948954Y-137852294D01*
X83966500Y-137916433D01*
X83966501Y-138072835D01*
X83966501Y-138231634D01*
X83966764Y-138234492D01*
X83966764Y-138234501D01*
X83969571Y-138265050D01*
X83973247Y-138305062D01*
X83975246Y-138311440D01*
X83975246Y-138311441D01*
X84021616Y-138459406D01*
X84024528Y-138468699D01*
X84113361Y-138615381D01*
X84179595Y-138681615D01*
X84213621Y-138743927D01*
X84216500Y-138770710D01*
X84216500Y-138844257D01*
X84198276Y-138909527D01*
X84124528Y-139031301D01*
X84122257Y-139038548D01*
X84122256Y-139038550D01*
X84114669Y-139062760D01*
X84073247Y-139194938D01*
X84066500Y-139268365D01*
X84066501Y-139931634D01*
X84066764Y-139934492D01*
X84066764Y-139934501D01*
X84068155Y-139949640D01*
X84073247Y-140005062D01*
X84075246Y-140011440D01*
X84075246Y-140011441D01*
X84117878Y-140147478D01*
X84124528Y-140168699D01*
X84213361Y-140315381D01*
X84334619Y-140436639D01*
X84481301Y-140525472D01*
X84488548Y-140527743D01*
X84488550Y-140527744D01*
X84524025Y-140538861D01*
X84644938Y-140576753D01*
X84718365Y-140583500D01*
X84721263Y-140583500D01*
X84975665Y-140583499D01*
X85231634Y-140583499D01*
X85234492Y-140583236D01*
X85234501Y-140583236D01*
X85270004Y-140579974D01*
X85305062Y-140576753D01*
X85328031Y-140569555D01*
X85461450Y-140527744D01*
X85461452Y-140527743D01*
X85468699Y-140525472D01*
X85615381Y-140436639D01*
X85710905Y-140341115D01*
X85773217Y-140307089D01*
X85844032Y-140312154D01*
X85889095Y-140341115D01*
X85984619Y-140436639D01*
X86131301Y-140525472D01*
X86146061Y-140530097D01*
X86205082Y-140569555D01*
X86233402Y-140634659D01*
X86222028Y-140704739D01*
X86172518Y-140758785D01*
X86150325Y-140771909D01*
X86137896Y-140781551D01*
X86031551Y-140887896D01*
X86021911Y-140900322D01*
X85945352Y-141029779D01*
X85939107Y-141044210D01*
X85900061Y-141178605D01*
X85900101Y-141192706D01*
X85907370Y-141196000D01*
X87265500Y-141196000D01*
X87333621Y-141216002D01*
X87380114Y-141269658D01*
X87391500Y-141322000D01*
X87391500Y-142239884D01*
X87395975Y-142255123D01*
X87397365Y-142256328D01*
X87405048Y-142257999D01*
X87788984Y-142257999D01*
X87793920Y-142257805D01*
X87822336Y-142255570D01*
X87834934Y-142253269D01*
X87920347Y-142228454D01*
X87991343Y-142228657D01*
X88050959Y-142267210D01*
X88080268Y-142331875D01*
X88081500Y-142349451D01*
X88081500Y-142450029D01*
X88061498Y-142518150D01*
X88007842Y-142564643D01*
X87937568Y-142574747D01*
X87920353Y-142571027D01*
X87884156Y-142560511D01*
X87835008Y-142546232D01*
X87835003Y-142546231D01*
X87828831Y-142544438D01*
X87822426Y-142543934D01*
X87822421Y-142543933D01*
X87793958Y-142541693D01*
X87793950Y-142541693D01*
X87791502Y-142541500D01*
X86634500Y-142541500D01*
X86566379Y-142521498D01*
X86519886Y-142467842D01*
X86508500Y-142415500D01*
X86508500Y-142384000D01*
X86528502Y-142315879D01*
X86582158Y-142269386D01*
X86634500Y-142258000D01*
X86865385Y-142258000D01*
X86880624Y-142253525D01*
X86881829Y-142252135D01*
X86883500Y-142244452D01*
X86883500Y-141722115D01*
X86879025Y-141706876D01*
X86877635Y-141705671D01*
X86869952Y-141704000D01*
X86254842Y-141704000D01*
X86190703Y-141686453D01*
X86120427Y-141644892D01*
X86120428Y-141644892D01*
X86113601Y-141640855D01*
X86105990Y-141638644D01*
X86105988Y-141638643D01*
X86032306Y-141617237D01*
X85953831Y-141594438D01*
X85947426Y-141593934D01*
X85947421Y-141593933D01*
X85918958Y-141591693D01*
X85918950Y-141591693D01*
X85916502Y-141591500D01*
X84608498Y-141591500D01*
X84606050Y-141591693D01*
X84606042Y-141591693D01*
X84577579Y-141593933D01*
X84577574Y-141593934D01*
X84571169Y-141594438D01*
X84492694Y-141617237D01*
X84419012Y-141638643D01*
X84419010Y-141638644D01*
X84411399Y-141640855D01*
X84404572Y-141644892D01*
X84404573Y-141644892D01*
X84270888Y-141723953D01*
X84206749Y-141741500D01*
X77995734Y-141741500D01*
X77927613Y-141721498D01*
X77906639Y-141704595D01*
X76551994Y-140349949D01*
X76517968Y-140287637D01*
X76518570Y-140231440D01*
X76564165Y-140041524D01*
X76564166Y-140041518D01*
X76565320Y-140036711D01*
X76583950Y-139800000D01*
X76565320Y-139563289D01*
X76562897Y-139553193D01*
X76519721Y-139373355D01*
X76509890Y-139332406D01*
X76478506Y-139256638D01*
X76420920Y-139117611D01*
X76420918Y-139117607D01*
X76419025Y-139113037D01*
X76416439Y-139108817D01*
X76297544Y-138914798D01*
X76297540Y-138914792D01*
X76294961Y-138910584D01*
X76152622Y-138743927D01*
X76143962Y-138733787D01*
X76140754Y-138730031D01*
X75960201Y-138575824D01*
X75955993Y-138573245D01*
X75955987Y-138573241D01*
X75761968Y-138454346D01*
X75757748Y-138451760D01*
X75753178Y-138449867D01*
X75753174Y-138449865D01*
X75542952Y-138362789D01*
X75542950Y-138362788D01*
X75538379Y-138360895D01*
X75430802Y-138335068D01*
X75312309Y-138306620D01*
X75312303Y-138306619D01*
X75307496Y-138305465D01*
X75070785Y-138286835D01*
X74834074Y-138305465D01*
X74829260Y-138306621D01*
X74826562Y-138307048D01*
X74756151Y-138297949D01*
X74701837Y-138252227D01*
X74680864Y-138184399D01*
X74699891Y-138115999D01*
X74717756Y-138093504D01*
X79040375Y-133770885D01*
X79102687Y-133736859D01*
X79129470Y-133733980D01*
X83601355Y-133733980D01*
X83669476Y-133753982D01*
G37*
%TD.AperFunction*%
%TA.AperFunction,Conductor*%
G36*
X119801214Y-136618991D02*
G01*
X119847707Y-136672647D01*
X119857811Y-136742921D01*
X119844961Y-136782969D01*
X119839581Y-136793348D01*
X119765039Y-136978312D01*
X119761645Y-136989770D01*
X119723143Y-137186928D01*
X119722066Y-137195791D01*
X119722000Y-137198500D01*
X119722000Y-137427885D01*
X119726475Y-137443124D01*
X119727865Y-137444329D01*
X119735548Y-137446000D01*
X121919885Y-137446000D01*
X121935124Y-137441525D01*
X121936329Y-137440135D01*
X121938000Y-137432452D01*
X121938000Y-137250168D01*
X121937715Y-137244192D01*
X121923529Y-137095506D01*
X121921270Y-137083772D01*
X121865128Y-136892401D01*
X121860698Y-136881325D01*
X121809893Y-136782681D01*
X121796484Y-136712962D01*
X121822897Y-136647062D01*
X121880746Y-136605903D01*
X121921909Y-136598989D01*
X122272528Y-136598989D01*
X122340649Y-136618991D01*
X122387142Y-136672647D01*
X122397246Y-136742921D01*
X122384451Y-136782792D01*
X122381380Y-136787548D01*
X122379138Y-136793110D01*
X122379138Y-136793111D01*
X122306721Y-136972803D01*
X122302314Y-136983737D01*
X122261772Y-137191337D01*
X122261500Y-137196899D01*
X122261500Y-137825051D01*
X122241498Y-137893172D01*
X122224595Y-137914146D01*
X122140055Y-137998686D01*
X122077743Y-138032712D01*
X122006928Y-138027647D01*
X121950092Y-137985100D01*
X121937832Y-137960608D01*
X121932135Y-137955671D01*
X121924452Y-137954000D01*
X119740115Y-137954000D01*
X119724876Y-137958475D01*
X119723671Y-137959865D01*
X119722000Y-137967548D01*
X119722000Y-138149832D01*
X119722285Y-138155808D01*
X119736471Y-138304494D01*
X119738730Y-138316228D01*
X119794872Y-138507599D01*
X119799302Y-138518675D01*
X119890619Y-138695978D01*
X119897068Y-138706023D01*
X119921541Y-138737179D01*
X119947890Y-138803105D01*
X119934415Y-138872811D01*
X119885393Y-138924166D01*
X119822454Y-138941011D01*
X119297812Y-138941011D01*
X119229691Y-138921009D01*
X119183198Y-138867353D01*
X119173094Y-138797079D01*
X119191961Y-138746663D01*
X119275363Y-138617497D01*
X119275365Y-138617493D01*
X119278620Y-138612452D01*
X119321846Y-138505195D01*
X119355442Y-138421832D01*
X119355443Y-138421829D01*
X119357686Y-138416263D01*
X119398228Y-138208663D01*
X119398500Y-138203101D01*
X119398500Y-137247154D01*
X119383452Y-137089434D01*
X119323908Y-136886466D01*
X119270455Y-136782680D01*
X119257046Y-136712962D01*
X119283459Y-136647062D01*
X119341307Y-136605903D01*
X119382471Y-136598989D01*
X119733093Y-136598989D01*
X119801214Y-136618991D01*
G37*
%TD.AperFunction*%
%TA.AperFunction,Conductor*%
G36*
X100173960Y-134470423D02*
G01*
X100219195Y-134522627D01*
X100268186Y-134627689D01*
X100268189Y-134627694D01*
X100270512Y-134632676D01*
X100273668Y-134637183D01*
X100273669Y-134637185D01*
X100380883Y-134790302D01*
X100398023Y-134814781D01*
X100555219Y-134971977D01*
X100559727Y-134975134D01*
X100559730Y-134975136D01*
X100597382Y-135001500D01*
X100737323Y-135099488D01*
X100742305Y-135101811D01*
X100742310Y-135101814D01*
X100929784Y-135189234D01*
X100938804Y-135193440D01*
X100944112Y-135194862D01*
X100944114Y-135194863D01*
X100997423Y-135209147D01*
X101153537Y-135250978D01*
X101375000Y-135270353D01*
X101596463Y-135250978D01*
X101752577Y-135209147D01*
X101805886Y-135194863D01*
X101805888Y-135194862D01*
X101811196Y-135193440D01*
X101816178Y-135191117D01*
X101821351Y-135189234D01*
X101822143Y-135191410D01*
X101882551Y-135182228D01*
X101947367Y-135211201D01*
X101986230Y-135270617D01*
X101986801Y-135341611D01*
X101980730Y-135358335D01*
X101978777Y-135362721D01*
X101975473Y-135368444D01*
X101916458Y-135550072D01*
X101915768Y-135556633D01*
X101915768Y-135556635D01*
X101905423Y-135655062D01*
X101896496Y-135740000D01*
X101916458Y-135929928D01*
X101975473Y-136111556D01*
X101978776Y-136117278D01*
X101978777Y-136117279D01*
X102029967Y-136205942D01*
X102046705Y-136274937D01*
X102023485Y-136342029D01*
X102009943Y-136358037D01*
X101918741Y-136449239D01*
X101856429Y-136483265D01*
X101785614Y-136478200D01*
X101740551Y-136449239D01*
X101650443Y-136359131D01*
X101638574Y-136349824D01*
X101504988Y-136268921D01*
X101491243Y-136262715D01*
X101341356Y-136215744D01*
X101328306Y-136213131D01*
X101273414Y-136208087D01*
X101261876Y-136211475D01*
X101260671Y-136212865D01*
X101259000Y-136220548D01*
X101259000Y-137318000D01*
X101238998Y-137386121D01*
X101185342Y-137432614D01*
X101133000Y-137444000D01*
X100115115Y-137444000D01*
X100088396Y-137451845D01*
X100017399Y-137451845D01*
X99963804Y-137420044D01*
X99530405Y-136986645D01*
X99496379Y-136924333D01*
X99495686Y-136917885D01*
X100097000Y-136917885D01*
X100101475Y-136933124D01*
X100102865Y-136934329D01*
X100110548Y-136936000D01*
X100732885Y-136936000D01*
X100748124Y-136931525D01*
X100749329Y-136930135D01*
X100751000Y-136922452D01*
X100751000Y-136225116D01*
X100746525Y-136209877D01*
X100745135Y-136208672D01*
X100740706Y-136207709D01*
X100681685Y-136213132D01*
X100668649Y-136215743D01*
X100518757Y-136262715D01*
X100505012Y-136268921D01*
X100371426Y-136349824D01*
X100359557Y-136359131D01*
X100249131Y-136469557D01*
X100239824Y-136481426D01*
X100158921Y-136615012D01*
X100152715Y-136628757D01*
X100105744Y-136778644D01*
X100103131Y-136791694D01*
X100097266Y-136855521D01*
X100097000Y-136861309D01*
X100097000Y-136917885D01*
X99495686Y-136917885D01*
X99493500Y-136897550D01*
X99493500Y-135150499D01*
X99513502Y-135082378D01*
X99547229Y-135047286D01*
X99564920Y-135034899D01*
X99654781Y-134971977D01*
X99811977Y-134814781D01*
X99829118Y-134790302D01*
X99936331Y-134637185D01*
X99936332Y-134637183D01*
X99939488Y-134632676D01*
X99941811Y-134627694D01*
X99941814Y-134627689D01*
X99990805Y-134522627D01*
X100037723Y-134469342D01*
X100106000Y-134449881D01*
X100173960Y-134470423D01*
G37*
%TD.AperFunction*%
%TA.AperFunction,Conductor*%
G36*
X95392710Y-132528002D02*
G01*
X95439203Y-132581658D01*
X95449307Y-132651932D01*
X95419813Y-132716512D01*
X95368819Y-132751982D01*
X95294946Y-132779676D01*
X95279351Y-132788214D01*
X95177276Y-132864715D01*
X95164715Y-132877276D01*
X95088214Y-132979351D01*
X95079676Y-132994946D01*
X95034522Y-133115394D01*
X95030895Y-133130649D01*
X95025369Y-133181514D01*
X95025000Y-133188328D01*
X95025000Y-133494556D01*
X95004998Y-133562677D01*
X94951342Y-133609170D01*
X94881068Y-133619274D01*
X94816488Y-133589780D01*
X94809905Y-133583651D01*
X94198649Y-132972395D01*
X94190659Y-132963615D01*
X94190657Y-132963613D01*
X94186410Y-132956920D01*
X94134736Y-132908395D01*
X94131895Y-132905641D01*
X94111327Y-132885073D01*
X94107820Y-132882353D01*
X94098798Y-132874647D01*
X94065127Y-132843028D01*
X94058175Y-132839206D01*
X94046336Y-132832697D01*
X94029812Y-132821843D01*
X94019126Y-132813555D01*
X94012862Y-132808696D01*
X94005590Y-132805549D01*
X94005588Y-132805548D01*
X93970459Y-132790346D01*
X93959799Y-132785124D01*
X93926278Y-132766695D01*
X93926276Y-132766694D01*
X93919331Y-132762876D01*
X93898553Y-132757541D01*
X93879849Y-132751136D01*
X93876374Y-132749632D01*
X93821804Y-132704216D01*
X93800451Y-132636507D01*
X93819094Y-132568001D01*
X93871814Y-132520450D01*
X93926426Y-132508000D01*
X95324589Y-132508000D01*
X95392710Y-132528002D01*
G37*
%TD.AperFunction*%
%TA.AperFunction,Conductor*%
G36*
X101126778Y-132528002D02*
G01*
X101173271Y-132581658D01*
X101183375Y-132651932D01*
X101153881Y-132716512D01*
X101091268Y-132755707D01*
X100944114Y-132795137D01*
X100944112Y-132795138D01*
X100938804Y-132796560D01*
X100933823Y-132798882D01*
X100933822Y-132798883D01*
X100742311Y-132888186D01*
X100742306Y-132888189D01*
X100737324Y-132890512D01*
X100732817Y-132893668D01*
X100732815Y-132893669D01*
X100559730Y-133014864D01*
X100559727Y-133014866D01*
X100555219Y-133018023D01*
X100398023Y-133175219D01*
X100394866Y-133179727D01*
X100394864Y-133179730D01*
X100273669Y-133352815D01*
X100270512Y-133357324D01*
X100268189Y-133362306D01*
X100268186Y-133362311D01*
X100219195Y-133467373D01*
X100172277Y-133520658D01*
X100104000Y-133540119D01*
X100036040Y-133519577D01*
X99990805Y-133467373D01*
X99941814Y-133362311D01*
X99941811Y-133362306D01*
X99939488Y-133357324D01*
X99936331Y-133352815D01*
X99815136Y-133179730D01*
X99815134Y-133179727D01*
X99811977Y-133175219D01*
X99654781Y-133018023D01*
X99650273Y-133014866D01*
X99650270Y-133014864D01*
X99512986Y-132918737D01*
X99472677Y-132890512D01*
X99467695Y-132888189D01*
X99467690Y-132888186D01*
X99276178Y-132798883D01*
X99276177Y-132798882D01*
X99271196Y-132796560D01*
X99265888Y-132795138D01*
X99265886Y-132795137D01*
X99118732Y-132755707D01*
X99058109Y-132718755D01*
X99027088Y-132654894D01*
X99035516Y-132584400D01*
X99080719Y-132529653D01*
X99151343Y-132508000D01*
X101058657Y-132508000D01*
X101126778Y-132528002D01*
G37*
%TD.AperFunction*%
%TA.AperFunction,Conductor*%
G36*
X98586778Y-132528002D02*
G01*
X98633271Y-132581658D01*
X98643375Y-132651932D01*
X98613881Y-132716512D01*
X98551268Y-132755707D01*
X98404114Y-132795137D01*
X98404112Y-132795138D01*
X98398804Y-132796560D01*
X98393823Y-132798882D01*
X98393822Y-132798883D01*
X98202311Y-132888186D01*
X98202306Y-132888189D01*
X98197324Y-132890512D01*
X98192817Y-132893668D01*
X98192815Y-132893669D01*
X98019730Y-133014864D01*
X98019727Y-133014866D01*
X98015219Y-133018023D01*
X97858023Y-133175219D01*
X97854865Y-133179729D01*
X97854860Y-133179735D01*
X97794212Y-133266350D01*
X97738755Y-133310679D01*
X97668136Y-133317988D01*
X97604775Y-133285958D01*
X97568790Y-133224756D01*
X97564999Y-133194080D01*
X97564999Y-133188331D01*
X97564629Y-133181510D01*
X97559105Y-133130648D01*
X97555479Y-133115396D01*
X97510324Y-132994946D01*
X97501786Y-132979351D01*
X97425285Y-132877276D01*
X97412724Y-132864715D01*
X97310649Y-132788214D01*
X97295054Y-132779676D01*
X97221181Y-132751982D01*
X97164417Y-132709340D01*
X97139717Y-132642779D01*
X97154925Y-132573430D01*
X97205211Y-132523312D01*
X97265411Y-132508000D01*
X98518657Y-132508000D01*
X98586778Y-132528002D01*
G37*
%TD.AperFunction*%
%TD*%
M02*
